G04 Filename: C:\job\davidwalsh\52931\mask_1 *
G04 Creator: GC-CAM (TM) 4.1.4  Wed Oct 29 17:33:21 2014 *
G04 This file contains layer(s): *
G04 Layer 4: C:\JOB\DAVIDWALSH\52931\UNIADAPTER.RBS *
%FSLAX35Y35*%
G04 Units: mm   *
%MOMM*%
G71*
%SFA1.00000B1.00000*%
%OFA0.00000B0.00000*%
G75*
%AD*%
G04 D919 (position 18 of UNTITLED):2.151380X1.351280 Rectangle *
%ADD919R,2.151380X1.351280*%
G04 D920 (position 19 of UNTITLED):0.431800X1.625600 Rectangle *
%ADD920R,0.431800X1.625600*%
G04 D921 (position 20 of UNTITLED):1.625600X0.431800 Rectangle *
%ADD921R,1.625600X0.431800*%
G04 D926 (position 21 of UNTITLED):2.159000X1.651000 Rectangle *
%ADD926R,2.159000X1.651000*%
G04 D927 (position 22 of UNTITLED):2.159000X3.962400 Rectangle *
%ADD927R,2.159000X3.962400*%
G04 D928 (position 23 of UNTITLED):1.153160X1.252220 Rectangle *
%ADD928R,1.153160X1.252220*%
G04 D935 (position 24 of UNTITLED):1.252220X1.153160 Rectangle *
%ADD935R,1.252220X1.153160*%
G04 D936 (position 25 of UNTITLED):2.133600X0.711200 Rectangle *
%ADD936R,2.133600X0.711200*%
G04 D937 (position 26 of UNTITLED):1.701800X0.751840 Rectangle *
%ADD937R,1.701800X0.751840*%
G04 D938 (position 27 of UNTITLED):1.953260X1.351280 Rectangle *
%ADD938R,1.953260X1.351280*%
G04 D939 (position 28 of UNTITLED):0.952500 Square    *
%ADD939R,0.952500X0.952500*%
G04 D21 (position 29 of UNTITLED):0.756920 Round     *
%ADD21C,0.756920*%
G04 D930 (position 34 of UNTITLED):0.100000 Round     *
%ADD930C,0.100000*%
G04 D944 (position 37 of UNTITLED):3.000000 Round     *
%ADD944C,3.000000*%
G04 D945 (position 38 of UNTITLED):3.000000X3.000000 Rectangle *
%ADD945R,3.000000X3.000000*%
%IPPOS*%
G04 Layer 4: C:\JOB\DAVIDWALSH\52931\UNIADAPTER.RBS *
%LN(04)C:\JOB\DAVIDWALSH\52931\UNIADAPTER.RBS*%
%LPD*%
X0Y0D02*
D930*
X-20399980Y-9000002D02*
X-17399986D01*
Y-6899930*
X-20399980*
Y-9000002*
X-17199986D02*
X-14199992D01*
Y-6899930*
X-17199986*
Y-9000002*
X-13999992D02*
X-10999998D01*
Y-6899930*
X-13999992*
Y-9000002*
Y-6699932D02*
X-10999998D01*
Y-4599860*
X-13999992*
Y-6699932*
X-17199986D02*
X-14199992D01*
Y-4599860*
X-17199986*
Y-6699932*
X-20399980D02*
X-17399986D01*
Y-4599860*
X-20399980*
Y-6699932*
Y-4399862D02*
X-17399986D01*
Y-2299790*
X-20399980*
Y-4399862*
X-17199986D02*
X-14199992D01*
Y-2299790*
X-17199986*
Y-4399862*
X-13999992D02*
X-10999998D01*
Y-2299790*
X-13999992*
Y-4399862*
Y-2099792D02*
X-10999998D01*
Y280*
X-13999992*
Y-2099792*
X-17199986D02*
X-14199992D01*
Y280*
X-17199986*
Y-2099792*
X-20399980D02*
X-17399986D01*
Y280*
X-20399980*
Y-2099792*
Y200278D02*
X-17399986D01*
Y2300350*
X-20399980*
Y200278*
X-17199986D02*
X-14199992D01*
Y2300350*
X-17199986*
Y200278*
X-13999992D02*
X-10999998D01*
Y2300350*
X-13999992*
Y200278*
D919*
X-20090100Y-8800104D03*
X-19809938D03*
X-20042348Y-7882402D03*
X-19762440D03*
D920*
X-18525460Y-7816362D03*
X-18573720D03*
X-18624520D03*
X-18675320D03*
X-18723580D03*
X-18774380D03*
X-18825180D03*
X-18875980D03*
X-18924240D03*
X-18975040D03*
X-19025840D03*
X-19074100D03*
Y-8659642D03*
X-19025840D03*
X-18975040D03*
X-18924240D03*
X-18875980D03*
X-18825180D03*
X-18774380D03*
X-18723580D03*
X-18675320D03*
X-18624520D03*
X-18573720D03*
X-18525460D03*
D921*
X-19221420Y-7963682D03*
Y-8011942D03*
Y-8062742D03*
Y-8113542D03*
Y-8161802D03*
Y-8212602D03*
Y-8263402D03*
Y-8314202D03*
Y-8362462D03*
Y-8413262D03*
Y-8464062D03*
Y-8512322D03*
X-18378140D03*
Y-8464062D03*
Y-8413262D03*
Y-8362462D03*
Y-8314202D03*
Y-8263402D03*
Y-8212602D03*
Y-8161802D03*
Y-8113542D03*
Y-8062742D03*
Y-8011942D03*
Y-7963682D03*
D926*
X-20206940Y-8113542D03*
Y-8342142D03*
Y-8570742D03*
D927*
X-19577020Y-8339602D03*
D928*
X-18370520Y-7828300D03*
Y-7658374D03*
X-18787080Y-7370592D03*
Y-7200412D03*
X-18378140Y-8869192D03*
Y-8699012D03*
X-19413952Y-8686312D03*
Y-8856492D03*
X-18964880Y-7370592D03*
Y-7200412D03*
X-19210752Y-8686312D03*
Y-8856492D03*
D935*
X-18537144Y-8873002D03*
X-18707070D03*
X-18251140Y-7370592D03*
Y-7200412D03*
X-18606740D03*
Y-7370592D03*
X-18428940Y-7200412D03*
Y-7370592D03*
X-19142680D03*
Y-7200412D03*
X-19320480Y-7370592D03*
Y-7200412D03*
D936*
X-19703766Y-7640594D03*
Y-7513594D03*
Y-7386594D03*
Y-7259594D03*
X-20196526D03*
Y-7386594D03*
Y-7513594D03*
Y-7640594D03*
D937*
X-17929068Y-8160786D03*
Y-8060710D03*
Y-7960888D03*
Y-8769878D03*
Y-8669802D03*
Y-8569726D03*
Y-7536454D03*
Y-7436632D03*
Y-7336556D03*
Y-7236480D03*
Y-7136658D03*
D938*
X-17541464Y-8290834D03*
Y-7830840D03*
Y-8899926D03*
Y-8439932D03*
Y-7666502D03*
Y-7006610D03*
D939*
X-19460180Y-7817632D03*
Y-7667772D03*
X-19295080Y-7817632D03*
Y-7667772D03*
D21*
X-19904680Y-8466602D03*
X-18901380Y-7996702D03*
X-19041080Y-8365002D03*
X-20247580Y-7882402D03*
X-19554160Y-7387102D03*
X-17758380Y-7234702D03*
X-18571180Y-7958602D03*
X-18263840Y-8860302D03*
X-19307780Y-8682502D03*
X-19041080Y-7958602D03*
X-18606740Y-7105162D03*
X-18939480Y-8314202D03*
X-20133280Y-7133102D03*
X-18939480Y-8225302D03*
X-19866580Y-7641102D03*
X-20044380Y-7387102D03*
Y-7514102D03*
X-19536380Y-7958602D03*
X-18787080Y-8072902D03*
D921*
X-19221420Y-7991942D03*
Y-8042742D03*
Y-8093542D03*
Y-8141802D03*
Y-8192602D03*
Y-8243402D03*
Y-8294202D03*
Y-8342462D03*
Y-8393262D03*
Y-8444062D03*
Y-8492322D03*
X-18378140D03*
Y-8444062D03*
Y-8393262D03*
Y-8342462D03*
Y-8294202D03*
Y-8243402D03*
Y-8192602D03*
Y-8141802D03*
Y-8093542D03*
Y-8042742D03*
Y-7991942D03*
D920*
X-18553720Y-7816362D03*
X-18604520D03*
X-18655320D03*
X-18703580D03*
X-18754380D03*
X-18805180D03*
X-18855980D03*
X-18904240D03*
X-18955040D03*
X-19005840D03*
X-19054100D03*
Y-8659642D03*
X-19005840D03*
X-18955040D03*
X-18904240D03*
X-18855980D03*
X-18805180D03*
X-18754380D03*
X-18703580D03*
X-18655320D03*
X-18604520D03*
X-18553720D03*
D919*
X-16890106Y-8800104D03*
X-16609944D03*
X-16842354Y-7882402D03*
X-16562446D03*
D920*
X-15325466Y-7816362D03*
X-15373726D03*
X-15424526D03*
X-15475326D03*
X-15523586D03*
X-15574386D03*
X-15625186D03*
X-15675986D03*
X-15724246D03*
X-15775046D03*
X-15825846D03*
X-15874106D03*
Y-8659642D03*
X-15825846D03*
X-15775046D03*
X-15724246D03*
X-15675986D03*
X-15625186D03*
X-15574386D03*
X-15523586D03*
X-15475326D03*
X-15424526D03*
X-15373726D03*
X-15325466D03*
D921*
X-16021426Y-7963682D03*
Y-8011942D03*
Y-8062742D03*
Y-8113542D03*
Y-8161802D03*
Y-8212602D03*
Y-8263402D03*
Y-8314202D03*
Y-8362462D03*
Y-8413262D03*
Y-8464062D03*
Y-8512322D03*
X-15178146D03*
Y-8464062D03*
Y-8413262D03*
Y-8362462D03*
Y-8314202D03*
Y-8263402D03*
Y-8212602D03*
Y-8161802D03*
Y-8113542D03*
Y-8062742D03*
Y-8011942D03*
Y-7963682D03*
D926*
X-17006946Y-8113542D03*
Y-8342142D03*
Y-8570742D03*
D927*
X-16377026Y-8339602D03*
D928*
X-15170526Y-7828300D03*
Y-7658374D03*
X-15587086Y-7370592D03*
Y-7200412D03*
X-15178146Y-8869192D03*
Y-8699012D03*
X-16213958Y-8686312D03*
Y-8856492D03*
X-15764886Y-7370592D03*
Y-7200412D03*
X-16010758Y-8686312D03*
Y-8856492D03*
D935*
X-15337150Y-8873002D03*
X-15507076D03*
X-15051146Y-7370592D03*
Y-7200412D03*
X-15406746D03*
Y-7370592D03*
X-15228946Y-7200412D03*
Y-7370592D03*
X-15942686D03*
Y-7200412D03*
X-16120486Y-7370592D03*
Y-7200412D03*
D936*
X-16503772Y-7640594D03*
Y-7513594D03*
Y-7386594D03*
Y-7259594D03*
X-16996532D03*
Y-7386594D03*
Y-7513594D03*
Y-7640594D03*
D937*
X-14729074Y-8160786D03*
Y-8060710D03*
Y-7960888D03*
Y-8769878D03*
Y-8669802D03*
Y-8569726D03*
Y-7536454D03*
Y-7436632D03*
Y-7336556D03*
Y-7236480D03*
Y-7136658D03*
D938*
X-14341470Y-8290834D03*
Y-7830840D03*
Y-8899926D03*
Y-8439932D03*
Y-7666502D03*
Y-7006610D03*
D939*
X-16260186Y-7817632D03*
Y-7667772D03*
X-16095086Y-7817632D03*
Y-7667772D03*
D21*
X-16704686Y-8466602D03*
X-15701386Y-7996702D03*
X-15841086Y-8365002D03*
X-17047586Y-7882402D03*
X-16354166Y-7387102D03*
X-14558386Y-7234702D03*
X-15371186Y-7958602D03*
X-15063846Y-8860302D03*
X-16107786Y-8682502D03*
X-15841086Y-7958602D03*
X-15406746Y-7105162D03*
X-15739486Y-8314202D03*
X-16933286Y-7133102D03*
X-15739486Y-8225302D03*
X-16666586Y-7641102D03*
X-16844386Y-7387102D03*
Y-7514102D03*
X-16336386Y-7958602D03*
X-15587086Y-8072902D03*
D921*
X-16021426Y-7991942D03*
Y-8042742D03*
Y-8093542D03*
Y-8141802D03*
Y-8192602D03*
Y-8243402D03*
Y-8294202D03*
Y-8342462D03*
Y-8393262D03*
Y-8444062D03*
Y-8492322D03*
X-15178146D03*
Y-8444062D03*
Y-8393262D03*
Y-8342462D03*
Y-8294202D03*
Y-8243402D03*
Y-8192602D03*
Y-8141802D03*
Y-8093542D03*
Y-8042742D03*
Y-7991942D03*
D920*
X-15353726Y-7816362D03*
X-15404526D03*
X-15455326D03*
X-15503586D03*
X-15554386D03*
X-15605186D03*
X-15655986D03*
X-15704246D03*
X-15755046D03*
X-15805846D03*
X-15854106D03*
Y-8659642D03*
X-15805846D03*
X-15755046D03*
X-15704246D03*
X-15655986D03*
X-15605186D03*
X-15554386D03*
X-15503586D03*
X-15455326D03*
X-15404526D03*
X-15353726D03*
D919*
X-13690112Y-8800104D03*
X-13409950D03*
X-13642360Y-7882402D03*
X-13362452D03*
D920*
X-12125472Y-7816362D03*
X-12173732D03*
X-12224532D03*
X-12275332D03*
X-12323592D03*
X-12374392D03*
X-12425192D03*
X-12475992D03*
X-12524252D03*
X-12575052D03*
X-12625852D03*
X-12674112D03*
Y-8659642D03*
X-12625852D03*
X-12575052D03*
X-12524252D03*
X-12475992D03*
X-12425192D03*
X-12374392D03*
X-12323592D03*
X-12275332D03*
X-12224532D03*
X-12173732D03*
X-12125472D03*
D921*
X-12821432Y-7963682D03*
Y-8011942D03*
Y-8062742D03*
Y-8113542D03*
Y-8161802D03*
Y-8212602D03*
Y-8263402D03*
Y-8314202D03*
Y-8362462D03*
Y-8413262D03*
Y-8464062D03*
Y-8512322D03*
X-11978152D03*
Y-8464062D03*
Y-8413262D03*
Y-8362462D03*
Y-8314202D03*
Y-8263402D03*
Y-8212602D03*
Y-8161802D03*
Y-8113542D03*
Y-8062742D03*
Y-8011942D03*
Y-7963682D03*
D926*
X-13806952Y-8113542D03*
Y-8342142D03*
Y-8570742D03*
D927*
X-13177032Y-8339602D03*
D928*
X-11970532Y-7828300D03*
Y-7658374D03*
X-12387092Y-7370592D03*
Y-7200412D03*
X-11978152Y-8869192D03*
Y-8699012D03*
X-13013964Y-8686312D03*
Y-8856492D03*
X-12564892Y-7370592D03*
Y-7200412D03*
X-12810764Y-8686312D03*
Y-8856492D03*
D935*
X-12137156Y-8873002D03*
X-12307082D03*
X-11851152Y-7370592D03*
Y-7200412D03*
X-12206752D03*
Y-7370592D03*
X-12028952Y-7200412D03*
Y-7370592D03*
X-12742692D03*
Y-7200412D03*
X-12920492Y-7370592D03*
Y-7200412D03*
D936*
X-13303778Y-7640594D03*
Y-7513594D03*
Y-7386594D03*
Y-7259594D03*
X-13796538D03*
Y-7386594D03*
Y-7513594D03*
Y-7640594D03*
D937*
X-11529080Y-8160786D03*
Y-8060710D03*
Y-7960888D03*
Y-8769878D03*
Y-8669802D03*
Y-8569726D03*
Y-7536454D03*
Y-7436632D03*
Y-7336556D03*
Y-7236480D03*
Y-7136658D03*
D938*
X-11141476Y-8290834D03*
Y-7830840D03*
Y-8899926D03*
Y-8439932D03*
Y-7666502D03*
Y-7006610D03*
D939*
X-13060192Y-7817632D03*
Y-7667772D03*
X-12895092Y-7817632D03*
Y-7667772D03*
D21*
X-13504692Y-8466602D03*
X-12501392Y-7996702D03*
X-12641092Y-8365002D03*
X-13847592Y-7882402D03*
X-13154172Y-7387102D03*
X-11358392Y-7234702D03*
X-12171192Y-7958602D03*
X-11863852Y-8860302D03*
X-12907792Y-8682502D03*
X-12641092Y-7958602D03*
X-12206752Y-7105162D03*
X-12539492Y-8314202D03*
X-13733292Y-7133102D03*
X-12539492Y-8225302D03*
X-13466592Y-7641102D03*
X-13644392Y-7387102D03*
Y-7514102D03*
X-13136392Y-7958602D03*
X-12387092Y-8072902D03*
D921*
X-12821432Y-7991942D03*
Y-8042742D03*
Y-8093542D03*
Y-8141802D03*
Y-8192602D03*
Y-8243402D03*
Y-8294202D03*
Y-8342462D03*
Y-8393262D03*
Y-8444062D03*
Y-8492322D03*
X-11978152D03*
Y-8444062D03*
Y-8393262D03*
Y-8342462D03*
Y-8294202D03*
Y-8243402D03*
Y-8192602D03*
Y-8141802D03*
Y-8093542D03*
Y-8042742D03*
Y-7991942D03*
D920*
X-12153732Y-7816362D03*
X-12204532D03*
X-12255332D03*
X-12303592D03*
X-12354392D03*
X-12405192D03*
X-12455992D03*
X-12504252D03*
X-12555052D03*
X-12605852D03*
X-12654112D03*
Y-8659642D03*
X-12605852D03*
X-12555052D03*
X-12504252D03*
X-12455992D03*
X-12405192D03*
X-12354392D03*
X-12303592D03*
X-12255332D03*
X-12204532D03*
X-12153732D03*
D919*
X-13690112Y-6500034D03*
X-13409950D03*
X-13642360Y-5582332D03*
X-13362452D03*
D920*
X-12125472Y-5516292D03*
X-12173732D03*
X-12224532D03*
X-12275332D03*
X-12323592D03*
X-12374392D03*
X-12425192D03*
X-12475992D03*
X-12524252D03*
X-12575052D03*
X-12625852D03*
X-12674112D03*
Y-6359572D03*
X-12625852D03*
X-12575052D03*
X-12524252D03*
X-12475992D03*
X-12425192D03*
X-12374392D03*
X-12323592D03*
X-12275332D03*
X-12224532D03*
X-12173732D03*
X-12125472D03*
D921*
X-12821432Y-5663612D03*
Y-5711872D03*
Y-5762672D03*
Y-5813472D03*
Y-5861732D03*
Y-5912532D03*
Y-5963332D03*
Y-6014132D03*
Y-6062392D03*
Y-6113192D03*
Y-6163992D03*
Y-6212252D03*
X-11978152D03*
Y-6163992D03*
Y-6113192D03*
Y-6062392D03*
Y-6014132D03*
Y-5963332D03*
Y-5912532D03*
Y-5861732D03*
Y-5813472D03*
Y-5762672D03*
Y-5711872D03*
Y-5663612D03*
D926*
X-13806952Y-5813472D03*
Y-6042072D03*
Y-6270672D03*
D927*
X-13177032Y-6039532D03*
D928*
X-11970532Y-5528230D03*
Y-5358304D03*
X-12387092Y-5070522D03*
Y-4900342D03*
X-11978152Y-6569122D03*
Y-6398942D03*
X-13013964Y-6386242D03*
Y-6556422D03*
X-12564892Y-5070522D03*
Y-4900342D03*
X-12810764Y-6386242D03*
Y-6556422D03*
D935*
X-12137156Y-6572932D03*
X-12307082D03*
X-11851152Y-5070522D03*
Y-4900342D03*
X-12206752D03*
Y-5070522D03*
X-12028952Y-4900342D03*
Y-5070522D03*
X-12742692D03*
Y-4900342D03*
X-12920492Y-5070522D03*
Y-4900342D03*
D936*
X-13303778Y-5340524D03*
Y-5213524D03*
Y-5086524D03*
Y-4959524D03*
X-13796538D03*
Y-5086524D03*
Y-5213524D03*
Y-5340524D03*
D937*
X-11529080Y-5860716D03*
Y-5760640D03*
Y-5660818D03*
Y-6469808D03*
Y-6369732D03*
Y-6269656D03*
Y-5236384D03*
Y-5136562D03*
Y-5036486D03*
Y-4936410D03*
Y-4836588D03*
D938*
X-11141476Y-5990764D03*
Y-5530770D03*
Y-6599856D03*
Y-6139862D03*
Y-5366432D03*
Y-4706540D03*
D939*
X-13060192Y-5517562D03*
Y-5367702D03*
X-12895092Y-5517562D03*
Y-5367702D03*
D21*
X-13504692Y-6166532D03*
X-12501392Y-5696632D03*
X-12641092Y-6064932D03*
X-13847592Y-5582332D03*
X-13154172Y-5087032D03*
X-11358392Y-4934632D03*
X-12171192Y-5658532D03*
X-11863852Y-6560232D03*
X-12907792Y-6382432D03*
X-12641092Y-5658532D03*
X-12206752Y-4805092D03*
X-12539492Y-6014132D03*
X-13733292Y-4833032D03*
X-12539492Y-5925232D03*
X-13466592Y-5341032D03*
X-13644392Y-5087032D03*
Y-5214032D03*
X-13136392Y-5658532D03*
X-12387092Y-5772832D03*
D921*
X-12821432Y-5691872D03*
Y-5742672D03*
Y-5793472D03*
Y-5841732D03*
Y-5892532D03*
Y-5943332D03*
Y-5994132D03*
Y-6042392D03*
Y-6093192D03*
Y-6143992D03*
Y-6192252D03*
X-11978152D03*
Y-6143992D03*
Y-6093192D03*
Y-6042392D03*
Y-5994132D03*
Y-5943332D03*
Y-5892532D03*
Y-5841732D03*
Y-5793472D03*
Y-5742672D03*
Y-5691872D03*
D920*
X-12153732Y-5516292D03*
X-12204532D03*
X-12255332D03*
X-12303592D03*
X-12354392D03*
X-12405192D03*
X-12455992D03*
X-12504252D03*
X-12555052D03*
X-12605852D03*
X-12654112D03*
Y-6359572D03*
X-12605852D03*
X-12555052D03*
X-12504252D03*
X-12455992D03*
X-12405192D03*
X-12354392D03*
X-12303592D03*
X-12255332D03*
X-12204532D03*
X-12153732D03*
D919*
X-16890106Y-6500034D03*
X-16609944D03*
X-16842354Y-5582332D03*
X-16562446D03*
D920*
X-15325466Y-5516292D03*
X-15373726D03*
X-15424526D03*
X-15475326D03*
X-15523586D03*
X-15574386D03*
X-15625186D03*
X-15675986D03*
X-15724246D03*
X-15775046D03*
X-15825846D03*
X-15874106D03*
Y-6359572D03*
X-15825846D03*
X-15775046D03*
X-15724246D03*
X-15675986D03*
X-15625186D03*
X-15574386D03*
X-15523586D03*
X-15475326D03*
X-15424526D03*
X-15373726D03*
X-15325466D03*
D921*
X-16021426Y-5663612D03*
Y-5711872D03*
Y-5762672D03*
Y-5813472D03*
Y-5861732D03*
Y-5912532D03*
Y-5963332D03*
Y-6014132D03*
Y-6062392D03*
Y-6113192D03*
Y-6163992D03*
Y-6212252D03*
X-15178146D03*
Y-6163992D03*
Y-6113192D03*
Y-6062392D03*
Y-6014132D03*
Y-5963332D03*
Y-5912532D03*
Y-5861732D03*
Y-5813472D03*
Y-5762672D03*
Y-5711872D03*
Y-5663612D03*
D926*
X-17006946Y-5813472D03*
Y-6042072D03*
Y-6270672D03*
D927*
X-16377026Y-6039532D03*
D928*
X-15170526Y-5528230D03*
Y-5358304D03*
X-15587086Y-5070522D03*
Y-4900342D03*
X-15178146Y-6569122D03*
Y-6398942D03*
X-16213958Y-6386242D03*
Y-6556422D03*
X-15764886Y-5070522D03*
Y-4900342D03*
X-16010758Y-6386242D03*
Y-6556422D03*
D935*
X-15337150Y-6572932D03*
X-15507076D03*
X-15051146Y-5070522D03*
Y-4900342D03*
X-15406746D03*
Y-5070522D03*
X-15228946Y-4900342D03*
Y-5070522D03*
X-15942686D03*
Y-4900342D03*
X-16120486Y-5070522D03*
Y-4900342D03*
D936*
X-16503772Y-5340524D03*
Y-5213524D03*
Y-5086524D03*
Y-4959524D03*
X-16996532D03*
Y-5086524D03*
Y-5213524D03*
Y-5340524D03*
D937*
X-14729074Y-5860716D03*
Y-5760640D03*
Y-5660818D03*
Y-6469808D03*
Y-6369732D03*
Y-6269656D03*
Y-5236384D03*
Y-5136562D03*
Y-5036486D03*
Y-4936410D03*
Y-4836588D03*
D938*
X-14341470Y-5990764D03*
Y-5530770D03*
Y-6599856D03*
Y-6139862D03*
Y-5366432D03*
Y-4706540D03*
D939*
X-16260186Y-5517562D03*
Y-5367702D03*
X-16095086Y-5517562D03*
Y-5367702D03*
D21*
X-16704686Y-6166532D03*
X-15701386Y-5696632D03*
X-15841086Y-6064932D03*
X-17047586Y-5582332D03*
X-16354166Y-5087032D03*
X-14558386Y-4934632D03*
X-15371186Y-5658532D03*
X-15063846Y-6560232D03*
X-16107786Y-6382432D03*
X-15841086Y-5658532D03*
X-15406746Y-4805092D03*
X-15739486Y-6014132D03*
X-16933286Y-4833032D03*
X-15739486Y-5925232D03*
X-16666586Y-5341032D03*
X-16844386Y-5087032D03*
Y-5214032D03*
X-16336386Y-5658532D03*
X-15587086Y-5772832D03*
D921*
X-16021426Y-5691872D03*
Y-5742672D03*
Y-5793472D03*
Y-5841732D03*
Y-5892532D03*
Y-5943332D03*
Y-5994132D03*
Y-6042392D03*
Y-6093192D03*
Y-6143992D03*
Y-6192252D03*
X-15178146D03*
Y-6143992D03*
Y-6093192D03*
Y-6042392D03*
Y-5994132D03*
Y-5943332D03*
Y-5892532D03*
Y-5841732D03*
Y-5793472D03*
Y-5742672D03*
Y-5691872D03*
D920*
X-15353726Y-5516292D03*
X-15404526D03*
X-15455326D03*
X-15503586D03*
X-15554386D03*
X-15605186D03*
X-15655986D03*
X-15704246D03*
X-15755046D03*
X-15805846D03*
X-15854106D03*
Y-6359572D03*
X-15805846D03*
X-15755046D03*
X-15704246D03*
X-15655986D03*
X-15605186D03*
X-15554386D03*
X-15503586D03*
X-15455326D03*
X-15404526D03*
X-15353726D03*
D919*
X-20090100Y-6500034D03*
X-19809938D03*
X-20042348Y-5582332D03*
X-19762440D03*
D920*
X-18525460Y-5516292D03*
X-18573720D03*
X-18624520D03*
X-18675320D03*
X-18723580D03*
X-18774380D03*
X-18825180D03*
X-18875980D03*
X-18924240D03*
X-18975040D03*
X-19025840D03*
X-19074100D03*
Y-6359572D03*
X-19025840D03*
X-18975040D03*
X-18924240D03*
X-18875980D03*
X-18825180D03*
X-18774380D03*
X-18723580D03*
X-18675320D03*
X-18624520D03*
X-18573720D03*
X-18525460D03*
D921*
X-19221420Y-5663612D03*
Y-5711872D03*
Y-5762672D03*
Y-5813472D03*
Y-5861732D03*
Y-5912532D03*
Y-5963332D03*
Y-6014132D03*
Y-6062392D03*
Y-6113192D03*
Y-6163992D03*
Y-6212252D03*
X-18378140D03*
Y-6163992D03*
Y-6113192D03*
Y-6062392D03*
Y-6014132D03*
Y-5963332D03*
Y-5912532D03*
Y-5861732D03*
Y-5813472D03*
Y-5762672D03*
Y-5711872D03*
Y-5663612D03*
D926*
X-20206940Y-5813472D03*
Y-6042072D03*
Y-6270672D03*
D927*
X-19577020Y-6039532D03*
D928*
X-18370520Y-5528230D03*
Y-5358304D03*
X-18787080Y-5070522D03*
Y-4900342D03*
X-18378140Y-6569122D03*
Y-6398942D03*
X-19413952Y-6386242D03*
Y-6556422D03*
X-18964880Y-5070522D03*
Y-4900342D03*
X-19210752Y-6386242D03*
Y-6556422D03*
D935*
X-18537144Y-6572932D03*
X-18707070D03*
X-18251140Y-5070522D03*
Y-4900342D03*
X-18606740D03*
Y-5070522D03*
X-18428940Y-4900342D03*
Y-5070522D03*
X-19142680D03*
Y-4900342D03*
X-19320480Y-5070522D03*
Y-4900342D03*
D936*
X-19703766Y-5340524D03*
Y-5213524D03*
Y-5086524D03*
Y-4959524D03*
X-20196526D03*
Y-5086524D03*
Y-5213524D03*
Y-5340524D03*
D937*
X-17929068Y-5860716D03*
Y-5760640D03*
Y-5660818D03*
Y-6469808D03*
Y-6369732D03*
Y-6269656D03*
Y-5236384D03*
Y-5136562D03*
Y-5036486D03*
Y-4936410D03*
Y-4836588D03*
D938*
X-17541464Y-5990764D03*
Y-5530770D03*
Y-6599856D03*
Y-6139862D03*
Y-5366432D03*
Y-4706540D03*
D939*
X-19460180Y-5517562D03*
Y-5367702D03*
X-19295080Y-5517562D03*
Y-5367702D03*
D21*
X-19904680Y-6166532D03*
X-18901380Y-5696632D03*
X-19041080Y-6064932D03*
X-20247580Y-5582332D03*
X-19554160Y-5087032D03*
X-17758380Y-4934632D03*
X-18571180Y-5658532D03*
X-18263840Y-6560232D03*
X-19307780Y-6382432D03*
X-19041080Y-5658532D03*
X-18606740Y-4805092D03*
X-18939480Y-6014132D03*
X-20133280Y-4833032D03*
X-18939480Y-5925232D03*
X-19866580Y-5341032D03*
X-20044380Y-5087032D03*
Y-5214032D03*
X-19536380Y-5658532D03*
X-18787080Y-5772832D03*
D921*
X-19221420Y-5691872D03*
Y-5742672D03*
Y-5793472D03*
Y-5841732D03*
Y-5892532D03*
Y-5943332D03*
Y-5994132D03*
Y-6042392D03*
Y-6093192D03*
Y-6143992D03*
Y-6192252D03*
X-18378140D03*
Y-6143992D03*
Y-6093192D03*
Y-6042392D03*
Y-5994132D03*
Y-5943332D03*
Y-5892532D03*
Y-5841732D03*
Y-5793472D03*
Y-5742672D03*
Y-5691872D03*
D920*
X-18553720Y-5516292D03*
X-18604520D03*
X-18655320D03*
X-18703580D03*
X-18754380D03*
X-18805180D03*
X-18855980D03*
X-18904240D03*
X-18955040D03*
X-19005840D03*
X-19054100D03*
Y-6359572D03*
X-19005840D03*
X-18955040D03*
X-18904240D03*
X-18855980D03*
X-18805180D03*
X-18754380D03*
X-18703580D03*
X-18655320D03*
X-18604520D03*
X-18553720D03*
D919*
X-20090100Y-4199964D03*
X-19809938D03*
X-20042348Y-3282262D03*
X-19762440D03*
D920*
X-18525460Y-3216222D03*
X-18573720D03*
X-18624520D03*
X-18675320D03*
X-18723580D03*
X-18774380D03*
X-18825180D03*
X-18875980D03*
X-18924240D03*
X-18975040D03*
X-19025840D03*
X-19074100D03*
Y-4059502D03*
X-19025840D03*
X-18975040D03*
X-18924240D03*
X-18875980D03*
X-18825180D03*
X-18774380D03*
X-18723580D03*
X-18675320D03*
X-18624520D03*
X-18573720D03*
X-18525460D03*
D921*
X-19221420Y-3363542D03*
Y-3411802D03*
Y-3462602D03*
Y-3513402D03*
Y-3561662D03*
Y-3612462D03*
Y-3663262D03*
Y-3714062D03*
Y-3762322D03*
Y-3813122D03*
Y-3863922D03*
Y-3912182D03*
X-18378140D03*
Y-3863922D03*
Y-3813122D03*
Y-3762322D03*
Y-3714062D03*
Y-3663262D03*
Y-3612462D03*
Y-3561662D03*
Y-3513402D03*
Y-3462602D03*
Y-3411802D03*
Y-3363542D03*
D926*
X-20206940Y-3513402D03*
Y-3742002D03*
Y-3970602D03*
D927*
X-19577020Y-3739462D03*
D928*
X-18370520Y-3228160D03*
Y-3058234D03*
X-18787080Y-2770452D03*
Y-2600272D03*
X-18378140Y-4269052D03*
Y-4098872D03*
X-19413952Y-4086172D03*
Y-4256352D03*
X-18964880Y-2770452D03*
Y-2600272D03*
X-19210752Y-4086172D03*
Y-4256352D03*
D935*
X-18537144Y-4272862D03*
X-18707070D03*
X-18251140Y-2770452D03*
Y-2600272D03*
X-18606740D03*
Y-2770452D03*
X-18428940Y-2600272D03*
Y-2770452D03*
X-19142680D03*
Y-2600272D03*
X-19320480Y-2770452D03*
Y-2600272D03*
D936*
X-19703766Y-3040454D03*
Y-2913454D03*
Y-2786454D03*
Y-2659454D03*
X-20196526D03*
Y-2786454D03*
Y-2913454D03*
Y-3040454D03*
D937*
X-17929068Y-3560646D03*
Y-3460570D03*
Y-3360748D03*
Y-4169738D03*
Y-4069662D03*
Y-3969586D03*
Y-2936314D03*
Y-2836492D03*
Y-2736416D03*
Y-2636340D03*
Y-2536518D03*
D938*
X-17541464Y-3690694D03*
Y-3230700D03*
Y-4299786D03*
Y-3839792D03*
Y-3066362D03*
Y-2406470D03*
D939*
X-19460180Y-3217492D03*
Y-3067632D03*
X-19295080Y-3217492D03*
Y-3067632D03*
D21*
X-19904680Y-3866462D03*
X-18901380Y-3396562D03*
X-19041080Y-3764862D03*
X-20247580Y-3282262D03*
X-19554160Y-2786962D03*
X-17758380Y-2634562D03*
X-18571180Y-3358462D03*
X-18263840Y-4260162D03*
X-19307780Y-4082362D03*
X-19041080Y-3358462D03*
X-18606740Y-2505022D03*
X-18939480Y-3714062D03*
X-20133280Y-2532962D03*
X-18939480Y-3625162D03*
X-19866580Y-3040962D03*
X-20044380Y-2786962D03*
Y-2913962D03*
X-19536380Y-3358462D03*
X-18787080Y-3472762D03*
D921*
X-19221420Y-3391802D03*
Y-3442602D03*
Y-3493402D03*
Y-3541662D03*
Y-3592462D03*
Y-3643262D03*
Y-3694062D03*
Y-3742322D03*
Y-3793122D03*
Y-3843922D03*
Y-3892182D03*
X-18378140D03*
Y-3843922D03*
Y-3793122D03*
Y-3742322D03*
Y-3694062D03*
Y-3643262D03*
Y-3592462D03*
Y-3541662D03*
Y-3493402D03*
Y-3442602D03*
Y-3391802D03*
D920*
X-18553720Y-3216222D03*
X-18604520D03*
X-18655320D03*
X-18703580D03*
X-18754380D03*
X-18805180D03*
X-18855980D03*
X-18904240D03*
X-18955040D03*
X-19005840D03*
X-19054100D03*
Y-4059502D03*
X-19005840D03*
X-18955040D03*
X-18904240D03*
X-18855980D03*
X-18805180D03*
X-18754380D03*
X-18703580D03*
X-18655320D03*
X-18604520D03*
X-18553720D03*
D919*
X-16890106Y-4199964D03*
X-16609944D03*
X-16842354Y-3282262D03*
X-16562446D03*
D920*
X-15325466Y-3216222D03*
X-15373726D03*
X-15424526D03*
X-15475326D03*
X-15523586D03*
X-15574386D03*
X-15625186D03*
X-15675986D03*
X-15724246D03*
X-15775046D03*
X-15825846D03*
X-15874106D03*
Y-4059502D03*
X-15825846D03*
X-15775046D03*
X-15724246D03*
X-15675986D03*
X-15625186D03*
X-15574386D03*
X-15523586D03*
X-15475326D03*
X-15424526D03*
X-15373726D03*
X-15325466D03*
D921*
X-16021426Y-3363542D03*
Y-3411802D03*
Y-3462602D03*
Y-3513402D03*
Y-3561662D03*
Y-3612462D03*
Y-3663262D03*
Y-3714062D03*
Y-3762322D03*
Y-3813122D03*
Y-3863922D03*
Y-3912182D03*
X-15178146D03*
Y-3863922D03*
Y-3813122D03*
Y-3762322D03*
Y-3714062D03*
Y-3663262D03*
Y-3612462D03*
Y-3561662D03*
Y-3513402D03*
Y-3462602D03*
Y-3411802D03*
Y-3363542D03*
D926*
X-17006946Y-3513402D03*
Y-3742002D03*
Y-3970602D03*
D927*
X-16377026Y-3739462D03*
D928*
X-15170526Y-3228160D03*
Y-3058234D03*
X-15587086Y-2770452D03*
Y-2600272D03*
X-15178146Y-4269052D03*
Y-4098872D03*
X-16213958Y-4086172D03*
Y-4256352D03*
X-15764886Y-2770452D03*
Y-2600272D03*
X-16010758Y-4086172D03*
Y-4256352D03*
D935*
X-15337150Y-4272862D03*
X-15507076D03*
X-15051146Y-2770452D03*
Y-2600272D03*
X-15406746D03*
Y-2770452D03*
X-15228946Y-2600272D03*
Y-2770452D03*
X-15942686D03*
Y-2600272D03*
X-16120486Y-2770452D03*
Y-2600272D03*
D936*
X-16503772Y-3040454D03*
Y-2913454D03*
Y-2786454D03*
Y-2659454D03*
X-16996532D03*
Y-2786454D03*
Y-2913454D03*
Y-3040454D03*
D937*
X-14729074Y-3560646D03*
Y-3460570D03*
Y-3360748D03*
Y-4169738D03*
Y-4069662D03*
Y-3969586D03*
Y-2936314D03*
Y-2836492D03*
Y-2736416D03*
Y-2636340D03*
Y-2536518D03*
D938*
X-14341470Y-3690694D03*
Y-3230700D03*
Y-4299786D03*
Y-3839792D03*
Y-3066362D03*
Y-2406470D03*
D939*
X-16260186Y-3217492D03*
Y-3067632D03*
X-16095086Y-3217492D03*
Y-3067632D03*
D21*
X-16704686Y-3866462D03*
X-15701386Y-3396562D03*
X-15841086Y-3764862D03*
X-17047586Y-3282262D03*
X-16354166Y-2786962D03*
X-14558386Y-2634562D03*
X-15371186Y-3358462D03*
X-15063846Y-4260162D03*
X-16107786Y-4082362D03*
X-15841086Y-3358462D03*
X-15406746Y-2505022D03*
X-15739486Y-3714062D03*
X-16933286Y-2532962D03*
X-15739486Y-3625162D03*
X-16666586Y-3040962D03*
X-16844386Y-2786962D03*
Y-2913962D03*
X-16336386Y-3358462D03*
X-15587086Y-3472762D03*
D921*
X-16021426Y-3391802D03*
Y-3442602D03*
Y-3493402D03*
Y-3541662D03*
Y-3592462D03*
Y-3643262D03*
Y-3694062D03*
Y-3742322D03*
Y-3793122D03*
Y-3843922D03*
Y-3892182D03*
X-15178146D03*
Y-3843922D03*
Y-3793122D03*
Y-3742322D03*
Y-3694062D03*
Y-3643262D03*
Y-3592462D03*
Y-3541662D03*
Y-3493402D03*
Y-3442602D03*
Y-3391802D03*
D920*
X-15353726Y-3216222D03*
X-15404526D03*
X-15455326D03*
X-15503586D03*
X-15554386D03*
X-15605186D03*
X-15655986D03*
X-15704246D03*
X-15755046D03*
X-15805846D03*
X-15854106D03*
Y-4059502D03*
X-15805846D03*
X-15755046D03*
X-15704246D03*
X-15655986D03*
X-15605186D03*
X-15554386D03*
X-15503586D03*
X-15455326D03*
X-15404526D03*
X-15353726D03*
D919*
X-13690112Y-4199964D03*
X-13409950D03*
X-13642360Y-3282262D03*
X-13362452D03*
D920*
X-12125472Y-3216222D03*
X-12173732D03*
X-12224532D03*
X-12275332D03*
X-12323592D03*
X-12374392D03*
X-12425192D03*
X-12475992D03*
X-12524252D03*
X-12575052D03*
X-12625852D03*
X-12674112D03*
Y-4059502D03*
X-12625852D03*
X-12575052D03*
X-12524252D03*
X-12475992D03*
X-12425192D03*
X-12374392D03*
X-12323592D03*
X-12275332D03*
X-12224532D03*
X-12173732D03*
X-12125472D03*
D921*
X-12821432Y-3363542D03*
Y-3411802D03*
Y-3462602D03*
Y-3513402D03*
Y-3561662D03*
Y-3612462D03*
Y-3663262D03*
Y-3714062D03*
Y-3762322D03*
Y-3813122D03*
Y-3863922D03*
Y-3912182D03*
X-11978152D03*
Y-3863922D03*
Y-3813122D03*
Y-3762322D03*
Y-3714062D03*
Y-3663262D03*
Y-3612462D03*
Y-3561662D03*
Y-3513402D03*
Y-3462602D03*
Y-3411802D03*
Y-3363542D03*
D926*
X-13806952Y-3513402D03*
Y-3742002D03*
Y-3970602D03*
D927*
X-13177032Y-3739462D03*
D928*
X-11970532Y-3228160D03*
Y-3058234D03*
X-12387092Y-2770452D03*
Y-2600272D03*
X-11978152Y-4269052D03*
Y-4098872D03*
X-13013964Y-4086172D03*
Y-4256352D03*
X-12564892Y-2770452D03*
Y-2600272D03*
X-12810764Y-4086172D03*
Y-4256352D03*
D935*
X-12137156Y-4272862D03*
X-12307082D03*
X-11851152Y-2770452D03*
Y-2600272D03*
X-12206752D03*
Y-2770452D03*
X-12028952Y-2600272D03*
Y-2770452D03*
X-12742692D03*
Y-2600272D03*
X-12920492Y-2770452D03*
Y-2600272D03*
D936*
X-13303778Y-3040454D03*
Y-2913454D03*
Y-2786454D03*
Y-2659454D03*
X-13796538D03*
Y-2786454D03*
Y-2913454D03*
Y-3040454D03*
D937*
X-11529080Y-3560646D03*
Y-3460570D03*
Y-3360748D03*
Y-4169738D03*
Y-4069662D03*
Y-3969586D03*
Y-2936314D03*
Y-2836492D03*
Y-2736416D03*
Y-2636340D03*
Y-2536518D03*
D938*
X-11141476Y-3690694D03*
Y-3230700D03*
Y-4299786D03*
Y-3839792D03*
Y-3066362D03*
Y-2406470D03*
D939*
X-13060192Y-3217492D03*
Y-3067632D03*
X-12895092Y-3217492D03*
Y-3067632D03*
D21*
X-13504692Y-3866462D03*
X-12501392Y-3396562D03*
X-12641092Y-3764862D03*
X-13847592Y-3282262D03*
X-13154172Y-2786962D03*
X-11358392Y-2634562D03*
X-12171192Y-3358462D03*
X-11863852Y-4260162D03*
X-12907792Y-4082362D03*
X-12641092Y-3358462D03*
X-12206752Y-2505022D03*
X-12539492Y-3714062D03*
X-13733292Y-2532962D03*
X-12539492Y-3625162D03*
X-13466592Y-3040962D03*
X-13644392Y-2786962D03*
Y-2913962D03*
X-13136392Y-3358462D03*
X-12387092Y-3472762D03*
D921*
X-12821432Y-3391802D03*
Y-3442602D03*
Y-3493402D03*
Y-3541662D03*
Y-3592462D03*
Y-3643262D03*
Y-3694062D03*
Y-3742322D03*
Y-3793122D03*
Y-3843922D03*
Y-3892182D03*
X-11978152D03*
Y-3843922D03*
Y-3793122D03*
Y-3742322D03*
Y-3694062D03*
Y-3643262D03*
Y-3592462D03*
Y-3541662D03*
Y-3493402D03*
Y-3442602D03*
Y-3391802D03*
D920*
X-12153732Y-3216222D03*
X-12204532D03*
X-12255332D03*
X-12303592D03*
X-12354392D03*
X-12405192D03*
X-12455992D03*
X-12504252D03*
X-12555052D03*
X-12605852D03*
X-12654112D03*
Y-4059502D03*
X-12605852D03*
X-12555052D03*
X-12504252D03*
X-12455992D03*
X-12405192D03*
X-12354392D03*
X-12303592D03*
X-12255332D03*
X-12204532D03*
X-12153732D03*
D919*
X-13690112Y-1899894D03*
X-13409950D03*
X-13642360Y-982192D03*
X-13362452D03*
D920*
X-12125472Y-916152D03*
X-12173732D03*
X-12224532D03*
X-12275332D03*
X-12323592D03*
X-12374392D03*
X-12425192D03*
X-12475992D03*
X-12524252D03*
X-12575052D03*
X-12625852D03*
X-12674112D03*
Y-1759432D03*
X-12625852D03*
X-12575052D03*
X-12524252D03*
X-12475992D03*
X-12425192D03*
X-12374392D03*
X-12323592D03*
X-12275332D03*
X-12224532D03*
X-12173732D03*
X-12125472D03*
D921*
X-12821432Y-1063472D03*
Y-1111732D03*
Y-1162532D03*
Y-1213332D03*
Y-1261592D03*
Y-1312392D03*
Y-1363192D03*
Y-1413992D03*
Y-1462252D03*
Y-1513052D03*
Y-1563852D03*
Y-1612112D03*
X-11978152D03*
Y-1563852D03*
Y-1513052D03*
Y-1462252D03*
Y-1413992D03*
Y-1363192D03*
Y-1312392D03*
Y-1261592D03*
Y-1213332D03*
Y-1162532D03*
Y-1111732D03*
Y-1063472D03*
D926*
X-13806952Y-1213332D03*
Y-1441932D03*
Y-1670532D03*
D927*
X-13177032Y-1439392D03*
D928*
X-11970532Y-928090D03*
Y-758164D03*
X-12387092Y-470382D03*
Y-300202D03*
X-11978152Y-1968982D03*
Y-1798802D03*
X-13013964Y-1786102D03*
Y-1956282D03*
X-12564892Y-470382D03*
Y-300202D03*
X-12810764Y-1786102D03*
Y-1956282D03*
D935*
X-12137156Y-1972792D03*
X-12307082D03*
X-11851152Y-470382D03*
Y-300202D03*
X-12206752D03*
Y-470382D03*
X-12028952Y-300202D03*
Y-470382D03*
X-12742692D03*
Y-300202D03*
X-12920492Y-470382D03*
Y-300202D03*
D936*
X-13303778Y-740384D03*
Y-613384D03*
Y-486384D03*
Y-359384D03*
X-13796538D03*
Y-486384D03*
Y-613384D03*
Y-740384D03*
D937*
X-11529080Y-1260576D03*
Y-1160500D03*
Y-1060678D03*
Y-1869668D03*
Y-1769592D03*
Y-1669516D03*
Y-636244D03*
Y-536422D03*
Y-436346D03*
Y-336270D03*
Y-236448D03*
D938*
X-11141476Y-1390624D03*
Y-930630D03*
Y-1999716D03*
Y-1539722D03*
Y-766292D03*
Y-106400D03*
D939*
X-13060192Y-917422D03*
Y-767562D03*
X-12895092Y-917422D03*
Y-767562D03*
D21*
X-13504692Y-1566392D03*
X-12501392Y-1096492D03*
X-12641092Y-1464792D03*
X-13847592Y-982192D03*
X-13154172Y-486892D03*
X-11358392Y-334492D03*
X-12171192Y-1058392D03*
X-11863852Y-1960092D03*
X-12907792Y-1782292D03*
X-12641092Y-1058392D03*
X-12206752Y-204952D03*
X-12539492Y-1413992D03*
X-13733292Y-232892D03*
X-12539492Y-1325092D03*
X-13466592Y-740892D03*
X-13644392Y-486892D03*
Y-613892D03*
X-13136392Y-1058392D03*
X-12387092Y-1172692D03*
D921*
X-12821432Y-1091732D03*
Y-1142532D03*
Y-1193332D03*
Y-1241592D03*
Y-1292392D03*
Y-1343192D03*
Y-1393992D03*
Y-1442252D03*
Y-1493052D03*
Y-1543852D03*
Y-1592112D03*
X-11978152D03*
Y-1543852D03*
Y-1493052D03*
Y-1442252D03*
Y-1393992D03*
Y-1343192D03*
Y-1292392D03*
Y-1241592D03*
Y-1193332D03*
Y-1142532D03*
Y-1091732D03*
D920*
X-12153732Y-916152D03*
X-12204532D03*
X-12255332D03*
X-12303592D03*
X-12354392D03*
X-12405192D03*
X-12455992D03*
X-12504252D03*
X-12555052D03*
X-12605852D03*
X-12654112D03*
Y-1759432D03*
X-12605852D03*
X-12555052D03*
X-12504252D03*
X-12455992D03*
X-12405192D03*
X-12354392D03*
X-12303592D03*
X-12255332D03*
X-12204532D03*
X-12153732D03*
D919*
X-16890106Y-1899894D03*
X-16609944D03*
X-16842354Y-982192D03*
X-16562446D03*
D920*
X-15325466Y-916152D03*
X-15373726D03*
X-15424526D03*
X-15475326D03*
X-15523586D03*
X-15574386D03*
X-15625186D03*
X-15675986D03*
X-15724246D03*
X-15775046D03*
X-15825846D03*
X-15874106D03*
Y-1759432D03*
X-15825846D03*
X-15775046D03*
X-15724246D03*
X-15675986D03*
X-15625186D03*
X-15574386D03*
X-15523586D03*
X-15475326D03*
X-15424526D03*
X-15373726D03*
X-15325466D03*
D921*
X-16021426Y-1063472D03*
Y-1111732D03*
Y-1162532D03*
Y-1213332D03*
Y-1261592D03*
Y-1312392D03*
Y-1363192D03*
Y-1413992D03*
Y-1462252D03*
Y-1513052D03*
Y-1563852D03*
Y-1612112D03*
X-15178146D03*
Y-1563852D03*
Y-1513052D03*
Y-1462252D03*
Y-1413992D03*
Y-1363192D03*
Y-1312392D03*
Y-1261592D03*
Y-1213332D03*
Y-1162532D03*
Y-1111732D03*
Y-1063472D03*
D926*
X-17006946Y-1213332D03*
Y-1441932D03*
Y-1670532D03*
D927*
X-16377026Y-1439392D03*
D928*
X-15170526Y-928090D03*
Y-758164D03*
X-15587086Y-470382D03*
Y-300202D03*
X-15178146Y-1968982D03*
Y-1798802D03*
X-16213958Y-1786102D03*
Y-1956282D03*
X-15764886Y-470382D03*
Y-300202D03*
X-16010758Y-1786102D03*
Y-1956282D03*
D935*
X-15337150Y-1972792D03*
X-15507076D03*
X-15051146Y-470382D03*
Y-300202D03*
X-15406746D03*
Y-470382D03*
X-15228946Y-300202D03*
Y-470382D03*
X-15942686D03*
Y-300202D03*
X-16120486Y-470382D03*
Y-300202D03*
D936*
X-16503772Y-740384D03*
Y-613384D03*
Y-486384D03*
Y-359384D03*
X-16996532D03*
Y-486384D03*
Y-613384D03*
Y-740384D03*
D937*
X-14729074Y-1260576D03*
Y-1160500D03*
Y-1060678D03*
Y-1869668D03*
Y-1769592D03*
Y-1669516D03*
Y-636244D03*
Y-536422D03*
Y-436346D03*
Y-336270D03*
Y-236448D03*
D938*
X-14341470Y-1390624D03*
Y-930630D03*
Y-1999716D03*
Y-1539722D03*
Y-766292D03*
Y-106400D03*
D939*
X-16260186Y-917422D03*
Y-767562D03*
X-16095086Y-917422D03*
Y-767562D03*
D21*
X-16704686Y-1566392D03*
X-15701386Y-1096492D03*
X-15841086Y-1464792D03*
X-17047586Y-982192D03*
X-16354166Y-486892D03*
X-14558386Y-334492D03*
X-15371186Y-1058392D03*
X-15063846Y-1960092D03*
X-16107786Y-1782292D03*
X-15841086Y-1058392D03*
X-15406746Y-204952D03*
X-15739486Y-1413992D03*
X-16933286Y-232892D03*
X-15739486Y-1325092D03*
X-16666586Y-740892D03*
X-16844386Y-486892D03*
Y-613892D03*
X-16336386Y-1058392D03*
X-15587086Y-1172692D03*
D921*
X-16021426Y-1091732D03*
Y-1142532D03*
Y-1193332D03*
Y-1241592D03*
Y-1292392D03*
Y-1343192D03*
Y-1393992D03*
Y-1442252D03*
Y-1493052D03*
Y-1543852D03*
Y-1592112D03*
X-15178146D03*
Y-1543852D03*
Y-1493052D03*
Y-1442252D03*
Y-1393992D03*
Y-1343192D03*
Y-1292392D03*
Y-1241592D03*
Y-1193332D03*
Y-1142532D03*
Y-1091732D03*
D920*
X-15353726Y-916152D03*
X-15404526D03*
X-15455326D03*
X-15503586D03*
X-15554386D03*
X-15605186D03*
X-15655986D03*
X-15704246D03*
X-15755046D03*
X-15805846D03*
X-15854106D03*
Y-1759432D03*
X-15805846D03*
X-15755046D03*
X-15704246D03*
X-15655986D03*
X-15605186D03*
X-15554386D03*
X-15503586D03*
X-15455326D03*
X-15404526D03*
X-15353726D03*
D919*
X-20090100Y-1899894D03*
X-19809938D03*
X-20042348Y-982192D03*
X-19762440D03*
D920*
X-18525460Y-916152D03*
X-18573720D03*
X-18624520D03*
X-18675320D03*
X-18723580D03*
X-18774380D03*
X-18825180D03*
X-18875980D03*
X-18924240D03*
X-18975040D03*
X-19025840D03*
X-19074100D03*
Y-1759432D03*
X-19025840D03*
X-18975040D03*
X-18924240D03*
X-18875980D03*
X-18825180D03*
X-18774380D03*
X-18723580D03*
X-18675320D03*
X-18624520D03*
X-18573720D03*
X-18525460D03*
D921*
X-19221420Y-1063472D03*
Y-1111732D03*
Y-1162532D03*
Y-1213332D03*
Y-1261592D03*
Y-1312392D03*
Y-1363192D03*
Y-1413992D03*
Y-1462252D03*
Y-1513052D03*
Y-1563852D03*
Y-1612112D03*
X-18378140D03*
Y-1563852D03*
Y-1513052D03*
Y-1462252D03*
Y-1413992D03*
Y-1363192D03*
Y-1312392D03*
Y-1261592D03*
Y-1213332D03*
Y-1162532D03*
Y-1111732D03*
Y-1063472D03*
D926*
X-20206940Y-1213332D03*
Y-1441932D03*
Y-1670532D03*
D927*
X-19577020Y-1439392D03*
D928*
X-18370520Y-928090D03*
Y-758164D03*
X-18787080Y-470382D03*
Y-300202D03*
X-18378140Y-1968982D03*
Y-1798802D03*
X-19413952Y-1786102D03*
Y-1956282D03*
X-18964880Y-470382D03*
Y-300202D03*
X-19210752Y-1786102D03*
Y-1956282D03*
D935*
X-18537144Y-1972792D03*
X-18707070D03*
X-18251140Y-470382D03*
Y-300202D03*
X-18606740D03*
Y-470382D03*
X-18428940Y-300202D03*
Y-470382D03*
X-19142680D03*
Y-300202D03*
X-19320480Y-470382D03*
Y-300202D03*
D936*
X-19703766Y-740384D03*
Y-613384D03*
Y-486384D03*
Y-359384D03*
X-20196526D03*
Y-486384D03*
Y-613384D03*
Y-740384D03*
D937*
X-17929068Y-1260576D03*
Y-1160500D03*
Y-1060678D03*
Y-1869668D03*
Y-1769592D03*
Y-1669516D03*
Y-636244D03*
Y-536422D03*
Y-436346D03*
Y-336270D03*
Y-236448D03*
D938*
X-17541464Y-1390624D03*
Y-930630D03*
Y-1999716D03*
Y-1539722D03*
Y-766292D03*
Y-106400D03*
D939*
X-19460180Y-917422D03*
Y-767562D03*
X-19295080Y-917422D03*
Y-767562D03*
D21*
X-19904680Y-1566392D03*
X-18901380Y-1096492D03*
X-19041080Y-1464792D03*
X-20247580Y-982192D03*
X-19554160Y-486892D03*
X-17758380Y-334492D03*
X-18571180Y-1058392D03*
X-18263840Y-1960092D03*
X-19307780Y-1782292D03*
X-19041080Y-1058392D03*
X-18606740Y-204952D03*
X-18939480Y-1413992D03*
X-20133280Y-232892D03*
X-18939480Y-1325092D03*
X-19866580Y-740892D03*
X-20044380Y-486892D03*
Y-613892D03*
X-19536380Y-1058392D03*
X-18787080Y-1172692D03*
D921*
X-19221420Y-1091732D03*
Y-1142532D03*
Y-1193332D03*
Y-1241592D03*
Y-1292392D03*
Y-1343192D03*
Y-1393992D03*
Y-1442252D03*
Y-1493052D03*
Y-1543852D03*
Y-1592112D03*
X-18378140D03*
Y-1543852D03*
Y-1493052D03*
Y-1442252D03*
Y-1393992D03*
Y-1343192D03*
Y-1292392D03*
Y-1241592D03*
Y-1193332D03*
Y-1142532D03*
Y-1091732D03*
D920*
X-18553720Y-916152D03*
X-18604520D03*
X-18655320D03*
X-18703580D03*
X-18754380D03*
X-18805180D03*
X-18855980D03*
X-18904240D03*
X-18955040D03*
X-19005840D03*
X-19054100D03*
Y-1759432D03*
X-19005840D03*
X-18955040D03*
X-18904240D03*
X-18855980D03*
X-18805180D03*
X-18754380D03*
X-18703580D03*
X-18655320D03*
X-18604520D03*
X-18553720D03*
D919*
X-20090100Y400176D03*
X-19809938D03*
X-20042348Y1317878D03*
X-19762440D03*
D920*
X-18525460Y1383918D03*
X-18573720D03*
X-18624520D03*
X-18675320D03*
X-18723580D03*
X-18774380D03*
X-18825180D03*
X-18875980D03*
X-18924240D03*
X-18975040D03*
X-19025840D03*
X-19074100D03*
Y540638D03*
X-19025840D03*
X-18975040D03*
X-18924240D03*
X-18875980D03*
X-18825180D03*
X-18774380D03*
X-18723580D03*
X-18675320D03*
X-18624520D03*
X-18573720D03*
X-18525460D03*
D921*
X-19221420Y1236598D03*
Y1188338D03*
Y1137538D03*
Y1086738D03*
Y1038478D03*
Y987678D03*
Y936878D03*
Y886078D03*
Y837818D03*
Y787018D03*
Y736218D03*
Y687958D03*
X-18378140D03*
Y736218D03*
Y787018D03*
Y837818D03*
Y886078D03*
Y936878D03*
Y987678D03*
Y1038478D03*
Y1086738D03*
Y1137538D03*
Y1188338D03*
Y1236598D03*
D926*
X-20206940Y1086738D03*
Y858138D03*
Y629538D03*
D927*
X-19577020Y860678D03*
D928*
X-18370520Y1371980D03*
Y1541906D03*
X-18787080Y1829688D03*
Y1999868D03*
X-18378140Y331088D03*
Y501268D03*
X-19413952Y513968D03*
Y343788D03*
X-18964880Y1829688D03*
Y1999868D03*
X-19210752Y513968D03*
Y343788D03*
D935*
X-18537144Y327278D03*
X-18707070D03*
X-18251140Y1829688D03*
Y1999868D03*
X-18606740D03*
Y1829688D03*
X-18428940Y1999868D03*
Y1829688D03*
X-19142680D03*
Y1999868D03*
X-19320480Y1829688D03*
Y1999868D03*
D936*
X-19703766Y1559686D03*
Y1686686D03*
Y1813686D03*
Y1940686D03*
X-20196526D03*
Y1813686D03*
Y1686686D03*
Y1559686D03*
D937*
X-17929068Y1039494D03*
Y1139570D03*
Y1239392D03*
Y430402D03*
Y530478D03*
Y630554D03*
Y1663826D03*
Y1763648D03*
Y1863724D03*
Y1963800D03*
Y2063622D03*
D938*
X-17541464Y909446D03*
Y1369440D03*
Y300354D03*
Y760348D03*
Y1533778D03*
Y2193670D03*
D939*
X-19460180Y1382648D03*
Y1532508D03*
X-19295080Y1382648D03*
Y1532508D03*
D21*
X-19904680Y733678D03*
X-18901380Y1203578D03*
X-19041080Y835278D03*
X-20247580Y1317878D03*
X-19554160Y1813178D03*
X-17758380Y1965578D03*
X-18571180Y1241678D03*
X-18263840Y339978D03*
X-19307780Y517778D03*
X-19041080Y1241678D03*
X-18606740Y2095118D03*
X-18939480Y886078D03*
X-20133280Y2067178D03*
X-18939480Y974978D03*
X-19866580Y1559178D03*
X-20044380Y1813178D03*
Y1686178D03*
X-19536380Y1241678D03*
X-18787080Y1127378D03*
D921*
X-19221420Y1208338D03*
Y1157538D03*
Y1106738D03*
Y1058478D03*
Y1007678D03*
Y956878D03*
Y906078D03*
Y857818D03*
Y807018D03*
Y756218D03*
Y707958D03*
X-18378140D03*
Y756218D03*
Y807018D03*
Y857818D03*
Y906078D03*
Y956878D03*
Y1007678D03*
Y1058478D03*
Y1106738D03*
Y1157538D03*
Y1208338D03*
D920*
X-18553720Y1383918D03*
X-18604520D03*
X-18655320D03*
X-18703580D03*
X-18754380D03*
X-18805180D03*
X-18855980D03*
X-18904240D03*
X-18955040D03*
X-19005840D03*
X-19054100D03*
Y540638D03*
X-19005840D03*
X-18955040D03*
X-18904240D03*
X-18855980D03*
X-18805180D03*
X-18754380D03*
X-18703580D03*
X-18655320D03*
X-18604520D03*
X-18553720D03*
D919*
X-16890106Y400176D03*
X-16609944D03*
X-16842354Y1317878D03*
X-16562446D03*
D920*
X-15325466Y1383918D03*
X-15373726D03*
X-15424526D03*
X-15475326D03*
X-15523586D03*
X-15574386D03*
X-15625186D03*
X-15675986D03*
X-15724246D03*
X-15775046D03*
X-15825846D03*
X-15874106D03*
Y540638D03*
X-15825846D03*
X-15775046D03*
X-15724246D03*
X-15675986D03*
X-15625186D03*
X-15574386D03*
X-15523586D03*
X-15475326D03*
X-15424526D03*
X-15373726D03*
X-15325466D03*
D921*
X-16021426Y1236598D03*
Y1188338D03*
Y1137538D03*
Y1086738D03*
Y1038478D03*
Y987678D03*
Y936878D03*
Y886078D03*
Y837818D03*
Y787018D03*
Y736218D03*
Y687958D03*
X-15178146D03*
Y736218D03*
Y787018D03*
Y837818D03*
Y886078D03*
Y936878D03*
Y987678D03*
Y1038478D03*
Y1086738D03*
Y1137538D03*
Y1188338D03*
Y1236598D03*
D926*
X-17006946Y1086738D03*
Y858138D03*
Y629538D03*
D927*
X-16377026Y860678D03*
D928*
X-15170526Y1371980D03*
Y1541906D03*
X-15587086Y1829688D03*
Y1999868D03*
X-15178146Y331088D03*
Y501268D03*
X-16213958Y513968D03*
Y343788D03*
X-15764886Y1829688D03*
Y1999868D03*
X-16010758Y513968D03*
Y343788D03*
D935*
X-15337150Y327278D03*
X-15507076D03*
X-15051146Y1829688D03*
Y1999868D03*
X-15406746D03*
Y1829688D03*
X-15228946Y1999868D03*
Y1829688D03*
X-15942686D03*
Y1999868D03*
X-16120486Y1829688D03*
Y1999868D03*
D936*
X-16503772Y1559686D03*
Y1686686D03*
Y1813686D03*
Y1940686D03*
X-16996532D03*
Y1813686D03*
Y1686686D03*
Y1559686D03*
D937*
X-14729074Y1039494D03*
Y1139570D03*
Y1239392D03*
Y430402D03*
Y530478D03*
Y630554D03*
Y1663826D03*
Y1763648D03*
Y1863724D03*
Y1963800D03*
Y2063622D03*
D938*
X-14341470Y909446D03*
Y1369440D03*
Y300354D03*
Y760348D03*
Y1533778D03*
Y2193670D03*
D939*
X-16260186Y1382648D03*
Y1532508D03*
X-16095086Y1382648D03*
Y1532508D03*
D21*
X-16704686Y733678D03*
X-15701386Y1203578D03*
X-15841086Y835278D03*
X-17047586Y1317878D03*
X-16354166Y1813178D03*
X-14558386Y1965578D03*
X-15371186Y1241678D03*
X-15063846Y339978D03*
X-16107786Y517778D03*
X-15841086Y1241678D03*
X-15406746Y2095118D03*
X-15739486Y886078D03*
X-16933286Y2067178D03*
X-15739486Y974978D03*
X-16666586Y1559178D03*
X-16844386Y1813178D03*
Y1686178D03*
X-16336386Y1241678D03*
X-15587086Y1127378D03*
D921*
X-16021426Y1208338D03*
Y1157538D03*
Y1106738D03*
Y1058478D03*
Y1007678D03*
Y956878D03*
Y906078D03*
Y857818D03*
Y807018D03*
Y756218D03*
Y707958D03*
X-15178146D03*
Y756218D03*
Y807018D03*
Y857818D03*
Y906078D03*
Y956878D03*
Y1007678D03*
Y1058478D03*
Y1106738D03*
Y1157538D03*
Y1208338D03*
D920*
X-15353726Y1383918D03*
X-15404526D03*
X-15455326D03*
X-15503586D03*
X-15554386D03*
X-15605186D03*
X-15655986D03*
X-15704246D03*
X-15755046D03*
X-15805846D03*
X-15854106D03*
Y540638D03*
X-15805846D03*
X-15755046D03*
X-15704246D03*
X-15655986D03*
X-15605186D03*
X-15554386D03*
X-15503586D03*
X-15455326D03*
X-15404526D03*
X-15353726D03*
D919*
X-13690112Y400176D03*
X-13409950D03*
X-13642360Y1317878D03*
X-13362452D03*
D920*
X-12125472Y1383918D03*
X-12173732D03*
X-12224532D03*
X-12275332D03*
X-12323592D03*
X-12374392D03*
X-12425192D03*
X-12475992D03*
X-12524252D03*
X-12575052D03*
X-12625852D03*
X-12674112D03*
Y540638D03*
X-12625852D03*
X-12575052D03*
X-12524252D03*
X-12475992D03*
X-12425192D03*
X-12374392D03*
X-12323592D03*
X-12275332D03*
X-12224532D03*
X-12173732D03*
X-12125472D03*
D921*
X-12821432Y1236598D03*
Y1188338D03*
Y1137538D03*
Y1086738D03*
Y1038478D03*
Y987678D03*
Y936878D03*
Y886078D03*
Y837818D03*
Y787018D03*
Y736218D03*
Y687958D03*
X-11978152D03*
Y736218D03*
Y787018D03*
Y837818D03*
Y886078D03*
Y936878D03*
Y987678D03*
Y1038478D03*
Y1086738D03*
Y1137538D03*
Y1188338D03*
Y1236598D03*
D926*
X-13806952Y1086738D03*
Y858138D03*
Y629538D03*
D927*
X-13177032Y860678D03*
D928*
X-11970532Y1371980D03*
Y1541906D03*
X-12387092Y1829688D03*
Y1999868D03*
X-11978152Y331088D03*
Y501268D03*
X-13013964Y513968D03*
Y343788D03*
X-12564892Y1829688D03*
Y1999868D03*
X-12810764Y513968D03*
Y343788D03*
D935*
X-12137156Y327278D03*
X-12307082D03*
X-11851152Y1829688D03*
Y1999868D03*
X-12206752D03*
Y1829688D03*
X-12028952Y1999868D03*
Y1829688D03*
X-12742692D03*
Y1999868D03*
X-12920492Y1829688D03*
Y1999868D03*
D936*
X-13303778Y1559686D03*
Y1686686D03*
Y1813686D03*
Y1940686D03*
X-13796538D03*
Y1813686D03*
Y1686686D03*
Y1559686D03*
D937*
X-11529080Y1039494D03*
Y1139570D03*
Y1239392D03*
Y430402D03*
Y530478D03*
Y630554D03*
Y1663826D03*
Y1763648D03*
Y1863724D03*
Y1963800D03*
Y2063622D03*
D938*
X-11141476Y909446D03*
Y1369440D03*
Y300354D03*
Y760348D03*
Y1533778D03*
Y2193670D03*
D939*
X-13060192Y1382648D03*
Y1532508D03*
X-12895092Y1382648D03*
Y1532508D03*
D21*
X-13504692Y733678D03*
X-12501392Y1203578D03*
X-12641092Y835278D03*
X-13847592Y1317878D03*
X-13154172Y1813178D03*
X-11358392Y1965578D03*
X-12171192Y1241678D03*
X-11863852Y339978D03*
X-12907792Y517778D03*
X-12641092Y1241678D03*
X-12206752Y2095118D03*
X-12539492Y886078D03*
X-13733292Y2067178D03*
X-12539492Y974978D03*
X-13466592Y1559178D03*
X-13644392Y1813178D03*
Y1686178D03*
X-13136392Y1241678D03*
X-12387092Y1127378D03*
D921*
X-12821432Y1208338D03*
Y1157538D03*
Y1106738D03*
Y1058478D03*
Y1007678D03*
Y956878D03*
Y906078D03*
Y857818D03*
Y807018D03*
Y756218D03*
Y707958D03*
X-11978152D03*
Y756218D03*
Y807018D03*
Y857818D03*
Y906078D03*
Y956878D03*
Y1007678D03*
Y1058478D03*
Y1106738D03*
Y1157538D03*
Y1208338D03*
D920*
X-12153732Y1383918D03*
X-12204532D03*
X-12255332D03*
X-12303592D03*
X-12354392D03*
X-12405192D03*
X-12455992D03*
X-12504252D03*
X-12555052D03*
X-12605852D03*
X-12654112D03*
Y540638D03*
X-12605852D03*
X-12555052D03*
X-12504252D03*
X-12455992D03*
X-12405192D03*
X-12354392D03*
X-12303592D03*
X-12255332D03*
X-12204532D03*
X-12153732D03*
D944*
X-10500000Y2800350D03*
X-20899980D03*
D945*
Y-9500000D03*
M02*
