G04 Filename: C:\job\davidwalsh\52931\mask_2 *
G04 Creator: GC-CAM (TM) 4.1.4  Wed Oct 29 17:33:21 2014 *
G04 This file contains layer(s): *
G04 Layer 5: C:\JOB\DAVIDWALSH\52931\UNIADAPTER.RLS *
%FSLAX35Y35*%
G04 Units: mm   *
%MOMM*%
G71*
%SFA1.00000B1.00000*%
%OFA0.00000B0.00000*%
G75*
%AD*%
G04 D21 (position 29 of UNTITLED):0.756920 Round     *
%ADD21C,0.756920*%
G04 D922 (position 30 of UNTITLED):3.073400X1.422400 Rectangle *
%ADD922R,3.073400X1.422400*%
G04 D924 (position 31 of UNTITLED):1.803400X3.581400 Rectangle *
%ADD924R,1.803400X3.581400*%
G04 D930 (position 34 of UNTITLED):0.100000 Round     *
%ADD930C,0.100000*%
G04 D944 (position 37 of UNTITLED):3.000000 Round     *
%ADD944C,3.000000*%
G04 D945 (position 38 of UNTITLED):3.000000X3.000000 Rectangle *
%ADD945R,3.000000X3.000000*%
%IPPOS*%
G04 Layer 5: C:\JOB\DAVIDWALSH\52931\UNIADAPTER.RLS *
%LN(05)C:\JOB\DAVIDWALSH\52931\UNIADAPTER.RLS*%
%LPD*%
X0Y0D02*
D930*
X-20399980Y-9000002D02*
X-17399986D01*
Y-6899930*
X-20399980*
Y-9000002*
X-17199986D02*
X-14199992D01*
Y-6899930*
X-17199986*
Y-9000002*
X-13999992D02*
X-10999998D01*
Y-6899930*
X-13999992*
Y-9000002*
Y-6699932D02*
X-10999998D01*
Y-4599860*
X-13999992*
Y-6699932*
X-17199986D02*
X-14199992D01*
Y-4599860*
X-17199986*
Y-6699932*
X-20399980D02*
X-17399986D01*
Y-4599860*
X-20399980*
Y-6699932*
Y-4399862D02*
X-17399986D01*
Y-2299790*
X-20399980*
Y-4399862*
X-17199986D02*
X-14199992D01*
Y-2299790*
X-17199986*
Y-4399862*
X-13999992D02*
X-10999998D01*
Y-2299790*
X-13999992*
Y-4399862*
Y-2099792D02*
X-10999998D01*
Y280*
X-13999992*
Y-2099792*
X-17199986D02*
X-14199992D01*
Y280*
X-17199986*
Y-2099792*
X-20399980D02*
X-17399986D01*
Y280*
X-20399980*
Y-2099792*
Y200278D02*
X-17399986D01*
Y2300350*
X-20399980*
Y200278*
X-17199986D02*
X-14199992D01*
Y2300350*
X-17199986*
Y200278*
X-13999992D02*
X-10999998D01*
Y2300350*
X-13999992*
Y200278*
D922*
X-19351976Y-7800106D03*
Y-7500132D03*
Y-8100080D03*
Y-8400054D03*
X-18447990Y-8100080D03*
Y-8400054D03*
Y-7800106D03*
Y-7500132D03*
D924*
X-19900108Y-8787912D03*
Y-7112020D03*
X-17900112D03*
Y-8787912D03*
D21*
X-19904680Y-8466602D03*
X-18901380Y-7996702D03*
X-19041080Y-8365002D03*
X-20247580Y-7882402D03*
X-19554160Y-7387102D03*
X-17758380Y-7234702D03*
X-18571180Y-7958602D03*
X-18263840Y-8860302D03*
X-19307780Y-8682502D03*
X-19041080Y-7958602D03*
X-18606740Y-7105162D03*
X-18939480Y-8314202D03*
X-20133280Y-7133102D03*
X-18939480Y-8225302D03*
X-19866580Y-7641102D03*
X-20044380Y-7387102D03*
Y-7514102D03*
X-19536380Y-7958602D03*
X-18787080Y-8072902D03*
D922*
X-16151982Y-7800106D03*
Y-7500132D03*
Y-8100080D03*
Y-8400054D03*
X-15247996Y-8100080D03*
Y-8400054D03*
Y-7800106D03*
Y-7500132D03*
D924*
X-16700114Y-8787912D03*
Y-7112020D03*
X-14700118D03*
Y-8787912D03*
D21*
X-16704686Y-8466602D03*
X-15701386Y-7996702D03*
X-15841086Y-8365002D03*
X-17047586Y-7882402D03*
X-16354166Y-7387102D03*
X-14558386Y-7234702D03*
X-15371186Y-7958602D03*
X-15063846Y-8860302D03*
X-16107786Y-8682502D03*
X-15841086Y-7958602D03*
X-15406746Y-7105162D03*
X-15739486Y-8314202D03*
X-16933286Y-7133102D03*
X-15739486Y-8225302D03*
X-16666586Y-7641102D03*
X-16844386Y-7387102D03*
Y-7514102D03*
X-16336386Y-7958602D03*
X-15587086Y-8072902D03*
D922*
X-12951988Y-7800106D03*
Y-7500132D03*
Y-8100080D03*
Y-8400054D03*
X-12048002Y-8100080D03*
Y-8400054D03*
Y-7800106D03*
Y-7500132D03*
D924*
X-13500120Y-8787912D03*
Y-7112020D03*
X-11500124D03*
Y-8787912D03*
D21*
X-13504692Y-8466602D03*
X-12501392Y-7996702D03*
X-12641092Y-8365002D03*
X-13847592Y-7882402D03*
X-13154172Y-7387102D03*
X-11358392Y-7234702D03*
X-12171192Y-7958602D03*
X-11863852Y-8860302D03*
X-12907792Y-8682502D03*
X-12641092Y-7958602D03*
X-12206752Y-7105162D03*
X-12539492Y-8314202D03*
X-13733292Y-7133102D03*
X-12539492Y-8225302D03*
X-13466592Y-7641102D03*
X-13644392Y-7387102D03*
Y-7514102D03*
X-13136392Y-7958602D03*
X-12387092Y-8072902D03*
D922*
X-12951988Y-5500036D03*
Y-5200062D03*
Y-5800010D03*
Y-6099984D03*
X-12048002Y-5800010D03*
Y-6099984D03*
Y-5500036D03*
Y-5200062D03*
D924*
X-13500120Y-6487842D03*
Y-4811950D03*
X-11500124D03*
Y-6487842D03*
D21*
X-13504692Y-6166532D03*
X-12501392Y-5696632D03*
X-12641092Y-6064932D03*
X-13847592Y-5582332D03*
X-13154172Y-5087032D03*
X-11358392Y-4934632D03*
X-12171192Y-5658532D03*
X-11863852Y-6560232D03*
X-12907792Y-6382432D03*
X-12641092Y-5658532D03*
X-12206752Y-4805092D03*
X-12539492Y-6014132D03*
X-13733292Y-4833032D03*
X-12539492Y-5925232D03*
X-13466592Y-5341032D03*
X-13644392Y-5087032D03*
Y-5214032D03*
X-13136392Y-5658532D03*
X-12387092Y-5772832D03*
D922*
X-16151982Y-5500036D03*
Y-5200062D03*
Y-5800010D03*
Y-6099984D03*
X-15247996Y-5800010D03*
Y-6099984D03*
Y-5500036D03*
Y-5200062D03*
D924*
X-16700114Y-6487842D03*
Y-4811950D03*
X-14700118D03*
Y-6487842D03*
D21*
X-16704686Y-6166532D03*
X-15701386Y-5696632D03*
X-15841086Y-6064932D03*
X-17047586Y-5582332D03*
X-16354166Y-5087032D03*
X-14558386Y-4934632D03*
X-15371186Y-5658532D03*
X-15063846Y-6560232D03*
X-16107786Y-6382432D03*
X-15841086Y-5658532D03*
X-15406746Y-4805092D03*
X-15739486Y-6014132D03*
X-16933286Y-4833032D03*
X-15739486Y-5925232D03*
X-16666586Y-5341032D03*
X-16844386Y-5087032D03*
Y-5214032D03*
X-16336386Y-5658532D03*
X-15587086Y-5772832D03*
D922*
X-19351976Y-5500036D03*
Y-5200062D03*
Y-5800010D03*
Y-6099984D03*
X-18447990Y-5800010D03*
Y-6099984D03*
Y-5500036D03*
Y-5200062D03*
D924*
X-19900108Y-6487842D03*
Y-4811950D03*
X-17900112D03*
Y-6487842D03*
D21*
X-19904680Y-6166532D03*
X-18901380Y-5696632D03*
X-19041080Y-6064932D03*
X-20247580Y-5582332D03*
X-19554160Y-5087032D03*
X-17758380Y-4934632D03*
X-18571180Y-5658532D03*
X-18263840Y-6560232D03*
X-19307780Y-6382432D03*
X-19041080Y-5658532D03*
X-18606740Y-4805092D03*
X-18939480Y-6014132D03*
X-20133280Y-4833032D03*
X-18939480Y-5925232D03*
X-19866580Y-5341032D03*
X-20044380Y-5087032D03*
Y-5214032D03*
X-19536380Y-5658532D03*
X-18787080Y-5772832D03*
D922*
X-19351976Y-3199966D03*
Y-2899992D03*
Y-3499940D03*
Y-3799914D03*
X-18447990Y-3499940D03*
Y-3799914D03*
Y-3199966D03*
Y-2899992D03*
D924*
X-19900108Y-4187772D03*
Y-2511880D03*
X-17900112D03*
Y-4187772D03*
D21*
X-19904680Y-3866462D03*
X-18901380Y-3396562D03*
X-19041080Y-3764862D03*
X-20247580Y-3282262D03*
X-19554160Y-2786962D03*
X-17758380Y-2634562D03*
X-18571180Y-3358462D03*
X-18263840Y-4260162D03*
X-19307780Y-4082362D03*
X-19041080Y-3358462D03*
X-18606740Y-2505022D03*
X-18939480Y-3714062D03*
X-20133280Y-2532962D03*
X-18939480Y-3625162D03*
X-19866580Y-3040962D03*
X-20044380Y-2786962D03*
Y-2913962D03*
X-19536380Y-3358462D03*
X-18787080Y-3472762D03*
D922*
X-16151982Y-3199966D03*
Y-2899992D03*
Y-3499940D03*
Y-3799914D03*
X-15247996Y-3499940D03*
Y-3799914D03*
Y-3199966D03*
Y-2899992D03*
D924*
X-16700114Y-4187772D03*
Y-2511880D03*
X-14700118D03*
Y-4187772D03*
D21*
X-16704686Y-3866462D03*
X-15701386Y-3396562D03*
X-15841086Y-3764862D03*
X-17047586Y-3282262D03*
X-16354166Y-2786962D03*
X-14558386Y-2634562D03*
X-15371186Y-3358462D03*
X-15063846Y-4260162D03*
X-16107786Y-4082362D03*
X-15841086Y-3358462D03*
X-15406746Y-2505022D03*
X-15739486Y-3714062D03*
X-16933286Y-2532962D03*
X-15739486Y-3625162D03*
X-16666586Y-3040962D03*
X-16844386Y-2786962D03*
Y-2913962D03*
X-16336386Y-3358462D03*
X-15587086Y-3472762D03*
D922*
X-12951988Y-3199966D03*
Y-2899992D03*
Y-3499940D03*
Y-3799914D03*
X-12048002Y-3499940D03*
Y-3799914D03*
Y-3199966D03*
Y-2899992D03*
D924*
X-13500120Y-4187772D03*
Y-2511880D03*
X-11500124D03*
Y-4187772D03*
D21*
X-13504692Y-3866462D03*
X-12501392Y-3396562D03*
X-12641092Y-3764862D03*
X-13847592Y-3282262D03*
X-13154172Y-2786962D03*
X-11358392Y-2634562D03*
X-12171192Y-3358462D03*
X-11863852Y-4260162D03*
X-12907792Y-4082362D03*
X-12641092Y-3358462D03*
X-12206752Y-2505022D03*
X-12539492Y-3714062D03*
X-13733292Y-2532962D03*
X-12539492Y-3625162D03*
X-13466592Y-3040962D03*
X-13644392Y-2786962D03*
Y-2913962D03*
X-13136392Y-3358462D03*
X-12387092Y-3472762D03*
D922*
X-12951988Y-899896D03*
Y-599922D03*
Y-1199870D03*
Y-1499844D03*
X-12048002Y-1199870D03*
Y-1499844D03*
Y-899896D03*
Y-599922D03*
D924*
X-13500120Y-1887702D03*
Y-211810D03*
X-11500124D03*
Y-1887702D03*
D21*
X-13504692Y-1566392D03*
X-12501392Y-1096492D03*
X-12641092Y-1464792D03*
X-13847592Y-982192D03*
X-13154172Y-486892D03*
X-11358392Y-334492D03*
X-12171192Y-1058392D03*
X-11863852Y-1960092D03*
X-12907792Y-1782292D03*
X-12641092Y-1058392D03*
X-12206752Y-204952D03*
X-12539492Y-1413992D03*
X-13733292Y-232892D03*
X-12539492Y-1325092D03*
X-13466592Y-740892D03*
X-13644392Y-486892D03*
Y-613892D03*
X-13136392Y-1058392D03*
X-12387092Y-1172692D03*
D922*
X-16151982Y-899896D03*
Y-599922D03*
Y-1199870D03*
Y-1499844D03*
X-15247996Y-1199870D03*
Y-1499844D03*
Y-899896D03*
Y-599922D03*
D924*
X-16700114Y-1887702D03*
Y-211810D03*
X-14700118D03*
Y-1887702D03*
D21*
X-16704686Y-1566392D03*
X-15701386Y-1096492D03*
X-15841086Y-1464792D03*
X-17047586Y-982192D03*
X-16354166Y-486892D03*
X-14558386Y-334492D03*
X-15371186Y-1058392D03*
X-15063846Y-1960092D03*
X-16107786Y-1782292D03*
X-15841086Y-1058392D03*
X-15406746Y-204952D03*
X-15739486Y-1413992D03*
X-16933286Y-232892D03*
X-15739486Y-1325092D03*
X-16666586Y-740892D03*
X-16844386Y-486892D03*
Y-613892D03*
X-16336386Y-1058392D03*
X-15587086Y-1172692D03*
D922*
X-19351976Y-899896D03*
Y-599922D03*
Y-1199870D03*
Y-1499844D03*
X-18447990Y-1199870D03*
Y-1499844D03*
Y-899896D03*
Y-599922D03*
D924*
X-19900108Y-1887702D03*
Y-211810D03*
X-17900112D03*
Y-1887702D03*
D21*
X-19904680Y-1566392D03*
X-18901380Y-1096492D03*
X-19041080Y-1464792D03*
X-20247580Y-982192D03*
X-19554160Y-486892D03*
X-17758380Y-334492D03*
X-18571180Y-1058392D03*
X-18263840Y-1960092D03*
X-19307780Y-1782292D03*
X-19041080Y-1058392D03*
X-18606740Y-204952D03*
X-18939480Y-1413992D03*
X-20133280Y-232892D03*
X-18939480Y-1325092D03*
X-19866580Y-740892D03*
X-20044380Y-486892D03*
Y-613892D03*
X-19536380Y-1058392D03*
X-18787080Y-1172692D03*
D922*
X-19351976Y1400174D03*
Y1700148D03*
Y1100200D03*
Y800226D03*
X-18447990Y1100200D03*
Y800226D03*
Y1400174D03*
Y1700148D03*
D924*
X-19900108Y412368D03*
Y2088260D03*
X-17900112D03*
Y412368D03*
D21*
X-19904680Y733678D03*
X-18901380Y1203578D03*
X-19041080Y835278D03*
X-20247580Y1317878D03*
X-19554160Y1813178D03*
X-17758380Y1965578D03*
X-18571180Y1241678D03*
X-18263840Y339978D03*
X-19307780Y517778D03*
X-19041080Y1241678D03*
X-18606740Y2095118D03*
X-18939480Y886078D03*
X-20133280Y2067178D03*
X-18939480Y974978D03*
X-19866580Y1559178D03*
X-20044380Y1813178D03*
Y1686178D03*
X-19536380Y1241678D03*
X-18787080Y1127378D03*
D922*
X-16151982Y1400174D03*
Y1700148D03*
Y1100200D03*
Y800226D03*
X-15247996Y1100200D03*
Y800226D03*
Y1400174D03*
Y1700148D03*
D924*
X-16700114Y412368D03*
Y2088260D03*
X-14700118D03*
Y412368D03*
D21*
X-16704686Y733678D03*
X-15701386Y1203578D03*
X-15841086Y835278D03*
X-17047586Y1317878D03*
X-16354166Y1813178D03*
X-14558386Y1965578D03*
X-15371186Y1241678D03*
X-15063846Y339978D03*
X-16107786Y517778D03*
X-15841086Y1241678D03*
X-15406746Y2095118D03*
X-15739486Y886078D03*
X-16933286Y2067178D03*
X-15739486Y974978D03*
X-16666586Y1559178D03*
X-16844386Y1813178D03*
Y1686178D03*
X-16336386Y1241678D03*
X-15587086Y1127378D03*
D922*
X-12951988Y1400174D03*
Y1700148D03*
Y1100200D03*
Y800226D03*
X-12048002Y1100200D03*
Y800226D03*
Y1400174D03*
Y1700148D03*
D924*
X-13500120Y412368D03*
Y2088260D03*
X-11500124D03*
Y412368D03*
D21*
X-13504692Y733678D03*
X-12501392Y1203578D03*
X-12641092Y835278D03*
X-13847592Y1317878D03*
X-13154172Y1813178D03*
X-11358392Y1965578D03*
X-12171192Y1241678D03*
X-11863852Y339978D03*
X-12907792Y517778D03*
X-12641092Y1241678D03*
X-12206752Y2095118D03*
X-12539492Y886078D03*
X-13733292Y2067178D03*
X-12539492Y974978D03*
X-13466592Y1559178D03*
X-13644392Y1813178D03*
Y1686178D03*
X-13136392Y1241678D03*
X-12387092Y1127378D03*
D944*
X-10500000Y2800350D03*
X-20899980D03*
D945*
Y-9500000D03*
M02*
