G04 Filename: C:\job\james\mask_2 *
G04 Creator: GC-CAM (TM) 4.1.4  Thu Nov 13 08:35:27 2014 *
G04 This file contains layer(s): *
G04 Layer 5: C:\job\james\uni.rls *
%FSLAX35Y35*%
G04 Units: mm   *
%MOMM*%
G71*
%SFA1.00000B1.00000*%
%OFA0.00000B0.00000*%
G75*
%AD*%
G04 D21 (position 12 of UNTITLED):0.754380 Round     *
%ADD21C,0.754380*%
G04 D922 (position 33 of UNTITLED):3.070860X1.419860 Rectangle *
%ADD922R,3.070860X1.419860*%
G04 D923 (position 34 of UNTITLED):0.100000 Round     *
%ADD923C,0.100000*%
G04 D924 (position 35 of UNTITLED):1.800860X3.578860 Rectangle *
%ADD924R,1.800860X3.578860*%
G04 D934 (position 41 of UNTITLED):3.000000 Round     *
%ADD934C,3.000000*%
G04 D935 (position 42 of UNTITLED):3.000000X3.000000 Rectangle *
%ADD935R,3.000000X3.000000*%
%IPPOS*%
G04 Layer 5: C:\job\james\uni.rls *
%LN(05)C:\job\james\uni.rls*%
%LPD*%
X0Y0D02*
D923*
X-20399990Y-9000002D02*
X-19049993D01*
X-18749993D02*
X-17399996D01*
Y-8099966*
Y-7799966D02*
Y-6899930D01*
X-18749993*
X-19049993D02*
X-20399990D01*
Y-7799966*
Y-8099966D02*
Y-9000002D01*
X-17199990D02*
X-15849993D01*
X-15549993D02*
X-14199996D01*
Y-8099966*
Y-7799966D02*
Y-6899930D01*
X-15549993*
X-15849993D02*
X-17199990D01*
Y-7799966*
Y-8099966D02*
Y-9000002D01*
X-13999990D02*
X-12649993D01*
X-12349993D02*
X-10999996D01*
Y-8099966*
Y-7799966D02*
Y-6899930D01*
X-12349993*
X-12649993D02*
X-13999990D01*
Y-7799966*
Y-8099966D02*
Y-9000002D01*
X-20399990Y-6700002D02*
X-19049993D01*
X-18749993D02*
X-17399996D01*
Y-5799966*
Y-5499966D02*
Y-4599930D01*
X-18749993*
X-19049993D02*
X-20399990D01*
Y-5499966*
Y-5799966D02*
Y-6700002D01*
X-17199990D02*
X-15849993D01*
X-15549993D02*
X-14199996D01*
Y-5799966*
Y-5499966D02*
Y-4599930D01*
X-15549993*
X-15849993D02*
X-17199990D01*
Y-5499966*
Y-5799966D02*
Y-6700002D01*
X-13999990D02*
X-12649993D01*
X-12349993D02*
X-10999996D01*
Y-5799966*
Y-5499966D02*
Y-4599930D01*
X-12349993*
X-12649993D02*
X-13999990D01*
Y-5499966*
Y-5799966D02*
Y-6700002D01*
X-20399990Y-4400002D02*
X-19049993D01*
X-18749993D02*
X-17399996D01*
Y-3499966*
Y-3199966D02*
Y-2299930D01*
X-18749993*
X-19049993D02*
X-20399990D01*
Y-3199966*
Y-3499966D02*
Y-4400002D01*
X-17199990D02*
X-15849993D01*
X-15549993D02*
X-14199996D01*
Y-3499966*
Y-3199966D02*
Y-2299930D01*
X-15549993*
X-15849993D02*
X-17199990D01*
Y-3199966*
Y-3499966D02*
Y-4400002D01*
X-13999990D02*
X-12649993D01*
X-12349993D02*
X-10999996D01*
Y-3499966*
Y-3199966D02*
Y-2299930D01*
X-12349993*
X-12649993D02*
X-13999990D01*
Y-3199966*
Y-3499966D02*
Y-4400002D01*
X-20399990Y-2100002D02*
X-19049993D01*
X-18749993D02*
X-17399996D01*
Y-1199966*
Y-899966D02*
Y70D01*
X-18749993*
X-19049993D02*
X-20399990D01*
Y-899966*
Y-1199966D02*
Y-2100002D01*
X-17199990D02*
X-15849993D01*
X-15549993D02*
X-14199996D01*
Y-1199966*
Y-899966D02*
Y70D01*
X-15549993*
X-15849993D02*
X-17199990D01*
Y-899966*
Y-1199966D02*
Y-2100002D01*
X-13999990D02*
X-12649993D01*
X-12349993D02*
X-10999996D01*
Y-1199966*
Y-899966D02*
Y70D01*
X-12349993*
X-12649993D02*
X-13999990D01*
Y-899966*
Y-1199966D02*
Y-2100002D01*
X-20399990Y199998D02*
X-19049993D01*
X-18749993D02*
X-17399996D01*
Y1100034*
Y1400034D02*
Y2300070D01*
X-18749993*
X-19049993D02*
X-20399990D01*
Y1400034*
Y1100034D02*
Y199998D01*
X-17199990D02*
X-15849993D01*
X-15549993D02*
X-14199996D01*
Y1100034*
Y1400034D02*
Y2300070D01*
X-15549993*
X-15849993D02*
X-17199990D01*
Y1400034*
Y1100034D02*
Y199998D01*
X-13999990D02*
X-12649993D01*
X-12349993D02*
X-10999996D01*
Y1100034*
Y1400034D02*
Y2300070D01*
X-12349993*
X-12649993D02*
X-13999990D01*
Y1400034*
Y1100034D02*
Y199998D01*
X-21399990Y-10000002D02*
Y3300070D01*
X-9999996*
Y-10000002*
X-21399990*
D922*
X-19351986Y-7800106D03*
Y-7500132D03*
Y-8100080D03*
Y-8400054D03*
X-18448000Y-8100080D03*
Y-8400054D03*
Y-7800106D03*
Y-7500132D03*
D924*
X-19900118Y-8787912D03*
Y-7112020D03*
X-17900122D03*
Y-8787912D03*
D21*
X-19904690Y-8466602D03*
X-18901390Y-7996702D03*
X-19041090Y-8365002D03*
X-20247590Y-7882402D03*
X-19554170Y-7387102D03*
X-17758390Y-7234702D03*
X-18571190Y-7958602D03*
X-18263850Y-8860302D03*
X-19307790Y-8682502D03*
X-19041090Y-7958602D03*
X-18606750Y-7105162D03*
X-18939490Y-8314202D03*
X-20133290Y-7133102D03*
X-18939490Y-8225302D03*
X-19866590Y-7641102D03*
X-20044390Y-7387102D03*
Y-7514102D03*
X-19536390Y-7958602D03*
X-18787090Y-8072902D03*
D922*
X-16151986Y-7800106D03*
Y-7500132D03*
Y-8100080D03*
Y-8400054D03*
X-15248000Y-8100080D03*
Y-8400054D03*
Y-7800106D03*
Y-7500132D03*
D924*
X-16700118Y-8787912D03*
Y-7112020D03*
X-14700122D03*
Y-8787912D03*
D21*
X-16704690Y-8466602D03*
X-15701390Y-7996702D03*
X-15841090Y-8365002D03*
X-17047590Y-7882402D03*
X-16354170Y-7387102D03*
X-14558390Y-7234702D03*
X-15371190Y-7958602D03*
X-15063850Y-8860302D03*
X-16107790Y-8682502D03*
X-15841090Y-7958602D03*
X-15406750Y-7105162D03*
X-15739490Y-8314202D03*
X-16933290Y-7133102D03*
X-15739490Y-8225302D03*
X-16666590Y-7641102D03*
X-16844390Y-7387102D03*
Y-7514102D03*
X-16336390Y-7958602D03*
X-15587090Y-8072902D03*
D922*
X-12951986Y-7800106D03*
Y-7500132D03*
Y-8100080D03*
Y-8400054D03*
X-12048000Y-8100080D03*
Y-8400054D03*
Y-7800106D03*
Y-7500132D03*
D924*
X-13500118Y-8787912D03*
Y-7112020D03*
X-11500122D03*
Y-8787912D03*
D21*
X-13504690Y-8466602D03*
X-12501390Y-7996702D03*
X-12641090Y-8365002D03*
X-13847590Y-7882402D03*
X-13154170Y-7387102D03*
X-11358390Y-7234702D03*
X-12171190Y-7958602D03*
X-11863850Y-8860302D03*
X-12907790Y-8682502D03*
X-12641090Y-7958602D03*
X-12206750Y-7105162D03*
X-12539490Y-8314202D03*
X-13733290Y-7133102D03*
X-12539490Y-8225302D03*
X-13466590Y-7641102D03*
X-13644390Y-7387102D03*
Y-7514102D03*
X-13136390Y-7958602D03*
X-12387090Y-8072902D03*
D922*
X-19351986Y-5500106D03*
Y-5200132D03*
Y-5800080D03*
Y-6100054D03*
X-18448000Y-5800080D03*
Y-6100054D03*
Y-5500106D03*
Y-5200132D03*
D924*
X-19900118Y-6487912D03*
Y-4812020D03*
X-17900122D03*
Y-6487912D03*
D21*
X-19904690Y-6166602D03*
X-18901390Y-5696702D03*
X-19041090Y-6065002D03*
X-20247590Y-5582402D03*
X-19554170Y-5087102D03*
X-17758390Y-4934702D03*
X-18571190Y-5658602D03*
X-18263850Y-6560302D03*
X-19307790Y-6382502D03*
X-19041090Y-5658602D03*
X-18606750Y-4805162D03*
X-18939490Y-6014202D03*
X-20133290Y-4833102D03*
X-18939490Y-5925302D03*
X-19866590Y-5341102D03*
X-20044390Y-5087102D03*
Y-5214102D03*
X-19536390Y-5658602D03*
X-18787090Y-5772902D03*
D922*
X-16151986Y-5500106D03*
Y-5200132D03*
Y-5800080D03*
Y-6100054D03*
X-15248000Y-5800080D03*
Y-6100054D03*
Y-5500106D03*
Y-5200132D03*
D924*
X-16700118Y-6487912D03*
Y-4812020D03*
X-14700122D03*
Y-6487912D03*
D21*
X-16704690Y-6166602D03*
X-15701390Y-5696702D03*
X-15841090Y-6065002D03*
X-17047590Y-5582402D03*
X-16354170Y-5087102D03*
X-14558390Y-4934702D03*
X-15371190Y-5658602D03*
X-15063850Y-6560302D03*
X-16107790Y-6382502D03*
X-15841090Y-5658602D03*
X-15406750Y-4805162D03*
X-15739490Y-6014202D03*
X-16933290Y-4833102D03*
X-15739490Y-5925302D03*
X-16666590Y-5341102D03*
X-16844390Y-5087102D03*
Y-5214102D03*
X-16336390Y-5658602D03*
X-15587090Y-5772902D03*
D922*
X-12951986Y-5500106D03*
Y-5200132D03*
Y-5800080D03*
Y-6100054D03*
X-12048000Y-5800080D03*
Y-6100054D03*
Y-5500106D03*
Y-5200132D03*
D924*
X-13500118Y-6487912D03*
Y-4812020D03*
X-11500122D03*
Y-6487912D03*
D21*
X-13504690Y-6166602D03*
X-12501390Y-5696702D03*
X-12641090Y-6065002D03*
X-13847590Y-5582402D03*
X-13154170Y-5087102D03*
X-11358390Y-4934702D03*
X-12171190Y-5658602D03*
X-11863850Y-6560302D03*
X-12907790Y-6382502D03*
X-12641090Y-5658602D03*
X-12206750Y-4805162D03*
X-12539490Y-6014202D03*
X-13733290Y-4833102D03*
X-12539490Y-5925302D03*
X-13466590Y-5341102D03*
X-13644390Y-5087102D03*
Y-5214102D03*
X-13136390Y-5658602D03*
X-12387090Y-5772902D03*
D922*
X-19351986Y-3200106D03*
Y-2900132D03*
Y-3500080D03*
Y-3800054D03*
X-18448000Y-3500080D03*
Y-3800054D03*
Y-3200106D03*
Y-2900132D03*
D924*
X-19900118Y-4187912D03*
Y-2512020D03*
X-17900122D03*
Y-4187912D03*
D21*
X-19904690Y-3866602D03*
X-18901390Y-3396702D03*
X-19041090Y-3765002D03*
X-20247590Y-3282402D03*
X-19554170Y-2787102D03*
X-17758390Y-2634702D03*
X-18571190Y-3358602D03*
X-18263850Y-4260302D03*
X-19307790Y-4082502D03*
X-19041090Y-3358602D03*
X-18606750Y-2505162D03*
X-18939490Y-3714202D03*
X-20133290Y-2533102D03*
X-18939490Y-3625302D03*
X-19866590Y-3041102D03*
X-20044390Y-2787102D03*
Y-2914102D03*
X-19536390Y-3358602D03*
X-18787090Y-3472902D03*
D922*
X-16151986Y-3200106D03*
Y-2900132D03*
Y-3500080D03*
Y-3800054D03*
X-15248000Y-3500080D03*
Y-3800054D03*
Y-3200106D03*
Y-2900132D03*
D924*
X-16700118Y-4187912D03*
Y-2512020D03*
X-14700122D03*
Y-4187912D03*
D21*
X-16704690Y-3866602D03*
X-15701390Y-3396702D03*
X-15841090Y-3765002D03*
X-17047590Y-3282402D03*
X-16354170Y-2787102D03*
X-14558390Y-2634702D03*
X-15371190Y-3358602D03*
X-15063850Y-4260302D03*
X-16107790Y-4082502D03*
X-15841090Y-3358602D03*
X-15406750Y-2505162D03*
X-15739490Y-3714202D03*
X-16933290Y-2533102D03*
X-15739490Y-3625302D03*
X-16666590Y-3041102D03*
X-16844390Y-2787102D03*
Y-2914102D03*
X-16336390Y-3358602D03*
X-15587090Y-3472902D03*
D922*
X-12951986Y-3200106D03*
Y-2900132D03*
Y-3500080D03*
Y-3800054D03*
X-12048000Y-3500080D03*
Y-3800054D03*
Y-3200106D03*
Y-2900132D03*
D924*
X-13500118Y-4187912D03*
Y-2512020D03*
X-11500122D03*
Y-4187912D03*
D21*
X-13504690Y-3866602D03*
X-12501390Y-3396702D03*
X-12641090Y-3765002D03*
X-13847590Y-3282402D03*
X-13154170Y-2787102D03*
X-11358390Y-2634702D03*
X-12171190Y-3358602D03*
X-11863850Y-4260302D03*
X-12907790Y-4082502D03*
X-12641090Y-3358602D03*
X-12206750Y-2505162D03*
X-12539490Y-3714202D03*
X-13733290Y-2533102D03*
X-12539490Y-3625302D03*
X-13466590Y-3041102D03*
X-13644390Y-2787102D03*
Y-2914102D03*
X-13136390Y-3358602D03*
X-12387090Y-3472902D03*
D922*
X-19351986Y-900106D03*
Y-600132D03*
Y-1200080D03*
Y-1500054D03*
X-18448000Y-1200080D03*
Y-1500054D03*
Y-900106D03*
Y-600132D03*
D924*
X-19900118Y-1887912D03*
Y-212020D03*
X-17900122D03*
Y-1887912D03*
D21*
X-19904690Y-1566602D03*
X-18901390Y-1096702D03*
X-19041090Y-1465002D03*
X-20247590Y-982402D03*
X-19554170Y-487102D03*
X-17758390Y-334702D03*
X-18571190Y-1058602D03*
X-18263850Y-1960302D03*
X-19307790Y-1782502D03*
X-19041090Y-1058602D03*
X-18606750Y-205162D03*
X-18939490Y-1414202D03*
X-20133290Y-233102D03*
X-18939490Y-1325302D03*
X-19866590Y-741102D03*
X-20044390Y-487102D03*
Y-614102D03*
X-19536390Y-1058602D03*
X-18787090Y-1172902D03*
D922*
X-16151986Y-900106D03*
Y-600132D03*
Y-1200080D03*
Y-1500054D03*
X-15248000Y-1200080D03*
Y-1500054D03*
Y-900106D03*
Y-600132D03*
D924*
X-16700118Y-1887912D03*
Y-212020D03*
X-14700122D03*
Y-1887912D03*
D21*
X-16704690Y-1566602D03*
X-15701390Y-1096702D03*
X-15841090Y-1465002D03*
X-17047590Y-982402D03*
X-16354170Y-487102D03*
X-14558390Y-334702D03*
X-15371190Y-1058602D03*
X-15063850Y-1960302D03*
X-16107790Y-1782502D03*
X-15841090Y-1058602D03*
X-15406750Y-205162D03*
X-15739490Y-1414202D03*
X-16933290Y-233102D03*
X-15739490Y-1325302D03*
X-16666590Y-741102D03*
X-16844390Y-487102D03*
Y-614102D03*
X-16336390Y-1058602D03*
X-15587090Y-1172902D03*
D922*
X-12951986Y-900106D03*
Y-600132D03*
Y-1200080D03*
Y-1500054D03*
X-12048000Y-1200080D03*
Y-1500054D03*
Y-900106D03*
Y-600132D03*
D924*
X-13500118Y-1887912D03*
Y-212020D03*
X-11500122D03*
Y-1887912D03*
D21*
X-13504690Y-1566602D03*
X-12501390Y-1096702D03*
X-12641090Y-1465002D03*
X-13847590Y-982402D03*
X-13154170Y-487102D03*
X-11358390Y-334702D03*
X-12171190Y-1058602D03*
X-11863850Y-1960302D03*
X-12907790Y-1782502D03*
X-12641090Y-1058602D03*
X-12206750Y-205162D03*
X-12539490Y-1414202D03*
X-13733290Y-233102D03*
X-12539490Y-1325302D03*
X-13466590Y-741102D03*
X-13644390Y-487102D03*
Y-614102D03*
X-13136390Y-1058602D03*
X-12387090Y-1172902D03*
D922*
X-19351986Y1399894D03*
Y1699868D03*
Y1099920D03*
Y799946D03*
X-18448000Y1099920D03*
Y799946D03*
Y1399894D03*
Y1699868D03*
D924*
X-19900118Y412088D03*
Y2087980D03*
X-17900122D03*
Y412088D03*
D21*
X-19904690Y733398D03*
X-18901390Y1203298D03*
X-19041090Y834998D03*
X-20247590Y1317598D03*
X-19554170Y1812898D03*
X-17758390Y1965298D03*
X-18571190Y1241398D03*
X-18263850Y339698D03*
X-19307790Y517498D03*
X-19041090Y1241398D03*
X-18606750Y2094838D03*
X-18939490Y885798D03*
X-20133290Y2066898D03*
X-18939490Y974698D03*
X-19866590Y1558898D03*
X-20044390Y1812898D03*
Y1685898D03*
X-19536390Y1241398D03*
X-18787090Y1127098D03*
D922*
X-16151986Y1399894D03*
Y1699868D03*
Y1099920D03*
Y799946D03*
X-15248000Y1099920D03*
Y799946D03*
Y1399894D03*
Y1699868D03*
D924*
X-16700118Y412088D03*
Y2087980D03*
X-14700122D03*
Y412088D03*
D21*
X-16704690Y733398D03*
X-15701390Y1203298D03*
X-15841090Y834998D03*
X-17047590Y1317598D03*
X-16354170Y1812898D03*
X-14558390Y1965298D03*
X-15371190Y1241398D03*
X-15063850Y339698D03*
X-16107790Y517498D03*
X-15841090Y1241398D03*
X-15406750Y2094838D03*
X-15739490Y885798D03*
X-16933290Y2066898D03*
X-15739490Y974698D03*
X-16666590Y1558898D03*
X-16844390Y1812898D03*
Y1685898D03*
X-16336390Y1241398D03*
X-15587090Y1127098D03*
D922*
X-12951986Y1399894D03*
Y1699868D03*
Y1099920D03*
Y799946D03*
X-12048000Y1099920D03*
Y799946D03*
Y1399894D03*
Y1699868D03*
D924*
X-13500118Y412088D03*
Y2087980D03*
X-11500122D03*
Y412088D03*
D21*
X-13504690Y733398D03*
X-12501390Y1203298D03*
X-12641090Y834998D03*
X-13847590Y1317598D03*
X-13154170Y1812898D03*
X-11358390Y1965298D03*
X-12171190Y1241398D03*
X-11863850Y339698D03*
X-12907790Y517498D03*
X-12641090Y1241398D03*
X-12206750Y2094838D03*
X-12539490Y885798D03*
X-13733290Y2066898D03*
X-12539490Y974698D03*
X-13466590Y1558898D03*
X-13644390Y1812898D03*
Y1685898D03*
X-13136390Y1241398D03*
X-12387090Y1127098D03*
D934*
X-10500000Y2800070D03*
X-20899990D03*
D935*
Y-9500000D03*
M02*
