G04 Filename: C:\job\james\mask_1 *
G04 Creator: GC-CAM (TM) 4.1.4  Thu Nov 13 08:35:27 2014 *
G04 This file contains layer(s): *
G04 Layer 4: C:\job\james\uni.rbs *
%FSLAX35Y35*%
G04 Units: mm   *
%MOMM*%
G71*
%SFA1.00000B1.00000*%
%OFA0.00000B0.00000*%
G75*
%AD*%
G04 D21 (position 12 of UNTITLED):0.754380 Round     *
%ADD21C,0.754380*%
G04 D919 (position 30 of UNTITLED):2.148840X1.348740 Rectangle *
%ADD919R,2.148840X1.348740*%
G04 D920 (position 31 of UNTITLED):0.429260X1.623060 Rectangle *
%ADD920R,0.429260X1.623060*%
G04 D921 (position 32 of UNTITLED):1.623060X0.429260 Rectangle *
%ADD921R,1.623060X0.429260*%
G04 D923 (position 34 of UNTITLED):0.100000 Round     *
%ADD923C,0.100000*%
G04 D926 (position 36 of UNTITLED):2.156460X1.648460 Rectangle *
%ADD926R,2.156460X1.648460*%
G04 D927 (position 37 of UNTITLED):2.156460X3.959860 Rectangle *
%ADD927R,2.156460X3.959860*%
G04 D928 (position 38 of UNTITLED):1.150620X1.249680 Rectangle *
%ADD928R,1.150620X1.249680*%
G04 D934 (position 41 of UNTITLED):3.000000 Round     *
%ADD934C,3.000000*%
G04 D935 (position 42 of UNTITLED):3.000000X3.000000 Rectangle *
%ADD935R,3.000000X3.000000*%
G04 D942 (position 45 of UNTITLED):1.249680X1.150620 Rectangle *
%ADD942R,1.249680X1.150620*%
G04 D943 (position 46 of UNTITLED):2.131060X0.708660 Rectangle *
%ADD943R,2.131060X0.708660*%
G04 D944 (position 47 of UNTITLED):1.699260X0.749300 Rectangle *
%ADD944R,1.699260X0.749300*%
G04 D945 (position 48 of UNTITLED):1.950720X1.348740 Rectangle *
%ADD945R,1.950720X1.348740*%
G04 D946 (position 49 of UNTITLED):0.949960 Square    *
%ADD946R,0.949960X0.949960*%
%IPPOS*%
G04 Layer 4: C:\job\james\uni.rbs *
%LN(04)C:\job\james\uni.rbs*%
%LPD*%
X0Y0D02*
D923*
X-20399990Y-9000002D02*
X-19049993D01*
X-18749993D02*
X-17399996D01*
Y-8099966*
Y-7799966D02*
Y-6899930D01*
X-18749993*
X-19049993D02*
X-20399990D01*
Y-7799966*
Y-8099966D02*
Y-9000002D01*
X-17199990D02*
X-15849993D01*
X-15549993D02*
X-14199996D01*
Y-8099966*
Y-7799966D02*
Y-6899930D01*
X-15549993*
X-15849993D02*
X-17199990D01*
Y-7799966*
Y-8099966D02*
Y-9000002D01*
X-13999990D02*
X-12649993D01*
X-12349993D02*
X-10999996D01*
Y-8099966*
Y-7799966D02*
Y-6899930D01*
X-12349993*
X-12649993D02*
X-13999990D01*
Y-7799966*
Y-8099966D02*
Y-9000002D01*
X-20399990Y-6700002D02*
X-19049993D01*
X-18749993D02*
X-17399996D01*
Y-5799966*
Y-5499966D02*
Y-4599930D01*
X-18749993*
X-19049993D02*
X-20399990D01*
Y-5499966*
Y-5799966D02*
Y-6700002D01*
X-17199990D02*
X-15849993D01*
X-15549993D02*
X-14199996D01*
Y-5799966*
Y-5499966D02*
Y-4599930D01*
X-15549993*
X-15849993D02*
X-17199990D01*
Y-5499966*
Y-5799966D02*
Y-6700002D01*
X-13999990D02*
X-12649993D01*
X-12349993D02*
X-10999996D01*
Y-5799966*
Y-5499966D02*
Y-4599930D01*
X-12349993*
X-12649993D02*
X-13999990D01*
Y-5499966*
Y-5799966D02*
Y-6700002D01*
X-20399990Y-4400002D02*
X-19049993D01*
X-18749993D02*
X-17399996D01*
Y-3499966*
Y-3199966D02*
Y-2299930D01*
X-18749993*
X-19049993D02*
X-20399990D01*
Y-3199966*
Y-3499966D02*
Y-4400002D01*
X-17199990D02*
X-15849993D01*
X-15549993D02*
X-14199996D01*
Y-3499966*
Y-3199966D02*
Y-2299930D01*
X-15549993*
X-15849993D02*
X-17199990D01*
Y-3199966*
Y-3499966D02*
Y-4400002D01*
X-13999990D02*
X-12649993D01*
X-12349993D02*
X-10999996D01*
Y-3499966*
Y-3199966D02*
Y-2299930D01*
X-12349993*
X-12649993D02*
X-13999990D01*
Y-3199966*
Y-3499966D02*
Y-4400002D01*
X-20399990Y-2100002D02*
X-19049993D01*
X-18749993D02*
X-17399996D01*
Y-1199966*
Y-899966D02*
Y70D01*
X-18749993*
X-19049993D02*
X-20399990D01*
Y-899966*
Y-1199966D02*
Y-2100002D01*
X-17199990D02*
X-15849993D01*
X-15549993D02*
X-14199996D01*
Y-1199966*
Y-899966D02*
Y70D01*
X-15549993*
X-15849993D02*
X-17199990D01*
Y-899966*
Y-1199966D02*
Y-2100002D01*
X-13999990D02*
X-12649993D01*
X-12349993D02*
X-10999996D01*
Y-1199966*
Y-899966D02*
Y70D01*
X-12349993*
X-12649993D02*
X-13999990D01*
Y-899966*
Y-1199966D02*
Y-2100002D01*
X-20399990Y199998D02*
X-19049993D01*
X-18749993D02*
X-17399996D01*
Y1100034*
Y1400034D02*
Y2300070D01*
X-18749993*
X-19049993D02*
X-20399990D01*
Y1400034*
Y1100034D02*
Y199998D01*
X-17199990D02*
X-15849993D01*
X-15549993D02*
X-14199996D01*
Y1100034*
Y1400034D02*
Y2300070D01*
X-15549993*
X-15849993D02*
X-17199990D01*
Y1400034*
Y1100034D02*
Y199998D01*
X-13999990D02*
X-12649993D01*
X-12349993D02*
X-10999996D01*
Y1100034*
Y1400034D02*
Y2300070D01*
X-12349993*
X-12649993D02*
X-13999990D01*
Y1400034*
Y1100034D02*
Y199998D01*
X-21399990Y-10000002D02*
Y3300070D01*
X-9999996*
Y-10000002*
X-21399990*
D919*
X-20090110Y-8800104D03*
X-19809948D03*
X-20042358Y-7882402D03*
X-19762450D03*
D920*
X-18525470Y-7816362D03*
X-18573730D03*
X-18624530D03*
X-18675330D03*
X-18723590D03*
X-18774390D03*
X-18825190D03*
X-18875990D03*
X-18924250D03*
X-18975050D03*
X-19025850D03*
X-19074110D03*
Y-8659642D03*
X-19025850D03*
X-18975050D03*
X-18924250D03*
X-18875990D03*
X-18825190D03*
X-18774390D03*
X-18723590D03*
X-18675330D03*
X-18624530D03*
X-18573730D03*
X-18525470D03*
D921*
X-19221430Y-7963682D03*
Y-8011942D03*
Y-8062742D03*
Y-8113542D03*
Y-8161802D03*
Y-8212602D03*
Y-8263402D03*
Y-8314202D03*
Y-8362462D03*
Y-8413262D03*
Y-8464062D03*
Y-8512322D03*
X-18378150D03*
Y-8464062D03*
Y-8413262D03*
Y-8362462D03*
Y-8314202D03*
Y-8263402D03*
Y-8212602D03*
Y-8161802D03*
Y-8113542D03*
Y-8062742D03*
Y-8011942D03*
Y-7963682D03*
D926*
X-20206950Y-8113542D03*
Y-8342142D03*
Y-8570742D03*
D927*
X-19577030Y-8339602D03*
D928*
X-18370530Y-7828300D03*
Y-7658374D03*
X-18787090Y-7370592D03*
Y-7200412D03*
X-18378150Y-8869192D03*
Y-8699012D03*
X-19413962Y-8686312D03*
Y-8856492D03*
X-18964890Y-7370592D03*
Y-7200412D03*
X-19210762Y-8686312D03*
Y-8856492D03*
D942*
X-18537154Y-8873002D03*
X-18707080D03*
X-18251150Y-7370592D03*
Y-7200412D03*
X-18606750D03*
Y-7370592D03*
X-18428950Y-7200412D03*
Y-7370592D03*
X-19142690D03*
Y-7200412D03*
X-19320490Y-7370592D03*
Y-7200412D03*
D943*
X-19703776Y-7640594D03*
Y-7513594D03*
Y-7386594D03*
Y-7259594D03*
X-20196536D03*
Y-7386594D03*
Y-7513594D03*
Y-7640594D03*
D944*
X-17929078Y-8160786D03*
Y-8060710D03*
Y-7960888D03*
Y-8769878D03*
Y-8669802D03*
Y-8569726D03*
Y-7536454D03*
Y-7436632D03*
Y-7336556D03*
Y-7236480D03*
Y-7136658D03*
D945*
X-17541474Y-8290834D03*
Y-7830840D03*
Y-8899926D03*
Y-8439932D03*
Y-7666502D03*
Y-7006610D03*
D946*
X-19460190Y-7817632D03*
Y-7667772D03*
X-19295090Y-7817632D03*
Y-7667772D03*
D21*
X-19904690Y-8466602D03*
X-18901390Y-7996702D03*
X-19041090Y-8365002D03*
X-20247590Y-7882402D03*
X-19554170Y-7387102D03*
X-17758390Y-7234702D03*
X-18571190Y-7958602D03*
X-18263850Y-8860302D03*
X-19307790Y-8682502D03*
X-19041090Y-7958602D03*
X-18606750Y-7105162D03*
X-18939490Y-8314202D03*
X-20133290Y-7133102D03*
X-18939490Y-8225302D03*
X-19866590Y-7641102D03*
X-20044390Y-7387102D03*
Y-7514102D03*
X-19536390Y-7958602D03*
X-18787090Y-8072902D03*
D919*
X-16890110Y-8800104D03*
X-16609948D03*
X-16842358Y-7882402D03*
X-16562450D03*
D920*
X-15325470Y-7816362D03*
X-15373730D03*
X-15424530D03*
X-15475330D03*
X-15523590D03*
X-15574390D03*
X-15625190D03*
X-15675990D03*
X-15724250D03*
X-15775050D03*
X-15825850D03*
X-15874110D03*
Y-8659642D03*
X-15825850D03*
X-15775050D03*
X-15724250D03*
X-15675990D03*
X-15625190D03*
X-15574390D03*
X-15523590D03*
X-15475330D03*
X-15424530D03*
X-15373730D03*
X-15325470D03*
D921*
X-16021430Y-7963682D03*
Y-8011942D03*
Y-8062742D03*
Y-8113542D03*
Y-8161802D03*
Y-8212602D03*
Y-8263402D03*
Y-8314202D03*
Y-8362462D03*
Y-8413262D03*
Y-8464062D03*
Y-8512322D03*
X-15178150D03*
Y-8464062D03*
Y-8413262D03*
Y-8362462D03*
Y-8314202D03*
Y-8263402D03*
Y-8212602D03*
Y-8161802D03*
Y-8113542D03*
Y-8062742D03*
Y-8011942D03*
Y-7963682D03*
D926*
X-17006950Y-8113542D03*
Y-8342142D03*
Y-8570742D03*
D927*
X-16377030Y-8339602D03*
D928*
X-15170530Y-7828300D03*
Y-7658374D03*
X-15587090Y-7370592D03*
Y-7200412D03*
X-15178150Y-8869192D03*
Y-8699012D03*
X-16213962Y-8686312D03*
Y-8856492D03*
X-15764890Y-7370592D03*
Y-7200412D03*
X-16010762Y-8686312D03*
Y-8856492D03*
D942*
X-15337154Y-8873002D03*
X-15507080D03*
X-15051150Y-7370592D03*
Y-7200412D03*
X-15406750D03*
Y-7370592D03*
X-15228950Y-7200412D03*
Y-7370592D03*
X-15942690D03*
Y-7200412D03*
X-16120490Y-7370592D03*
Y-7200412D03*
D943*
X-16503776Y-7640594D03*
Y-7513594D03*
Y-7386594D03*
Y-7259594D03*
X-16996536D03*
Y-7386594D03*
Y-7513594D03*
Y-7640594D03*
D944*
X-14729078Y-8160786D03*
Y-8060710D03*
Y-7960888D03*
Y-8769878D03*
Y-8669802D03*
Y-8569726D03*
Y-7536454D03*
Y-7436632D03*
Y-7336556D03*
Y-7236480D03*
Y-7136658D03*
D945*
X-14341474Y-8290834D03*
Y-7830840D03*
Y-8899926D03*
Y-8439932D03*
Y-7666502D03*
Y-7006610D03*
D946*
X-16260190Y-7817632D03*
Y-7667772D03*
X-16095090Y-7817632D03*
Y-7667772D03*
D21*
X-16704690Y-8466602D03*
X-15701390Y-7996702D03*
X-15841090Y-8365002D03*
X-17047590Y-7882402D03*
X-16354170Y-7387102D03*
X-14558390Y-7234702D03*
X-15371190Y-7958602D03*
X-15063850Y-8860302D03*
X-16107790Y-8682502D03*
X-15841090Y-7958602D03*
X-15406750Y-7105162D03*
X-15739490Y-8314202D03*
X-16933290Y-7133102D03*
X-15739490Y-8225302D03*
X-16666590Y-7641102D03*
X-16844390Y-7387102D03*
Y-7514102D03*
X-16336390Y-7958602D03*
X-15587090Y-8072902D03*
D919*
X-13690110Y-8800104D03*
X-13409948D03*
X-13642358Y-7882402D03*
X-13362450D03*
D920*
X-12125470Y-7816362D03*
X-12173730D03*
X-12224530D03*
X-12275330D03*
X-12323590D03*
X-12374390D03*
X-12425190D03*
X-12475990D03*
X-12524250D03*
X-12575050D03*
X-12625850D03*
X-12674110D03*
Y-8659642D03*
X-12625850D03*
X-12575050D03*
X-12524250D03*
X-12475990D03*
X-12425190D03*
X-12374390D03*
X-12323590D03*
X-12275330D03*
X-12224530D03*
X-12173730D03*
X-12125470D03*
D921*
X-12821430Y-7963682D03*
Y-8011942D03*
Y-8062742D03*
Y-8113542D03*
Y-8161802D03*
Y-8212602D03*
Y-8263402D03*
Y-8314202D03*
Y-8362462D03*
Y-8413262D03*
Y-8464062D03*
Y-8512322D03*
X-11978150D03*
Y-8464062D03*
Y-8413262D03*
Y-8362462D03*
Y-8314202D03*
Y-8263402D03*
Y-8212602D03*
Y-8161802D03*
Y-8113542D03*
Y-8062742D03*
Y-8011942D03*
Y-7963682D03*
D926*
X-13806950Y-8113542D03*
Y-8342142D03*
Y-8570742D03*
D927*
X-13177030Y-8339602D03*
D928*
X-11970530Y-7828300D03*
Y-7658374D03*
X-12387090Y-7370592D03*
Y-7200412D03*
X-11978150Y-8869192D03*
Y-8699012D03*
X-13013962Y-8686312D03*
Y-8856492D03*
X-12564890Y-7370592D03*
Y-7200412D03*
X-12810762Y-8686312D03*
Y-8856492D03*
D942*
X-12137154Y-8873002D03*
X-12307080D03*
X-11851150Y-7370592D03*
Y-7200412D03*
X-12206750D03*
Y-7370592D03*
X-12028950Y-7200412D03*
Y-7370592D03*
X-12742690D03*
Y-7200412D03*
X-12920490Y-7370592D03*
Y-7200412D03*
D943*
X-13303776Y-7640594D03*
Y-7513594D03*
Y-7386594D03*
Y-7259594D03*
X-13796536D03*
Y-7386594D03*
Y-7513594D03*
Y-7640594D03*
D944*
X-11529078Y-8160786D03*
Y-8060710D03*
Y-7960888D03*
Y-8769878D03*
Y-8669802D03*
Y-8569726D03*
Y-7536454D03*
Y-7436632D03*
Y-7336556D03*
Y-7236480D03*
Y-7136658D03*
D945*
X-11141474Y-8290834D03*
Y-7830840D03*
Y-8899926D03*
Y-8439932D03*
Y-7666502D03*
Y-7006610D03*
D946*
X-13060190Y-7817632D03*
Y-7667772D03*
X-12895090Y-7817632D03*
Y-7667772D03*
D21*
X-13504690Y-8466602D03*
X-12501390Y-7996702D03*
X-12641090Y-8365002D03*
X-13847590Y-7882402D03*
X-13154170Y-7387102D03*
X-11358390Y-7234702D03*
X-12171190Y-7958602D03*
X-11863850Y-8860302D03*
X-12907790Y-8682502D03*
X-12641090Y-7958602D03*
X-12206750Y-7105162D03*
X-12539490Y-8314202D03*
X-13733290Y-7133102D03*
X-12539490Y-8225302D03*
X-13466590Y-7641102D03*
X-13644390Y-7387102D03*
Y-7514102D03*
X-13136390Y-7958602D03*
X-12387090Y-8072902D03*
D919*
X-20090110Y-6500104D03*
X-19809948D03*
X-20042358Y-5582402D03*
X-19762450D03*
D920*
X-18525470Y-5516362D03*
X-18573730D03*
X-18624530D03*
X-18675330D03*
X-18723590D03*
X-18774390D03*
X-18825190D03*
X-18875990D03*
X-18924250D03*
X-18975050D03*
X-19025850D03*
X-19074110D03*
Y-6359642D03*
X-19025850D03*
X-18975050D03*
X-18924250D03*
X-18875990D03*
X-18825190D03*
X-18774390D03*
X-18723590D03*
X-18675330D03*
X-18624530D03*
X-18573730D03*
X-18525470D03*
D921*
X-19221430Y-5663682D03*
Y-5711942D03*
Y-5762742D03*
Y-5813542D03*
Y-5861802D03*
Y-5912602D03*
Y-5963402D03*
Y-6014202D03*
Y-6062462D03*
Y-6113262D03*
Y-6164062D03*
Y-6212322D03*
X-18378150D03*
Y-6164062D03*
Y-6113262D03*
Y-6062462D03*
Y-6014202D03*
Y-5963402D03*
Y-5912602D03*
Y-5861802D03*
Y-5813542D03*
Y-5762742D03*
Y-5711942D03*
Y-5663682D03*
D926*
X-20206950Y-5813542D03*
Y-6042142D03*
Y-6270742D03*
D927*
X-19577030Y-6039602D03*
D928*
X-18370530Y-5528300D03*
Y-5358374D03*
X-18787090Y-5070592D03*
Y-4900412D03*
X-18378150Y-6569192D03*
Y-6399012D03*
X-19413962Y-6386312D03*
Y-6556492D03*
X-18964890Y-5070592D03*
Y-4900412D03*
X-19210762Y-6386312D03*
Y-6556492D03*
D942*
X-18537154Y-6573002D03*
X-18707080D03*
X-18251150Y-5070592D03*
Y-4900412D03*
X-18606750D03*
Y-5070592D03*
X-18428950Y-4900412D03*
Y-5070592D03*
X-19142690D03*
Y-4900412D03*
X-19320490Y-5070592D03*
Y-4900412D03*
D943*
X-19703776Y-5340594D03*
Y-5213594D03*
Y-5086594D03*
Y-4959594D03*
X-20196536D03*
Y-5086594D03*
Y-5213594D03*
Y-5340594D03*
D944*
X-17929078Y-5860786D03*
Y-5760710D03*
Y-5660888D03*
Y-6469878D03*
Y-6369802D03*
Y-6269726D03*
Y-5236454D03*
Y-5136632D03*
Y-5036556D03*
Y-4936480D03*
Y-4836658D03*
D945*
X-17541474Y-5990834D03*
Y-5530840D03*
Y-6599926D03*
Y-6139932D03*
Y-5366502D03*
Y-4706610D03*
D946*
X-19460190Y-5517632D03*
Y-5367772D03*
X-19295090Y-5517632D03*
Y-5367772D03*
D21*
X-19904690Y-6166602D03*
X-18901390Y-5696702D03*
X-19041090Y-6065002D03*
X-20247590Y-5582402D03*
X-19554170Y-5087102D03*
X-17758390Y-4934702D03*
X-18571190Y-5658602D03*
X-18263850Y-6560302D03*
X-19307790Y-6382502D03*
X-19041090Y-5658602D03*
X-18606750Y-4805162D03*
X-18939490Y-6014202D03*
X-20133290Y-4833102D03*
X-18939490Y-5925302D03*
X-19866590Y-5341102D03*
X-20044390Y-5087102D03*
Y-5214102D03*
X-19536390Y-5658602D03*
X-18787090Y-5772902D03*
D919*
X-16890110Y-6500104D03*
X-16609948D03*
X-16842358Y-5582402D03*
X-16562450D03*
D920*
X-15325470Y-5516362D03*
X-15373730D03*
X-15424530D03*
X-15475330D03*
X-15523590D03*
X-15574390D03*
X-15625190D03*
X-15675990D03*
X-15724250D03*
X-15775050D03*
X-15825850D03*
X-15874110D03*
Y-6359642D03*
X-15825850D03*
X-15775050D03*
X-15724250D03*
X-15675990D03*
X-15625190D03*
X-15574390D03*
X-15523590D03*
X-15475330D03*
X-15424530D03*
X-15373730D03*
X-15325470D03*
D921*
X-16021430Y-5663682D03*
Y-5711942D03*
Y-5762742D03*
Y-5813542D03*
Y-5861802D03*
Y-5912602D03*
Y-5963402D03*
Y-6014202D03*
Y-6062462D03*
Y-6113262D03*
Y-6164062D03*
Y-6212322D03*
X-15178150D03*
Y-6164062D03*
Y-6113262D03*
Y-6062462D03*
Y-6014202D03*
Y-5963402D03*
Y-5912602D03*
Y-5861802D03*
Y-5813542D03*
Y-5762742D03*
Y-5711942D03*
Y-5663682D03*
D926*
X-17006950Y-5813542D03*
Y-6042142D03*
Y-6270742D03*
D927*
X-16377030Y-6039602D03*
D928*
X-15170530Y-5528300D03*
Y-5358374D03*
X-15587090Y-5070592D03*
Y-4900412D03*
X-15178150Y-6569192D03*
Y-6399012D03*
X-16213962Y-6386312D03*
Y-6556492D03*
X-15764890Y-5070592D03*
Y-4900412D03*
X-16010762Y-6386312D03*
Y-6556492D03*
D942*
X-15337154Y-6573002D03*
X-15507080D03*
X-15051150Y-5070592D03*
Y-4900412D03*
X-15406750D03*
Y-5070592D03*
X-15228950Y-4900412D03*
Y-5070592D03*
X-15942690D03*
Y-4900412D03*
X-16120490Y-5070592D03*
Y-4900412D03*
D943*
X-16503776Y-5340594D03*
Y-5213594D03*
Y-5086594D03*
Y-4959594D03*
X-16996536D03*
Y-5086594D03*
Y-5213594D03*
Y-5340594D03*
D944*
X-14729078Y-5860786D03*
Y-5760710D03*
Y-5660888D03*
Y-6469878D03*
Y-6369802D03*
Y-6269726D03*
Y-5236454D03*
Y-5136632D03*
Y-5036556D03*
Y-4936480D03*
Y-4836658D03*
D945*
X-14341474Y-5990834D03*
Y-5530840D03*
Y-6599926D03*
Y-6139932D03*
Y-5366502D03*
Y-4706610D03*
D946*
X-16260190Y-5517632D03*
Y-5367772D03*
X-16095090Y-5517632D03*
Y-5367772D03*
D21*
X-16704690Y-6166602D03*
X-15701390Y-5696702D03*
X-15841090Y-6065002D03*
X-17047590Y-5582402D03*
X-16354170Y-5087102D03*
X-14558390Y-4934702D03*
X-15371190Y-5658602D03*
X-15063850Y-6560302D03*
X-16107790Y-6382502D03*
X-15841090Y-5658602D03*
X-15406750Y-4805162D03*
X-15739490Y-6014202D03*
X-16933290Y-4833102D03*
X-15739490Y-5925302D03*
X-16666590Y-5341102D03*
X-16844390Y-5087102D03*
Y-5214102D03*
X-16336390Y-5658602D03*
X-15587090Y-5772902D03*
D919*
X-13690110Y-6500104D03*
X-13409948D03*
X-13642358Y-5582402D03*
X-13362450D03*
D920*
X-12125470Y-5516362D03*
X-12173730D03*
X-12224530D03*
X-12275330D03*
X-12323590D03*
X-12374390D03*
X-12425190D03*
X-12475990D03*
X-12524250D03*
X-12575050D03*
X-12625850D03*
X-12674110D03*
Y-6359642D03*
X-12625850D03*
X-12575050D03*
X-12524250D03*
X-12475990D03*
X-12425190D03*
X-12374390D03*
X-12323590D03*
X-12275330D03*
X-12224530D03*
X-12173730D03*
X-12125470D03*
D921*
X-12821430Y-5663682D03*
Y-5711942D03*
Y-5762742D03*
Y-5813542D03*
Y-5861802D03*
Y-5912602D03*
Y-5963402D03*
Y-6014202D03*
Y-6062462D03*
Y-6113262D03*
Y-6164062D03*
Y-6212322D03*
X-11978150D03*
Y-6164062D03*
Y-6113262D03*
Y-6062462D03*
Y-6014202D03*
Y-5963402D03*
Y-5912602D03*
Y-5861802D03*
Y-5813542D03*
Y-5762742D03*
Y-5711942D03*
Y-5663682D03*
D926*
X-13806950Y-5813542D03*
Y-6042142D03*
Y-6270742D03*
D927*
X-13177030Y-6039602D03*
D928*
X-11970530Y-5528300D03*
Y-5358374D03*
X-12387090Y-5070592D03*
Y-4900412D03*
X-11978150Y-6569192D03*
Y-6399012D03*
X-13013962Y-6386312D03*
Y-6556492D03*
X-12564890Y-5070592D03*
Y-4900412D03*
X-12810762Y-6386312D03*
Y-6556492D03*
D942*
X-12137154Y-6573002D03*
X-12307080D03*
X-11851150Y-5070592D03*
Y-4900412D03*
X-12206750D03*
Y-5070592D03*
X-12028950Y-4900412D03*
Y-5070592D03*
X-12742690D03*
Y-4900412D03*
X-12920490Y-5070592D03*
Y-4900412D03*
D943*
X-13303776Y-5340594D03*
Y-5213594D03*
Y-5086594D03*
Y-4959594D03*
X-13796536D03*
Y-5086594D03*
Y-5213594D03*
Y-5340594D03*
D944*
X-11529078Y-5860786D03*
Y-5760710D03*
Y-5660888D03*
Y-6469878D03*
Y-6369802D03*
Y-6269726D03*
Y-5236454D03*
Y-5136632D03*
Y-5036556D03*
Y-4936480D03*
Y-4836658D03*
D945*
X-11141474Y-5990834D03*
Y-5530840D03*
Y-6599926D03*
Y-6139932D03*
Y-5366502D03*
Y-4706610D03*
D946*
X-13060190Y-5517632D03*
Y-5367772D03*
X-12895090Y-5517632D03*
Y-5367772D03*
D21*
X-13504690Y-6166602D03*
X-12501390Y-5696702D03*
X-12641090Y-6065002D03*
X-13847590Y-5582402D03*
X-13154170Y-5087102D03*
X-11358390Y-4934702D03*
X-12171190Y-5658602D03*
X-11863850Y-6560302D03*
X-12907790Y-6382502D03*
X-12641090Y-5658602D03*
X-12206750Y-4805162D03*
X-12539490Y-6014202D03*
X-13733290Y-4833102D03*
X-12539490Y-5925302D03*
X-13466590Y-5341102D03*
X-13644390Y-5087102D03*
Y-5214102D03*
X-13136390Y-5658602D03*
X-12387090Y-5772902D03*
D919*
X-20090110Y-4200104D03*
X-19809948D03*
X-20042358Y-3282402D03*
X-19762450D03*
D920*
X-18525470Y-3216362D03*
X-18573730D03*
X-18624530D03*
X-18675330D03*
X-18723590D03*
X-18774390D03*
X-18825190D03*
X-18875990D03*
X-18924250D03*
X-18975050D03*
X-19025850D03*
X-19074110D03*
Y-4059642D03*
X-19025850D03*
X-18975050D03*
X-18924250D03*
X-18875990D03*
X-18825190D03*
X-18774390D03*
X-18723590D03*
X-18675330D03*
X-18624530D03*
X-18573730D03*
X-18525470D03*
D921*
X-19221430Y-3363682D03*
Y-3411942D03*
Y-3462742D03*
Y-3513542D03*
Y-3561802D03*
Y-3612602D03*
Y-3663402D03*
Y-3714202D03*
Y-3762462D03*
Y-3813262D03*
Y-3864062D03*
Y-3912322D03*
X-18378150D03*
Y-3864062D03*
Y-3813262D03*
Y-3762462D03*
Y-3714202D03*
Y-3663402D03*
Y-3612602D03*
Y-3561802D03*
Y-3513542D03*
Y-3462742D03*
Y-3411942D03*
Y-3363682D03*
D926*
X-20206950Y-3513542D03*
Y-3742142D03*
Y-3970742D03*
D927*
X-19577030Y-3739602D03*
D928*
X-18370530Y-3228300D03*
Y-3058374D03*
X-18787090Y-2770592D03*
Y-2600412D03*
X-18378150Y-4269192D03*
Y-4099012D03*
X-19413962Y-4086312D03*
Y-4256492D03*
X-18964890Y-2770592D03*
Y-2600412D03*
X-19210762Y-4086312D03*
Y-4256492D03*
D942*
X-18537154Y-4273002D03*
X-18707080D03*
X-18251150Y-2770592D03*
Y-2600412D03*
X-18606750D03*
Y-2770592D03*
X-18428950Y-2600412D03*
Y-2770592D03*
X-19142690D03*
Y-2600412D03*
X-19320490Y-2770592D03*
Y-2600412D03*
D943*
X-19703776Y-3040594D03*
Y-2913594D03*
Y-2786594D03*
Y-2659594D03*
X-20196536D03*
Y-2786594D03*
Y-2913594D03*
Y-3040594D03*
D944*
X-17929078Y-3560786D03*
Y-3460710D03*
Y-3360888D03*
Y-4169878D03*
Y-4069802D03*
Y-3969726D03*
Y-2936454D03*
Y-2836632D03*
Y-2736556D03*
Y-2636480D03*
Y-2536658D03*
D945*
X-17541474Y-3690834D03*
Y-3230840D03*
Y-4299926D03*
Y-3839932D03*
Y-3066502D03*
Y-2406610D03*
D946*
X-19460190Y-3217632D03*
Y-3067772D03*
X-19295090Y-3217632D03*
Y-3067772D03*
D21*
X-19904690Y-3866602D03*
X-18901390Y-3396702D03*
X-19041090Y-3765002D03*
X-20247590Y-3282402D03*
X-19554170Y-2787102D03*
X-17758390Y-2634702D03*
X-18571190Y-3358602D03*
X-18263850Y-4260302D03*
X-19307790Y-4082502D03*
X-19041090Y-3358602D03*
X-18606750Y-2505162D03*
X-18939490Y-3714202D03*
X-20133290Y-2533102D03*
X-18939490Y-3625302D03*
X-19866590Y-3041102D03*
X-20044390Y-2787102D03*
Y-2914102D03*
X-19536390Y-3358602D03*
X-18787090Y-3472902D03*
D919*
X-16890110Y-4200104D03*
X-16609948D03*
X-16842358Y-3282402D03*
X-16562450D03*
D920*
X-15325470Y-3216362D03*
X-15373730D03*
X-15424530D03*
X-15475330D03*
X-15523590D03*
X-15574390D03*
X-15625190D03*
X-15675990D03*
X-15724250D03*
X-15775050D03*
X-15825850D03*
X-15874110D03*
Y-4059642D03*
X-15825850D03*
X-15775050D03*
X-15724250D03*
X-15675990D03*
X-15625190D03*
X-15574390D03*
X-15523590D03*
X-15475330D03*
X-15424530D03*
X-15373730D03*
X-15325470D03*
D921*
X-16021430Y-3363682D03*
Y-3411942D03*
Y-3462742D03*
Y-3513542D03*
Y-3561802D03*
Y-3612602D03*
Y-3663402D03*
Y-3714202D03*
Y-3762462D03*
Y-3813262D03*
Y-3864062D03*
Y-3912322D03*
X-15178150D03*
Y-3864062D03*
Y-3813262D03*
Y-3762462D03*
Y-3714202D03*
Y-3663402D03*
Y-3612602D03*
Y-3561802D03*
Y-3513542D03*
Y-3462742D03*
Y-3411942D03*
Y-3363682D03*
D926*
X-17006950Y-3513542D03*
Y-3742142D03*
Y-3970742D03*
D927*
X-16377030Y-3739602D03*
D928*
X-15170530Y-3228300D03*
Y-3058374D03*
X-15587090Y-2770592D03*
Y-2600412D03*
X-15178150Y-4269192D03*
Y-4099012D03*
X-16213962Y-4086312D03*
Y-4256492D03*
X-15764890Y-2770592D03*
Y-2600412D03*
X-16010762Y-4086312D03*
Y-4256492D03*
D942*
X-15337154Y-4273002D03*
X-15507080D03*
X-15051150Y-2770592D03*
Y-2600412D03*
X-15406750D03*
Y-2770592D03*
X-15228950Y-2600412D03*
Y-2770592D03*
X-15942690D03*
Y-2600412D03*
X-16120490Y-2770592D03*
Y-2600412D03*
D943*
X-16503776Y-3040594D03*
Y-2913594D03*
Y-2786594D03*
Y-2659594D03*
X-16996536D03*
Y-2786594D03*
Y-2913594D03*
Y-3040594D03*
D944*
X-14729078Y-3560786D03*
Y-3460710D03*
Y-3360888D03*
Y-4169878D03*
Y-4069802D03*
Y-3969726D03*
Y-2936454D03*
Y-2836632D03*
Y-2736556D03*
Y-2636480D03*
Y-2536658D03*
D945*
X-14341474Y-3690834D03*
Y-3230840D03*
Y-4299926D03*
Y-3839932D03*
Y-3066502D03*
Y-2406610D03*
D946*
X-16260190Y-3217632D03*
Y-3067772D03*
X-16095090Y-3217632D03*
Y-3067772D03*
D21*
X-16704690Y-3866602D03*
X-15701390Y-3396702D03*
X-15841090Y-3765002D03*
X-17047590Y-3282402D03*
X-16354170Y-2787102D03*
X-14558390Y-2634702D03*
X-15371190Y-3358602D03*
X-15063850Y-4260302D03*
X-16107790Y-4082502D03*
X-15841090Y-3358602D03*
X-15406750Y-2505162D03*
X-15739490Y-3714202D03*
X-16933290Y-2533102D03*
X-15739490Y-3625302D03*
X-16666590Y-3041102D03*
X-16844390Y-2787102D03*
Y-2914102D03*
X-16336390Y-3358602D03*
X-15587090Y-3472902D03*
D919*
X-13690110Y-4200104D03*
X-13409948D03*
X-13642358Y-3282402D03*
X-13362450D03*
D920*
X-12125470Y-3216362D03*
X-12173730D03*
X-12224530D03*
X-12275330D03*
X-12323590D03*
X-12374390D03*
X-12425190D03*
X-12475990D03*
X-12524250D03*
X-12575050D03*
X-12625850D03*
X-12674110D03*
Y-4059642D03*
X-12625850D03*
X-12575050D03*
X-12524250D03*
X-12475990D03*
X-12425190D03*
X-12374390D03*
X-12323590D03*
X-12275330D03*
X-12224530D03*
X-12173730D03*
X-12125470D03*
D921*
X-12821430Y-3363682D03*
Y-3411942D03*
Y-3462742D03*
Y-3513542D03*
Y-3561802D03*
Y-3612602D03*
Y-3663402D03*
Y-3714202D03*
Y-3762462D03*
Y-3813262D03*
Y-3864062D03*
Y-3912322D03*
X-11978150D03*
Y-3864062D03*
Y-3813262D03*
Y-3762462D03*
Y-3714202D03*
Y-3663402D03*
Y-3612602D03*
Y-3561802D03*
Y-3513542D03*
Y-3462742D03*
Y-3411942D03*
Y-3363682D03*
D926*
X-13806950Y-3513542D03*
Y-3742142D03*
Y-3970742D03*
D927*
X-13177030Y-3739602D03*
D928*
X-11970530Y-3228300D03*
Y-3058374D03*
X-12387090Y-2770592D03*
Y-2600412D03*
X-11978150Y-4269192D03*
Y-4099012D03*
X-13013962Y-4086312D03*
Y-4256492D03*
X-12564890Y-2770592D03*
Y-2600412D03*
X-12810762Y-4086312D03*
Y-4256492D03*
D942*
X-12137154Y-4273002D03*
X-12307080D03*
X-11851150Y-2770592D03*
Y-2600412D03*
X-12206750D03*
Y-2770592D03*
X-12028950Y-2600412D03*
Y-2770592D03*
X-12742690D03*
Y-2600412D03*
X-12920490Y-2770592D03*
Y-2600412D03*
D943*
X-13303776Y-3040594D03*
Y-2913594D03*
Y-2786594D03*
Y-2659594D03*
X-13796536D03*
Y-2786594D03*
Y-2913594D03*
Y-3040594D03*
D944*
X-11529078Y-3560786D03*
Y-3460710D03*
Y-3360888D03*
Y-4169878D03*
Y-4069802D03*
Y-3969726D03*
Y-2936454D03*
Y-2836632D03*
Y-2736556D03*
Y-2636480D03*
Y-2536658D03*
D945*
X-11141474Y-3690834D03*
Y-3230840D03*
Y-4299926D03*
Y-3839932D03*
Y-3066502D03*
Y-2406610D03*
D946*
X-13060190Y-3217632D03*
Y-3067772D03*
X-12895090Y-3217632D03*
Y-3067772D03*
D21*
X-13504690Y-3866602D03*
X-12501390Y-3396702D03*
X-12641090Y-3765002D03*
X-13847590Y-3282402D03*
X-13154170Y-2787102D03*
X-11358390Y-2634702D03*
X-12171190Y-3358602D03*
X-11863850Y-4260302D03*
X-12907790Y-4082502D03*
X-12641090Y-3358602D03*
X-12206750Y-2505162D03*
X-12539490Y-3714202D03*
X-13733290Y-2533102D03*
X-12539490Y-3625302D03*
X-13466590Y-3041102D03*
X-13644390Y-2787102D03*
Y-2914102D03*
X-13136390Y-3358602D03*
X-12387090Y-3472902D03*
D919*
X-20090110Y-1900104D03*
X-19809948D03*
X-20042358Y-982402D03*
X-19762450D03*
D920*
X-18525470Y-916362D03*
X-18573730D03*
X-18624530D03*
X-18675330D03*
X-18723590D03*
X-18774390D03*
X-18825190D03*
X-18875990D03*
X-18924250D03*
X-18975050D03*
X-19025850D03*
X-19074110D03*
Y-1759642D03*
X-19025850D03*
X-18975050D03*
X-18924250D03*
X-18875990D03*
X-18825190D03*
X-18774390D03*
X-18723590D03*
X-18675330D03*
X-18624530D03*
X-18573730D03*
X-18525470D03*
D921*
X-19221430Y-1063682D03*
Y-1111942D03*
Y-1162742D03*
Y-1213542D03*
Y-1261802D03*
Y-1312602D03*
Y-1363402D03*
Y-1414202D03*
Y-1462462D03*
Y-1513262D03*
Y-1564062D03*
Y-1612322D03*
X-18378150D03*
Y-1564062D03*
Y-1513262D03*
Y-1462462D03*
Y-1414202D03*
Y-1363402D03*
Y-1312602D03*
Y-1261802D03*
Y-1213542D03*
Y-1162742D03*
Y-1111942D03*
Y-1063682D03*
D926*
X-20206950Y-1213542D03*
Y-1442142D03*
Y-1670742D03*
D927*
X-19577030Y-1439602D03*
D928*
X-18370530Y-928300D03*
Y-758374D03*
X-18787090Y-470592D03*
Y-300412D03*
X-18378150Y-1969192D03*
Y-1799012D03*
X-19413962Y-1786312D03*
Y-1956492D03*
X-18964890Y-470592D03*
Y-300412D03*
X-19210762Y-1786312D03*
Y-1956492D03*
D942*
X-18537154Y-1973002D03*
X-18707080D03*
X-18251150Y-470592D03*
Y-300412D03*
X-18606750D03*
Y-470592D03*
X-18428950Y-300412D03*
Y-470592D03*
X-19142690D03*
Y-300412D03*
X-19320490Y-470592D03*
Y-300412D03*
D943*
X-19703776Y-740594D03*
Y-613594D03*
Y-486594D03*
Y-359594D03*
X-20196536D03*
Y-486594D03*
Y-613594D03*
Y-740594D03*
D944*
X-17929078Y-1260786D03*
Y-1160710D03*
Y-1060888D03*
Y-1869878D03*
Y-1769802D03*
Y-1669726D03*
Y-636454D03*
Y-536632D03*
Y-436556D03*
Y-336480D03*
Y-236658D03*
D945*
X-17541474Y-1390834D03*
Y-930840D03*
Y-1999926D03*
Y-1539932D03*
Y-766502D03*
Y-106610D03*
D946*
X-19460190Y-917632D03*
Y-767772D03*
X-19295090Y-917632D03*
Y-767772D03*
D21*
X-19904690Y-1566602D03*
X-18901390Y-1096702D03*
X-19041090Y-1465002D03*
X-20247590Y-982402D03*
X-19554170Y-487102D03*
X-17758390Y-334702D03*
X-18571190Y-1058602D03*
X-18263850Y-1960302D03*
X-19307790Y-1782502D03*
X-19041090Y-1058602D03*
X-18606750Y-205162D03*
X-18939490Y-1414202D03*
X-20133290Y-233102D03*
X-18939490Y-1325302D03*
X-19866590Y-741102D03*
X-20044390Y-487102D03*
Y-614102D03*
X-19536390Y-1058602D03*
X-18787090Y-1172902D03*
D919*
X-16890110Y-1900104D03*
X-16609948D03*
X-16842358Y-982402D03*
X-16562450D03*
D920*
X-15325470Y-916362D03*
X-15373730D03*
X-15424530D03*
X-15475330D03*
X-15523590D03*
X-15574390D03*
X-15625190D03*
X-15675990D03*
X-15724250D03*
X-15775050D03*
X-15825850D03*
X-15874110D03*
Y-1759642D03*
X-15825850D03*
X-15775050D03*
X-15724250D03*
X-15675990D03*
X-15625190D03*
X-15574390D03*
X-15523590D03*
X-15475330D03*
X-15424530D03*
X-15373730D03*
X-15325470D03*
D921*
X-16021430Y-1063682D03*
Y-1111942D03*
Y-1162742D03*
Y-1213542D03*
Y-1261802D03*
Y-1312602D03*
Y-1363402D03*
Y-1414202D03*
Y-1462462D03*
Y-1513262D03*
Y-1564062D03*
Y-1612322D03*
X-15178150D03*
Y-1564062D03*
Y-1513262D03*
Y-1462462D03*
Y-1414202D03*
Y-1363402D03*
Y-1312602D03*
Y-1261802D03*
Y-1213542D03*
Y-1162742D03*
Y-1111942D03*
Y-1063682D03*
D926*
X-17006950Y-1213542D03*
Y-1442142D03*
Y-1670742D03*
D927*
X-16377030Y-1439602D03*
D928*
X-15170530Y-928300D03*
Y-758374D03*
X-15587090Y-470592D03*
Y-300412D03*
X-15178150Y-1969192D03*
Y-1799012D03*
X-16213962Y-1786312D03*
Y-1956492D03*
X-15764890Y-470592D03*
Y-300412D03*
X-16010762Y-1786312D03*
Y-1956492D03*
D942*
X-15337154Y-1973002D03*
X-15507080D03*
X-15051150Y-470592D03*
Y-300412D03*
X-15406750D03*
Y-470592D03*
X-15228950Y-300412D03*
Y-470592D03*
X-15942690D03*
Y-300412D03*
X-16120490Y-470592D03*
Y-300412D03*
D943*
X-16503776Y-740594D03*
Y-613594D03*
Y-486594D03*
Y-359594D03*
X-16996536D03*
Y-486594D03*
Y-613594D03*
Y-740594D03*
D944*
X-14729078Y-1260786D03*
Y-1160710D03*
Y-1060888D03*
Y-1869878D03*
Y-1769802D03*
Y-1669726D03*
Y-636454D03*
Y-536632D03*
Y-436556D03*
Y-336480D03*
Y-236658D03*
D945*
X-14341474Y-1390834D03*
Y-930840D03*
Y-1999926D03*
Y-1539932D03*
Y-766502D03*
Y-106610D03*
D946*
X-16260190Y-917632D03*
Y-767772D03*
X-16095090Y-917632D03*
Y-767772D03*
D21*
X-16704690Y-1566602D03*
X-15701390Y-1096702D03*
X-15841090Y-1465002D03*
X-17047590Y-982402D03*
X-16354170Y-487102D03*
X-14558390Y-334702D03*
X-15371190Y-1058602D03*
X-15063850Y-1960302D03*
X-16107790Y-1782502D03*
X-15841090Y-1058602D03*
X-15406750Y-205162D03*
X-15739490Y-1414202D03*
X-16933290Y-233102D03*
X-15739490Y-1325302D03*
X-16666590Y-741102D03*
X-16844390Y-487102D03*
Y-614102D03*
X-16336390Y-1058602D03*
X-15587090Y-1172902D03*
D919*
X-13690110Y-1900104D03*
X-13409948D03*
X-13642358Y-982402D03*
X-13362450D03*
D920*
X-12125470Y-916362D03*
X-12173730D03*
X-12224530D03*
X-12275330D03*
X-12323590D03*
X-12374390D03*
X-12425190D03*
X-12475990D03*
X-12524250D03*
X-12575050D03*
X-12625850D03*
X-12674110D03*
Y-1759642D03*
X-12625850D03*
X-12575050D03*
X-12524250D03*
X-12475990D03*
X-12425190D03*
X-12374390D03*
X-12323590D03*
X-12275330D03*
X-12224530D03*
X-12173730D03*
X-12125470D03*
D921*
X-12821430Y-1063682D03*
Y-1111942D03*
Y-1162742D03*
Y-1213542D03*
Y-1261802D03*
Y-1312602D03*
Y-1363402D03*
Y-1414202D03*
Y-1462462D03*
Y-1513262D03*
Y-1564062D03*
Y-1612322D03*
X-11978150D03*
Y-1564062D03*
Y-1513262D03*
Y-1462462D03*
Y-1414202D03*
Y-1363402D03*
Y-1312602D03*
Y-1261802D03*
Y-1213542D03*
Y-1162742D03*
Y-1111942D03*
Y-1063682D03*
D926*
X-13806950Y-1213542D03*
Y-1442142D03*
Y-1670742D03*
D927*
X-13177030Y-1439602D03*
D928*
X-11970530Y-928300D03*
Y-758374D03*
X-12387090Y-470592D03*
Y-300412D03*
X-11978150Y-1969192D03*
Y-1799012D03*
X-13013962Y-1786312D03*
Y-1956492D03*
X-12564890Y-470592D03*
Y-300412D03*
X-12810762Y-1786312D03*
Y-1956492D03*
D942*
X-12137154Y-1973002D03*
X-12307080D03*
X-11851150Y-470592D03*
Y-300412D03*
X-12206750D03*
Y-470592D03*
X-12028950Y-300412D03*
Y-470592D03*
X-12742690D03*
Y-300412D03*
X-12920490Y-470592D03*
Y-300412D03*
D943*
X-13303776Y-740594D03*
Y-613594D03*
Y-486594D03*
Y-359594D03*
X-13796536D03*
Y-486594D03*
Y-613594D03*
Y-740594D03*
D944*
X-11529078Y-1260786D03*
Y-1160710D03*
Y-1060888D03*
Y-1869878D03*
Y-1769802D03*
Y-1669726D03*
Y-636454D03*
Y-536632D03*
Y-436556D03*
Y-336480D03*
Y-236658D03*
D945*
X-11141474Y-1390834D03*
Y-930840D03*
Y-1999926D03*
Y-1539932D03*
Y-766502D03*
Y-106610D03*
D946*
X-13060190Y-917632D03*
Y-767772D03*
X-12895090Y-917632D03*
Y-767772D03*
D21*
X-13504690Y-1566602D03*
X-12501390Y-1096702D03*
X-12641090Y-1465002D03*
X-13847590Y-982402D03*
X-13154170Y-487102D03*
X-11358390Y-334702D03*
X-12171190Y-1058602D03*
X-11863850Y-1960302D03*
X-12907790Y-1782502D03*
X-12641090Y-1058602D03*
X-12206750Y-205162D03*
X-12539490Y-1414202D03*
X-13733290Y-233102D03*
X-12539490Y-1325302D03*
X-13466590Y-741102D03*
X-13644390Y-487102D03*
Y-614102D03*
X-13136390Y-1058602D03*
X-12387090Y-1172902D03*
D919*
X-20090110Y399896D03*
X-19809948D03*
X-20042358Y1317598D03*
X-19762450D03*
D920*
X-18525470Y1383638D03*
X-18573730D03*
X-18624530D03*
X-18675330D03*
X-18723590D03*
X-18774390D03*
X-18825190D03*
X-18875990D03*
X-18924250D03*
X-18975050D03*
X-19025850D03*
X-19074110D03*
Y540358D03*
X-19025850D03*
X-18975050D03*
X-18924250D03*
X-18875990D03*
X-18825190D03*
X-18774390D03*
X-18723590D03*
X-18675330D03*
X-18624530D03*
X-18573730D03*
X-18525470D03*
D921*
X-19221430Y1236318D03*
Y1188058D03*
Y1137258D03*
Y1086458D03*
Y1038198D03*
Y987398D03*
Y936598D03*
Y885798D03*
Y837538D03*
Y786738D03*
Y735938D03*
Y687678D03*
X-18378150D03*
Y735938D03*
Y786738D03*
Y837538D03*
Y885798D03*
Y936598D03*
Y987398D03*
Y1038198D03*
Y1086458D03*
Y1137258D03*
Y1188058D03*
Y1236318D03*
D926*
X-20206950Y1086458D03*
Y857858D03*
Y629258D03*
D927*
X-19577030Y860398D03*
D928*
X-18370530Y1371700D03*
Y1541626D03*
X-18787090Y1829408D03*
Y1999588D03*
X-18378150Y330808D03*
Y500988D03*
X-19413962Y513688D03*
Y343508D03*
X-18964890Y1829408D03*
Y1999588D03*
X-19210762Y513688D03*
Y343508D03*
D942*
X-18537154Y326998D03*
X-18707080D03*
X-18251150Y1829408D03*
Y1999588D03*
X-18606750D03*
Y1829408D03*
X-18428950Y1999588D03*
Y1829408D03*
X-19142690D03*
Y1999588D03*
X-19320490Y1829408D03*
Y1999588D03*
D943*
X-19703776Y1559406D03*
Y1686406D03*
Y1813406D03*
Y1940406D03*
X-20196536D03*
Y1813406D03*
Y1686406D03*
Y1559406D03*
D944*
X-17929078Y1039214D03*
Y1139290D03*
Y1239112D03*
Y430122D03*
Y530198D03*
Y630274D03*
Y1663546D03*
Y1763368D03*
Y1863444D03*
Y1963520D03*
Y2063342D03*
D945*
X-17541474Y909166D03*
Y1369160D03*
Y300074D03*
Y760068D03*
Y1533498D03*
Y2193390D03*
D946*
X-19460190Y1382368D03*
Y1532228D03*
X-19295090Y1382368D03*
Y1532228D03*
D21*
X-19904690Y733398D03*
X-18901390Y1203298D03*
X-19041090Y834998D03*
X-20247590Y1317598D03*
X-19554170Y1812898D03*
X-17758390Y1965298D03*
X-18571190Y1241398D03*
X-18263850Y339698D03*
X-19307790Y517498D03*
X-19041090Y1241398D03*
X-18606750Y2094838D03*
X-18939490Y885798D03*
X-20133290Y2066898D03*
X-18939490Y974698D03*
X-19866590Y1558898D03*
X-20044390Y1812898D03*
Y1685898D03*
X-19536390Y1241398D03*
X-18787090Y1127098D03*
D919*
X-16890110Y399896D03*
X-16609948D03*
X-16842358Y1317598D03*
X-16562450D03*
D920*
X-15325470Y1383638D03*
X-15373730D03*
X-15424530D03*
X-15475330D03*
X-15523590D03*
X-15574390D03*
X-15625190D03*
X-15675990D03*
X-15724250D03*
X-15775050D03*
X-15825850D03*
X-15874110D03*
Y540358D03*
X-15825850D03*
X-15775050D03*
X-15724250D03*
X-15675990D03*
X-15625190D03*
X-15574390D03*
X-15523590D03*
X-15475330D03*
X-15424530D03*
X-15373730D03*
X-15325470D03*
D921*
X-16021430Y1236318D03*
Y1188058D03*
Y1137258D03*
Y1086458D03*
Y1038198D03*
Y987398D03*
Y936598D03*
Y885798D03*
Y837538D03*
Y786738D03*
Y735938D03*
Y687678D03*
X-15178150D03*
Y735938D03*
Y786738D03*
Y837538D03*
Y885798D03*
Y936598D03*
Y987398D03*
Y1038198D03*
Y1086458D03*
Y1137258D03*
Y1188058D03*
Y1236318D03*
D926*
X-17006950Y1086458D03*
Y857858D03*
Y629258D03*
D927*
X-16377030Y860398D03*
D928*
X-15170530Y1371700D03*
Y1541626D03*
X-15587090Y1829408D03*
Y1999588D03*
X-15178150Y330808D03*
Y500988D03*
X-16213962Y513688D03*
Y343508D03*
X-15764890Y1829408D03*
Y1999588D03*
X-16010762Y513688D03*
Y343508D03*
D942*
X-15337154Y326998D03*
X-15507080D03*
X-15051150Y1829408D03*
Y1999588D03*
X-15406750D03*
Y1829408D03*
X-15228950Y1999588D03*
Y1829408D03*
X-15942690D03*
Y1999588D03*
X-16120490Y1829408D03*
Y1999588D03*
D943*
X-16503776Y1559406D03*
Y1686406D03*
Y1813406D03*
Y1940406D03*
X-16996536D03*
Y1813406D03*
Y1686406D03*
Y1559406D03*
D944*
X-14729078Y1039214D03*
Y1139290D03*
Y1239112D03*
Y430122D03*
Y530198D03*
Y630274D03*
Y1663546D03*
Y1763368D03*
Y1863444D03*
Y1963520D03*
Y2063342D03*
D945*
X-14341474Y909166D03*
Y1369160D03*
Y300074D03*
Y760068D03*
Y1533498D03*
Y2193390D03*
D946*
X-16260190Y1382368D03*
Y1532228D03*
X-16095090Y1382368D03*
Y1532228D03*
D21*
X-16704690Y733398D03*
X-15701390Y1203298D03*
X-15841090Y834998D03*
X-17047590Y1317598D03*
X-16354170Y1812898D03*
X-14558390Y1965298D03*
X-15371190Y1241398D03*
X-15063850Y339698D03*
X-16107790Y517498D03*
X-15841090Y1241398D03*
X-15406750Y2094838D03*
X-15739490Y885798D03*
X-16933290Y2066898D03*
X-15739490Y974698D03*
X-16666590Y1558898D03*
X-16844390Y1812898D03*
Y1685898D03*
X-16336390Y1241398D03*
X-15587090Y1127098D03*
D919*
X-13690110Y399896D03*
X-13409948D03*
X-13642358Y1317598D03*
X-13362450D03*
D920*
X-12125470Y1383638D03*
X-12173730D03*
X-12224530D03*
X-12275330D03*
X-12323590D03*
X-12374390D03*
X-12425190D03*
X-12475990D03*
X-12524250D03*
X-12575050D03*
X-12625850D03*
X-12674110D03*
Y540358D03*
X-12625850D03*
X-12575050D03*
X-12524250D03*
X-12475990D03*
X-12425190D03*
X-12374390D03*
X-12323590D03*
X-12275330D03*
X-12224530D03*
X-12173730D03*
X-12125470D03*
D921*
X-12821430Y1236318D03*
Y1188058D03*
Y1137258D03*
Y1086458D03*
Y1038198D03*
Y987398D03*
Y936598D03*
Y885798D03*
Y837538D03*
Y786738D03*
Y735938D03*
Y687678D03*
X-11978150D03*
Y735938D03*
Y786738D03*
Y837538D03*
Y885798D03*
Y936598D03*
Y987398D03*
Y1038198D03*
Y1086458D03*
Y1137258D03*
Y1188058D03*
Y1236318D03*
D926*
X-13806950Y1086458D03*
Y857858D03*
Y629258D03*
D927*
X-13177030Y860398D03*
D928*
X-11970530Y1371700D03*
Y1541626D03*
X-12387090Y1829408D03*
Y1999588D03*
X-11978150Y330808D03*
Y500988D03*
X-13013962Y513688D03*
Y343508D03*
X-12564890Y1829408D03*
Y1999588D03*
X-12810762Y513688D03*
Y343508D03*
D942*
X-12137154Y326998D03*
X-12307080D03*
X-11851150Y1829408D03*
Y1999588D03*
X-12206750D03*
Y1829408D03*
X-12028950Y1999588D03*
Y1829408D03*
X-12742690D03*
Y1999588D03*
X-12920490Y1829408D03*
Y1999588D03*
D943*
X-13303776Y1559406D03*
Y1686406D03*
Y1813406D03*
Y1940406D03*
X-13796536D03*
Y1813406D03*
Y1686406D03*
Y1559406D03*
D944*
X-11529078Y1039214D03*
Y1139290D03*
Y1239112D03*
Y430122D03*
Y530198D03*
Y630274D03*
Y1663546D03*
Y1763368D03*
Y1863444D03*
Y1963520D03*
Y2063342D03*
D945*
X-11141474Y909166D03*
Y1369160D03*
Y300074D03*
Y760068D03*
Y1533498D03*
Y2193390D03*
D946*
X-13060190Y1382368D03*
Y1532228D03*
X-12895090Y1382368D03*
Y1532228D03*
D21*
X-13504690Y733398D03*
X-12501390Y1203298D03*
X-12641090Y834998D03*
X-13847590Y1317598D03*
X-13154170Y1812898D03*
X-11358390Y1965298D03*
X-12171190Y1241398D03*
X-11863850Y339698D03*
X-12907790Y517498D03*
X-12641090Y1241398D03*
X-12206750Y2094838D03*
X-12539490Y885798D03*
X-13733290Y2066898D03*
X-12539490Y974698D03*
X-13466590Y1558898D03*
X-13644390Y1812898D03*
Y1685898D03*
X-13136390Y1241398D03*
X-12387090Y1127098D03*
D934*
X-10500000Y2800070D03*
X-20899990D03*
D935*
Y-9500000D03*
M02*
