G04 Filename: C:\job\james\outline *
G04 Creator: GC-CAM (TM) 4.1.4  Thu Nov 13 08:35:27 2014 *
G04 This file contains layer(s): *
G04 Layer 6: C:\job\james\uni.con *
%FSLAX35Y35*%
G04 Units: mm   *
%MOMM*%
G71*
%SFA1.00000B1.00000*%
%OFA0.00000B0.00000*%
G75*
%AD*%
G04 D923 (position 34 of UNTITLED):0.100000 Round     *
%ADD923C,0.100000*%
%IPPOS*%
G04 Layer 6: C:\job\james\uni.con *
%LN(06)C:\job\james\uni.con*%
%LPD*%
X0Y0D02*
D923*
X-20399990Y-9000002D02*
X-19049993D01*
X-18749993D02*
X-17399996D01*
Y-8099966*
Y-7799966D02*
Y-6899930D01*
X-18749993*
X-19049993D02*
X-20399990D01*
Y-7799966*
Y-8099966D02*
Y-9000002D01*
X-17199990D02*
X-15849993D01*
X-15549993D02*
X-14199996D01*
Y-8099966*
Y-7799966D02*
Y-6899930D01*
X-15549993*
X-15849993D02*
X-17199990D01*
Y-7799966*
Y-8099966D02*
Y-9000002D01*
X-13999990D02*
X-12649993D01*
X-12349993D02*
X-10999996D01*
Y-8099966*
Y-7799966D02*
Y-6899930D01*
X-12349993*
X-12649993D02*
X-13999990D01*
Y-7799966*
Y-8099966D02*
Y-9000002D01*
X-20399990Y-6700002D02*
X-19049993D01*
X-18749993D02*
X-17399996D01*
Y-5799966*
Y-5499966D02*
Y-4599930D01*
X-18749993*
X-19049993D02*
X-20399990D01*
Y-5499966*
Y-5799966D02*
Y-6700002D01*
X-17199990D02*
X-15849993D01*
X-15549993D02*
X-14199996D01*
Y-5799966*
Y-5499966D02*
Y-4599930D01*
X-15549993*
X-15849993D02*
X-17199990D01*
Y-5499966*
Y-5799966D02*
Y-6700002D01*
X-13999990D02*
X-12649993D01*
X-12349993D02*
X-10999996D01*
Y-5799966*
Y-5499966D02*
Y-4599930D01*
X-12349993*
X-12649993D02*
X-13999990D01*
Y-5499966*
Y-5799966D02*
Y-6700002D01*
X-20399990Y-4400002D02*
X-19049993D01*
X-18749993D02*
X-17399996D01*
Y-3499966*
Y-3199966D02*
Y-2299930D01*
X-18749993*
X-19049993D02*
X-20399990D01*
Y-3199966*
Y-3499966D02*
Y-4400002D01*
X-17199990D02*
X-15849993D01*
X-15549993D02*
X-14199996D01*
Y-3499966*
Y-3199966D02*
Y-2299930D01*
X-15549993*
X-15849993D02*
X-17199990D01*
Y-3199966*
Y-3499966D02*
Y-4400002D01*
X-13999990D02*
X-12649993D01*
X-12349993D02*
X-10999996D01*
Y-3499966*
Y-3199966D02*
Y-2299930D01*
X-12349993*
X-12649993D02*
X-13999990D01*
Y-3199966*
Y-3499966D02*
Y-4400002D01*
X-20399990Y-2100002D02*
X-19049993D01*
X-18749993D02*
X-17399996D01*
Y-1199966*
Y-899966D02*
Y70D01*
X-18749993*
X-19049993D02*
X-20399990D01*
Y-899966*
Y-1199966D02*
Y-2100002D01*
X-17199990D02*
X-15849993D01*
X-15549993D02*
X-14199996D01*
Y-1199966*
Y-899966D02*
Y70D01*
X-15549993*
X-15849993D02*
X-17199990D01*
Y-899966*
Y-1199966D02*
Y-2100002D01*
X-13999990D02*
X-12649993D01*
X-12349993D02*
X-10999996D01*
Y-1199966*
Y-899966D02*
Y70D01*
X-12349993*
X-12649993D02*
X-13999990D01*
Y-899966*
Y-1199966D02*
Y-2100002D01*
X-20399990Y199998D02*
X-19049993D01*
X-18749993D02*
X-17399996D01*
Y1100034*
Y1400034D02*
Y2300070D01*
X-18749993*
X-19049993D02*
X-20399990D01*
Y1400034*
Y1100034D02*
Y199998D01*
X-17199990D02*
X-15849993D01*
X-15549993D02*
X-14199996D01*
Y1100034*
Y1400034D02*
Y2300070D01*
X-15549993*
X-15849993D02*
X-17199990D01*
Y1400034*
Y1100034D02*
Y199998D01*
X-13999990D02*
X-12649993D01*
X-12349993D02*
X-10999996D01*
Y1100034*
Y1400034D02*
Y2300070D01*
X-12349993*
X-12649993D02*
X-13999990D01*
Y1400034*
Y1100034D02*
Y199998D01*
X-21399990Y-10000002D02*
Y3300070D01*
X-9999996*
Y-10000002*
X-21399990*
M02*
