G04 Filename: X:\Z_AXEL\PASTENDATEN\80625\BOTPASTE.GBX *
G04 Creator: GC-CAM (TM) 4.1.4  Mon May 11 08:48:55 2015 *
G04 This file contains layer(s): *
G04 Layer 2: X:\Z_Axel\Pastendaten\80625\uniadapter.gbp *
%FSLAX35Y35*%
G04 Units: mm   *
%MOMM*%
G71*
%SFA1.00000B1.00000*%
%OFA0.00000B0.00000*%
G75*
%AD*%
G04 D10 (position 1 of UNTITLED):0.000000 Round     *
%ADD10C,0.000000*%
G04 D11 (position 13 of UNTITLED):2.921000X1.270000 Rectangle *
%ADD11R,2.921000X1.270000*%
G04 D12 (position 14 of UNTITLED):1.651000X3.429000 Rectangle *
%ADD12R,1.651000X3.429000*%
G04 D44 (position 29 of UNTITLED):1.999996 Round     *
%ADD44C,1.999996*%
G04 D45 (position 30 of UNTITLED):1.999996 Square    *
%ADD45R,1.999996X1.999996*%
G04 D48 (position 31 of UNTITLED):0.070002 Round     *
%ADD48C,0.070002*%
%IPPOS*%
G04 Layer 2: X:\Z_Axel\Pastendaten\80625\uniadapter.gbp *
%LN(02)X:\Z_Axel\Pastendaten\80625\uniadapter.gbp*%
%LPD*%
X0Y0D02*
D10*
X1388110Y1391158D02*
X4388104D01*
Y3491230*
X1388110*
Y1391158*
X4588110D02*
X7588104D01*
Y3491230*
X4588110*
Y1391158*
X7788110D02*
X10788104D01*
Y3491230*
X7788110*
Y1391158*
Y3691158D02*
X10788104D01*
Y5791230*
X7788110*
Y3691158*
X4588110D02*
X7588104D01*
Y5791230*
X4588110*
Y3691158*
X1388110D02*
X4388104D01*
Y5791230*
X1388110*
Y3691158*
Y5991158D02*
X4388104D01*
Y8091230*
X1388110*
Y5991158*
X4588110D02*
X7588104D01*
Y8091230*
X4588110*
Y5991158*
X7788110D02*
X10788104D01*
Y8091230*
X7788110*
Y5991158*
Y8291158D02*
X10788104D01*
Y10391230*
X7788110*
Y8291158*
X4588110D02*
X7588104D01*
Y10391230*
X4588110*
Y8291158*
X1388110D02*
X4388104D01*
Y10391230*
X1388110*
Y8291158*
Y10591158D02*
X4388104D01*
Y12691230*
X1388110*
Y10591158*
X4588110D02*
X7588104D01*
Y12691230*
X4588110*
Y10591158*
X7788110D02*
X10788104D01*
Y12691230*
X7788110*
Y10591158*
D48*
X388112Y391160D02*
Y13691514D01*
X11788089*
Y391160*
X388112*
X11788089Y13691514D02*
Y391160D01*
X388112*
Y13691514*
X11788089*
D11*
X2436114Y2591054D03*
Y2891028D03*
Y2291080D03*
Y1991106D03*
X3340100Y2291080D03*
Y1991106D03*
Y2591054D03*
Y2891028D03*
D12*
X1887982Y1603248D03*
Y3279140D03*
X3887978D03*
Y1603248D03*
D11*
X5636114Y2591054D03*
Y2891028D03*
Y2291080D03*
Y1991106D03*
X6540100Y2291080D03*
Y1991106D03*
Y2591054D03*
Y2891028D03*
D12*
X5087982Y1603248D03*
Y3279140D03*
X7087978D03*
Y1603248D03*
D11*
X8836114Y2591054D03*
Y2891028D03*
Y2291080D03*
Y1991106D03*
X9740100Y2291080D03*
Y1991106D03*
Y2591054D03*
Y2891028D03*
D12*
X8287982Y1603248D03*
Y3279140D03*
X10287978D03*
Y1603248D03*
D11*
X8836114Y4891054D03*
Y5191028D03*
Y4591080D03*
Y4291106D03*
X9740100Y4591080D03*
Y4291106D03*
Y4891054D03*
Y5191028D03*
D12*
X8287982Y3903248D03*
Y5579140D03*
X10287978D03*
Y3903248D03*
D11*
X5636114Y4891054D03*
Y5191028D03*
Y4591080D03*
Y4291106D03*
X6540100Y4591080D03*
Y4291106D03*
Y4891054D03*
Y5191028D03*
D12*
X5087982Y3903248D03*
Y5579140D03*
X7087978D03*
Y3903248D03*
D11*
X2436114Y4891054D03*
Y5191028D03*
Y4591080D03*
Y4291106D03*
X3340100Y4591080D03*
Y4291106D03*
Y4891054D03*
Y5191028D03*
D12*
X1887982Y3903248D03*
Y5579140D03*
X3887978D03*
Y3903248D03*
D11*
X2436114Y7191054D03*
Y7491028D03*
Y6891080D03*
Y6591106D03*
X3340100Y6891080D03*
Y6591106D03*
Y7191054D03*
Y7491028D03*
D12*
X1887982Y6203248D03*
Y7879140D03*
X3887978D03*
Y6203248D03*
D11*
X5636114Y7191054D03*
Y7491028D03*
Y6891080D03*
Y6591106D03*
X6540100Y6891080D03*
Y6591106D03*
Y7191054D03*
Y7491028D03*
D12*
X5087982Y6203248D03*
Y7879140D03*
X7087978D03*
Y6203248D03*
D11*
X8836114Y7191054D03*
Y7491028D03*
Y6891080D03*
Y6591106D03*
X9740100Y6891080D03*
Y6591106D03*
Y7191054D03*
Y7491028D03*
D12*
X8287982Y6203248D03*
Y7879140D03*
X10287978D03*
Y6203248D03*
D11*
X8836114Y9491054D03*
Y9791028D03*
Y9191080D03*
Y8891106D03*
X9740100Y9191080D03*
Y8891106D03*
Y9491054D03*
Y9791028D03*
D12*
X8287982Y8503248D03*
Y10179140D03*
X10287978D03*
Y8503248D03*
D11*
X5636114Y9491054D03*
Y9791028D03*
Y9191080D03*
Y8891106D03*
X6540100Y9191080D03*
Y8891106D03*
Y9491054D03*
Y9791028D03*
D12*
X5087982Y8503248D03*
Y10179140D03*
X7087978D03*
Y8503248D03*
D11*
X2436114Y9491054D03*
Y9791028D03*
Y9191080D03*
Y8891106D03*
X3340100Y9191080D03*
Y8891106D03*
Y9491054D03*
Y9791028D03*
D12*
X1887982Y8503248D03*
Y10179140D03*
X3887978D03*
Y8503248D03*
D11*
X2436114Y11791054D03*
Y12091028D03*
Y11491080D03*
Y11191106D03*
X3340100Y11491080D03*
Y11191106D03*
Y11791054D03*
Y12091028D03*
D12*
X1887982Y10803248D03*
Y12479140D03*
X3887978D03*
Y10803248D03*
D11*
X5636114Y11791054D03*
Y12091028D03*
Y11491080D03*
Y11191106D03*
X6540100Y11491080D03*
Y11191106D03*
Y11791054D03*
Y12091028D03*
D12*
X5087982Y10803248D03*
Y12479140D03*
X7087978D03*
Y10803248D03*
D11*
X8836114Y11791054D03*
Y12091028D03*
Y11491080D03*
Y11191106D03*
X9740100Y11491080D03*
Y11191106D03*
Y11791054D03*
Y12091028D03*
D12*
X8287982Y10803248D03*
Y12479140D03*
X10287978D03*
Y10803248D03*
D44*
X11288090Y13191515D03*
X888111D03*
D45*
Y891159D03*
M02*
