G04 Filename: C:\Adam\mask_1 *
G04 Creator: GC-CAM (TM) 4.1.4  Wed May 06 15:27:32 2015 *
G04 This file contains layer(s): *
G04 Layer 4: C:\Adam\uniadapter.rbs *
%FSLAX35Y35*%
G04 Units: mm   *
%MOMM*%
G71*
%SFA1.00000B1.00000*%
%OFA0.00000B0.00000*%
G75*
%AD*%
G04 D12 (position 3 of UNTITLED):1.249680X1.150620 Rectangle *
%ADD12R,1.249680X1.150620*%
G04 D13 (position 4 of UNTITLED):2.131060X0.708660 Rectangle *
%ADD13R,2.131060X0.708660*%
G04 D14 (position 5 of UNTITLED):1.699260X0.749300 Rectangle *
%ADD14R,1.699260X0.749300*%
G04 D15 (position 6 of UNTITLED):1.950720X1.348740 Rectangle *
%ADD15R,1.950720X1.348740*%
G04 D16 (position 7 of UNTITLED):0.949960 Square    *
%ADD16R,0.949960X0.949960*%
G04 D17 (position 8 of UNTITLED):0.754380 Round     *
%ADD17C,0.754380*%
G04 D35 (position 26 of UNTITLED):2.148840X1.348740 Rectangle *
%ADD35R,2.148840X1.348740*%
G04 D36 (position 27 of UNTITLED):0.429260X1.623060 Rectangle *
%ADD36R,0.429260X1.623060*%
G04 D37 (position 28 of UNTITLED):1.623060X0.429260 Rectangle *
%ADD37R,1.623060X0.429260*%
G04 D40 (position 31 of UNTITLED):2.156460X1.648460 Rectangle *
%ADD40R,2.156460X1.648460*%
G04 D41 (position 32 of UNTITLED):2.156460X3.959860 Rectangle *
%ADD41R,2.156460X3.959860*%
G04 D42 (position 33 of UNTITLED):1.150620X1.249680 Rectangle *
%ADD42R,1.150620X1.249680*%
G04 D43 (position 34 of UNTITLED):0.100000 Round     *
%ADD43C,0.100000*%
G04 D46 (position 37 of UNTITLED):3.000000 Round     *
%ADD46C,3.000000*%
G04 D47 (position 38 of UNTITLED):3.000000X3.000000 Rectangle *
%ADD47R,3.000000X3.000000*%
%IPPOS*%
G04 Layer 4: C:\Adam\uniadapter.rbs *
%LN(04)C:\Adam\uniadapter.rbs*%
%LPD*%
X0Y0D02*
D43*
X-20399980Y-9000002D02*
X-17399986D01*
Y-6899930*
X-20399980*
Y-9000002*
X-17199986D02*
X-14199992D01*
Y-6899930*
X-17199986*
Y-9000002*
X-13999992D02*
X-10999998D01*
Y-6899930*
X-13999992*
Y-9000002*
Y-6699930D02*
X-10999998D01*
Y-4599858*
X-13999992*
Y-6699930*
X-17199986D02*
X-14199992D01*
Y-4599858*
X-17199986*
Y-6699930*
X-20399980D02*
X-17399986D01*
Y-4599858*
X-20399980*
Y-6699930*
Y-4399858D02*
X-17399986D01*
Y-2299786*
X-20399980*
Y-4399858*
X-17199986D02*
X-14199992D01*
Y-2299786*
X-17199986*
Y-4399858*
X-13999992D02*
X-10999998D01*
Y-2299786*
X-13999992*
Y-4399858*
Y-2099786D02*
X-10999998D01*
Y286*
X-13999992*
Y-2099786*
X-17199986D02*
X-14199992D01*
Y286*
X-17199986*
Y-2099786*
X-20399980D02*
X-17399986D01*
Y286*
X-20399980*
Y-2099786*
Y200286D02*
X-17399986D01*
Y2300358*
X-20399980*
Y200286*
X-17199986D02*
X-14199992D01*
Y2300358*
X-17199986*
Y200286*
X-13999992D02*
X-10999998D01*
Y2300358*
X-13999992*
Y200286*
D35*
X-20090100Y-8800104D03*
X-19809938D03*
X-20042348Y-7882402D03*
X-19762440D03*
D36*
X-18525460Y-7816362D03*
X-18573720D03*
X-18624520D03*
X-18675320D03*
X-18723580D03*
X-18774380D03*
X-18825180D03*
X-18875980D03*
X-18924240D03*
X-18975040D03*
X-19025840D03*
X-19074100D03*
Y-8659642D03*
X-19025840D03*
X-18975040D03*
X-18924240D03*
X-18875980D03*
X-18825180D03*
X-18774380D03*
X-18723580D03*
X-18675320D03*
X-18624520D03*
X-18573720D03*
X-18525460D03*
D37*
X-19221420Y-7963682D03*
Y-8011942D03*
Y-8062742D03*
Y-8113542D03*
Y-8161802D03*
Y-8212602D03*
Y-8263402D03*
Y-8314202D03*
Y-8362462D03*
Y-8413262D03*
Y-8464062D03*
Y-8512322D03*
X-18378140D03*
Y-8464062D03*
Y-8413262D03*
Y-8362462D03*
Y-8314202D03*
Y-8263402D03*
Y-8212602D03*
Y-8161802D03*
Y-8113542D03*
Y-8062742D03*
Y-8011942D03*
Y-7963682D03*
D40*
X-20206940Y-8113542D03*
Y-8342142D03*
Y-8570742D03*
D41*
X-19577020Y-8339602D03*
D42*
X-18370520Y-7828300D03*
Y-7658374D03*
X-18787080Y-7370592D03*
Y-7200412D03*
X-18378140Y-8869192D03*
Y-8699012D03*
X-19413952Y-8686312D03*
Y-8856492D03*
X-18964880Y-7370592D03*
Y-7200412D03*
X-19210752Y-8686312D03*
Y-8856492D03*
D12*
X-18537144Y-8873002D03*
X-18707070D03*
X-18251140Y-7370592D03*
Y-7200412D03*
X-18606740D03*
Y-7370592D03*
X-18428940Y-7200412D03*
Y-7370592D03*
X-19142680D03*
Y-7200412D03*
X-19320480Y-7370592D03*
Y-7200412D03*
D13*
X-19703766Y-7640594D03*
Y-7513594D03*
Y-7386594D03*
Y-7259594D03*
X-20196526D03*
Y-7386594D03*
Y-7513594D03*
Y-7640594D03*
D14*
X-17929068Y-8160786D03*
Y-8060710D03*
Y-7960888D03*
Y-8769878D03*
Y-8669802D03*
Y-8569726D03*
Y-7536454D03*
Y-7436632D03*
Y-7336556D03*
Y-7236480D03*
Y-7136658D03*
D15*
X-17541464Y-8290834D03*
Y-7830840D03*
Y-8899926D03*
Y-8439932D03*
Y-7666502D03*
Y-7006610D03*
D16*
X-19460180Y-7817632D03*
Y-7667772D03*
X-19295080Y-7817632D03*
Y-7667772D03*
D17*
X-19904680Y-8466602D03*
X-18901380Y-7996702D03*
X-19041080Y-8365002D03*
X-20247580Y-7882402D03*
X-19554160Y-7387102D03*
X-17758380Y-7234702D03*
X-18571180Y-7958602D03*
X-18263840Y-8860302D03*
X-19307780Y-8682502D03*
X-19041080Y-7958602D03*
X-18606740Y-7105162D03*
X-18939480Y-8314202D03*
X-20133280Y-7133102D03*
X-18939480Y-8225302D03*
X-19866580Y-7641102D03*
X-20044380Y-7387102D03*
Y-7514102D03*
X-19536380Y-7958602D03*
X-18787080Y-8072902D03*
D35*
X-16890106Y-8800104D03*
X-16609944D03*
X-16842354Y-7882402D03*
X-16562446D03*
D36*
X-15325466Y-7816362D03*
X-15373726D03*
X-15424526D03*
X-15475326D03*
X-15523586D03*
X-15574386D03*
X-15625186D03*
X-15675986D03*
X-15724246D03*
X-15775046D03*
X-15825846D03*
X-15874106D03*
Y-8659642D03*
X-15825846D03*
X-15775046D03*
X-15724246D03*
X-15675986D03*
X-15625186D03*
X-15574386D03*
X-15523586D03*
X-15475326D03*
X-15424526D03*
X-15373726D03*
X-15325466D03*
D37*
X-16021426Y-7963682D03*
Y-8011942D03*
Y-8062742D03*
Y-8113542D03*
Y-8161802D03*
Y-8212602D03*
Y-8263402D03*
Y-8314202D03*
Y-8362462D03*
Y-8413262D03*
Y-8464062D03*
Y-8512322D03*
X-15178146D03*
Y-8464062D03*
Y-8413262D03*
Y-8362462D03*
Y-8314202D03*
Y-8263402D03*
Y-8212602D03*
Y-8161802D03*
Y-8113542D03*
Y-8062742D03*
Y-8011942D03*
Y-7963682D03*
D40*
X-17006946Y-8113542D03*
Y-8342142D03*
Y-8570742D03*
D41*
X-16377026Y-8339602D03*
D42*
X-15170526Y-7828300D03*
Y-7658374D03*
X-15587086Y-7370592D03*
Y-7200412D03*
X-15178146Y-8869192D03*
Y-8699012D03*
X-16213958Y-8686312D03*
Y-8856492D03*
X-15764886Y-7370592D03*
Y-7200412D03*
X-16010758Y-8686312D03*
Y-8856492D03*
D12*
X-15337150Y-8873002D03*
X-15507076D03*
X-15051146Y-7370592D03*
Y-7200412D03*
X-15406746D03*
Y-7370592D03*
X-15228946Y-7200412D03*
Y-7370592D03*
X-15942686D03*
Y-7200412D03*
X-16120486Y-7370592D03*
Y-7200412D03*
D13*
X-16503772Y-7640594D03*
Y-7513594D03*
Y-7386594D03*
Y-7259594D03*
X-16996532D03*
Y-7386594D03*
Y-7513594D03*
Y-7640594D03*
D14*
X-14729074Y-8160786D03*
Y-8060710D03*
Y-7960888D03*
Y-8769878D03*
Y-8669802D03*
Y-8569726D03*
Y-7536454D03*
Y-7436632D03*
Y-7336556D03*
Y-7236480D03*
Y-7136658D03*
D15*
X-14341470Y-8290834D03*
Y-7830840D03*
Y-8899926D03*
Y-8439932D03*
Y-7666502D03*
Y-7006610D03*
D16*
X-16260186Y-7817632D03*
Y-7667772D03*
X-16095086Y-7817632D03*
Y-7667772D03*
D17*
X-16704686Y-8466602D03*
X-15701386Y-7996702D03*
X-15841086Y-8365002D03*
X-17047586Y-7882402D03*
X-16354166Y-7387102D03*
X-14558386Y-7234702D03*
X-15371186Y-7958602D03*
X-15063846Y-8860302D03*
X-16107786Y-8682502D03*
X-15841086Y-7958602D03*
X-15406746Y-7105162D03*
X-15739486Y-8314202D03*
X-16933286Y-7133102D03*
X-15739486Y-8225302D03*
X-16666586Y-7641102D03*
X-16844386Y-7387102D03*
Y-7514102D03*
X-16336386Y-7958602D03*
X-15587086Y-8072902D03*
D35*
X-13690112Y-8800104D03*
X-13409950D03*
X-13642360Y-7882402D03*
X-13362452D03*
D36*
X-12125472Y-7816362D03*
X-12173732D03*
X-12224532D03*
X-12275332D03*
X-12323592D03*
X-12374392D03*
X-12425192D03*
X-12475992D03*
X-12524252D03*
X-12575052D03*
X-12625852D03*
X-12674112D03*
Y-8659642D03*
X-12625852D03*
X-12575052D03*
X-12524252D03*
X-12475992D03*
X-12425192D03*
X-12374392D03*
X-12323592D03*
X-12275332D03*
X-12224532D03*
X-12173732D03*
X-12125472D03*
D37*
X-12821432Y-7963682D03*
Y-8011942D03*
Y-8062742D03*
Y-8113542D03*
Y-8161802D03*
Y-8212602D03*
Y-8263402D03*
Y-8314202D03*
Y-8362462D03*
Y-8413262D03*
Y-8464062D03*
Y-8512322D03*
X-11978152D03*
Y-8464062D03*
Y-8413262D03*
Y-8362462D03*
Y-8314202D03*
Y-8263402D03*
Y-8212602D03*
Y-8161802D03*
Y-8113542D03*
Y-8062742D03*
Y-8011942D03*
Y-7963682D03*
D40*
X-13806952Y-8113542D03*
Y-8342142D03*
Y-8570742D03*
D41*
X-13177032Y-8339602D03*
D42*
X-11970532Y-7828300D03*
Y-7658374D03*
X-12387092Y-7370592D03*
Y-7200412D03*
X-11978152Y-8869192D03*
Y-8699012D03*
X-13013964Y-8686312D03*
Y-8856492D03*
X-12564892Y-7370592D03*
Y-7200412D03*
X-12810764Y-8686312D03*
Y-8856492D03*
D12*
X-12137156Y-8873002D03*
X-12307082D03*
X-11851152Y-7370592D03*
Y-7200412D03*
X-12206752D03*
Y-7370592D03*
X-12028952Y-7200412D03*
Y-7370592D03*
X-12742692D03*
Y-7200412D03*
X-12920492Y-7370592D03*
Y-7200412D03*
D13*
X-13303778Y-7640594D03*
Y-7513594D03*
Y-7386594D03*
Y-7259594D03*
X-13796538D03*
Y-7386594D03*
Y-7513594D03*
Y-7640594D03*
D14*
X-11529080Y-8160786D03*
Y-8060710D03*
Y-7960888D03*
Y-8769878D03*
Y-8669802D03*
Y-8569726D03*
Y-7536454D03*
Y-7436632D03*
Y-7336556D03*
Y-7236480D03*
Y-7136658D03*
D15*
X-11141476Y-8290834D03*
Y-7830840D03*
Y-8899926D03*
Y-8439932D03*
Y-7666502D03*
Y-7006610D03*
D16*
X-13060192Y-7817632D03*
Y-7667772D03*
X-12895092Y-7817632D03*
Y-7667772D03*
D17*
X-13504692Y-8466602D03*
X-12501392Y-7996702D03*
X-12641092Y-8365002D03*
X-13847592Y-7882402D03*
X-13154172Y-7387102D03*
X-11358392Y-7234702D03*
X-12171192Y-7958602D03*
X-11863852Y-8860302D03*
X-12907792Y-8682502D03*
X-12641092Y-7958602D03*
X-12206752Y-7105162D03*
X-12539492Y-8314202D03*
X-13733292Y-7133102D03*
X-12539492Y-8225302D03*
X-13466592Y-7641102D03*
X-13644392Y-7387102D03*
Y-7514102D03*
X-13136392Y-7958602D03*
X-12387092Y-8072902D03*
D35*
X-13690112Y-6500032D03*
X-13409950D03*
X-13642360Y-5582330D03*
X-13362452D03*
D36*
X-12125472Y-5516290D03*
X-12173732D03*
X-12224532D03*
X-12275332D03*
X-12323592D03*
X-12374392D03*
X-12425192D03*
X-12475992D03*
X-12524252D03*
X-12575052D03*
X-12625852D03*
X-12674112D03*
Y-6359570D03*
X-12625852D03*
X-12575052D03*
X-12524252D03*
X-12475992D03*
X-12425192D03*
X-12374392D03*
X-12323592D03*
X-12275332D03*
X-12224532D03*
X-12173732D03*
X-12125472D03*
D37*
X-12821432Y-5663610D03*
Y-5711870D03*
Y-5762670D03*
Y-5813470D03*
Y-5861730D03*
Y-5912530D03*
Y-5963330D03*
Y-6014130D03*
Y-6062390D03*
Y-6113190D03*
Y-6163990D03*
Y-6212250D03*
X-11978152D03*
Y-6163990D03*
Y-6113190D03*
Y-6062390D03*
Y-6014130D03*
Y-5963330D03*
Y-5912530D03*
Y-5861730D03*
Y-5813470D03*
Y-5762670D03*
Y-5711870D03*
Y-5663610D03*
D40*
X-13806952Y-5813470D03*
Y-6042070D03*
Y-6270670D03*
D41*
X-13177032Y-6039530D03*
D42*
X-11970532Y-5528228D03*
Y-5358302D03*
X-12387092Y-5070520D03*
Y-4900340D03*
X-11978152Y-6569120D03*
Y-6398940D03*
X-13013964Y-6386240D03*
Y-6556420D03*
X-12564892Y-5070520D03*
Y-4900340D03*
X-12810764Y-6386240D03*
Y-6556420D03*
D12*
X-12137156Y-6572930D03*
X-12307082D03*
X-11851152Y-5070520D03*
Y-4900340D03*
X-12206752D03*
Y-5070520D03*
X-12028952Y-4900340D03*
Y-5070520D03*
X-12742692D03*
Y-4900340D03*
X-12920492Y-5070520D03*
Y-4900340D03*
D13*
X-13303778Y-5340522D03*
Y-5213522D03*
Y-5086522D03*
Y-4959522D03*
X-13796538D03*
Y-5086522D03*
Y-5213522D03*
Y-5340522D03*
D14*
X-11529080Y-5860714D03*
Y-5760638D03*
Y-5660816D03*
Y-6469806D03*
Y-6369730D03*
Y-6269654D03*
Y-5236382D03*
Y-5136560D03*
Y-5036484D03*
Y-4936408D03*
Y-4836586D03*
D15*
X-11141476Y-5990762D03*
Y-5530768D03*
Y-6599854D03*
Y-6139860D03*
Y-5366430D03*
Y-4706538D03*
D16*
X-13060192Y-5517560D03*
Y-5367700D03*
X-12895092Y-5517560D03*
Y-5367700D03*
D17*
X-13504692Y-6166530D03*
X-12501392Y-5696630D03*
X-12641092Y-6064930D03*
X-13847592Y-5582330D03*
X-13154172Y-5087030D03*
X-11358392Y-4934630D03*
X-12171192Y-5658530D03*
X-11863852Y-6560230D03*
X-12907792Y-6382430D03*
X-12641092Y-5658530D03*
X-12206752Y-4805090D03*
X-12539492Y-6014130D03*
X-13733292Y-4833030D03*
X-12539492Y-5925230D03*
X-13466592Y-5341030D03*
X-13644392Y-5087030D03*
Y-5214030D03*
X-13136392Y-5658530D03*
X-12387092Y-5772830D03*
D35*
X-16890106Y-6500032D03*
X-16609944D03*
X-16842354Y-5582330D03*
X-16562446D03*
D36*
X-15325466Y-5516290D03*
X-15373726D03*
X-15424526D03*
X-15475326D03*
X-15523586D03*
X-15574386D03*
X-15625186D03*
X-15675986D03*
X-15724246D03*
X-15775046D03*
X-15825846D03*
X-15874106D03*
Y-6359570D03*
X-15825846D03*
X-15775046D03*
X-15724246D03*
X-15675986D03*
X-15625186D03*
X-15574386D03*
X-15523586D03*
X-15475326D03*
X-15424526D03*
X-15373726D03*
X-15325466D03*
D37*
X-16021426Y-5663610D03*
Y-5711870D03*
Y-5762670D03*
Y-5813470D03*
Y-5861730D03*
Y-5912530D03*
Y-5963330D03*
Y-6014130D03*
Y-6062390D03*
Y-6113190D03*
Y-6163990D03*
Y-6212250D03*
X-15178146D03*
Y-6163990D03*
Y-6113190D03*
Y-6062390D03*
Y-6014130D03*
Y-5963330D03*
Y-5912530D03*
Y-5861730D03*
Y-5813470D03*
Y-5762670D03*
Y-5711870D03*
Y-5663610D03*
D40*
X-17006946Y-5813470D03*
Y-6042070D03*
Y-6270670D03*
D41*
X-16377026Y-6039530D03*
D42*
X-15170526Y-5528228D03*
Y-5358302D03*
X-15587086Y-5070520D03*
Y-4900340D03*
X-15178146Y-6569120D03*
Y-6398940D03*
X-16213958Y-6386240D03*
Y-6556420D03*
X-15764886Y-5070520D03*
Y-4900340D03*
X-16010758Y-6386240D03*
Y-6556420D03*
D12*
X-15337150Y-6572930D03*
X-15507076D03*
X-15051146Y-5070520D03*
Y-4900340D03*
X-15406746D03*
Y-5070520D03*
X-15228946Y-4900340D03*
Y-5070520D03*
X-15942686D03*
Y-4900340D03*
X-16120486Y-5070520D03*
Y-4900340D03*
D13*
X-16503772Y-5340522D03*
Y-5213522D03*
Y-5086522D03*
Y-4959522D03*
X-16996532D03*
Y-5086522D03*
Y-5213522D03*
Y-5340522D03*
D14*
X-14729074Y-5860714D03*
Y-5760638D03*
Y-5660816D03*
Y-6469806D03*
Y-6369730D03*
Y-6269654D03*
Y-5236382D03*
Y-5136560D03*
Y-5036484D03*
Y-4936408D03*
Y-4836586D03*
D15*
X-14341470Y-5990762D03*
Y-5530768D03*
Y-6599854D03*
Y-6139860D03*
Y-5366430D03*
Y-4706538D03*
D16*
X-16260186Y-5517560D03*
Y-5367700D03*
X-16095086Y-5517560D03*
Y-5367700D03*
D17*
X-16704686Y-6166530D03*
X-15701386Y-5696630D03*
X-15841086Y-6064930D03*
X-17047586Y-5582330D03*
X-16354166Y-5087030D03*
X-14558386Y-4934630D03*
X-15371186Y-5658530D03*
X-15063846Y-6560230D03*
X-16107786Y-6382430D03*
X-15841086Y-5658530D03*
X-15406746Y-4805090D03*
X-15739486Y-6014130D03*
X-16933286Y-4833030D03*
X-15739486Y-5925230D03*
X-16666586Y-5341030D03*
X-16844386Y-5087030D03*
Y-5214030D03*
X-16336386Y-5658530D03*
X-15587086Y-5772830D03*
D35*
X-20090100Y-6500032D03*
X-19809938D03*
X-20042348Y-5582330D03*
X-19762440D03*
D36*
X-18525460Y-5516290D03*
X-18573720D03*
X-18624520D03*
X-18675320D03*
X-18723580D03*
X-18774380D03*
X-18825180D03*
X-18875980D03*
X-18924240D03*
X-18975040D03*
X-19025840D03*
X-19074100D03*
Y-6359570D03*
X-19025840D03*
X-18975040D03*
X-18924240D03*
X-18875980D03*
X-18825180D03*
X-18774380D03*
X-18723580D03*
X-18675320D03*
X-18624520D03*
X-18573720D03*
X-18525460D03*
D37*
X-19221420Y-5663610D03*
Y-5711870D03*
Y-5762670D03*
Y-5813470D03*
Y-5861730D03*
Y-5912530D03*
Y-5963330D03*
Y-6014130D03*
Y-6062390D03*
Y-6113190D03*
Y-6163990D03*
Y-6212250D03*
X-18378140D03*
Y-6163990D03*
Y-6113190D03*
Y-6062390D03*
Y-6014130D03*
Y-5963330D03*
Y-5912530D03*
Y-5861730D03*
Y-5813470D03*
Y-5762670D03*
Y-5711870D03*
Y-5663610D03*
D40*
X-20206940Y-5813470D03*
Y-6042070D03*
Y-6270670D03*
D41*
X-19577020Y-6039530D03*
D42*
X-18370520Y-5528228D03*
Y-5358302D03*
X-18787080Y-5070520D03*
Y-4900340D03*
X-18378140Y-6569120D03*
Y-6398940D03*
X-19413952Y-6386240D03*
Y-6556420D03*
X-18964880Y-5070520D03*
Y-4900340D03*
X-19210752Y-6386240D03*
Y-6556420D03*
D12*
X-18537144Y-6572930D03*
X-18707070D03*
X-18251140Y-5070520D03*
Y-4900340D03*
X-18606740D03*
Y-5070520D03*
X-18428940Y-4900340D03*
Y-5070520D03*
X-19142680D03*
Y-4900340D03*
X-19320480Y-5070520D03*
Y-4900340D03*
D13*
X-19703766Y-5340522D03*
Y-5213522D03*
Y-5086522D03*
Y-4959522D03*
X-20196526D03*
Y-5086522D03*
Y-5213522D03*
Y-5340522D03*
D14*
X-17929068Y-5860714D03*
Y-5760638D03*
Y-5660816D03*
Y-6469806D03*
Y-6369730D03*
Y-6269654D03*
Y-5236382D03*
Y-5136560D03*
Y-5036484D03*
Y-4936408D03*
Y-4836586D03*
D15*
X-17541464Y-5990762D03*
Y-5530768D03*
Y-6599854D03*
Y-6139860D03*
Y-5366430D03*
Y-4706538D03*
D16*
X-19460180Y-5517560D03*
Y-5367700D03*
X-19295080Y-5517560D03*
Y-5367700D03*
D17*
X-19904680Y-6166530D03*
X-18901380Y-5696630D03*
X-19041080Y-6064930D03*
X-20247580Y-5582330D03*
X-19554160Y-5087030D03*
X-17758380Y-4934630D03*
X-18571180Y-5658530D03*
X-18263840Y-6560230D03*
X-19307780Y-6382430D03*
X-19041080Y-5658530D03*
X-18606740Y-4805090D03*
X-18939480Y-6014130D03*
X-20133280Y-4833030D03*
X-18939480Y-5925230D03*
X-19866580Y-5341030D03*
X-20044380Y-5087030D03*
Y-5214030D03*
X-19536380Y-5658530D03*
X-18787080Y-5772830D03*
D35*
X-20090100Y-4199960D03*
X-19809938D03*
X-20042348Y-3282258D03*
X-19762440D03*
D36*
X-18525460Y-3216218D03*
X-18573720D03*
X-18624520D03*
X-18675320D03*
X-18723580D03*
X-18774380D03*
X-18825180D03*
X-18875980D03*
X-18924240D03*
X-18975040D03*
X-19025840D03*
X-19074100D03*
Y-4059498D03*
X-19025840D03*
X-18975040D03*
X-18924240D03*
X-18875980D03*
X-18825180D03*
X-18774380D03*
X-18723580D03*
X-18675320D03*
X-18624520D03*
X-18573720D03*
X-18525460D03*
D37*
X-19221420Y-3363538D03*
Y-3411798D03*
Y-3462598D03*
Y-3513398D03*
Y-3561658D03*
Y-3612458D03*
Y-3663258D03*
Y-3714058D03*
Y-3762318D03*
Y-3813118D03*
Y-3863918D03*
Y-3912178D03*
X-18378140D03*
Y-3863918D03*
Y-3813118D03*
Y-3762318D03*
Y-3714058D03*
Y-3663258D03*
Y-3612458D03*
Y-3561658D03*
Y-3513398D03*
Y-3462598D03*
Y-3411798D03*
Y-3363538D03*
D40*
X-20206940Y-3513398D03*
Y-3741998D03*
Y-3970598D03*
D41*
X-19577020Y-3739458D03*
D42*
X-18370520Y-3228156D03*
Y-3058230D03*
X-18787080Y-2770448D03*
Y-2600268D03*
X-18378140Y-4269048D03*
Y-4098868D03*
X-19413952Y-4086168D03*
Y-4256348D03*
X-18964880Y-2770448D03*
Y-2600268D03*
X-19210752Y-4086168D03*
Y-4256348D03*
D12*
X-18537144Y-4272858D03*
X-18707070D03*
X-18251140Y-2770448D03*
Y-2600268D03*
X-18606740D03*
Y-2770448D03*
X-18428940Y-2600268D03*
Y-2770448D03*
X-19142680D03*
Y-2600268D03*
X-19320480Y-2770448D03*
Y-2600268D03*
D13*
X-19703766Y-3040450D03*
Y-2913450D03*
Y-2786450D03*
Y-2659450D03*
X-20196526D03*
Y-2786450D03*
Y-2913450D03*
Y-3040450D03*
D14*
X-17929068Y-3560642D03*
Y-3460566D03*
Y-3360744D03*
Y-4169734D03*
Y-4069658D03*
Y-3969582D03*
Y-2936310D03*
Y-2836488D03*
Y-2736412D03*
Y-2636336D03*
Y-2536514D03*
D15*
X-17541464Y-3690690D03*
Y-3230696D03*
Y-4299782D03*
Y-3839788D03*
Y-3066358D03*
Y-2406466D03*
D16*
X-19460180Y-3217488D03*
Y-3067628D03*
X-19295080Y-3217488D03*
Y-3067628D03*
D17*
X-19904680Y-3866458D03*
X-18901380Y-3396558D03*
X-19041080Y-3764858D03*
X-20247580Y-3282258D03*
X-19554160Y-2786958D03*
X-17758380Y-2634558D03*
X-18571180Y-3358458D03*
X-18263840Y-4260158D03*
X-19307780Y-4082358D03*
X-19041080Y-3358458D03*
X-18606740Y-2505018D03*
X-18939480Y-3714058D03*
X-20133280Y-2532958D03*
X-18939480Y-3625158D03*
X-19866580Y-3040958D03*
X-20044380Y-2786958D03*
Y-2913958D03*
X-19536380Y-3358458D03*
X-18787080Y-3472758D03*
D35*
X-16890106Y-4199960D03*
X-16609944D03*
X-16842354Y-3282258D03*
X-16562446D03*
D36*
X-15325466Y-3216218D03*
X-15373726D03*
X-15424526D03*
X-15475326D03*
X-15523586D03*
X-15574386D03*
X-15625186D03*
X-15675986D03*
X-15724246D03*
X-15775046D03*
X-15825846D03*
X-15874106D03*
Y-4059498D03*
X-15825846D03*
X-15775046D03*
X-15724246D03*
X-15675986D03*
X-15625186D03*
X-15574386D03*
X-15523586D03*
X-15475326D03*
X-15424526D03*
X-15373726D03*
X-15325466D03*
D37*
X-16021426Y-3363538D03*
Y-3411798D03*
Y-3462598D03*
Y-3513398D03*
Y-3561658D03*
Y-3612458D03*
Y-3663258D03*
Y-3714058D03*
Y-3762318D03*
Y-3813118D03*
Y-3863918D03*
Y-3912178D03*
X-15178146D03*
Y-3863918D03*
Y-3813118D03*
Y-3762318D03*
Y-3714058D03*
Y-3663258D03*
Y-3612458D03*
Y-3561658D03*
Y-3513398D03*
Y-3462598D03*
Y-3411798D03*
Y-3363538D03*
D40*
X-17006946Y-3513398D03*
Y-3741998D03*
Y-3970598D03*
D41*
X-16377026Y-3739458D03*
D42*
X-15170526Y-3228156D03*
Y-3058230D03*
X-15587086Y-2770448D03*
Y-2600268D03*
X-15178146Y-4269048D03*
Y-4098868D03*
X-16213958Y-4086168D03*
Y-4256348D03*
X-15764886Y-2770448D03*
Y-2600268D03*
X-16010758Y-4086168D03*
Y-4256348D03*
D12*
X-15337150Y-4272858D03*
X-15507076D03*
X-15051146Y-2770448D03*
Y-2600268D03*
X-15406746D03*
Y-2770448D03*
X-15228946Y-2600268D03*
Y-2770448D03*
X-15942686D03*
Y-2600268D03*
X-16120486Y-2770448D03*
Y-2600268D03*
D13*
X-16503772Y-3040450D03*
Y-2913450D03*
Y-2786450D03*
Y-2659450D03*
X-16996532D03*
Y-2786450D03*
Y-2913450D03*
Y-3040450D03*
D14*
X-14729074Y-3560642D03*
Y-3460566D03*
Y-3360744D03*
Y-4169734D03*
Y-4069658D03*
Y-3969582D03*
Y-2936310D03*
Y-2836488D03*
Y-2736412D03*
Y-2636336D03*
Y-2536514D03*
D15*
X-14341470Y-3690690D03*
Y-3230696D03*
Y-4299782D03*
Y-3839788D03*
Y-3066358D03*
Y-2406466D03*
D16*
X-16260186Y-3217488D03*
Y-3067628D03*
X-16095086Y-3217488D03*
Y-3067628D03*
D17*
X-16704686Y-3866458D03*
X-15701386Y-3396558D03*
X-15841086Y-3764858D03*
X-17047586Y-3282258D03*
X-16354166Y-2786958D03*
X-14558386Y-2634558D03*
X-15371186Y-3358458D03*
X-15063846Y-4260158D03*
X-16107786Y-4082358D03*
X-15841086Y-3358458D03*
X-15406746Y-2505018D03*
X-15739486Y-3714058D03*
X-16933286Y-2532958D03*
X-15739486Y-3625158D03*
X-16666586Y-3040958D03*
X-16844386Y-2786958D03*
Y-2913958D03*
X-16336386Y-3358458D03*
X-15587086Y-3472758D03*
D35*
X-13690112Y-4199960D03*
X-13409950D03*
X-13642360Y-3282258D03*
X-13362452D03*
D36*
X-12125472Y-3216218D03*
X-12173732D03*
X-12224532D03*
X-12275332D03*
X-12323592D03*
X-12374392D03*
X-12425192D03*
X-12475992D03*
X-12524252D03*
X-12575052D03*
X-12625852D03*
X-12674112D03*
Y-4059498D03*
X-12625852D03*
X-12575052D03*
X-12524252D03*
X-12475992D03*
X-12425192D03*
X-12374392D03*
X-12323592D03*
X-12275332D03*
X-12224532D03*
X-12173732D03*
X-12125472D03*
D37*
X-12821432Y-3363538D03*
Y-3411798D03*
Y-3462598D03*
Y-3513398D03*
Y-3561658D03*
Y-3612458D03*
Y-3663258D03*
Y-3714058D03*
Y-3762318D03*
Y-3813118D03*
Y-3863918D03*
Y-3912178D03*
X-11978152D03*
Y-3863918D03*
Y-3813118D03*
Y-3762318D03*
Y-3714058D03*
Y-3663258D03*
Y-3612458D03*
Y-3561658D03*
Y-3513398D03*
Y-3462598D03*
Y-3411798D03*
Y-3363538D03*
D40*
X-13806952Y-3513398D03*
Y-3741998D03*
Y-3970598D03*
D41*
X-13177032Y-3739458D03*
D42*
X-11970532Y-3228156D03*
Y-3058230D03*
X-12387092Y-2770448D03*
Y-2600268D03*
X-11978152Y-4269048D03*
Y-4098868D03*
X-13013964Y-4086168D03*
Y-4256348D03*
X-12564892Y-2770448D03*
Y-2600268D03*
X-12810764Y-4086168D03*
Y-4256348D03*
D12*
X-12137156Y-4272858D03*
X-12307082D03*
X-11851152Y-2770448D03*
Y-2600268D03*
X-12206752D03*
Y-2770448D03*
X-12028952Y-2600268D03*
Y-2770448D03*
X-12742692D03*
Y-2600268D03*
X-12920492Y-2770448D03*
Y-2600268D03*
D13*
X-13303778Y-3040450D03*
Y-2913450D03*
Y-2786450D03*
Y-2659450D03*
X-13796538D03*
Y-2786450D03*
Y-2913450D03*
Y-3040450D03*
D14*
X-11529080Y-3560642D03*
Y-3460566D03*
Y-3360744D03*
Y-4169734D03*
Y-4069658D03*
Y-3969582D03*
Y-2936310D03*
Y-2836488D03*
Y-2736412D03*
Y-2636336D03*
Y-2536514D03*
D15*
X-11141476Y-3690690D03*
Y-3230696D03*
Y-4299782D03*
Y-3839788D03*
Y-3066358D03*
Y-2406466D03*
D16*
X-13060192Y-3217488D03*
Y-3067628D03*
X-12895092Y-3217488D03*
Y-3067628D03*
D17*
X-13504692Y-3866458D03*
X-12501392Y-3396558D03*
X-12641092Y-3764858D03*
X-13847592Y-3282258D03*
X-13154172Y-2786958D03*
X-11358392Y-2634558D03*
X-12171192Y-3358458D03*
X-11863852Y-4260158D03*
X-12907792Y-4082358D03*
X-12641092Y-3358458D03*
X-12206752Y-2505018D03*
X-12539492Y-3714058D03*
X-13733292Y-2532958D03*
X-12539492Y-3625158D03*
X-13466592Y-3040958D03*
X-13644392Y-2786958D03*
Y-2913958D03*
X-13136392Y-3358458D03*
X-12387092Y-3472758D03*
D35*
X-13690112Y-1899888D03*
X-13409950D03*
X-13642360Y-982186D03*
X-13362452D03*
D36*
X-12125472Y-916146D03*
X-12173732D03*
X-12224532D03*
X-12275332D03*
X-12323592D03*
X-12374392D03*
X-12425192D03*
X-12475992D03*
X-12524252D03*
X-12575052D03*
X-12625852D03*
X-12674112D03*
Y-1759426D03*
X-12625852D03*
X-12575052D03*
X-12524252D03*
X-12475992D03*
X-12425192D03*
X-12374392D03*
X-12323592D03*
X-12275332D03*
X-12224532D03*
X-12173732D03*
X-12125472D03*
D37*
X-12821432Y-1063466D03*
Y-1111726D03*
Y-1162526D03*
Y-1213326D03*
Y-1261586D03*
Y-1312386D03*
Y-1363186D03*
Y-1413986D03*
Y-1462246D03*
Y-1513046D03*
Y-1563846D03*
Y-1612106D03*
X-11978152D03*
Y-1563846D03*
Y-1513046D03*
Y-1462246D03*
Y-1413986D03*
Y-1363186D03*
Y-1312386D03*
Y-1261586D03*
Y-1213326D03*
Y-1162526D03*
Y-1111726D03*
Y-1063466D03*
D40*
X-13806952Y-1213326D03*
Y-1441926D03*
Y-1670526D03*
D41*
X-13177032Y-1439386D03*
D42*
X-11970532Y-928084D03*
Y-758158D03*
X-12387092Y-470376D03*
Y-300196D03*
X-11978152Y-1968976D03*
Y-1798796D03*
X-13013964Y-1786096D03*
Y-1956276D03*
X-12564892Y-470376D03*
Y-300196D03*
X-12810764Y-1786096D03*
Y-1956276D03*
D12*
X-12137156Y-1972786D03*
X-12307082D03*
X-11851152Y-470376D03*
Y-300196D03*
X-12206752D03*
Y-470376D03*
X-12028952Y-300196D03*
Y-470376D03*
X-12742692D03*
Y-300196D03*
X-12920492Y-470376D03*
Y-300196D03*
D13*
X-13303778Y-740378D03*
Y-613378D03*
Y-486378D03*
Y-359378D03*
X-13796538D03*
Y-486378D03*
Y-613378D03*
Y-740378D03*
D14*
X-11529080Y-1260570D03*
Y-1160494D03*
Y-1060672D03*
Y-1869662D03*
Y-1769586D03*
Y-1669510D03*
Y-636238D03*
Y-536416D03*
Y-436340D03*
Y-336264D03*
Y-236442D03*
D15*
X-11141476Y-1390618D03*
Y-930624D03*
Y-1999710D03*
Y-1539716D03*
Y-766286D03*
Y-106394D03*
D16*
X-13060192Y-917416D03*
Y-767556D03*
X-12895092Y-917416D03*
Y-767556D03*
D17*
X-13504692Y-1566386D03*
X-12501392Y-1096486D03*
X-12641092Y-1464786D03*
X-13847592Y-982186D03*
X-13154172Y-486886D03*
X-11358392Y-334486D03*
X-12171192Y-1058386D03*
X-11863852Y-1960086D03*
X-12907792Y-1782286D03*
X-12641092Y-1058386D03*
X-12206752Y-204946D03*
X-12539492Y-1413986D03*
X-13733292Y-232886D03*
X-12539492Y-1325086D03*
X-13466592Y-740886D03*
X-13644392Y-486886D03*
Y-613886D03*
X-13136392Y-1058386D03*
X-12387092Y-1172686D03*
D35*
X-16890106Y-1899888D03*
X-16609944D03*
X-16842354Y-982186D03*
X-16562446D03*
D36*
X-15325466Y-916146D03*
X-15373726D03*
X-15424526D03*
X-15475326D03*
X-15523586D03*
X-15574386D03*
X-15625186D03*
X-15675986D03*
X-15724246D03*
X-15775046D03*
X-15825846D03*
X-15874106D03*
Y-1759426D03*
X-15825846D03*
X-15775046D03*
X-15724246D03*
X-15675986D03*
X-15625186D03*
X-15574386D03*
X-15523586D03*
X-15475326D03*
X-15424526D03*
X-15373726D03*
X-15325466D03*
D37*
X-16021426Y-1063466D03*
Y-1111726D03*
Y-1162526D03*
Y-1213326D03*
Y-1261586D03*
Y-1312386D03*
Y-1363186D03*
Y-1413986D03*
Y-1462246D03*
Y-1513046D03*
Y-1563846D03*
Y-1612106D03*
X-15178146D03*
Y-1563846D03*
Y-1513046D03*
Y-1462246D03*
Y-1413986D03*
Y-1363186D03*
Y-1312386D03*
Y-1261586D03*
Y-1213326D03*
Y-1162526D03*
Y-1111726D03*
Y-1063466D03*
D40*
X-17006946Y-1213326D03*
Y-1441926D03*
Y-1670526D03*
D41*
X-16377026Y-1439386D03*
D42*
X-15170526Y-928084D03*
Y-758158D03*
X-15587086Y-470376D03*
Y-300196D03*
X-15178146Y-1968976D03*
Y-1798796D03*
X-16213958Y-1786096D03*
Y-1956276D03*
X-15764886Y-470376D03*
Y-300196D03*
X-16010758Y-1786096D03*
Y-1956276D03*
D12*
X-15337150Y-1972786D03*
X-15507076D03*
X-15051146Y-470376D03*
Y-300196D03*
X-15406746D03*
Y-470376D03*
X-15228946Y-300196D03*
Y-470376D03*
X-15942686D03*
Y-300196D03*
X-16120486Y-470376D03*
Y-300196D03*
D13*
X-16503772Y-740378D03*
Y-613378D03*
Y-486378D03*
Y-359378D03*
X-16996532D03*
Y-486378D03*
Y-613378D03*
Y-740378D03*
D14*
X-14729074Y-1260570D03*
Y-1160494D03*
Y-1060672D03*
Y-1869662D03*
Y-1769586D03*
Y-1669510D03*
Y-636238D03*
Y-536416D03*
Y-436340D03*
Y-336264D03*
Y-236442D03*
D15*
X-14341470Y-1390618D03*
Y-930624D03*
Y-1999710D03*
Y-1539716D03*
Y-766286D03*
Y-106394D03*
D16*
X-16260186Y-917416D03*
Y-767556D03*
X-16095086Y-917416D03*
Y-767556D03*
D17*
X-16704686Y-1566386D03*
X-15701386Y-1096486D03*
X-15841086Y-1464786D03*
X-17047586Y-982186D03*
X-16354166Y-486886D03*
X-14558386Y-334486D03*
X-15371186Y-1058386D03*
X-15063846Y-1960086D03*
X-16107786Y-1782286D03*
X-15841086Y-1058386D03*
X-15406746Y-204946D03*
X-15739486Y-1413986D03*
X-16933286Y-232886D03*
X-15739486Y-1325086D03*
X-16666586Y-740886D03*
X-16844386Y-486886D03*
Y-613886D03*
X-16336386Y-1058386D03*
X-15587086Y-1172686D03*
D35*
X-20090100Y-1899888D03*
X-19809938D03*
X-20042348Y-982186D03*
X-19762440D03*
D36*
X-18525460Y-916146D03*
X-18573720D03*
X-18624520D03*
X-18675320D03*
X-18723580D03*
X-18774380D03*
X-18825180D03*
X-18875980D03*
X-18924240D03*
X-18975040D03*
X-19025840D03*
X-19074100D03*
Y-1759426D03*
X-19025840D03*
X-18975040D03*
X-18924240D03*
X-18875980D03*
X-18825180D03*
X-18774380D03*
X-18723580D03*
X-18675320D03*
X-18624520D03*
X-18573720D03*
X-18525460D03*
D37*
X-19221420Y-1063466D03*
Y-1111726D03*
Y-1162526D03*
Y-1213326D03*
Y-1261586D03*
Y-1312386D03*
Y-1363186D03*
Y-1413986D03*
Y-1462246D03*
Y-1513046D03*
Y-1563846D03*
Y-1612106D03*
X-18378140D03*
Y-1563846D03*
Y-1513046D03*
Y-1462246D03*
Y-1413986D03*
Y-1363186D03*
Y-1312386D03*
Y-1261586D03*
Y-1213326D03*
Y-1162526D03*
Y-1111726D03*
Y-1063466D03*
D40*
X-20206940Y-1213326D03*
Y-1441926D03*
Y-1670526D03*
D41*
X-19577020Y-1439386D03*
D42*
X-18370520Y-928084D03*
Y-758158D03*
X-18787080Y-470376D03*
Y-300196D03*
X-18378140Y-1968976D03*
Y-1798796D03*
X-19413952Y-1786096D03*
Y-1956276D03*
X-18964880Y-470376D03*
Y-300196D03*
X-19210752Y-1786096D03*
Y-1956276D03*
D12*
X-18537144Y-1972786D03*
X-18707070D03*
X-18251140Y-470376D03*
Y-300196D03*
X-18606740D03*
Y-470376D03*
X-18428940Y-300196D03*
Y-470376D03*
X-19142680D03*
Y-300196D03*
X-19320480Y-470376D03*
Y-300196D03*
D13*
X-19703766Y-740378D03*
Y-613378D03*
Y-486378D03*
Y-359378D03*
X-20196526D03*
Y-486378D03*
Y-613378D03*
Y-740378D03*
D14*
X-17929068Y-1260570D03*
Y-1160494D03*
Y-1060672D03*
Y-1869662D03*
Y-1769586D03*
Y-1669510D03*
Y-636238D03*
Y-536416D03*
Y-436340D03*
Y-336264D03*
Y-236442D03*
D15*
X-17541464Y-1390618D03*
Y-930624D03*
Y-1999710D03*
Y-1539716D03*
Y-766286D03*
Y-106394D03*
D16*
X-19460180Y-917416D03*
Y-767556D03*
X-19295080Y-917416D03*
Y-767556D03*
D17*
X-19904680Y-1566386D03*
X-18901380Y-1096486D03*
X-19041080Y-1464786D03*
X-20247580Y-982186D03*
X-19554160Y-486886D03*
X-17758380Y-334486D03*
X-18571180Y-1058386D03*
X-18263840Y-1960086D03*
X-19307780Y-1782286D03*
X-19041080Y-1058386D03*
X-18606740Y-204946D03*
X-18939480Y-1413986D03*
X-20133280Y-232886D03*
X-18939480Y-1325086D03*
X-19866580Y-740886D03*
X-20044380Y-486886D03*
Y-613886D03*
X-19536380Y-1058386D03*
X-18787080Y-1172686D03*
D35*
X-20090100Y400184D03*
X-19809938D03*
X-20042348Y1317886D03*
X-19762440D03*
D36*
X-18525460Y1383926D03*
X-18573720D03*
X-18624520D03*
X-18675320D03*
X-18723580D03*
X-18774380D03*
X-18825180D03*
X-18875980D03*
X-18924240D03*
X-18975040D03*
X-19025840D03*
X-19074100D03*
Y540646D03*
X-19025840D03*
X-18975040D03*
X-18924240D03*
X-18875980D03*
X-18825180D03*
X-18774380D03*
X-18723580D03*
X-18675320D03*
X-18624520D03*
X-18573720D03*
X-18525460D03*
D37*
X-19221420Y1236606D03*
Y1188346D03*
Y1137546D03*
Y1086746D03*
Y1038486D03*
Y987686D03*
Y936886D03*
Y886086D03*
Y837826D03*
Y787026D03*
Y736226D03*
Y687966D03*
X-18378140D03*
Y736226D03*
Y787026D03*
Y837826D03*
Y886086D03*
Y936886D03*
Y987686D03*
Y1038486D03*
Y1086746D03*
Y1137546D03*
Y1188346D03*
Y1236606D03*
D40*
X-20206940Y1086746D03*
Y858146D03*
Y629546D03*
D41*
X-19577020Y860686D03*
D42*
X-18370520Y1371988D03*
Y1541914D03*
X-18787080Y1829696D03*
Y1999876D03*
X-18378140Y331096D03*
Y501276D03*
X-19413952Y513976D03*
Y343796D03*
X-18964880Y1829696D03*
Y1999876D03*
X-19210752Y513976D03*
Y343796D03*
D12*
X-18537144Y327286D03*
X-18707070D03*
X-18251140Y1829696D03*
Y1999876D03*
X-18606740D03*
Y1829696D03*
X-18428940Y1999876D03*
Y1829696D03*
X-19142680D03*
Y1999876D03*
X-19320480Y1829696D03*
Y1999876D03*
D13*
X-19703766Y1559694D03*
Y1686694D03*
Y1813694D03*
Y1940694D03*
X-20196526D03*
Y1813694D03*
Y1686694D03*
Y1559694D03*
D14*
X-17929068Y1039502D03*
Y1139578D03*
Y1239400D03*
Y430410D03*
Y530486D03*
Y630562D03*
Y1663834D03*
Y1763656D03*
Y1863732D03*
Y1963808D03*
Y2063630D03*
D15*
X-17541464Y909454D03*
Y1369448D03*
Y300362D03*
Y760356D03*
Y1533786D03*
Y2193678D03*
D16*
X-19460180Y1382656D03*
Y1532516D03*
X-19295080Y1382656D03*
Y1532516D03*
D17*
X-19904680Y733686D03*
X-18901380Y1203586D03*
X-19041080Y835286D03*
X-20247580Y1317886D03*
X-19554160Y1813186D03*
X-17758380Y1965586D03*
X-18571180Y1241686D03*
X-18263840Y339986D03*
X-19307780Y517786D03*
X-19041080Y1241686D03*
X-18606740Y2095126D03*
X-18939480Y886086D03*
X-20133280Y2067186D03*
X-18939480Y974986D03*
X-19866580Y1559186D03*
X-20044380Y1813186D03*
Y1686186D03*
X-19536380Y1241686D03*
X-18787080Y1127386D03*
D35*
X-16890106Y400184D03*
X-16609944D03*
X-16842354Y1317886D03*
X-16562446D03*
D36*
X-15325466Y1383926D03*
X-15373726D03*
X-15424526D03*
X-15475326D03*
X-15523586D03*
X-15574386D03*
X-15625186D03*
X-15675986D03*
X-15724246D03*
X-15775046D03*
X-15825846D03*
X-15874106D03*
Y540646D03*
X-15825846D03*
X-15775046D03*
X-15724246D03*
X-15675986D03*
X-15625186D03*
X-15574386D03*
X-15523586D03*
X-15475326D03*
X-15424526D03*
X-15373726D03*
X-15325466D03*
D37*
X-16021426Y1236606D03*
Y1188346D03*
Y1137546D03*
Y1086746D03*
Y1038486D03*
Y987686D03*
Y936886D03*
Y886086D03*
Y837826D03*
Y787026D03*
Y736226D03*
Y687966D03*
X-15178146D03*
Y736226D03*
Y787026D03*
Y837826D03*
Y886086D03*
Y936886D03*
Y987686D03*
Y1038486D03*
Y1086746D03*
Y1137546D03*
Y1188346D03*
Y1236606D03*
D40*
X-17006946Y1086746D03*
Y858146D03*
Y629546D03*
D41*
X-16377026Y860686D03*
D42*
X-15170526Y1371988D03*
Y1541914D03*
X-15587086Y1829696D03*
Y1999876D03*
X-15178146Y331096D03*
Y501276D03*
X-16213958Y513976D03*
Y343796D03*
X-15764886Y1829696D03*
Y1999876D03*
X-16010758Y513976D03*
Y343796D03*
D12*
X-15337150Y327286D03*
X-15507076D03*
X-15051146Y1829696D03*
Y1999876D03*
X-15406746D03*
Y1829696D03*
X-15228946Y1999876D03*
Y1829696D03*
X-15942686D03*
Y1999876D03*
X-16120486Y1829696D03*
Y1999876D03*
D13*
X-16503772Y1559694D03*
Y1686694D03*
Y1813694D03*
Y1940694D03*
X-16996532D03*
Y1813694D03*
Y1686694D03*
Y1559694D03*
D14*
X-14729074Y1039502D03*
Y1139578D03*
Y1239400D03*
Y430410D03*
Y530486D03*
Y630562D03*
Y1663834D03*
Y1763656D03*
Y1863732D03*
Y1963808D03*
Y2063630D03*
D15*
X-14341470Y909454D03*
Y1369448D03*
Y300362D03*
Y760356D03*
Y1533786D03*
Y2193678D03*
D16*
X-16260186Y1382656D03*
Y1532516D03*
X-16095086Y1382656D03*
Y1532516D03*
D17*
X-16704686Y733686D03*
X-15701386Y1203586D03*
X-15841086Y835286D03*
X-17047586Y1317886D03*
X-16354166Y1813186D03*
X-14558386Y1965586D03*
X-15371186Y1241686D03*
X-15063846Y339986D03*
X-16107786Y517786D03*
X-15841086Y1241686D03*
X-15406746Y2095126D03*
X-15739486Y886086D03*
X-16933286Y2067186D03*
X-15739486Y974986D03*
X-16666586Y1559186D03*
X-16844386Y1813186D03*
Y1686186D03*
X-16336386Y1241686D03*
X-15587086Y1127386D03*
D35*
X-13690112Y400184D03*
X-13409950D03*
X-13642360Y1317886D03*
X-13362452D03*
D36*
X-12125472Y1383926D03*
X-12173732D03*
X-12224532D03*
X-12275332D03*
X-12323592D03*
X-12374392D03*
X-12425192D03*
X-12475992D03*
X-12524252D03*
X-12575052D03*
X-12625852D03*
X-12674112D03*
Y540646D03*
X-12625852D03*
X-12575052D03*
X-12524252D03*
X-12475992D03*
X-12425192D03*
X-12374392D03*
X-12323592D03*
X-12275332D03*
X-12224532D03*
X-12173732D03*
X-12125472D03*
D37*
X-12821432Y1236606D03*
Y1188346D03*
Y1137546D03*
Y1086746D03*
Y1038486D03*
Y987686D03*
Y936886D03*
Y886086D03*
Y837826D03*
Y787026D03*
Y736226D03*
Y687966D03*
X-11978152D03*
Y736226D03*
Y787026D03*
Y837826D03*
Y886086D03*
Y936886D03*
Y987686D03*
Y1038486D03*
Y1086746D03*
Y1137546D03*
Y1188346D03*
Y1236606D03*
D40*
X-13806952Y1086746D03*
Y858146D03*
Y629546D03*
D41*
X-13177032Y860686D03*
D42*
X-11970532Y1371988D03*
Y1541914D03*
X-12387092Y1829696D03*
Y1999876D03*
X-11978152Y331096D03*
Y501276D03*
X-13013964Y513976D03*
Y343796D03*
X-12564892Y1829696D03*
Y1999876D03*
X-12810764Y513976D03*
Y343796D03*
D12*
X-12137156Y327286D03*
X-12307082D03*
X-11851152Y1829696D03*
Y1999876D03*
X-12206752D03*
Y1829696D03*
X-12028952Y1999876D03*
Y1829696D03*
X-12742692D03*
Y1999876D03*
X-12920492Y1829696D03*
Y1999876D03*
D13*
X-13303778Y1559694D03*
Y1686694D03*
Y1813694D03*
Y1940694D03*
X-13796538D03*
Y1813694D03*
Y1686694D03*
Y1559694D03*
D14*
X-11529080Y1039502D03*
Y1139578D03*
Y1239400D03*
Y430410D03*
Y530486D03*
Y630562D03*
Y1663834D03*
Y1763656D03*
Y1863732D03*
Y1963808D03*
Y2063630D03*
D15*
X-11141476Y909454D03*
Y1369448D03*
Y300362D03*
Y760356D03*
Y1533786D03*
Y2193678D03*
D16*
X-13060192Y1382656D03*
Y1532516D03*
X-12895092Y1382656D03*
Y1532516D03*
D17*
X-13504692Y733686D03*
X-12501392Y1203586D03*
X-12641092Y835286D03*
X-13847592Y1317886D03*
X-13154172Y1813186D03*
X-11358392Y1965586D03*
X-12171192Y1241686D03*
X-11863852Y339986D03*
X-12907792Y517786D03*
X-12641092Y1241686D03*
X-12206752Y2095126D03*
X-12539492Y886086D03*
X-13733292Y2067186D03*
X-12539492Y974986D03*
X-13466592Y1559186D03*
X-13644392Y1813186D03*
Y1686186D03*
X-13136392Y1241686D03*
X-12387092Y1127386D03*
D46*
X-10500000Y2800360D03*
X-20899980D03*
D47*
Y-9500000D03*
M02*
