G04 Filename: C:\Adam\outline *
G04 Creator: GC-CAM (TM) 4.1.4  Wed May 06 15:27:32 2015 *
G04 This file contains layer(s): *
G04 Layer 6: C:\Adam\uniadapter.kon *
%FSLAX35Y35*%
G04 Units: mm   *
%MOMM*%
G71*
%SFA1.00000B1.00000*%
%OFA0.00000B0.00000*%
G75*
%AD*%
G04 D43 (position 34 of UNTITLED):0.100000 Round     *
%ADD43C,0.100000*%
%IPPOS*%
G04 Layer 6: C:\Adam\uniadapter.kon *
%LN(06)C:\Adam\uniadapter.kon*%
%LPD*%
X0Y0D02*
D43*
X-21399980Y-10000002D02*
Y3300358D01*
X-9999998*
Y-10000002*
X-21399980*
X-20399980Y-9000002D02*
X-19049983D01*
X-18749983D02*
X-17399986D01*
Y-8099966*
Y-7799966D02*
Y-6899930D01*
X-18749983*
X-19049983D02*
X-20399980D01*
Y-7799966*
Y-8099966D02*
Y-9000002D01*
X-17199986D02*
X-15849989D01*
X-15549989D02*
X-14199992D01*
Y-8099966*
Y-7799966D02*
Y-6899930D01*
X-15549989*
X-15849989D02*
X-17199986D01*
Y-7799966*
Y-8099966D02*
Y-9000002D01*
X-13999992D02*
X-12649995D01*
X-12349995D02*
X-10999998D01*
Y-8099966*
Y-7799966D02*
Y-6899930D01*
X-12349995*
X-12649995D02*
X-13999992D01*
Y-7799966*
Y-8099966D02*
Y-9000002D01*
Y-6699930D02*
X-12649995D01*
X-12349995D02*
X-10999998D01*
Y-5799894*
Y-5499894D02*
Y-4599858D01*
X-12349995*
X-12649995D02*
X-13999992D01*
Y-5499894*
Y-5799894D02*
Y-6699930D01*
X-17199986D02*
X-15849989D01*
X-15549989D02*
X-14199992D01*
Y-5799894*
Y-5499894D02*
Y-4599858D01*
X-15549989*
X-15849989D02*
X-17199986D01*
Y-5499894*
Y-5799894D02*
Y-6699930D01*
X-20399980D02*
X-19049983D01*
X-18749983D02*
X-17399986D01*
Y-5799894*
Y-5499894D02*
Y-4599858D01*
X-18749983*
X-19049983D02*
X-20399980D01*
Y-5499894*
Y-5799894D02*
Y-6699930D01*
Y-4399858D02*
X-19049983D01*
X-18749983D02*
X-17399986D01*
Y-3499822*
Y-3199822D02*
Y-2299786D01*
X-18749983*
X-19049983D02*
X-20399980D01*
Y-3199822*
Y-3499822D02*
Y-4399858D01*
X-17199986D02*
X-15849989D01*
X-15549989D02*
X-14199992D01*
Y-3499822*
Y-3199822D02*
Y-2299786D01*
X-15549989*
X-15849989D02*
X-17199986D01*
Y-3199822*
Y-3499822D02*
Y-4399858D01*
X-13999992D02*
X-12649995D01*
X-12349995D02*
X-10999998D01*
Y-3499822*
Y-3199822D02*
Y-2299786D01*
X-12349995*
X-12649995D02*
X-13999992D01*
Y-3199822*
Y-3499822D02*
Y-4399858D01*
Y-2099786D02*
X-12649995D01*
X-12349995D02*
X-10999998D01*
Y-1199750*
Y-899750D02*
Y286D01*
X-12349995*
X-12649995D02*
X-13999992D01*
Y-899750*
Y-1199750D02*
Y-2099786D01*
X-17199986D02*
X-15849989D01*
X-15549989D02*
X-14199992D01*
Y-1199750*
Y-899750D02*
Y286D01*
X-15549989*
X-15849989D02*
X-17199986D01*
Y-899750*
Y-1199750D02*
Y-2099786D01*
X-20399980D02*
X-19049983D01*
X-18749983D02*
X-17399986D01*
Y-1199750*
Y-899750D02*
Y286D01*
X-18749983*
X-19049983D02*
X-20399980D01*
Y-899750*
Y-1199750D02*
Y-2099786D01*
Y200286D02*
X-19049983D01*
X-18749983D02*
X-17399986D01*
Y1100322*
Y1400322D02*
Y2300358D01*
X-18749983*
X-19049983D02*
X-20399980D01*
Y1400322*
Y1100322D02*
Y200286D01*
X-17199986D02*
X-15849989D01*
X-15549989D02*
X-14199992D01*
Y1100322*
Y1400322D02*
Y2300358D01*
X-15549989*
X-15849989D02*
X-17199986D01*
Y1400322*
Y1100322D02*
Y200286D01*
X-13999992D02*
X-12649995D01*
X-12349995D02*
X-10999998D01*
Y1100322*
Y1400322D02*
Y2300358D01*
X-12349995*
X-12649995D02*
X-13999992D01*
Y1400322*
Y1100322D02*
Y200286D01*
M02*
