G04 Filename: C:\Adam\silk_1 *
G04 Creator: GC-CAM (TM) 4.1.4  Wed May 06 15:27:32 2015 *
G04 This file contains layer(s): *
G04 Layer 7: CLIPPED *
%FSLAX35Y35*%
G04 Units: mm   *
%MOMM*%
G71*
%SFA1.00000B1.00000*%
%OFA0.00000B0.00000*%
G75*
%AD*%
G04 D10 (position 1 of UNTITLED):0.101600 Round     *
%ADD10C,0.101600*%
G04 D11 (position 2 of UNTITLED):0.152400 Round     *
%ADD11C,0.152400*%
G04 D19 (position 10 of UNTITLED):0.254000 Round     *
%ADD19C,0.254000*%
%IPPOS*%
G04 Layer 7: CLIPPED *
%LN(07)CLIPPED*%
%LPD*%
X0Y0D02*
D10*
X-20094926Y-7065030D02*
Y-6987052D01*
X-20056064Y-6947936*
X-20016948Y-6987052*
Y-7065030*
Y-7006610D02*
X-20094926D01*
X-19978086Y-7065030D02*
Y-6987052D01*
X-19919666*
X-19900108Y-7006610*
Y-7065030*
X-19860992Y-6987052D02*
Y-7045472D01*
X-19841688Y-7065030*
X-19783014*
Y-6987052D02*
Y-7084334D01*
X-19802572Y-7103892*
X-19822130*
X-19666174Y-6967494D02*
X-19685732Y-6947936D01*
X-19724594*
X-19744152Y-6967494*
Y-6987052*
X-19724594Y-7006610*
X-19685732*
X-19666174Y-7025914*
Y-7045472*
X-19685732Y-7065030*
X-19724594*
X-19744152Y-7045472*
X-19568638Y-7065030D02*
X-19607754D01*
X-19627312Y-7045472*
Y-7006610*
X-19607754Y-6987052*
X-19568638*
X-19549334Y-7006610*
Y-7025914*
X-19627312*
X-19510218Y-7065030D02*
Y-6987052D01*
X-19451798*
X-19432240Y-7006610*
Y-7065030*
X-19393378D02*
X-19334958D01*
X-19315400Y-7045472*
X-19334958Y-7025914*
X-19373820*
X-19393378Y-7006610*
X-19373820Y-6987052*
X-19315400*
X-19217864Y-7065030D02*
X-19256980D01*
X-19276284Y-7045472*
Y-7006610*
X-19256980Y-6987052*
X-19217864*
X-19198306Y-7006610*
Y-7025914*
X-19276284*
X-19042604Y-6947936D02*
Y-7025914D01*
X-19003488Y-7065030*
X-18964626Y-7025914*
Y-6947936*
X-18925510Y-6987052D02*
X-18886648Y-6947936D01*
Y-7065030*
X-18925510D02*
X-18847532D01*
X-18808670D02*
Y-7045472D01*
X-18789112*
Y-7065030*
X-18808670*
X-18750250Y-6987052D02*
X-18711134Y-6947936D01*
Y-7065030*
X-18672272D02*
X-18750250D01*
X-20268154Y-8802390D02*
X-20277552Y-8811534D01*
Y-8830330*
X-20268154Y-8839474*
X-20230816*
X-20221672Y-8830330*
Y-8811534*
X-20230816Y-8802390*
X-20258756Y-8783340D02*
X-20277552Y-8764798D01*
X-20221672*
Y-8783340D02*
Y-8746256D01*
X-20106102Y-7741178D02*
X-20115246Y-7731780D01*
X-20134042*
X-20143186Y-7741178*
Y-7778262*
X-20134042Y-7787660*
X-20115246*
X-20106102Y-7778262*
X-20049968Y-7787660D02*
X-20087052D01*
X-20049968Y-7750322*
Y-7741178*
X-20059112Y-7731780*
X-20077908*
X-20087052Y-7741178*
X-18812988Y-7718318D02*
X-18794446D01*
X-18803590D02*
Y-7662438D01*
X-18794446D02*
X-18812988D01*
X-18738312Y-7671836D02*
X-18747710Y-7662438D01*
X-18766252*
X-18775650Y-7671836*
Y-7708920*
X-18766252Y-7718318*
X-18747710*
X-18738312Y-7708920*
X-18719516Y-7671836D02*
X-18710118Y-7662438D01*
X-18691576*
X-18682178Y-7671836*
Y-7680980*
X-18691576Y-7690378*
X-18700720*
X-18691576D02*
X-18682178Y-7699776D01*
Y-7708920*
X-18691576Y-7718318*
X-18710118*
X-18719516Y-7708920*
X-19672524Y-8115828D02*
X-19691320D01*
X-19681922D02*
Y-8059948D01*
X-19691320D02*
X-19672524D01*
X-19616644Y-8069346D02*
X-19625788Y-8059948D01*
X-19644584*
X-19653728Y-8069346*
Y-8106430*
X-19644584Y-8115828*
X-19625788*
X-19616644Y-8106430*
X-19597594Y-8078490D02*
X-19579052Y-8059948D01*
Y-8115828*
X-19597594D02*
X-19560510D01*
X-18287716Y-7675646D02*
X-18296860Y-7684790D01*
Y-7703586*
X-18287716Y-7712730*
X-18250378*
X-18240980Y-7703586*
Y-7684790*
X-18250378Y-7675646*
X-18287716Y-7656850D02*
X-18296860Y-7647452D01*
Y-7628656*
X-18287716Y-7619512*
X-18278318*
X-18268920Y-7628656*
Y-7638054*
Y-7628656D02*
X-18259776Y-7619512D01*
X-18250378*
X-18240980Y-7628656*
Y-7647452*
X-18250378Y-7656850*
X-18803336Y-7462540D02*
X-18812734Y-7453142D01*
X-18831530*
X-18840674Y-7462540*
Y-7499624*
X-18831530Y-7509022*
X-18812734*
X-18803336Y-7499624*
X-18747202Y-7453142D02*
X-18765998Y-7462540D01*
X-18784540Y-7481082*
Y-7499624*
X-18775396Y-7509022*
X-18756600*
X-18747202Y-7499624*
Y-7490480*
X-18756600Y-7481082*
X-18784540*
X-18372552Y-8561852D02*
X-18381696Y-8552454D01*
X-18400492*
X-18409890Y-8561852*
Y-8599190*
X-18400492Y-8608334*
X-18381696*
X-18372552Y-8599190*
X-18316418Y-8552454D02*
X-18353756D01*
Y-8580394*
X-18334960Y-8571250*
X-18325562*
X-18316418Y-8580394*
Y-8599190*
X-18325562Y-8608334*
X-18344358*
X-18353756Y-8599190*
X-19531808Y-8863604D02*
X-19541206Y-8873002D01*
Y-8891544*
X-19531808Y-8900942*
X-19494470*
X-19541206Y-8816868D02*
X-19513012Y-8844808D01*
Y-8807470*
X-18981136Y-7462540D02*
X-18990534Y-7453142D01*
X-19009330*
X-19018474Y-7462540*
Y-7499624*
X-19009330Y-7509022*
X-18990534*
X-18981136Y-7499624*
X-18962340Y-7453142D02*
X-18925002D01*
Y-7462540*
X-18962340Y-7499624*
Y-7509022*
X-19331656Y-8863604D02*
X-19340800Y-8873002D01*
Y-8891544*
X-19331656Y-8900942*
X-19294318*
X-19284920Y-8891544*
Y-8873002*
X-19294318Y-8863604*
X-19331656Y-8844808D02*
X-19340800Y-8835410D01*
Y-8816868*
X-19331656Y-8807470*
X-19322258*
X-19312860Y-8816868*
X-19303716Y-8807470*
X-19294318*
X-19284920Y-8816868*
Y-8835410*
X-19294318Y-8844808*
X-19303716*
X-19312860Y-8835410*
X-19322258Y-8844808*
X-19331656*
X-19312860Y-8835410D02*
Y-8816868D01*
X-18838896Y-8878844D02*
X-18848040Y-8888242D01*
Y-8906784*
X-18838896Y-8916182*
X-18801558*
X-18792160Y-8906784*
Y-8888242*
X-18801558Y-8878844*
Y-8860048D02*
X-18792160Y-8850650D01*
Y-8832108*
X-18801558Y-8822710*
X-18838896*
X-18848040Y-8832108*
Y-8850650*
X-18838896Y-8860048*
X-18829498*
X-18820100Y-8850650*
Y-8822710*
X-18304734Y-7509022D02*
Y-7453142D01*
X-18276794*
X-18267396Y-7462540*
Y-7481082*
X-18276794Y-7490480*
X-18304734*
X-18286192D02*
X-18267396Y-7509022D01*
X-18248600Y-7471684D02*
X-18230058Y-7453142D01*
Y-7509022*
X-18248600D02*
X-18211262D01*
X-19757868Y-7759466D02*
X-19776410D01*
X-19767012D02*
Y-7703332D01*
X-19757868D02*
X-19776410D01*
X-19701734Y-7712730D02*
X-19711132Y-7703332D01*
X-19729674*
X-19739072Y-7712730*
Y-7750068*
X-19729674Y-7759466*
X-19711132*
X-19701734Y-7750068*
X-19645600Y-7759466D02*
X-19682938D01*
X-19645600Y-7722128*
Y-7712730*
X-19654998Y-7703332*
X-19673540*
X-19682938Y-7712730*
X-18660334Y-7509022D02*
Y-7453142D01*
X-18632394*
X-18622996Y-7462540*
Y-7481082*
X-18632394Y-7490480*
X-18660334*
X-18641792D02*
X-18622996Y-7509022D01*
X-18604200Y-7462540D02*
X-18595056Y-7453142D01*
X-18576260*
X-18566862Y-7462540*
Y-7471684*
X-18576260Y-7481082*
X-18585658*
X-18576260D02*
X-18566862Y-7490480D01*
Y-7499624*
X-18576260Y-7509022*
X-18595056*
X-18604200Y-7499624*
X-18482534Y-7509022D02*
Y-7453142D01*
X-18454594*
X-18445196Y-7462540*
Y-7481082*
X-18454594Y-7490480*
X-18482534*
X-18463992D02*
X-18445196Y-7509022D01*
X-18389062D02*
X-18426400D01*
X-18389062Y-7471684*
Y-7462540*
X-18398460Y-7453142*
X-18417256*
X-18426400Y-7462540*
X-19183574Y-7509022D02*
Y-7453142D01*
X-19155634*
X-19146236Y-7462540*
Y-7481082*
X-19155634Y-7490480*
X-19183574*
X-19165032D02*
X-19146236Y-7509022D01*
X-19099500D02*
Y-7453142D01*
X-19127440Y-7481082*
X-19090102*
X-19374074Y-7509022D02*
Y-7453142D01*
X-19346134*
X-19336736Y-7462540*
Y-7481082*
X-19346134Y-7490480*
X-19374074*
X-19355532D02*
X-19336736Y-7509022D01*
X-19280602Y-7453142D02*
X-19317940D01*
Y-7481082*
X-19299398Y-7471684*
X-19290000*
X-19280602Y-7481082*
Y-7499624*
X-19290000Y-7509022*
X-19308796*
X-19317940Y-7499624*
D11*
X-19160460Y-8560582D02*
Y-8598682D01*
X-18477200D02*
X-18439100D01*
X-18522920Y-7923042D02*
X-18484820Y-7961142D01*
X-19160460Y-7915422D02*
Y-7877322D01*
Y-8598682D02*
X-19122360D01*
X-18439100D02*
Y-8560582D01*
X-19122360Y-7877322D02*
X-19160460D01*
X-19719006Y-8027182D02*
X-20064954D01*
Y-8652022D02*
X-19719006D01*
Y-8027182*
X-20064954D02*
Y-8652022D01*
X-20087306Y-7201174D02*
X-19812986D01*
X-20087306Y-7699014D02*
X-19980626D01*
X-19919666*
X-19812986*
X-19919666D02*
X-19920174Y-7693680D01*
X-19921444Y-7688600*
X-19923730Y-7683774*
X-19926778Y-7679456*
X-19930588Y-7675646*
X-19934906Y-7672598*
X-19939732Y-7670312*
X-19944812Y-7669042*
X-19950146Y-7668534*
X-19955480Y-7669042*
X-19960560Y-7670312*
X-19965386Y-7672598*
X-19969704Y-7675646*
X-19973514Y-7679456*
X-19976562Y-7683774*
X-19978848Y-7688600*
X-19980118Y-7693680*
X-19980626Y-7699014*
D19*
X-17681418Y-8298200D02*
X-17883856D01*
Y-8260862*
X-17681418Y-7823474D02*
X-17883856D01*
Y-7860812*
X-17484060Y-7960888D02*
Y-8160786D01*
X-17681418Y-8907038D02*
X-17883856D01*
Y-8869954*
X-17681418Y-8432566D02*
X-17883856D01*
Y-8469904*
X-17484060Y-8569726D02*
Y-8769878D01*
X-17681418Y-7673868D02*
X-17883856D01*
Y-7636530*
X-17681418Y-6999244D02*
X-17883856D01*
Y-7036582*
X-17484060Y-7136658D02*
Y-7536454D01*
D10*
X-18054290Y-8272292D02*
X-18148524D01*
Y-8225302*
X-18132776Y-8209554*
X-18101280*
X-18085786Y-8225302*
Y-8272292*
X-18148524Y-8131830D02*
Y-8163072D01*
X-18132776Y-8178820*
X-18070038*
X-18054290Y-8163072*
Y-8131830*
X-18070038Y-8116082*
X-18132776*
X-18148524Y-8131830*
X-18054290Y-8085348D02*
X-18148524D01*
Y-8038104*
X-18132776Y-8022610*
X-18101280*
X-18085786Y-8038104*
Y-8085348*
Y-8053852D02*
X-18054290Y-8022610D01*
Y-7960380D02*
X-18148524D01*
Y-7991622D02*
Y-7928884D01*
X-18117028Y-7898150D02*
X-18148524Y-7866654D01*
X-18054290*
Y-7835412D02*
Y-7898150D01*
Y-8881892D02*
X-18148524D01*
Y-8834902*
X-18132776Y-8819154*
X-18101280*
X-18085786Y-8834902*
Y-8881892*
X-18148524Y-8741430D02*
Y-8772672D01*
X-18132776Y-8788420*
X-18070038*
X-18054290Y-8772672*
Y-8741430*
X-18070038Y-8725682*
X-18132776*
X-18148524Y-8741430*
X-18054290Y-8694948D02*
X-18148524D01*
Y-8647704*
X-18132776Y-8632210*
X-18101280*
X-18085786Y-8647704*
Y-8694948*
Y-8663452D02*
X-18054290Y-8632210D01*
Y-8569980D02*
X-18148524D01*
Y-8601222D02*
Y-8538484D01*
X-18054290Y-8445012D02*
Y-8507750D01*
X-18117028Y-8445012*
X-18132776*
X-18148524Y-8460760*
Y-8492002*
X-18132776Y-8507750*
X-18148524Y-7536454D02*
Y-7599192D01*
X-18054290*
Y-7536454*
X-18101280Y-7567950D02*
Y-7599192D01*
X-18148524Y-7505720D02*
X-18054290Y-7442982D01*
Y-7505720D02*
X-18148524Y-7442982D01*
Y-7380752D02*
X-18054290D01*
X-18148524Y-7349510D02*
Y-7412248D01*
Y-7255784D02*
Y-7318522D01*
X-18054290*
Y-7255784*
X-18101280Y-7287280D02*
Y-7318522D01*
X-18054290Y-7225050D02*
X-18148524D01*
X-18054290Y-7162312*
X-18148524*
X-18132776Y-7068840D02*
X-18148524Y-7084334D01*
Y-7115830*
X-18132776Y-7131578*
X-18117028*
X-18101280Y-7115830*
Y-7084334*
X-18085786Y-7068840*
X-18070038*
X-18054290Y-7084334*
Y-7115830*
X-18070038Y-7131578*
X-18054290Y-7037852D02*
X-18070038D01*
Y-7022358*
X-18054290*
Y-7037852*
X-19472626Y-7742702D02*
X-19449004D01*
X-19306256D02*
X-19282634D01*
X-19283929Y-7744582D02*
X-19306256D01*
X-19449004D02*
X-19471331D01*
Y-7743997D02*
X-19449004D01*
X-19306256D02*
X-19283929D01*
Y-7754234D02*
X-19306256D01*
X-19449004D02*
X-19471331D01*
Y-7751821D02*
X-19449004D01*
X-19306256D02*
X-19283929D01*
Y-7749408D02*
X-19306256D01*
X-19449004D02*
X-19471331D01*
Y-7746995D02*
X-19449004D01*
X-19306256D02*
X-19283929D01*
D11*
X-18439100Y-7915422D02*
Y-7908386D01*
X-18445653Y-7877322D02*
X-18477200D01*
D10*
X-19494470Y-8900942D02*
X-19486545Y-8893017D01*
Y-8871529D02*
X-19494470Y-8863604D01*
X-19486545Y-8816868D02*
X-19541206D01*
X-19472626Y-7755072D02*
Y-7742702D01*
X-19471331Y-7755072D02*
Y-7743997D01*
X-19282634Y-7742702D02*
Y-7755072D01*
X-19283929Y-7743997D02*
Y-7755072D01*
X-16894932Y-7065030D02*
Y-6987052D01*
X-16856070Y-6947936*
X-16816954Y-6987052*
Y-7065030*
Y-7006610D02*
X-16894932D01*
X-16778092Y-7065030D02*
Y-6987052D01*
X-16719672*
X-16700114Y-7006610*
Y-7065030*
X-16660998Y-6987052D02*
Y-7045472D01*
X-16641694Y-7065030*
X-16583020*
Y-6987052D02*
Y-7084334D01*
X-16602578Y-7103892*
X-16622136*
X-16466180Y-6967494D02*
X-16485738Y-6947936D01*
X-16524600*
X-16544158Y-6967494*
Y-6987052*
X-16524600Y-7006610*
X-16485738*
X-16466180Y-7025914*
Y-7045472*
X-16485738Y-7065030*
X-16524600*
X-16544158Y-7045472*
X-16368644Y-7065030D02*
X-16407760D01*
X-16427318Y-7045472*
Y-7006610*
X-16407760Y-6987052*
X-16368644*
X-16349340Y-7006610*
Y-7025914*
X-16427318*
X-16310224Y-7065030D02*
Y-6987052D01*
X-16251804*
X-16232246Y-7006610*
Y-7065030*
X-16193384D02*
X-16134964D01*
X-16115406Y-7045472*
X-16134964Y-7025914*
X-16173826*
X-16193384Y-7006610*
X-16173826Y-6987052*
X-16115406*
X-16017870Y-7065030D02*
X-16056986D01*
X-16076290Y-7045472*
Y-7006610*
X-16056986Y-6987052*
X-16017870*
X-15998312Y-7006610*
Y-7025914*
X-16076290*
X-15842610Y-6947936D02*
Y-7025914D01*
X-15803494Y-7065030*
X-15764632Y-7025914*
Y-6947936*
X-15725516Y-6987052D02*
X-15686654Y-6947936D01*
Y-7065030*
X-15725516D02*
X-15647538D01*
X-15608676D02*
Y-7045472D01*
X-15589118*
Y-7065030*
X-15608676*
X-15550256Y-6987052D02*
X-15511140Y-6947936D01*
Y-7065030*
X-15472278D02*
X-15550256D01*
X-17068160Y-8802390D02*
X-17077558Y-8811534D01*
Y-8830330*
X-17068160Y-8839474*
X-17030822*
X-17021678Y-8830330*
Y-8811534*
X-17030822Y-8802390*
X-17058762Y-8783340D02*
X-17077558Y-8764798D01*
X-17021678*
Y-8783340D02*
Y-8746256D01*
X-16906108Y-7741178D02*
X-16915252Y-7731780D01*
X-16934048*
X-16943192Y-7741178*
Y-7778262*
X-16934048Y-7787660*
X-16915252*
X-16906108Y-7778262*
X-16849974Y-7787660D02*
X-16887058D01*
X-16849974Y-7750322*
Y-7741178*
X-16859118Y-7731780*
X-16877914*
X-16887058Y-7741178*
X-15612994Y-7718318D02*
X-15594452D01*
X-15603596D02*
Y-7662438D01*
X-15594452D02*
X-15612994D01*
X-15538318Y-7671836D02*
X-15547716Y-7662438D01*
X-15566258*
X-15575656Y-7671836*
Y-7708920*
X-15566258Y-7718318*
X-15547716*
X-15538318Y-7708920*
X-15519522Y-7671836D02*
X-15510124Y-7662438D01*
X-15491582*
X-15482184Y-7671836*
Y-7680980*
X-15491582Y-7690378*
X-15500726*
X-15491582D02*
X-15482184Y-7699776D01*
Y-7708920*
X-15491582Y-7718318*
X-15510124*
X-15519522Y-7708920*
X-16472530Y-8115828D02*
X-16491326D01*
X-16481928D02*
Y-8059948D01*
X-16491326D02*
X-16472530D01*
X-16416650Y-8069346D02*
X-16425794Y-8059948D01*
X-16444590*
X-16453734Y-8069346*
Y-8106430*
X-16444590Y-8115828*
X-16425794*
X-16416650Y-8106430*
X-16397600Y-8078490D02*
X-16379058Y-8059948D01*
Y-8115828*
X-16397600D02*
X-16360516D01*
X-15087722Y-7675646D02*
X-15096866Y-7684790D01*
Y-7703586*
X-15087722Y-7712730*
X-15050384*
X-15040986Y-7703586*
Y-7684790*
X-15050384Y-7675646*
X-15087722Y-7656850D02*
X-15096866Y-7647452D01*
Y-7628656*
X-15087722Y-7619512*
X-15078324*
X-15068926Y-7628656*
Y-7638054*
Y-7628656D02*
X-15059782Y-7619512D01*
X-15050384*
X-15040986Y-7628656*
Y-7647452*
X-15050384Y-7656850*
X-15603342Y-7462540D02*
X-15612740Y-7453142D01*
X-15631536*
X-15640680Y-7462540*
Y-7499624*
X-15631536Y-7509022*
X-15612740*
X-15603342Y-7499624*
X-15547208Y-7453142D02*
X-15566004Y-7462540D01*
X-15584546Y-7481082*
Y-7499624*
X-15575402Y-7509022*
X-15556606*
X-15547208Y-7499624*
Y-7490480*
X-15556606Y-7481082*
X-15584546*
X-15172558Y-8561852D02*
X-15181702Y-8552454D01*
X-15200498*
X-15209896Y-8561852*
Y-8599190*
X-15200498Y-8608334*
X-15181702*
X-15172558Y-8599190*
X-15116424Y-8552454D02*
X-15153762D01*
Y-8580394*
X-15134966Y-8571250*
X-15125568*
X-15116424Y-8580394*
Y-8599190*
X-15125568Y-8608334*
X-15144364*
X-15153762Y-8599190*
X-16331814Y-8863604D02*
X-16341212Y-8873002D01*
Y-8891544*
X-16331814Y-8900942*
X-16294476*
X-16341212Y-8816868D02*
X-16313018Y-8844808D01*
Y-8807470*
X-15781142Y-7462540D02*
X-15790540Y-7453142D01*
X-15809336*
X-15818480Y-7462540*
Y-7499624*
X-15809336Y-7509022*
X-15790540*
X-15781142Y-7499624*
X-15762346Y-7453142D02*
X-15725008D01*
Y-7462540*
X-15762346Y-7499624*
Y-7509022*
X-16131662Y-8863604D02*
X-16140806Y-8873002D01*
Y-8891544*
X-16131662Y-8900942*
X-16094324*
X-16084926Y-8891544*
Y-8873002*
X-16094324Y-8863604*
X-16131662Y-8844808D02*
X-16140806Y-8835410D01*
Y-8816868*
X-16131662Y-8807470*
X-16122264*
X-16112866Y-8816868*
X-16103722Y-8807470*
X-16094324*
X-16084926Y-8816868*
Y-8835410*
X-16094324Y-8844808*
X-16103722*
X-16112866Y-8835410*
X-16122264Y-8844808*
X-16131662*
X-16112866Y-8835410D02*
Y-8816868D01*
X-15638902Y-8878844D02*
X-15648046Y-8888242D01*
Y-8906784*
X-15638902Y-8916182*
X-15601564*
X-15592166Y-8906784*
Y-8888242*
X-15601564Y-8878844*
Y-8860048D02*
X-15592166Y-8850650D01*
Y-8832108*
X-15601564Y-8822710*
X-15638902*
X-15648046Y-8832108*
Y-8850650*
X-15638902Y-8860048*
X-15629504*
X-15620106Y-8850650*
Y-8822710*
X-15104740Y-7509022D02*
Y-7453142D01*
X-15076800*
X-15067402Y-7462540*
Y-7481082*
X-15076800Y-7490480*
X-15104740*
X-15086198D02*
X-15067402Y-7509022D01*
X-15048606Y-7471684D02*
X-15030064Y-7453142D01*
Y-7509022*
X-15048606D02*
X-15011268D01*
X-16557874Y-7759466D02*
X-16576416D01*
X-16567018D02*
Y-7703332D01*
X-16557874D02*
X-16576416D01*
X-16501740Y-7712730D02*
X-16511138Y-7703332D01*
X-16529680*
X-16539078Y-7712730*
Y-7750068*
X-16529680Y-7759466*
X-16511138*
X-16501740Y-7750068*
X-16445606Y-7759466D02*
X-16482944D01*
X-16445606Y-7722128*
Y-7712730*
X-16455004Y-7703332*
X-16473546*
X-16482944Y-7712730*
X-15460340Y-7509022D02*
Y-7453142D01*
X-15432400*
X-15423002Y-7462540*
Y-7481082*
X-15432400Y-7490480*
X-15460340*
X-15441798D02*
X-15423002Y-7509022D01*
X-15404206Y-7462540D02*
X-15395062Y-7453142D01*
X-15376266*
X-15366868Y-7462540*
Y-7471684*
X-15376266Y-7481082*
X-15385664*
X-15376266D02*
X-15366868Y-7490480D01*
Y-7499624*
X-15376266Y-7509022*
X-15395062*
X-15404206Y-7499624*
X-15282540Y-7509022D02*
Y-7453142D01*
X-15254600*
X-15245202Y-7462540*
Y-7481082*
X-15254600Y-7490480*
X-15282540*
X-15263998D02*
X-15245202Y-7509022D01*
X-15189068D02*
X-15226406D01*
X-15189068Y-7471684*
Y-7462540*
X-15198466Y-7453142*
X-15217262*
X-15226406Y-7462540*
X-15983580Y-7509022D02*
Y-7453142D01*
X-15955640*
X-15946242Y-7462540*
Y-7481082*
X-15955640Y-7490480*
X-15983580*
X-15965038D02*
X-15946242Y-7509022D01*
X-15899506D02*
Y-7453142D01*
X-15927446Y-7481082*
X-15890108*
X-16174080Y-7509022D02*
Y-7453142D01*
X-16146140*
X-16136742Y-7462540*
Y-7481082*
X-16146140Y-7490480*
X-16174080*
X-16155538D02*
X-16136742Y-7509022D01*
X-16080608Y-7453142D02*
X-16117946D01*
Y-7481082*
X-16099404Y-7471684*
X-16090006*
X-16080608Y-7481082*
Y-7499624*
X-16090006Y-7509022*
X-16108802*
X-16117946Y-7499624*
D11*
X-15960466Y-8560582D02*
Y-8598682D01*
X-15277206D02*
X-15239106D01*
X-15322926Y-7923042D02*
X-15284826Y-7961142D01*
X-15960466Y-7915422D02*
Y-7877322D01*
Y-8598682D02*
X-15922366D01*
X-15239106D02*
Y-8560582D01*
X-15922366Y-7877322D02*
X-15960466D01*
X-16519012Y-8027182D02*
X-16864960D01*
Y-8652022D02*
X-16519012D01*
Y-8027182*
X-16864960D02*
Y-8652022D01*
X-16887312Y-7201174D02*
X-16612992D01*
X-16887312Y-7699014D02*
X-16780632D01*
X-16719672*
X-16612992*
X-16719672D02*
X-16720180Y-7693680D01*
X-16721450Y-7688600*
X-16723736Y-7683774*
X-16726784Y-7679456*
X-16730594Y-7675646*
X-16734912Y-7672598*
X-16739738Y-7670312*
X-16744818Y-7669042*
X-16750152Y-7668534*
X-16755486Y-7669042*
X-16760566Y-7670312*
X-16765392Y-7672598*
X-16769710Y-7675646*
X-16773520Y-7679456*
X-16776568Y-7683774*
X-16778854Y-7688600*
X-16780124Y-7693680*
X-16780632Y-7699014*
D19*
X-14481424Y-8298200D02*
X-14683862D01*
Y-8260862*
X-14481424Y-7823474D02*
X-14683862D01*
Y-7860812*
X-14284066Y-7960888D02*
Y-8160786D01*
X-14481424Y-8907038D02*
X-14683862D01*
Y-8869954*
X-14481424Y-8432566D02*
X-14683862D01*
Y-8469904*
X-14284066Y-8569726D02*
Y-8769878D01*
X-14481424Y-7673868D02*
X-14683862D01*
Y-7636530*
X-14481424Y-6999244D02*
X-14683862D01*
Y-7036582*
X-14284066Y-7136658D02*
Y-7536454D01*
D10*
X-14854296Y-8272292D02*
X-14948530D01*
Y-8225302*
X-14932782Y-8209554*
X-14901286*
X-14885792Y-8225302*
Y-8272292*
X-14948530Y-8131830D02*
Y-8163072D01*
X-14932782Y-8178820*
X-14870044*
X-14854296Y-8163072*
Y-8131830*
X-14870044Y-8116082*
X-14932782*
X-14948530Y-8131830*
X-14854296Y-8085348D02*
X-14948530D01*
Y-8038104*
X-14932782Y-8022610*
X-14901286*
X-14885792Y-8038104*
Y-8085348*
Y-8053852D02*
X-14854296Y-8022610D01*
Y-7960380D02*
X-14948530D01*
Y-7991622D02*
Y-7928884D01*
X-14917034Y-7898150D02*
X-14948530Y-7866654D01*
X-14854296*
Y-7835412D02*
Y-7898150D01*
Y-8881892D02*
X-14948530D01*
Y-8834902*
X-14932782Y-8819154*
X-14901286*
X-14885792Y-8834902*
Y-8881892*
X-14948530Y-8741430D02*
Y-8772672D01*
X-14932782Y-8788420*
X-14870044*
X-14854296Y-8772672*
Y-8741430*
X-14870044Y-8725682*
X-14932782*
X-14948530Y-8741430*
X-14854296Y-8694948D02*
X-14948530D01*
Y-8647704*
X-14932782Y-8632210*
X-14901286*
X-14885792Y-8647704*
Y-8694948*
Y-8663452D02*
X-14854296Y-8632210D01*
Y-8569980D02*
X-14948530D01*
Y-8601222D02*
Y-8538484D01*
X-14854296Y-8445012D02*
Y-8507750D01*
X-14917034Y-8445012*
X-14932782*
X-14948530Y-8460760*
Y-8492002*
X-14932782Y-8507750*
X-14948530Y-7536454D02*
Y-7599192D01*
X-14854296*
Y-7536454*
X-14901286Y-7567950D02*
Y-7599192D01*
X-14948530Y-7505720D02*
X-14854296Y-7442982D01*
Y-7505720D02*
X-14948530Y-7442982D01*
Y-7380752D02*
X-14854296D01*
X-14948530Y-7349510D02*
Y-7412248D01*
Y-7255784D02*
Y-7318522D01*
X-14854296*
Y-7255784*
X-14901286Y-7287280D02*
Y-7318522D01*
X-14854296Y-7225050D02*
X-14948530D01*
X-14854296Y-7162312*
X-14948530*
X-14932782Y-7068840D02*
X-14948530Y-7084334D01*
Y-7115830*
X-14932782Y-7131578*
X-14917034*
X-14901286Y-7115830*
Y-7084334*
X-14885792Y-7068840*
X-14870044*
X-14854296Y-7084334*
Y-7115830*
X-14870044Y-7131578*
X-14854296Y-7037852D02*
X-14870044D01*
Y-7022358*
X-14854296*
Y-7037852*
X-16272632Y-7742702D02*
X-16249010D01*
X-16106262D02*
X-16082640D01*
X-16083935Y-7744582D02*
X-16106262D01*
X-16249010D02*
X-16271337D01*
Y-7743997D02*
X-16249010D01*
X-16106262D02*
X-16083935D01*
Y-7754234D02*
X-16106262D01*
X-16249010D02*
X-16271337D01*
Y-7751821D02*
X-16249010D01*
X-16106262D02*
X-16083935D01*
Y-7749408D02*
X-16106262D01*
X-16249010D02*
X-16271337D01*
Y-7746995D02*
X-16249010D01*
X-16106262D02*
X-16083935D01*
D11*
X-15239106Y-7915422D02*
Y-7908386D01*
X-15245659Y-7877322D02*
X-15277206D01*
D10*
X-16294476Y-8900942D02*
X-16286551Y-8893017D01*
Y-8871529D02*
X-16294476Y-8863604D01*
X-16286551Y-8816868D02*
X-16341212D01*
X-16272632Y-7755072D02*
Y-7742702D01*
X-16271337Y-7755072D02*
Y-7743997D01*
X-16082640Y-7742702D02*
Y-7755072D01*
X-16083935Y-7743997D02*
Y-7755072D01*
X-13694938Y-7065030D02*
Y-6987052D01*
X-13656076Y-6947936*
X-13616960Y-6987052*
Y-7065030*
Y-7006610D02*
X-13694938D01*
X-13578098Y-7065030D02*
Y-6987052D01*
X-13519678*
X-13500120Y-7006610*
Y-7065030*
X-13461004Y-6987052D02*
Y-7045472D01*
X-13441700Y-7065030*
X-13383026*
Y-6987052D02*
Y-7084334D01*
X-13402584Y-7103892*
X-13422142*
X-13266186Y-6967494D02*
X-13285744Y-6947936D01*
X-13324606*
X-13344164Y-6967494*
Y-6987052*
X-13324606Y-7006610*
X-13285744*
X-13266186Y-7025914*
Y-7045472*
X-13285744Y-7065030*
X-13324606*
X-13344164Y-7045472*
X-13168650Y-7065030D02*
X-13207766D01*
X-13227324Y-7045472*
Y-7006610*
X-13207766Y-6987052*
X-13168650*
X-13149346Y-7006610*
Y-7025914*
X-13227324*
X-13110230Y-7065030D02*
Y-6987052D01*
X-13051810*
X-13032252Y-7006610*
Y-7065030*
X-12993390D02*
X-12934970D01*
X-12915412Y-7045472*
X-12934970Y-7025914*
X-12973832*
X-12993390Y-7006610*
X-12973832Y-6987052*
X-12915412*
X-12817876Y-7065030D02*
X-12856992D01*
X-12876296Y-7045472*
Y-7006610*
X-12856992Y-6987052*
X-12817876*
X-12798318Y-7006610*
Y-7025914*
X-12876296*
X-12642616Y-6947936D02*
Y-7025914D01*
X-12603500Y-7065030*
X-12564638Y-7025914*
Y-6947936*
X-12525522Y-6987052D02*
X-12486660Y-6947936D01*
Y-7065030*
X-12525522D02*
X-12447544D01*
X-12408682D02*
Y-7045472D01*
X-12389124*
Y-7065030*
X-12408682*
X-12350262Y-6987052D02*
X-12311146Y-6947936D01*
Y-7065030*
X-12272284D02*
X-12350262D01*
X-13868166Y-8802390D02*
X-13877564Y-8811534D01*
Y-8830330*
X-13868166Y-8839474*
X-13830828*
X-13821684Y-8830330*
Y-8811534*
X-13830828Y-8802390*
X-13858768Y-8783340D02*
X-13877564Y-8764798D01*
X-13821684*
Y-8783340D02*
Y-8746256D01*
X-13706114Y-7741178D02*
X-13715258Y-7731780D01*
X-13734054*
X-13743198Y-7741178*
Y-7778262*
X-13734054Y-7787660*
X-13715258*
X-13706114Y-7778262*
X-13649980Y-7787660D02*
X-13687064D01*
X-13649980Y-7750322*
Y-7741178*
X-13659124Y-7731780*
X-13677920*
X-13687064Y-7741178*
X-12413000Y-7718318D02*
X-12394458D01*
X-12403602D02*
Y-7662438D01*
X-12394458D02*
X-12413000D01*
X-12338324Y-7671836D02*
X-12347722Y-7662438D01*
X-12366264*
X-12375662Y-7671836*
Y-7708920*
X-12366264Y-7718318*
X-12347722*
X-12338324Y-7708920*
X-12319528Y-7671836D02*
X-12310130Y-7662438D01*
X-12291588*
X-12282190Y-7671836*
Y-7680980*
X-12291588Y-7690378*
X-12300732*
X-12291588D02*
X-12282190Y-7699776D01*
Y-7708920*
X-12291588Y-7718318*
X-12310130*
X-12319528Y-7708920*
X-13272536Y-8115828D02*
X-13291332D01*
X-13281934D02*
Y-8059948D01*
X-13291332D02*
X-13272536D01*
X-13216656Y-8069346D02*
X-13225800Y-8059948D01*
X-13244596*
X-13253740Y-8069346*
Y-8106430*
X-13244596Y-8115828*
X-13225800*
X-13216656Y-8106430*
X-13197606Y-8078490D02*
X-13179064Y-8059948D01*
Y-8115828*
X-13197606D02*
X-13160522D01*
X-11887728Y-7675646D02*
X-11896872Y-7684790D01*
Y-7703586*
X-11887728Y-7712730*
X-11850390*
X-11840992Y-7703586*
Y-7684790*
X-11850390Y-7675646*
X-11887728Y-7656850D02*
X-11896872Y-7647452D01*
Y-7628656*
X-11887728Y-7619512*
X-11878330*
X-11868932Y-7628656*
Y-7638054*
Y-7628656D02*
X-11859788Y-7619512D01*
X-11850390*
X-11840992Y-7628656*
Y-7647452*
X-11850390Y-7656850*
X-12403348Y-7462540D02*
X-12412746Y-7453142D01*
X-12431542*
X-12440686Y-7462540*
Y-7499624*
X-12431542Y-7509022*
X-12412746*
X-12403348Y-7499624*
X-12347214Y-7453142D02*
X-12366010Y-7462540D01*
X-12384552Y-7481082*
Y-7499624*
X-12375408Y-7509022*
X-12356612*
X-12347214Y-7499624*
Y-7490480*
X-12356612Y-7481082*
X-12384552*
X-11972564Y-8561852D02*
X-11981708Y-8552454D01*
X-12000504*
X-12009902Y-8561852*
Y-8599190*
X-12000504Y-8608334*
X-11981708*
X-11972564Y-8599190*
X-11916430Y-8552454D02*
X-11953768D01*
Y-8580394*
X-11934972Y-8571250*
X-11925574*
X-11916430Y-8580394*
Y-8599190*
X-11925574Y-8608334*
X-11944370*
X-11953768Y-8599190*
X-13131820Y-8863604D02*
X-13141218Y-8873002D01*
Y-8891544*
X-13131820Y-8900942*
X-13094482*
X-13141218Y-8816868D02*
X-13113024Y-8844808D01*
Y-8807470*
X-12581148Y-7462540D02*
X-12590546Y-7453142D01*
X-12609342*
X-12618486Y-7462540*
Y-7499624*
X-12609342Y-7509022*
X-12590546*
X-12581148Y-7499624*
X-12562352Y-7453142D02*
X-12525014D01*
Y-7462540*
X-12562352Y-7499624*
Y-7509022*
X-12931668Y-8863604D02*
X-12940812Y-8873002D01*
Y-8891544*
X-12931668Y-8900942*
X-12894330*
X-12884932Y-8891544*
Y-8873002*
X-12894330Y-8863604*
X-12931668Y-8844808D02*
X-12940812Y-8835410D01*
Y-8816868*
X-12931668Y-8807470*
X-12922270*
X-12912872Y-8816868*
X-12903728Y-8807470*
X-12894330*
X-12884932Y-8816868*
Y-8835410*
X-12894330Y-8844808*
X-12903728*
X-12912872Y-8835410*
X-12922270Y-8844808*
X-12931668*
X-12912872Y-8835410D02*
Y-8816868D01*
X-12438908Y-8878844D02*
X-12448052Y-8888242D01*
Y-8906784*
X-12438908Y-8916182*
X-12401570*
X-12392172Y-8906784*
Y-8888242*
X-12401570Y-8878844*
Y-8860048D02*
X-12392172Y-8850650D01*
Y-8832108*
X-12401570Y-8822710*
X-12438908*
X-12448052Y-8832108*
Y-8850650*
X-12438908Y-8860048*
X-12429510*
X-12420112Y-8850650*
Y-8822710*
X-11904746Y-7509022D02*
Y-7453142D01*
X-11876806*
X-11867408Y-7462540*
Y-7481082*
X-11876806Y-7490480*
X-11904746*
X-11886204D02*
X-11867408Y-7509022D01*
X-11848612Y-7471684D02*
X-11830070Y-7453142D01*
Y-7509022*
X-11848612D02*
X-11811274D01*
X-13357880Y-7759466D02*
X-13376422D01*
X-13367024D02*
Y-7703332D01*
X-13357880D02*
X-13376422D01*
X-13301746Y-7712730D02*
X-13311144Y-7703332D01*
X-13329686*
X-13339084Y-7712730*
Y-7750068*
X-13329686Y-7759466*
X-13311144*
X-13301746Y-7750068*
X-13245612Y-7759466D02*
X-13282950D01*
X-13245612Y-7722128*
Y-7712730*
X-13255010Y-7703332*
X-13273552*
X-13282950Y-7712730*
X-12260346Y-7509022D02*
Y-7453142D01*
X-12232406*
X-12223008Y-7462540*
Y-7481082*
X-12232406Y-7490480*
X-12260346*
X-12241804D02*
X-12223008Y-7509022D01*
X-12204212Y-7462540D02*
X-12195068Y-7453142D01*
X-12176272*
X-12166874Y-7462540*
Y-7471684*
X-12176272Y-7481082*
X-12185670*
X-12176272D02*
X-12166874Y-7490480D01*
Y-7499624*
X-12176272Y-7509022*
X-12195068*
X-12204212Y-7499624*
X-12082546Y-7509022D02*
Y-7453142D01*
X-12054606*
X-12045208Y-7462540*
Y-7481082*
X-12054606Y-7490480*
X-12082546*
X-12064004D02*
X-12045208Y-7509022D01*
X-11989074D02*
X-12026412D01*
X-11989074Y-7471684*
Y-7462540*
X-11998472Y-7453142*
X-12017268*
X-12026412Y-7462540*
X-12783586Y-7509022D02*
Y-7453142D01*
X-12755646*
X-12746248Y-7462540*
Y-7481082*
X-12755646Y-7490480*
X-12783586*
X-12765044D02*
X-12746248Y-7509022D01*
X-12699512D02*
Y-7453142D01*
X-12727452Y-7481082*
X-12690114*
X-12974086Y-7509022D02*
Y-7453142D01*
X-12946146*
X-12936748Y-7462540*
Y-7481082*
X-12946146Y-7490480*
X-12974086*
X-12955544D02*
X-12936748Y-7509022D01*
X-12880614Y-7453142D02*
X-12917952D01*
Y-7481082*
X-12899410Y-7471684*
X-12890012*
X-12880614Y-7481082*
Y-7499624*
X-12890012Y-7509022*
X-12908808*
X-12917952Y-7499624*
D11*
X-12760472Y-8560582D02*
Y-8598682D01*
X-12077212D02*
X-12039112D01*
X-12122932Y-7923042D02*
X-12084832Y-7961142D01*
X-12760472Y-7915422D02*
Y-7877322D01*
Y-8598682D02*
X-12722372D01*
X-12039112D02*
Y-8560582D01*
X-12722372Y-7877322D02*
X-12760472D01*
X-13319018Y-8027182D02*
X-13664966D01*
Y-8652022D02*
X-13319018D01*
Y-8027182*
X-13664966D02*
Y-8652022D01*
X-13687318Y-7201174D02*
X-13412998D01*
X-13687318Y-7699014D02*
X-13580638D01*
X-13519678*
X-13412998*
X-13519678D02*
X-13520186Y-7693680D01*
X-13521456Y-7688600*
X-13523742Y-7683774*
X-13526790Y-7679456*
X-13530600Y-7675646*
X-13534918Y-7672598*
X-13539744Y-7670312*
X-13544824Y-7669042*
X-13550158Y-7668534*
X-13555492Y-7669042*
X-13560572Y-7670312*
X-13565398Y-7672598*
X-13569716Y-7675646*
X-13573526Y-7679456*
X-13576574Y-7683774*
X-13578860Y-7688600*
X-13580130Y-7693680*
X-13580638Y-7699014*
D19*
X-11281430Y-8298200D02*
X-11483868D01*
Y-8260862*
X-11281430Y-7823474D02*
X-11483868D01*
Y-7860812*
X-11084072Y-7960888D02*
Y-8160786D01*
X-11281430Y-8907038D02*
X-11483868D01*
Y-8869954*
X-11281430Y-8432566D02*
X-11483868D01*
Y-8469904*
X-11084072Y-8569726D02*
Y-8769878D01*
X-11281430Y-7673868D02*
X-11483868D01*
Y-7636530*
X-11281430Y-6999244D02*
X-11483868D01*
Y-7036582*
X-11084072Y-7136658D02*
Y-7536454D01*
D10*
X-11654302Y-8272292D02*
X-11748536D01*
Y-8225302*
X-11732788Y-8209554*
X-11701292*
X-11685798Y-8225302*
Y-8272292*
X-11748536Y-8131830D02*
Y-8163072D01*
X-11732788Y-8178820*
X-11670050*
X-11654302Y-8163072*
Y-8131830*
X-11670050Y-8116082*
X-11732788*
X-11748536Y-8131830*
X-11654302Y-8085348D02*
X-11748536D01*
Y-8038104*
X-11732788Y-8022610*
X-11701292*
X-11685798Y-8038104*
Y-8085348*
Y-8053852D02*
X-11654302Y-8022610D01*
Y-7960380D02*
X-11748536D01*
Y-7991622D02*
Y-7928884D01*
X-11717040Y-7898150D02*
X-11748536Y-7866654D01*
X-11654302*
Y-7835412D02*
Y-7898150D01*
Y-8881892D02*
X-11748536D01*
Y-8834902*
X-11732788Y-8819154*
X-11701292*
X-11685798Y-8834902*
Y-8881892*
X-11748536Y-8741430D02*
Y-8772672D01*
X-11732788Y-8788420*
X-11670050*
X-11654302Y-8772672*
Y-8741430*
X-11670050Y-8725682*
X-11732788*
X-11748536Y-8741430*
X-11654302Y-8694948D02*
X-11748536D01*
Y-8647704*
X-11732788Y-8632210*
X-11701292*
X-11685798Y-8647704*
Y-8694948*
Y-8663452D02*
X-11654302Y-8632210D01*
Y-8569980D02*
X-11748536D01*
Y-8601222D02*
Y-8538484D01*
X-11654302Y-8445012D02*
Y-8507750D01*
X-11717040Y-8445012*
X-11732788*
X-11748536Y-8460760*
Y-8492002*
X-11732788Y-8507750*
X-11748536Y-7536454D02*
Y-7599192D01*
X-11654302*
Y-7536454*
X-11701292Y-7567950D02*
Y-7599192D01*
X-11748536Y-7505720D02*
X-11654302Y-7442982D01*
Y-7505720D02*
X-11748536Y-7442982D01*
Y-7380752D02*
X-11654302D01*
X-11748536Y-7349510D02*
Y-7412248D01*
Y-7255784D02*
Y-7318522D01*
X-11654302*
Y-7255784*
X-11701292Y-7287280D02*
Y-7318522D01*
X-11654302Y-7225050D02*
X-11748536D01*
X-11654302Y-7162312*
X-11748536*
X-11732788Y-7068840D02*
X-11748536Y-7084334D01*
Y-7115830*
X-11732788Y-7131578*
X-11717040*
X-11701292Y-7115830*
Y-7084334*
X-11685798Y-7068840*
X-11670050*
X-11654302Y-7084334*
Y-7115830*
X-11670050Y-7131578*
X-11654302Y-7037852D02*
X-11670050D01*
Y-7022358*
X-11654302*
Y-7037852*
X-13072638Y-7742702D02*
X-13049016D01*
X-12906268D02*
X-12882646D01*
X-12883941Y-7744582D02*
X-12906268D01*
X-13049016D02*
X-13071343D01*
Y-7743997D02*
X-13049016D01*
X-12906268D02*
X-12883941D01*
Y-7754234D02*
X-12906268D01*
X-13049016D02*
X-13071343D01*
Y-7751821D02*
X-13049016D01*
X-12906268D02*
X-12883941D01*
Y-7749408D02*
X-12906268D01*
X-13049016D02*
X-13071343D01*
Y-7746995D02*
X-13049016D01*
X-12906268D02*
X-12883941D01*
D11*
X-12039112Y-7915422D02*
Y-7908386D01*
X-12045665Y-7877322D02*
X-12077212D01*
D10*
X-13094482Y-8900942D02*
X-13086557Y-8893017D01*
Y-8871529D02*
X-13094482Y-8863604D01*
X-13086557Y-8816868D02*
X-13141218D01*
X-13072638Y-7755072D02*
Y-7742702D01*
X-13071343Y-7755072D02*
Y-7743997D01*
X-12882646Y-7742702D02*
Y-7755072D01*
X-12883941Y-7743997D02*
Y-7755072D01*
X-13694938Y-4764958D02*
Y-4686980D01*
X-13656076Y-4647864*
X-13616960Y-4686980*
Y-4764958*
Y-4706538D02*
X-13694938D01*
X-13578098Y-4764958D02*
Y-4686980D01*
X-13519678*
X-13500120Y-4706538*
Y-4764958*
X-13461004Y-4686980D02*
Y-4745400D01*
X-13441700Y-4764958*
X-13383026*
Y-4686980D02*
Y-4784262D01*
X-13402584Y-4803820*
X-13422142*
X-13266186Y-4667422D02*
X-13285744Y-4647864D01*
X-13324606*
X-13344164Y-4667422*
Y-4686980*
X-13324606Y-4706538*
X-13285744*
X-13266186Y-4725842*
Y-4745400*
X-13285744Y-4764958*
X-13324606*
X-13344164Y-4745400*
X-13168650Y-4764958D02*
X-13207766D01*
X-13227324Y-4745400*
Y-4706538*
X-13207766Y-4686980*
X-13168650*
X-13149346Y-4706538*
Y-4725842*
X-13227324*
X-13110230Y-4764958D02*
Y-4686980D01*
X-13051810*
X-13032252Y-4706538*
Y-4764958*
X-12993390D02*
X-12934970D01*
X-12915412Y-4745400*
X-12934970Y-4725842*
X-12973832*
X-12993390Y-4706538*
X-12973832Y-4686980*
X-12915412*
X-12817876Y-4764958D02*
X-12856992D01*
X-12876296Y-4745400*
Y-4706538*
X-12856992Y-4686980*
X-12817876*
X-12798318Y-4706538*
Y-4725842*
X-12876296*
X-12642616Y-4647864D02*
Y-4725842D01*
X-12603500Y-4764958*
X-12564638Y-4725842*
Y-4647864*
X-12525522Y-4686980D02*
X-12486660Y-4647864D01*
Y-4764958*
X-12525522D02*
X-12447544D01*
X-12408682D02*
Y-4745400D01*
X-12389124*
Y-4764958*
X-12408682*
X-12350262Y-4686980D02*
X-12311146Y-4647864D01*
Y-4764958*
X-12272284D02*
X-12350262D01*
X-13868166Y-6502318D02*
X-13877564Y-6511462D01*
Y-6530258*
X-13868166Y-6539402*
X-13830828*
X-13821684Y-6530258*
Y-6511462*
X-13830828Y-6502318*
X-13858768Y-6483268D02*
X-13877564Y-6464726D01*
X-13821684*
Y-6483268D02*
Y-6446184D01*
X-13706114Y-5441106D02*
X-13715258Y-5431708D01*
X-13734054*
X-13743198Y-5441106*
Y-5478190*
X-13734054Y-5487588*
X-13715258*
X-13706114Y-5478190*
X-13649980Y-5487588D02*
X-13687064D01*
X-13649980Y-5450250*
Y-5441106*
X-13659124Y-5431708*
X-13677920*
X-13687064Y-5441106*
X-12413000Y-5418246D02*
X-12394458D01*
X-12403602D02*
Y-5362366D01*
X-12394458D02*
X-12413000D01*
X-12338324Y-5371764D02*
X-12347722Y-5362366D01*
X-12366264*
X-12375662Y-5371764*
Y-5408848*
X-12366264Y-5418246*
X-12347722*
X-12338324Y-5408848*
X-12319528Y-5371764D02*
X-12310130Y-5362366D01*
X-12291588*
X-12282190Y-5371764*
Y-5380908*
X-12291588Y-5390306*
X-12300732*
X-12291588D02*
X-12282190Y-5399704D01*
Y-5408848*
X-12291588Y-5418246*
X-12310130*
X-12319528Y-5408848*
X-13272536Y-5815756D02*
X-13291332D01*
X-13281934D02*
Y-5759876D01*
X-13291332D02*
X-13272536D01*
X-13216656Y-5769274D02*
X-13225800Y-5759876D01*
X-13244596*
X-13253740Y-5769274*
Y-5806358*
X-13244596Y-5815756*
X-13225800*
X-13216656Y-5806358*
X-13197606Y-5778418D02*
X-13179064Y-5759876D01*
Y-5815756*
X-13197606D02*
X-13160522D01*
X-11887728Y-5375574D02*
X-11896872Y-5384718D01*
Y-5403514*
X-11887728Y-5412658*
X-11850390*
X-11840992Y-5403514*
Y-5384718*
X-11850390Y-5375574*
X-11887728Y-5356778D02*
X-11896872Y-5347380D01*
Y-5328584*
X-11887728Y-5319440*
X-11878330*
X-11868932Y-5328584*
Y-5337982*
Y-5328584D02*
X-11859788Y-5319440D01*
X-11850390*
X-11840992Y-5328584*
Y-5347380*
X-11850390Y-5356778*
X-12403348Y-5162468D02*
X-12412746Y-5153070D01*
X-12431542*
X-12440686Y-5162468*
Y-5199552*
X-12431542Y-5208950*
X-12412746*
X-12403348Y-5199552*
X-12347214Y-5153070D02*
X-12366010Y-5162468D01*
X-12384552Y-5181010*
Y-5199552*
X-12375408Y-5208950*
X-12356612*
X-12347214Y-5199552*
Y-5190408*
X-12356612Y-5181010*
X-12384552*
X-11972564Y-6261780D02*
X-11981708Y-6252382D01*
X-12000504*
X-12009902Y-6261780*
Y-6299118*
X-12000504Y-6308262*
X-11981708*
X-11972564Y-6299118*
X-11916430Y-6252382D02*
X-11953768D01*
Y-6280322*
X-11934972Y-6271178*
X-11925574*
X-11916430Y-6280322*
Y-6299118*
X-11925574Y-6308262*
X-11944370*
X-11953768Y-6299118*
X-13131820Y-6563532D02*
X-13141218Y-6572930D01*
Y-6591472*
X-13131820Y-6600870*
X-13094482*
X-13141218Y-6516796D02*
X-13113024Y-6544736D01*
Y-6507398*
X-12581148Y-5162468D02*
X-12590546Y-5153070D01*
X-12609342*
X-12618486Y-5162468*
Y-5199552*
X-12609342Y-5208950*
X-12590546*
X-12581148Y-5199552*
X-12562352Y-5153070D02*
X-12525014D01*
Y-5162468*
X-12562352Y-5199552*
Y-5208950*
X-12931668Y-6563532D02*
X-12940812Y-6572930D01*
Y-6591472*
X-12931668Y-6600870*
X-12894330*
X-12884932Y-6591472*
Y-6572930*
X-12894330Y-6563532*
X-12931668Y-6544736D02*
X-12940812Y-6535338D01*
Y-6516796*
X-12931668Y-6507398*
X-12922270*
X-12912872Y-6516796*
X-12903728Y-6507398*
X-12894330*
X-12884932Y-6516796*
Y-6535338*
X-12894330Y-6544736*
X-12903728*
X-12912872Y-6535338*
X-12922270Y-6544736*
X-12931668*
X-12912872Y-6535338D02*
Y-6516796D01*
X-12438908Y-6578772D02*
X-12448052Y-6588170D01*
Y-6606712*
X-12438908Y-6616110*
X-12401570*
X-12392172Y-6606712*
Y-6588170*
X-12401570Y-6578772*
Y-6559976D02*
X-12392172Y-6550578D01*
Y-6532036*
X-12401570Y-6522638*
X-12438908*
X-12448052Y-6532036*
Y-6550578*
X-12438908Y-6559976*
X-12429510*
X-12420112Y-6550578*
Y-6522638*
X-11904746Y-5208950D02*
Y-5153070D01*
X-11876806*
X-11867408Y-5162468*
Y-5181010*
X-11876806Y-5190408*
X-11904746*
X-11886204D02*
X-11867408Y-5208950D01*
X-11848612Y-5171612D02*
X-11830070Y-5153070D01*
Y-5208950*
X-11848612D02*
X-11811274D01*
X-13357880Y-5459394D02*
X-13376422D01*
X-13367024D02*
Y-5403260D01*
X-13357880D02*
X-13376422D01*
X-13301746Y-5412658D02*
X-13311144Y-5403260D01*
X-13329686*
X-13339084Y-5412658*
Y-5449996*
X-13329686Y-5459394*
X-13311144*
X-13301746Y-5449996*
X-13245612Y-5459394D02*
X-13282950D01*
X-13245612Y-5422056*
Y-5412658*
X-13255010Y-5403260*
X-13273552*
X-13282950Y-5412658*
X-12260346Y-5208950D02*
Y-5153070D01*
X-12232406*
X-12223008Y-5162468*
Y-5181010*
X-12232406Y-5190408*
X-12260346*
X-12241804D02*
X-12223008Y-5208950D01*
X-12204212Y-5162468D02*
X-12195068Y-5153070D01*
X-12176272*
X-12166874Y-5162468*
Y-5171612*
X-12176272Y-5181010*
X-12185670*
X-12176272D02*
X-12166874Y-5190408D01*
Y-5199552*
X-12176272Y-5208950*
X-12195068*
X-12204212Y-5199552*
X-12082546Y-5208950D02*
Y-5153070D01*
X-12054606*
X-12045208Y-5162468*
Y-5181010*
X-12054606Y-5190408*
X-12082546*
X-12064004D02*
X-12045208Y-5208950D01*
X-11989074D02*
X-12026412D01*
X-11989074Y-5171612*
Y-5162468*
X-11998472Y-5153070*
X-12017268*
X-12026412Y-5162468*
X-12783586Y-5208950D02*
Y-5153070D01*
X-12755646*
X-12746248Y-5162468*
Y-5181010*
X-12755646Y-5190408*
X-12783586*
X-12765044D02*
X-12746248Y-5208950D01*
X-12699512D02*
Y-5153070D01*
X-12727452Y-5181010*
X-12690114*
X-12974086Y-5208950D02*
Y-5153070D01*
X-12946146*
X-12936748Y-5162468*
Y-5181010*
X-12946146Y-5190408*
X-12974086*
X-12955544D02*
X-12936748Y-5208950D01*
X-12880614Y-5153070D02*
X-12917952D01*
Y-5181010*
X-12899410Y-5171612*
X-12890012*
X-12880614Y-5181010*
Y-5199552*
X-12890012Y-5208950*
X-12908808*
X-12917952Y-5199552*
D11*
X-12760472Y-6260510D02*
Y-6298610D01*
X-12077212D02*
X-12039112D01*
X-12122932Y-5622970D02*
X-12084832Y-5661070D01*
X-12760472Y-5615350D02*
Y-5577250D01*
Y-6298610D02*
X-12722372D01*
X-12039112D02*
Y-6260510D01*
X-12722372Y-5577250D02*
X-12760472D01*
X-13319018Y-5727110D02*
X-13664966D01*
Y-6351950D02*
X-13319018D01*
Y-5727110*
X-13664966D02*
Y-6351950D01*
X-13687318Y-4901102D02*
X-13412998D01*
X-13687318Y-5398942D02*
X-13580638D01*
X-13519678*
X-13412998*
X-13519678D02*
X-13520186Y-5393608D01*
X-13521456Y-5388528*
X-13523742Y-5383702*
X-13526790Y-5379384*
X-13530600Y-5375574*
X-13534918Y-5372526*
X-13539744Y-5370240*
X-13544824Y-5368970*
X-13550158Y-5368462*
X-13555492Y-5368970*
X-13560572Y-5370240*
X-13565398Y-5372526*
X-13569716Y-5375574*
X-13573526Y-5379384*
X-13576574Y-5383702*
X-13578860Y-5388528*
X-13580130Y-5393608*
X-13580638Y-5398942*
D19*
X-11281430Y-5998128D02*
X-11483868D01*
Y-5960790*
X-11281430Y-5523402D02*
X-11483868D01*
Y-5560740*
X-11084072Y-5660816D02*
Y-5860714D01*
X-11281430Y-6606966D02*
X-11483868D01*
Y-6569882*
X-11281430Y-6132494D02*
X-11483868D01*
Y-6169832*
X-11084072Y-6269654D02*
Y-6469806D01*
X-11281430Y-5373796D02*
X-11483868D01*
Y-5336458*
X-11281430Y-4699172D02*
X-11483868D01*
Y-4736510*
X-11084072Y-4836586D02*
Y-5236382D01*
D10*
X-11654302Y-5972220D02*
X-11748536D01*
Y-5925230*
X-11732788Y-5909482*
X-11701292*
X-11685798Y-5925230*
Y-5972220*
X-11748536Y-5831758D02*
Y-5863000D01*
X-11732788Y-5878748*
X-11670050*
X-11654302Y-5863000*
Y-5831758*
X-11670050Y-5816010*
X-11732788*
X-11748536Y-5831758*
X-11654302Y-5785276D02*
X-11748536D01*
Y-5738032*
X-11732788Y-5722538*
X-11701292*
X-11685798Y-5738032*
Y-5785276*
Y-5753780D02*
X-11654302Y-5722538D01*
Y-5660308D02*
X-11748536D01*
Y-5691550D02*
Y-5628812D01*
X-11717040Y-5598078D02*
X-11748536Y-5566582D01*
X-11654302*
Y-5535340D02*
Y-5598078D01*
Y-6581820D02*
X-11748536D01*
Y-6534830*
X-11732788Y-6519082*
X-11701292*
X-11685798Y-6534830*
Y-6581820*
X-11748536Y-6441358D02*
Y-6472600D01*
X-11732788Y-6488348*
X-11670050*
X-11654302Y-6472600*
Y-6441358*
X-11670050Y-6425610*
X-11732788*
X-11748536Y-6441358*
X-11654302Y-6394876D02*
X-11748536D01*
Y-6347632*
X-11732788Y-6332138*
X-11701292*
X-11685798Y-6347632*
Y-6394876*
Y-6363380D02*
X-11654302Y-6332138D01*
Y-6269908D02*
X-11748536D01*
Y-6301150D02*
Y-6238412D01*
X-11654302Y-6144940D02*
Y-6207678D01*
X-11717040Y-6144940*
X-11732788*
X-11748536Y-6160688*
Y-6191930*
X-11732788Y-6207678*
X-11748536Y-5236382D02*
Y-5299120D01*
X-11654302*
Y-5236382*
X-11701292Y-5267878D02*
Y-5299120D01*
X-11748536Y-5205648D02*
X-11654302Y-5142910D01*
Y-5205648D02*
X-11748536Y-5142910D01*
Y-5080680D02*
X-11654302D01*
X-11748536Y-5049438D02*
Y-5112176D01*
Y-4955712D02*
Y-5018450D01*
X-11654302*
Y-4955712*
X-11701292Y-4987208D02*
Y-5018450D01*
X-11654302Y-4924978D02*
X-11748536D01*
X-11654302Y-4862240*
X-11748536*
X-11732788Y-4768768D02*
X-11748536Y-4784262D01*
Y-4815758*
X-11732788Y-4831506*
X-11717040*
X-11701292Y-4815758*
Y-4784262*
X-11685798Y-4768768*
X-11670050*
X-11654302Y-4784262*
Y-4815758*
X-11670050Y-4831506*
X-11654302Y-4737780D02*
X-11670050D01*
Y-4722286*
X-11654302*
Y-4737780*
X-13072638Y-5442630D02*
X-13049016D01*
X-12906268D02*
X-12882646D01*
X-12883941Y-5444510D02*
X-12906268D01*
X-13049016D02*
X-13071343D01*
Y-5443925D02*
X-13049016D01*
X-12906268D02*
X-12883941D01*
Y-5454162D02*
X-12906268D01*
X-13049016D02*
X-13071343D01*
Y-5451749D02*
X-13049016D01*
X-12906268D02*
X-12883941D01*
Y-5449336D02*
X-12906268D01*
X-13049016D02*
X-13071343D01*
Y-5446923D02*
X-13049016D01*
X-12906268D02*
X-12883941D01*
D11*
X-12039112Y-5615350D02*
Y-5608314D01*
X-12045665Y-5577250D02*
X-12077212D01*
D10*
X-13094482Y-6600870D02*
X-13086557Y-6592945D01*
Y-6571457D02*
X-13094482Y-6563532D01*
X-13086557Y-6516796D02*
X-13141218D01*
X-13072638Y-5455000D02*
Y-5442630D01*
X-13071343Y-5455000D02*
Y-5443925D01*
X-12882646Y-5442630D02*
Y-5455000D01*
X-12883941Y-5443925D02*
Y-5455000D01*
X-16894932Y-4764958D02*
Y-4686980D01*
X-16856070Y-4647864*
X-16816954Y-4686980*
Y-4764958*
Y-4706538D02*
X-16894932D01*
X-16778092Y-4764958D02*
Y-4686980D01*
X-16719672*
X-16700114Y-4706538*
Y-4764958*
X-16660998Y-4686980D02*
Y-4745400D01*
X-16641694Y-4764958*
X-16583020*
Y-4686980D02*
Y-4784262D01*
X-16602578Y-4803820*
X-16622136*
X-16466180Y-4667422D02*
X-16485738Y-4647864D01*
X-16524600*
X-16544158Y-4667422*
Y-4686980*
X-16524600Y-4706538*
X-16485738*
X-16466180Y-4725842*
Y-4745400*
X-16485738Y-4764958*
X-16524600*
X-16544158Y-4745400*
X-16368644Y-4764958D02*
X-16407760D01*
X-16427318Y-4745400*
Y-4706538*
X-16407760Y-4686980*
X-16368644*
X-16349340Y-4706538*
Y-4725842*
X-16427318*
X-16310224Y-4764958D02*
Y-4686980D01*
X-16251804*
X-16232246Y-4706538*
Y-4764958*
X-16193384D02*
X-16134964D01*
X-16115406Y-4745400*
X-16134964Y-4725842*
X-16173826*
X-16193384Y-4706538*
X-16173826Y-4686980*
X-16115406*
X-16017870Y-4764958D02*
X-16056986D01*
X-16076290Y-4745400*
Y-4706538*
X-16056986Y-4686980*
X-16017870*
X-15998312Y-4706538*
Y-4725842*
X-16076290*
X-15842610Y-4647864D02*
Y-4725842D01*
X-15803494Y-4764958*
X-15764632Y-4725842*
Y-4647864*
X-15725516Y-4686980D02*
X-15686654Y-4647864D01*
Y-4764958*
X-15725516D02*
X-15647538D01*
X-15608676D02*
Y-4745400D01*
X-15589118*
Y-4764958*
X-15608676*
X-15550256Y-4686980D02*
X-15511140Y-4647864D01*
Y-4764958*
X-15472278D02*
X-15550256D01*
X-17068160Y-6502318D02*
X-17077558Y-6511462D01*
Y-6530258*
X-17068160Y-6539402*
X-17030822*
X-17021678Y-6530258*
Y-6511462*
X-17030822Y-6502318*
X-17058762Y-6483268D02*
X-17077558Y-6464726D01*
X-17021678*
Y-6483268D02*
Y-6446184D01*
X-16906108Y-5441106D02*
X-16915252Y-5431708D01*
X-16934048*
X-16943192Y-5441106*
Y-5478190*
X-16934048Y-5487588*
X-16915252*
X-16906108Y-5478190*
X-16849974Y-5487588D02*
X-16887058D01*
X-16849974Y-5450250*
Y-5441106*
X-16859118Y-5431708*
X-16877914*
X-16887058Y-5441106*
X-15612994Y-5418246D02*
X-15594452D01*
X-15603596D02*
Y-5362366D01*
X-15594452D02*
X-15612994D01*
X-15538318Y-5371764D02*
X-15547716Y-5362366D01*
X-15566258*
X-15575656Y-5371764*
Y-5408848*
X-15566258Y-5418246*
X-15547716*
X-15538318Y-5408848*
X-15519522Y-5371764D02*
X-15510124Y-5362366D01*
X-15491582*
X-15482184Y-5371764*
Y-5380908*
X-15491582Y-5390306*
X-15500726*
X-15491582D02*
X-15482184Y-5399704D01*
Y-5408848*
X-15491582Y-5418246*
X-15510124*
X-15519522Y-5408848*
X-16472530Y-5815756D02*
X-16491326D01*
X-16481928D02*
Y-5759876D01*
X-16491326D02*
X-16472530D01*
X-16416650Y-5769274D02*
X-16425794Y-5759876D01*
X-16444590*
X-16453734Y-5769274*
Y-5806358*
X-16444590Y-5815756*
X-16425794*
X-16416650Y-5806358*
X-16397600Y-5778418D02*
X-16379058Y-5759876D01*
Y-5815756*
X-16397600D02*
X-16360516D01*
X-15087722Y-5375574D02*
X-15096866Y-5384718D01*
Y-5403514*
X-15087722Y-5412658*
X-15050384*
X-15040986Y-5403514*
Y-5384718*
X-15050384Y-5375574*
X-15087722Y-5356778D02*
X-15096866Y-5347380D01*
Y-5328584*
X-15087722Y-5319440*
X-15078324*
X-15068926Y-5328584*
Y-5337982*
Y-5328584D02*
X-15059782Y-5319440D01*
X-15050384*
X-15040986Y-5328584*
Y-5347380*
X-15050384Y-5356778*
X-15603342Y-5162468D02*
X-15612740Y-5153070D01*
X-15631536*
X-15640680Y-5162468*
Y-5199552*
X-15631536Y-5208950*
X-15612740*
X-15603342Y-5199552*
X-15547208Y-5153070D02*
X-15566004Y-5162468D01*
X-15584546Y-5181010*
Y-5199552*
X-15575402Y-5208950*
X-15556606*
X-15547208Y-5199552*
Y-5190408*
X-15556606Y-5181010*
X-15584546*
X-15172558Y-6261780D02*
X-15181702Y-6252382D01*
X-15200498*
X-15209896Y-6261780*
Y-6299118*
X-15200498Y-6308262*
X-15181702*
X-15172558Y-6299118*
X-15116424Y-6252382D02*
X-15153762D01*
Y-6280322*
X-15134966Y-6271178*
X-15125568*
X-15116424Y-6280322*
Y-6299118*
X-15125568Y-6308262*
X-15144364*
X-15153762Y-6299118*
X-16331814Y-6563532D02*
X-16341212Y-6572930D01*
Y-6591472*
X-16331814Y-6600870*
X-16294476*
X-16341212Y-6516796D02*
X-16313018Y-6544736D01*
Y-6507398*
X-15781142Y-5162468D02*
X-15790540Y-5153070D01*
X-15809336*
X-15818480Y-5162468*
Y-5199552*
X-15809336Y-5208950*
X-15790540*
X-15781142Y-5199552*
X-15762346Y-5153070D02*
X-15725008D01*
Y-5162468*
X-15762346Y-5199552*
Y-5208950*
X-16131662Y-6563532D02*
X-16140806Y-6572930D01*
Y-6591472*
X-16131662Y-6600870*
X-16094324*
X-16084926Y-6591472*
Y-6572930*
X-16094324Y-6563532*
X-16131662Y-6544736D02*
X-16140806Y-6535338D01*
Y-6516796*
X-16131662Y-6507398*
X-16122264*
X-16112866Y-6516796*
X-16103722Y-6507398*
X-16094324*
X-16084926Y-6516796*
Y-6535338*
X-16094324Y-6544736*
X-16103722*
X-16112866Y-6535338*
X-16122264Y-6544736*
X-16131662*
X-16112866Y-6535338D02*
Y-6516796D01*
X-15638902Y-6578772D02*
X-15648046Y-6588170D01*
Y-6606712*
X-15638902Y-6616110*
X-15601564*
X-15592166Y-6606712*
Y-6588170*
X-15601564Y-6578772*
Y-6559976D02*
X-15592166Y-6550578D01*
Y-6532036*
X-15601564Y-6522638*
X-15638902*
X-15648046Y-6532036*
Y-6550578*
X-15638902Y-6559976*
X-15629504*
X-15620106Y-6550578*
Y-6522638*
X-15104740Y-5208950D02*
Y-5153070D01*
X-15076800*
X-15067402Y-5162468*
Y-5181010*
X-15076800Y-5190408*
X-15104740*
X-15086198D02*
X-15067402Y-5208950D01*
X-15048606Y-5171612D02*
X-15030064Y-5153070D01*
Y-5208950*
X-15048606D02*
X-15011268D01*
X-16557874Y-5459394D02*
X-16576416D01*
X-16567018D02*
Y-5403260D01*
X-16557874D02*
X-16576416D01*
X-16501740Y-5412658D02*
X-16511138Y-5403260D01*
X-16529680*
X-16539078Y-5412658*
Y-5449996*
X-16529680Y-5459394*
X-16511138*
X-16501740Y-5449996*
X-16445606Y-5459394D02*
X-16482944D01*
X-16445606Y-5422056*
Y-5412658*
X-16455004Y-5403260*
X-16473546*
X-16482944Y-5412658*
X-15460340Y-5208950D02*
Y-5153070D01*
X-15432400*
X-15423002Y-5162468*
Y-5181010*
X-15432400Y-5190408*
X-15460340*
X-15441798D02*
X-15423002Y-5208950D01*
X-15404206Y-5162468D02*
X-15395062Y-5153070D01*
X-15376266*
X-15366868Y-5162468*
Y-5171612*
X-15376266Y-5181010*
X-15385664*
X-15376266D02*
X-15366868Y-5190408D01*
Y-5199552*
X-15376266Y-5208950*
X-15395062*
X-15404206Y-5199552*
X-15282540Y-5208950D02*
Y-5153070D01*
X-15254600*
X-15245202Y-5162468*
Y-5181010*
X-15254600Y-5190408*
X-15282540*
X-15263998D02*
X-15245202Y-5208950D01*
X-15189068D02*
X-15226406D01*
X-15189068Y-5171612*
Y-5162468*
X-15198466Y-5153070*
X-15217262*
X-15226406Y-5162468*
X-15983580Y-5208950D02*
Y-5153070D01*
X-15955640*
X-15946242Y-5162468*
Y-5181010*
X-15955640Y-5190408*
X-15983580*
X-15965038D02*
X-15946242Y-5208950D01*
X-15899506D02*
Y-5153070D01*
X-15927446Y-5181010*
X-15890108*
X-16174080Y-5208950D02*
Y-5153070D01*
X-16146140*
X-16136742Y-5162468*
Y-5181010*
X-16146140Y-5190408*
X-16174080*
X-16155538D02*
X-16136742Y-5208950D01*
X-16080608Y-5153070D02*
X-16117946D01*
Y-5181010*
X-16099404Y-5171612*
X-16090006*
X-16080608Y-5181010*
Y-5199552*
X-16090006Y-5208950*
X-16108802*
X-16117946Y-5199552*
D11*
X-15960466Y-6260510D02*
Y-6298610D01*
X-15277206D02*
X-15239106D01*
X-15322926Y-5622970D02*
X-15284826Y-5661070D01*
X-15960466Y-5615350D02*
Y-5577250D01*
Y-6298610D02*
X-15922366D01*
X-15239106D02*
Y-6260510D01*
X-15922366Y-5577250D02*
X-15960466D01*
X-16519012Y-5727110D02*
X-16864960D01*
Y-6351950D02*
X-16519012D01*
Y-5727110*
X-16864960D02*
Y-6351950D01*
X-16887312Y-4901102D02*
X-16612992D01*
X-16887312Y-5398942D02*
X-16780632D01*
X-16719672*
X-16612992*
X-16719672D02*
X-16720180Y-5393608D01*
X-16721450Y-5388528*
X-16723736Y-5383702*
X-16726784Y-5379384*
X-16730594Y-5375574*
X-16734912Y-5372526*
X-16739738Y-5370240*
X-16744818Y-5368970*
X-16750152Y-5368462*
X-16755486Y-5368970*
X-16760566Y-5370240*
X-16765392Y-5372526*
X-16769710Y-5375574*
X-16773520Y-5379384*
X-16776568Y-5383702*
X-16778854Y-5388528*
X-16780124Y-5393608*
X-16780632Y-5398942*
D19*
X-14481424Y-5998128D02*
X-14683862D01*
Y-5960790*
X-14481424Y-5523402D02*
X-14683862D01*
Y-5560740*
X-14284066Y-5660816D02*
Y-5860714D01*
X-14481424Y-6606966D02*
X-14683862D01*
Y-6569882*
X-14481424Y-6132494D02*
X-14683862D01*
Y-6169832*
X-14284066Y-6269654D02*
Y-6469806D01*
X-14481424Y-5373796D02*
X-14683862D01*
Y-5336458*
X-14481424Y-4699172D02*
X-14683862D01*
Y-4736510*
X-14284066Y-4836586D02*
Y-5236382D01*
D10*
X-14854296Y-5972220D02*
X-14948530D01*
Y-5925230*
X-14932782Y-5909482*
X-14901286*
X-14885792Y-5925230*
Y-5972220*
X-14948530Y-5831758D02*
Y-5863000D01*
X-14932782Y-5878748*
X-14870044*
X-14854296Y-5863000*
Y-5831758*
X-14870044Y-5816010*
X-14932782*
X-14948530Y-5831758*
X-14854296Y-5785276D02*
X-14948530D01*
Y-5738032*
X-14932782Y-5722538*
X-14901286*
X-14885792Y-5738032*
Y-5785276*
Y-5753780D02*
X-14854296Y-5722538D01*
Y-5660308D02*
X-14948530D01*
Y-5691550D02*
Y-5628812D01*
X-14917034Y-5598078D02*
X-14948530Y-5566582D01*
X-14854296*
Y-5535340D02*
Y-5598078D01*
Y-6581820D02*
X-14948530D01*
Y-6534830*
X-14932782Y-6519082*
X-14901286*
X-14885792Y-6534830*
Y-6581820*
X-14948530Y-6441358D02*
Y-6472600D01*
X-14932782Y-6488348*
X-14870044*
X-14854296Y-6472600*
Y-6441358*
X-14870044Y-6425610*
X-14932782*
X-14948530Y-6441358*
X-14854296Y-6394876D02*
X-14948530D01*
Y-6347632*
X-14932782Y-6332138*
X-14901286*
X-14885792Y-6347632*
Y-6394876*
Y-6363380D02*
X-14854296Y-6332138D01*
Y-6269908D02*
X-14948530D01*
Y-6301150D02*
Y-6238412D01*
X-14854296Y-6144940D02*
Y-6207678D01*
X-14917034Y-6144940*
X-14932782*
X-14948530Y-6160688*
Y-6191930*
X-14932782Y-6207678*
X-14948530Y-5236382D02*
Y-5299120D01*
X-14854296*
Y-5236382*
X-14901286Y-5267878D02*
Y-5299120D01*
X-14948530Y-5205648D02*
X-14854296Y-5142910D01*
Y-5205648D02*
X-14948530Y-5142910D01*
Y-5080680D02*
X-14854296D01*
X-14948530Y-5049438D02*
Y-5112176D01*
Y-4955712D02*
Y-5018450D01*
X-14854296*
Y-4955712*
X-14901286Y-4987208D02*
Y-5018450D01*
X-14854296Y-4924978D02*
X-14948530D01*
X-14854296Y-4862240*
X-14948530*
X-14932782Y-4768768D02*
X-14948530Y-4784262D01*
Y-4815758*
X-14932782Y-4831506*
X-14917034*
X-14901286Y-4815758*
Y-4784262*
X-14885792Y-4768768*
X-14870044*
X-14854296Y-4784262*
Y-4815758*
X-14870044Y-4831506*
X-14854296Y-4737780D02*
X-14870044D01*
Y-4722286*
X-14854296*
Y-4737780*
X-16272632Y-5442630D02*
X-16249010D01*
X-16106262D02*
X-16082640D01*
X-16083935Y-5444510D02*
X-16106262D01*
X-16249010D02*
X-16271337D01*
Y-5443925D02*
X-16249010D01*
X-16106262D02*
X-16083935D01*
Y-5454162D02*
X-16106262D01*
X-16249010D02*
X-16271337D01*
Y-5451749D02*
X-16249010D01*
X-16106262D02*
X-16083935D01*
Y-5449336D02*
X-16106262D01*
X-16249010D02*
X-16271337D01*
Y-5446923D02*
X-16249010D01*
X-16106262D02*
X-16083935D01*
D11*
X-15239106Y-5615350D02*
Y-5608314D01*
X-15245659Y-5577250D02*
X-15277206D01*
D10*
X-16294476Y-6600870D02*
X-16286551Y-6592945D01*
Y-6571457D02*
X-16294476Y-6563532D01*
X-16286551Y-6516796D02*
X-16341212D01*
X-16272632Y-5455000D02*
Y-5442630D01*
X-16271337Y-5455000D02*
Y-5443925D01*
X-16082640Y-5442630D02*
Y-5455000D01*
X-16083935Y-5443925D02*
Y-5455000D01*
X-20094926Y-4764958D02*
Y-4686980D01*
X-20056064Y-4647864*
X-20016948Y-4686980*
Y-4764958*
Y-4706538D02*
X-20094926D01*
X-19978086Y-4764958D02*
Y-4686980D01*
X-19919666*
X-19900108Y-4706538*
Y-4764958*
X-19860992Y-4686980D02*
Y-4745400D01*
X-19841688Y-4764958*
X-19783014*
Y-4686980D02*
Y-4784262D01*
X-19802572Y-4803820*
X-19822130*
X-19666174Y-4667422D02*
X-19685732Y-4647864D01*
X-19724594*
X-19744152Y-4667422*
Y-4686980*
X-19724594Y-4706538*
X-19685732*
X-19666174Y-4725842*
Y-4745400*
X-19685732Y-4764958*
X-19724594*
X-19744152Y-4745400*
X-19568638Y-4764958D02*
X-19607754D01*
X-19627312Y-4745400*
Y-4706538*
X-19607754Y-4686980*
X-19568638*
X-19549334Y-4706538*
Y-4725842*
X-19627312*
X-19510218Y-4764958D02*
Y-4686980D01*
X-19451798*
X-19432240Y-4706538*
Y-4764958*
X-19393378D02*
X-19334958D01*
X-19315400Y-4745400*
X-19334958Y-4725842*
X-19373820*
X-19393378Y-4706538*
X-19373820Y-4686980*
X-19315400*
X-19217864Y-4764958D02*
X-19256980D01*
X-19276284Y-4745400*
Y-4706538*
X-19256980Y-4686980*
X-19217864*
X-19198306Y-4706538*
Y-4725842*
X-19276284*
X-19042604Y-4647864D02*
Y-4725842D01*
X-19003488Y-4764958*
X-18964626Y-4725842*
Y-4647864*
X-18925510Y-4686980D02*
X-18886648Y-4647864D01*
Y-4764958*
X-18925510D02*
X-18847532D01*
X-18808670D02*
Y-4745400D01*
X-18789112*
Y-4764958*
X-18808670*
X-18750250Y-4686980D02*
X-18711134Y-4647864D01*
Y-4764958*
X-18672272D02*
X-18750250D01*
X-20268154Y-6502318D02*
X-20277552Y-6511462D01*
Y-6530258*
X-20268154Y-6539402*
X-20230816*
X-20221672Y-6530258*
Y-6511462*
X-20230816Y-6502318*
X-20258756Y-6483268D02*
X-20277552Y-6464726D01*
X-20221672*
Y-6483268D02*
Y-6446184D01*
X-20106102Y-5441106D02*
X-20115246Y-5431708D01*
X-20134042*
X-20143186Y-5441106*
Y-5478190*
X-20134042Y-5487588*
X-20115246*
X-20106102Y-5478190*
X-20049968Y-5487588D02*
X-20087052D01*
X-20049968Y-5450250*
Y-5441106*
X-20059112Y-5431708*
X-20077908*
X-20087052Y-5441106*
X-18812988Y-5418246D02*
X-18794446D01*
X-18803590D02*
Y-5362366D01*
X-18794446D02*
X-18812988D01*
X-18738312Y-5371764D02*
X-18747710Y-5362366D01*
X-18766252*
X-18775650Y-5371764*
Y-5408848*
X-18766252Y-5418246*
X-18747710*
X-18738312Y-5408848*
X-18719516Y-5371764D02*
X-18710118Y-5362366D01*
X-18691576*
X-18682178Y-5371764*
Y-5380908*
X-18691576Y-5390306*
X-18700720*
X-18691576D02*
X-18682178Y-5399704D01*
Y-5408848*
X-18691576Y-5418246*
X-18710118*
X-18719516Y-5408848*
X-19672524Y-5815756D02*
X-19691320D01*
X-19681922D02*
Y-5759876D01*
X-19691320D02*
X-19672524D01*
X-19616644Y-5769274D02*
X-19625788Y-5759876D01*
X-19644584*
X-19653728Y-5769274*
Y-5806358*
X-19644584Y-5815756*
X-19625788*
X-19616644Y-5806358*
X-19597594Y-5778418D02*
X-19579052Y-5759876D01*
Y-5815756*
X-19597594D02*
X-19560510D01*
X-18287716Y-5375574D02*
X-18296860Y-5384718D01*
Y-5403514*
X-18287716Y-5412658*
X-18250378*
X-18240980Y-5403514*
Y-5384718*
X-18250378Y-5375574*
X-18287716Y-5356778D02*
X-18296860Y-5347380D01*
Y-5328584*
X-18287716Y-5319440*
X-18278318*
X-18268920Y-5328584*
Y-5337982*
Y-5328584D02*
X-18259776Y-5319440D01*
X-18250378*
X-18240980Y-5328584*
Y-5347380*
X-18250378Y-5356778*
X-18803336Y-5162468D02*
X-18812734Y-5153070D01*
X-18831530*
X-18840674Y-5162468*
Y-5199552*
X-18831530Y-5208950*
X-18812734*
X-18803336Y-5199552*
X-18747202Y-5153070D02*
X-18765998Y-5162468D01*
X-18784540Y-5181010*
Y-5199552*
X-18775396Y-5208950*
X-18756600*
X-18747202Y-5199552*
Y-5190408*
X-18756600Y-5181010*
X-18784540*
X-18372552Y-6261780D02*
X-18381696Y-6252382D01*
X-18400492*
X-18409890Y-6261780*
Y-6299118*
X-18400492Y-6308262*
X-18381696*
X-18372552Y-6299118*
X-18316418Y-6252382D02*
X-18353756D01*
Y-6280322*
X-18334960Y-6271178*
X-18325562*
X-18316418Y-6280322*
Y-6299118*
X-18325562Y-6308262*
X-18344358*
X-18353756Y-6299118*
X-19531808Y-6563532D02*
X-19541206Y-6572930D01*
Y-6591472*
X-19531808Y-6600870*
X-19494470*
X-19541206Y-6516796D02*
X-19513012Y-6544736D01*
Y-6507398*
X-18981136Y-5162468D02*
X-18990534Y-5153070D01*
X-19009330*
X-19018474Y-5162468*
Y-5199552*
X-19009330Y-5208950*
X-18990534*
X-18981136Y-5199552*
X-18962340Y-5153070D02*
X-18925002D01*
Y-5162468*
X-18962340Y-5199552*
Y-5208950*
X-19331656Y-6563532D02*
X-19340800Y-6572930D01*
Y-6591472*
X-19331656Y-6600870*
X-19294318*
X-19284920Y-6591472*
Y-6572930*
X-19294318Y-6563532*
X-19331656Y-6544736D02*
X-19340800Y-6535338D01*
Y-6516796*
X-19331656Y-6507398*
X-19322258*
X-19312860Y-6516796*
X-19303716Y-6507398*
X-19294318*
X-19284920Y-6516796*
Y-6535338*
X-19294318Y-6544736*
X-19303716*
X-19312860Y-6535338*
X-19322258Y-6544736*
X-19331656*
X-19312860Y-6535338D02*
Y-6516796D01*
X-18838896Y-6578772D02*
X-18848040Y-6588170D01*
Y-6606712*
X-18838896Y-6616110*
X-18801558*
X-18792160Y-6606712*
Y-6588170*
X-18801558Y-6578772*
Y-6559976D02*
X-18792160Y-6550578D01*
Y-6532036*
X-18801558Y-6522638*
X-18838896*
X-18848040Y-6532036*
Y-6550578*
X-18838896Y-6559976*
X-18829498*
X-18820100Y-6550578*
Y-6522638*
X-18304734Y-5208950D02*
Y-5153070D01*
X-18276794*
X-18267396Y-5162468*
Y-5181010*
X-18276794Y-5190408*
X-18304734*
X-18286192D02*
X-18267396Y-5208950D01*
X-18248600Y-5171612D02*
X-18230058Y-5153070D01*
Y-5208950*
X-18248600D02*
X-18211262D01*
X-19757868Y-5459394D02*
X-19776410D01*
X-19767012D02*
Y-5403260D01*
X-19757868D02*
X-19776410D01*
X-19701734Y-5412658D02*
X-19711132Y-5403260D01*
X-19729674*
X-19739072Y-5412658*
Y-5449996*
X-19729674Y-5459394*
X-19711132*
X-19701734Y-5449996*
X-19645600Y-5459394D02*
X-19682938D01*
X-19645600Y-5422056*
Y-5412658*
X-19654998Y-5403260*
X-19673540*
X-19682938Y-5412658*
X-18660334Y-5208950D02*
Y-5153070D01*
X-18632394*
X-18622996Y-5162468*
Y-5181010*
X-18632394Y-5190408*
X-18660334*
X-18641792D02*
X-18622996Y-5208950D01*
X-18604200Y-5162468D02*
X-18595056Y-5153070D01*
X-18576260*
X-18566862Y-5162468*
Y-5171612*
X-18576260Y-5181010*
X-18585658*
X-18576260D02*
X-18566862Y-5190408D01*
Y-5199552*
X-18576260Y-5208950*
X-18595056*
X-18604200Y-5199552*
X-18482534Y-5208950D02*
Y-5153070D01*
X-18454594*
X-18445196Y-5162468*
Y-5181010*
X-18454594Y-5190408*
X-18482534*
X-18463992D02*
X-18445196Y-5208950D01*
X-18389062D02*
X-18426400D01*
X-18389062Y-5171612*
Y-5162468*
X-18398460Y-5153070*
X-18417256*
X-18426400Y-5162468*
X-19183574Y-5208950D02*
Y-5153070D01*
X-19155634*
X-19146236Y-5162468*
Y-5181010*
X-19155634Y-5190408*
X-19183574*
X-19165032D02*
X-19146236Y-5208950D01*
X-19099500D02*
Y-5153070D01*
X-19127440Y-5181010*
X-19090102*
X-19374074Y-5208950D02*
Y-5153070D01*
X-19346134*
X-19336736Y-5162468*
Y-5181010*
X-19346134Y-5190408*
X-19374074*
X-19355532D02*
X-19336736Y-5208950D01*
X-19280602Y-5153070D02*
X-19317940D01*
Y-5181010*
X-19299398Y-5171612*
X-19290000*
X-19280602Y-5181010*
Y-5199552*
X-19290000Y-5208950*
X-19308796*
X-19317940Y-5199552*
D11*
X-19160460Y-6260510D02*
Y-6298610D01*
X-18477200D02*
X-18439100D01*
X-18522920Y-5622970D02*
X-18484820Y-5661070D01*
X-19160460Y-5615350D02*
Y-5577250D01*
Y-6298610D02*
X-19122360D01*
X-18439100D02*
Y-6260510D01*
X-19122360Y-5577250D02*
X-19160460D01*
X-19719006Y-5727110D02*
X-20064954D01*
Y-6351950D02*
X-19719006D01*
Y-5727110*
X-20064954D02*
Y-6351950D01*
X-20087306Y-4901102D02*
X-19812986D01*
X-20087306Y-5398942D02*
X-19980626D01*
X-19919666*
X-19812986*
X-19919666D02*
X-19920174Y-5393608D01*
X-19921444Y-5388528*
X-19923730Y-5383702*
X-19926778Y-5379384*
X-19930588Y-5375574*
X-19934906Y-5372526*
X-19939732Y-5370240*
X-19944812Y-5368970*
X-19950146Y-5368462*
X-19955480Y-5368970*
X-19960560Y-5370240*
X-19965386Y-5372526*
X-19969704Y-5375574*
X-19973514Y-5379384*
X-19976562Y-5383702*
X-19978848Y-5388528*
X-19980118Y-5393608*
X-19980626Y-5398942*
D19*
X-17681418Y-5998128D02*
X-17883856D01*
Y-5960790*
X-17681418Y-5523402D02*
X-17883856D01*
Y-5560740*
X-17484060Y-5660816D02*
Y-5860714D01*
X-17681418Y-6606966D02*
X-17883856D01*
Y-6569882*
X-17681418Y-6132494D02*
X-17883856D01*
Y-6169832*
X-17484060Y-6269654D02*
Y-6469806D01*
X-17681418Y-5373796D02*
X-17883856D01*
Y-5336458*
X-17681418Y-4699172D02*
X-17883856D01*
Y-4736510*
X-17484060Y-4836586D02*
Y-5236382D01*
D10*
X-18054290Y-5972220D02*
X-18148524D01*
Y-5925230*
X-18132776Y-5909482*
X-18101280*
X-18085786Y-5925230*
Y-5972220*
X-18148524Y-5831758D02*
Y-5863000D01*
X-18132776Y-5878748*
X-18070038*
X-18054290Y-5863000*
Y-5831758*
X-18070038Y-5816010*
X-18132776*
X-18148524Y-5831758*
X-18054290Y-5785276D02*
X-18148524D01*
Y-5738032*
X-18132776Y-5722538*
X-18101280*
X-18085786Y-5738032*
Y-5785276*
Y-5753780D02*
X-18054290Y-5722538D01*
Y-5660308D02*
X-18148524D01*
Y-5691550D02*
Y-5628812D01*
X-18117028Y-5598078D02*
X-18148524Y-5566582D01*
X-18054290*
Y-5535340D02*
Y-5598078D01*
Y-6581820D02*
X-18148524D01*
Y-6534830*
X-18132776Y-6519082*
X-18101280*
X-18085786Y-6534830*
Y-6581820*
X-18148524Y-6441358D02*
Y-6472600D01*
X-18132776Y-6488348*
X-18070038*
X-18054290Y-6472600*
Y-6441358*
X-18070038Y-6425610*
X-18132776*
X-18148524Y-6441358*
X-18054290Y-6394876D02*
X-18148524D01*
Y-6347632*
X-18132776Y-6332138*
X-18101280*
X-18085786Y-6347632*
Y-6394876*
Y-6363380D02*
X-18054290Y-6332138D01*
Y-6269908D02*
X-18148524D01*
Y-6301150D02*
Y-6238412D01*
X-18054290Y-6144940D02*
Y-6207678D01*
X-18117028Y-6144940*
X-18132776*
X-18148524Y-6160688*
Y-6191930*
X-18132776Y-6207678*
X-18148524Y-5236382D02*
Y-5299120D01*
X-18054290*
Y-5236382*
X-18101280Y-5267878D02*
Y-5299120D01*
X-18148524Y-5205648D02*
X-18054290Y-5142910D01*
Y-5205648D02*
X-18148524Y-5142910D01*
Y-5080680D02*
X-18054290D01*
X-18148524Y-5049438D02*
Y-5112176D01*
Y-4955712D02*
Y-5018450D01*
X-18054290*
Y-4955712*
X-18101280Y-4987208D02*
Y-5018450D01*
X-18054290Y-4924978D02*
X-18148524D01*
X-18054290Y-4862240*
X-18148524*
X-18132776Y-4768768D02*
X-18148524Y-4784262D01*
Y-4815758*
X-18132776Y-4831506*
X-18117028*
X-18101280Y-4815758*
Y-4784262*
X-18085786Y-4768768*
X-18070038*
X-18054290Y-4784262*
Y-4815758*
X-18070038Y-4831506*
X-18054290Y-4737780D02*
X-18070038D01*
Y-4722286*
X-18054290*
Y-4737780*
X-19472626Y-5442630D02*
X-19449004D01*
X-19306256D02*
X-19282634D01*
X-19283929Y-5444510D02*
X-19306256D01*
X-19449004D02*
X-19471331D01*
Y-5443925D02*
X-19449004D01*
X-19306256D02*
X-19283929D01*
Y-5454162D02*
X-19306256D01*
X-19449004D02*
X-19471331D01*
Y-5451749D02*
X-19449004D01*
X-19306256D02*
X-19283929D01*
Y-5449336D02*
X-19306256D01*
X-19449004D02*
X-19471331D01*
Y-5446923D02*
X-19449004D01*
X-19306256D02*
X-19283929D01*
D11*
X-18439100Y-5615350D02*
Y-5608314D01*
X-18445653Y-5577250D02*
X-18477200D01*
D10*
X-19494470Y-6600870D02*
X-19486545Y-6592945D01*
Y-6571457D02*
X-19494470Y-6563532D01*
X-19486545Y-6516796D02*
X-19541206D01*
X-19472626Y-5455000D02*
Y-5442630D01*
X-19471331Y-5455000D02*
Y-5443925D01*
X-19282634Y-5442630D02*
Y-5455000D01*
X-19283929Y-5443925D02*
Y-5455000D01*
X-20094926Y-2464886D02*
Y-2386908D01*
X-20056064Y-2347792*
X-20016948Y-2386908*
Y-2464886*
Y-2406466D02*
X-20094926D01*
X-19978086Y-2464886D02*
Y-2386908D01*
X-19919666*
X-19900108Y-2406466*
Y-2464886*
X-19860992Y-2386908D02*
Y-2445328D01*
X-19841688Y-2464886*
X-19783014*
Y-2386908D02*
Y-2484190D01*
X-19802572Y-2503748*
X-19822130*
X-19666174Y-2367350D02*
X-19685732Y-2347792D01*
X-19724594*
X-19744152Y-2367350*
Y-2386908*
X-19724594Y-2406466*
X-19685732*
X-19666174Y-2425770*
Y-2445328*
X-19685732Y-2464886*
X-19724594*
X-19744152Y-2445328*
X-19568638Y-2464886D02*
X-19607754D01*
X-19627312Y-2445328*
Y-2406466*
X-19607754Y-2386908*
X-19568638*
X-19549334Y-2406466*
Y-2425770*
X-19627312*
X-19510218Y-2464886D02*
Y-2386908D01*
X-19451798*
X-19432240Y-2406466*
Y-2464886*
X-19393378D02*
X-19334958D01*
X-19315400Y-2445328*
X-19334958Y-2425770*
X-19373820*
X-19393378Y-2406466*
X-19373820Y-2386908*
X-19315400*
X-19217864Y-2464886D02*
X-19256980D01*
X-19276284Y-2445328*
Y-2406466*
X-19256980Y-2386908*
X-19217864*
X-19198306Y-2406466*
Y-2425770*
X-19276284*
X-19042604Y-2347792D02*
Y-2425770D01*
X-19003488Y-2464886*
X-18964626Y-2425770*
Y-2347792*
X-18925510Y-2386908D02*
X-18886648Y-2347792D01*
Y-2464886*
X-18925510D02*
X-18847532D01*
X-18808670D02*
Y-2445328D01*
X-18789112*
Y-2464886*
X-18808670*
X-18750250Y-2386908D02*
X-18711134Y-2347792D01*
Y-2464886*
X-18672272D02*
X-18750250D01*
X-20268154Y-4202246D02*
X-20277552Y-4211390D01*
Y-4230186*
X-20268154Y-4239330*
X-20230816*
X-20221672Y-4230186*
Y-4211390*
X-20230816Y-4202246*
X-20258756Y-4183196D02*
X-20277552Y-4164654D01*
X-20221672*
Y-4183196D02*
Y-4146112D01*
X-20106102Y-3141034D02*
X-20115246Y-3131636D01*
X-20134042*
X-20143186Y-3141034*
Y-3178118*
X-20134042Y-3187516*
X-20115246*
X-20106102Y-3178118*
X-20049968Y-3187516D02*
X-20087052D01*
X-20049968Y-3150178*
Y-3141034*
X-20059112Y-3131636*
X-20077908*
X-20087052Y-3141034*
X-18812988Y-3118174D02*
X-18794446D01*
X-18803590D02*
Y-3062294D01*
X-18794446D02*
X-18812988D01*
X-18738312Y-3071692D02*
X-18747710Y-3062294D01*
X-18766252*
X-18775650Y-3071692*
Y-3108776*
X-18766252Y-3118174*
X-18747710*
X-18738312Y-3108776*
X-18719516Y-3071692D02*
X-18710118Y-3062294D01*
X-18691576*
X-18682178Y-3071692*
Y-3080836*
X-18691576Y-3090234*
X-18700720*
X-18691576D02*
X-18682178Y-3099632D01*
Y-3108776*
X-18691576Y-3118174*
X-18710118*
X-18719516Y-3108776*
X-19672524Y-3515684D02*
X-19691320D01*
X-19681922D02*
Y-3459804D01*
X-19691320D02*
X-19672524D01*
X-19616644Y-3469202D02*
X-19625788Y-3459804D01*
X-19644584*
X-19653728Y-3469202*
Y-3506286*
X-19644584Y-3515684*
X-19625788*
X-19616644Y-3506286*
X-19597594Y-3478346D02*
X-19579052Y-3459804D01*
Y-3515684*
X-19597594D02*
X-19560510D01*
X-18287716Y-3075502D02*
X-18296860Y-3084646D01*
Y-3103442*
X-18287716Y-3112586*
X-18250378*
X-18240980Y-3103442*
Y-3084646*
X-18250378Y-3075502*
X-18287716Y-3056706D02*
X-18296860Y-3047308D01*
Y-3028512*
X-18287716Y-3019368*
X-18278318*
X-18268920Y-3028512*
Y-3037910*
Y-3028512D02*
X-18259776Y-3019368D01*
X-18250378*
X-18240980Y-3028512*
Y-3047308*
X-18250378Y-3056706*
X-18803336Y-2862396D02*
X-18812734Y-2852998D01*
X-18831530*
X-18840674Y-2862396*
Y-2899480*
X-18831530Y-2908878*
X-18812734*
X-18803336Y-2899480*
X-18747202Y-2852998D02*
X-18765998Y-2862396D01*
X-18784540Y-2880938*
Y-2899480*
X-18775396Y-2908878*
X-18756600*
X-18747202Y-2899480*
Y-2890336*
X-18756600Y-2880938*
X-18784540*
X-18372552Y-3961708D02*
X-18381696Y-3952310D01*
X-18400492*
X-18409890Y-3961708*
Y-3999046*
X-18400492Y-4008190*
X-18381696*
X-18372552Y-3999046*
X-18316418Y-3952310D02*
X-18353756D01*
Y-3980250*
X-18334960Y-3971106*
X-18325562*
X-18316418Y-3980250*
Y-3999046*
X-18325562Y-4008190*
X-18344358*
X-18353756Y-3999046*
X-19531808Y-4263460D02*
X-19541206Y-4272858D01*
Y-4291400*
X-19531808Y-4300798*
X-19494470*
X-19541206Y-4216724D02*
X-19513012Y-4244664D01*
Y-4207326*
X-18981136Y-2862396D02*
X-18990534Y-2852998D01*
X-19009330*
X-19018474Y-2862396*
Y-2899480*
X-19009330Y-2908878*
X-18990534*
X-18981136Y-2899480*
X-18962340Y-2852998D02*
X-18925002D01*
Y-2862396*
X-18962340Y-2899480*
Y-2908878*
X-19331656Y-4263460D02*
X-19340800Y-4272858D01*
Y-4291400*
X-19331656Y-4300798*
X-19294318*
X-19284920Y-4291400*
Y-4272858*
X-19294318Y-4263460*
X-19331656Y-4244664D02*
X-19340800Y-4235266D01*
Y-4216724*
X-19331656Y-4207326*
X-19322258*
X-19312860Y-4216724*
X-19303716Y-4207326*
X-19294318*
X-19284920Y-4216724*
Y-4235266*
X-19294318Y-4244664*
X-19303716*
X-19312860Y-4235266*
X-19322258Y-4244664*
X-19331656*
X-19312860Y-4235266D02*
Y-4216724D01*
X-18838896Y-4278700D02*
X-18848040Y-4288098D01*
Y-4306640*
X-18838896Y-4316038*
X-18801558*
X-18792160Y-4306640*
Y-4288098*
X-18801558Y-4278700*
Y-4259904D02*
X-18792160Y-4250506D01*
Y-4231964*
X-18801558Y-4222566*
X-18838896*
X-18848040Y-4231964*
Y-4250506*
X-18838896Y-4259904*
X-18829498*
X-18820100Y-4250506*
Y-4222566*
X-18304734Y-2908878D02*
Y-2852998D01*
X-18276794*
X-18267396Y-2862396*
Y-2880938*
X-18276794Y-2890336*
X-18304734*
X-18286192D02*
X-18267396Y-2908878D01*
X-18248600Y-2871540D02*
X-18230058Y-2852998D01*
Y-2908878*
X-18248600D02*
X-18211262D01*
X-19757868Y-3159322D02*
X-19776410D01*
X-19767012D02*
Y-3103188D01*
X-19757868D02*
X-19776410D01*
X-19701734Y-3112586D02*
X-19711132Y-3103188D01*
X-19729674*
X-19739072Y-3112586*
Y-3149924*
X-19729674Y-3159322*
X-19711132*
X-19701734Y-3149924*
X-19645600Y-3159322D02*
X-19682938D01*
X-19645600Y-3121984*
Y-3112586*
X-19654998Y-3103188*
X-19673540*
X-19682938Y-3112586*
X-18660334Y-2908878D02*
Y-2852998D01*
X-18632394*
X-18622996Y-2862396*
Y-2880938*
X-18632394Y-2890336*
X-18660334*
X-18641792D02*
X-18622996Y-2908878D01*
X-18604200Y-2862396D02*
X-18595056Y-2852998D01*
X-18576260*
X-18566862Y-2862396*
Y-2871540*
X-18576260Y-2880938*
X-18585658*
X-18576260D02*
X-18566862Y-2890336D01*
Y-2899480*
X-18576260Y-2908878*
X-18595056*
X-18604200Y-2899480*
X-18482534Y-2908878D02*
Y-2852998D01*
X-18454594*
X-18445196Y-2862396*
Y-2880938*
X-18454594Y-2890336*
X-18482534*
X-18463992D02*
X-18445196Y-2908878D01*
X-18389062D02*
X-18426400D01*
X-18389062Y-2871540*
Y-2862396*
X-18398460Y-2852998*
X-18417256*
X-18426400Y-2862396*
X-19183574Y-2908878D02*
Y-2852998D01*
X-19155634*
X-19146236Y-2862396*
Y-2880938*
X-19155634Y-2890336*
X-19183574*
X-19165032D02*
X-19146236Y-2908878D01*
X-19099500D02*
Y-2852998D01*
X-19127440Y-2880938*
X-19090102*
X-19374074Y-2908878D02*
Y-2852998D01*
X-19346134*
X-19336736Y-2862396*
Y-2880938*
X-19346134Y-2890336*
X-19374074*
X-19355532D02*
X-19336736Y-2908878D01*
X-19280602Y-2852998D02*
X-19317940D01*
Y-2880938*
X-19299398Y-2871540*
X-19290000*
X-19280602Y-2880938*
Y-2899480*
X-19290000Y-2908878*
X-19308796*
X-19317940Y-2899480*
D11*
X-19160460Y-3960438D02*
Y-3998538D01*
X-18477200D02*
X-18439100D01*
X-18522920Y-3322898D02*
X-18484820Y-3360998D01*
X-19160460Y-3315278D02*
Y-3277178D01*
Y-3998538D02*
X-19122360D01*
X-18439100D02*
Y-3960438D01*
X-19122360Y-3277178D02*
X-19160460D01*
X-19719006Y-3427038D02*
X-20064954D01*
Y-4051878D02*
X-19719006D01*
Y-3427038*
X-20064954D02*
Y-4051878D01*
X-20087306Y-2601030D02*
X-19812986D01*
X-20087306Y-3098870D02*
X-19980626D01*
X-19919666*
X-19812986*
X-19919666D02*
X-19920174Y-3093536D01*
X-19921444Y-3088456*
X-19923730Y-3083630*
X-19926778Y-3079312*
X-19930588Y-3075502*
X-19934906Y-3072454*
X-19939732Y-3070168*
X-19944812Y-3068898*
X-19950146Y-3068390*
X-19955480Y-3068898*
X-19960560Y-3070168*
X-19965386Y-3072454*
X-19969704Y-3075502*
X-19973514Y-3079312*
X-19976562Y-3083630*
X-19978848Y-3088456*
X-19980118Y-3093536*
X-19980626Y-3098870*
D19*
X-17681418Y-3698056D02*
X-17883856D01*
Y-3660718*
X-17681418Y-3223330D02*
X-17883856D01*
Y-3260668*
X-17484060Y-3360744D02*
Y-3560642D01*
X-17681418Y-4306894D02*
X-17883856D01*
Y-4269810*
X-17681418Y-3832422D02*
X-17883856D01*
Y-3869760*
X-17484060Y-3969582D02*
Y-4169734D01*
X-17681418Y-3073724D02*
X-17883856D01*
Y-3036386*
X-17681418Y-2399100D02*
X-17883856D01*
Y-2436438*
X-17484060Y-2536514D02*
Y-2936310D01*
D10*
X-18054290Y-3672148D02*
X-18148524D01*
Y-3625158*
X-18132776Y-3609410*
X-18101280*
X-18085786Y-3625158*
Y-3672148*
X-18148524Y-3531686D02*
Y-3562928D01*
X-18132776Y-3578676*
X-18070038*
X-18054290Y-3562928*
Y-3531686*
X-18070038Y-3515938*
X-18132776*
X-18148524Y-3531686*
X-18054290Y-3485204D02*
X-18148524D01*
Y-3437960*
X-18132776Y-3422466*
X-18101280*
X-18085786Y-3437960*
Y-3485204*
Y-3453708D02*
X-18054290Y-3422466D01*
Y-3360236D02*
X-18148524D01*
Y-3391478D02*
Y-3328740D01*
X-18117028Y-3298006D02*
X-18148524Y-3266510D01*
X-18054290*
Y-3235268D02*
Y-3298006D01*
Y-4281748D02*
X-18148524D01*
Y-4234758*
X-18132776Y-4219010*
X-18101280*
X-18085786Y-4234758*
Y-4281748*
X-18148524Y-4141286D02*
Y-4172528D01*
X-18132776Y-4188276*
X-18070038*
X-18054290Y-4172528*
Y-4141286*
X-18070038Y-4125538*
X-18132776*
X-18148524Y-4141286*
X-18054290Y-4094804D02*
X-18148524D01*
Y-4047560*
X-18132776Y-4032066*
X-18101280*
X-18085786Y-4047560*
Y-4094804*
Y-4063308D02*
X-18054290Y-4032066D01*
Y-3969836D02*
X-18148524D01*
Y-4001078D02*
Y-3938340D01*
X-18054290Y-3844868D02*
Y-3907606D01*
X-18117028Y-3844868*
X-18132776*
X-18148524Y-3860616*
Y-3891858*
X-18132776Y-3907606*
X-18148524Y-2936310D02*
Y-2999048D01*
X-18054290*
Y-2936310*
X-18101280Y-2967806D02*
Y-2999048D01*
X-18148524Y-2905576D02*
X-18054290Y-2842838D01*
Y-2905576D02*
X-18148524Y-2842838D01*
Y-2780608D02*
X-18054290D01*
X-18148524Y-2749366D02*
Y-2812104D01*
Y-2655640D02*
Y-2718378D01*
X-18054290*
Y-2655640*
X-18101280Y-2687136D02*
Y-2718378D01*
X-18054290Y-2624906D02*
X-18148524D01*
X-18054290Y-2562168*
X-18148524*
X-18132776Y-2468696D02*
X-18148524Y-2484190D01*
Y-2515686*
X-18132776Y-2531434*
X-18117028*
X-18101280Y-2515686*
Y-2484190*
X-18085786Y-2468696*
X-18070038*
X-18054290Y-2484190*
Y-2515686*
X-18070038Y-2531434*
X-18054290Y-2437708D02*
X-18070038D01*
Y-2422214*
X-18054290*
Y-2437708*
X-19472626Y-3142558D02*
X-19449004D01*
X-19306256D02*
X-19282634D01*
X-19283929Y-3144438D02*
X-19306256D01*
X-19449004D02*
X-19471331D01*
Y-3143853D02*
X-19449004D01*
X-19306256D02*
X-19283929D01*
Y-3154090D02*
X-19306256D01*
X-19449004D02*
X-19471331D01*
Y-3151677D02*
X-19449004D01*
X-19306256D02*
X-19283929D01*
Y-3149264D02*
X-19306256D01*
X-19449004D02*
X-19471331D01*
Y-3146851D02*
X-19449004D01*
X-19306256D02*
X-19283929D01*
D11*
X-18439100Y-3315278D02*
Y-3308242D01*
X-18445653Y-3277178D02*
X-18477200D01*
D10*
X-19494470Y-4300798D02*
X-19486545Y-4292873D01*
Y-4271385D02*
X-19494470Y-4263460D01*
X-19486545Y-4216724D02*
X-19541206D01*
X-19472626Y-3154928D02*
Y-3142558D01*
X-19471331Y-3154928D02*
Y-3143853D01*
X-19282634Y-3142558D02*
Y-3154928D01*
X-19283929Y-3143853D02*
Y-3154928D01*
X-16894932Y-2464886D02*
Y-2386908D01*
X-16856070Y-2347792*
X-16816954Y-2386908*
Y-2464886*
Y-2406466D02*
X-16894932D01*
X-16778092Y-2464886D02*
Y-2386908D01*
X-16719672*
X-16700114Y-2406466*
Y-2464886*
X-16660998Y-2386908D02*
Y-2445328D01*
X-16641694Y-2464886*
X-16583020*
Y-2386908D02*
Y-2484190D01*
X-16602578Y-2503748*
X-16622136*
X-16466180Y-2367350D02*
X-16485738Y-2347792D01*
X-16524600*
X-16544158Y-2367350*
Y-2386908*
X-16524600Y-2406466*
X-16485738*
X-16466180Y-2425770*
Y-2445328*
X-16485738Y-2464886*
X-16524600*
X-16544158Y-2445328*
X-16368644Y-2464886D02*
X-16407760D01*
X-16427318Y-2445328*
Y-2406466*
X-16407760Y-2386908*
X-16368644*
X-16349340Y-2406466*
Y-2425770*
X-16427318*
X-16310224Y-2464886D02*
Y-2386908D01*
X-16251804*
X-16232246Y-2406466*
Y-2464886*
X-16193384D02*
X-16134964D01*
X-16115406Y-2445328*
X-16134964Y-2425770*
X-16173826*
X-16193384Y-2406466*
X-16173826Y-2386908*
X-16115406*
X-16017870Y-2464886D02*
X-16056986D01*
X-16076290Y-2445328*
Y-2406466*
X-16056986Y-2386908*
X-16017870*
X-15998312Y-2406466*
Y-2425770*
X-16076290*
X-15842610Y-2347792D02*
Y-2425770D01*
X-15803494Y-2464886*
X-15764632Y-2425770*
Y-2347792*
X-15725516Y-2386908D02*
X-15686654Y-2347792D01*
Y-2464886*
X-15725516D02*
X-15647538D01*
X-15608676D02*
Y-2445328D01*
X-15589118*
Y-2464886*
X-15608676*
X-15550256Y-2386908D02*
X-15511140Y-2347792D01*
Y-2464886*
X-15472278D02*
X-15550256D01*
X-17068160Y-4202246D02*
X-17077558Y-4211390D01*
Y-4230186*
X-17068160Y-4239330*
X-17030822*
X-17021678Y-4230186*
Y-4211390*
X-17030822Y-4202246*
X-17058762Y-4183196D02*
X-17077558Y-4164654D01*
X-17021678*
Y-4183196D02*
Y-4146112D01*
X-16906108Y-3141034D02*
X-16915252Y-3131636D01*
X-16934048*
X-16943192Y-3141034*
Y-3178118*
X-16934048Y-3187516*
X-16915252*
X-16906108Y-3178118*
X-16849974Y-3187516D02*
X-16887058D01*
X-16849974Y-3150178*
Y-3141034*
X-16859118Y-3131636*
X-16877914*
X-16887058Y-3141034*
X-15612994Y-3118174D02*
X-15594452D01*
X-15603596D02*
Y-3062294D01*
X-15594452D02*
X-15612994D01*
X-15538318Y-3071692D02*
X-15547716Y-3062294D01*
X-15566258*
X-15575656Y-3071692*
Y-3108776*
X-15566258Y-3118174*
X-15547716*
X-15538318Y-3108776*
X-15519522Y-3071692D02*
X-15510124Y-3062294D01*
X-15491582*
X-15482184Y-3071692*
Y-3080836*
X-15491582Y-3090234*
X-15500726*
X-15491582D02*
X-15482184Y-3099632D01*
Y-3108776*
X-15491582Y-3118174*
X-15510124*
X-15519522Y-3108776*
X-16472530Y-3515684D02*
X-16491326D01*
X-16481928D02*
Y-3459804D01*
X-16491326D02*
X-16472530D01*
X-16416650Y-3469202D02*
X-16425794Y-3459804D01*
X-16444590*
X-16453734Y-3469202*
Y-3506286*
X-16444590Y-3515684*
X-16425794*
X-16416650Y-3506286*
X-16397600Y-3478346D02*
X-16379058Y-3459804D01*
Y-3515684*
X-16397600D02*
X-16360516D01*
X-15087722Y-3075502D02*
X-15096866Y-3084646D01*
Y-3103442*
X-15087722Y-3112586*
X-15050384*
X-15040986Y-3103442*
Y-3084646*
X-15050384Y-3075502*
X-15087722Y-3056706D02*
X-15096866Y-3047308D01*
Y-3028512*
X-15087722Y-3019368*
X-15078324*
X-15068926Y-3028512*
Y-3037910*
Y-3028512D02*
X-15059782Y-3019368D01*
X-15050384*
X-15040986Y-3028512*
Y-3047308*
X-15050384Y-3056706*
X-15603342Y-2862396D02*
X-15612740Y-2852998D01*
X-15631536*
X-15640680Y-2862396*
Y-2899480*
X-15631536Y-2908878*
X-15612740*
X-15603342Y-2899480*
X-15547208Y-2852998D02*
X-15566004Y-2862396D01*
X-15584546Y-2880938*
Y-2899480*
X-15575402Y-2908878*
X-15556606*
X-15547208Y-2899480*
Y-2890336*
X-15556606Y-2880938*
X-15584546*
X-15172558Y-3961708D02*
X-15181702Y-3952310D01*
X-15200498*
X-15209896Y-3961708*
Y-3999046*
X-15200498Y-4008190*
X-15181702*
X-15172558Y-3999046*
X-15116424Y-3952310D02*
X-15153762D01*
Y-3980250*
X-15134966Y-3971106*
X-15125568*
X-15116424Y-3980250*
Y-3999046*
X-15125568Y-4008190*
X-15144364*
X-15153762Y-3999046*
X-16331814Y-4263460D02*
X-16341212Y-4272858D01*
Y-4291400*
X-16331814Y-4300798*
X-16294476*
X-16341212Y-4216724D02*
X-16313018Y-4244664D01*
Y-4207326*
X-15781142Y-2862396D02*
X-15790540Y-2852998D01*
X-15809336*
X-15818480Y-2862396*
Y-2899480*
X-15809336Y-2908878*
X-15790540*
X-15781142Y-2899480*
X-15762346Y-2852998D02*
X-15725008D01*
Y-2862396*
X-15762346Y-2899480*
Y-2908878*
X-16131662Y-4263460D02*
X-16140806Y-4272858D01*
Y-4291400*
X-16131662Y-4300798*
X-16094324*
X-16084926Y-4291400*
Y-4272858*
X-16094324Y-4263460*
X-16131662Y-4244664D02*
X-16140806Y-4235266D01*
Y-4216724*
X-16131662Y-4207326*
X-16122264*
X-16112866Y-4216724*
X-16103722Y-4207326*
X-16094324*
X-16084926Y-4216724*
Y-4235266*
X-16094324Y-4244664*
X-16103722*
X-16112866Y-4235266*
X-16122264Y-4244664*
X-16131662*
X-16112866Y-4235266D02*
Y-4216724D01*
X-15638902Y-4278700D02*
X-15648046Y-4288098D01*
Y-4306640*
X-15638902Y-4316038*
X-15601564*
X-15592166Y-4306640*
Y-4288098*
X-15601564Y-4278700*
Y-4259904D02*
X-15592166Y-4250506D01*
Y-4231964*
X-15601564Y-4222566*
X-15638902*
X-15648046Y-4231964*
Y-4250506*
X-15638902Y-4259904*
X-15629504*
X-15620106Y-4250506*
Y-4222566*
X-15104740Y-2908878D02*
Y-2852998D01*
X-15076800*
X-15067402Y-2862396*
Y-2880938*
X-15076800Y-2890336*
X-15104740*
X-15086198D02*
X-15067402Y-2908878D01*
X-15048606Y-2871540D02*
X-15030064Y-2852998D01*
Y-2908878*
X-15048606D02*
X-15011268D01*
X-16557874Y-3159322D02*
X-16576416D01*
X-16567018D02*
Y-3103188D01*
X-16557874D02*
X-16576416D01*
X-16501740Y-3112586D02*
X-16511138Y-3103188D01*
X-16529680*
X-16539078Y-3112586*
Y-3149924*
X-16529680Y-3159322*
X-16511138*
X-16501740Y-3149924*
X-16445606Y-3159322D02*
X-16482944D01*
X-16445606Y-3121984*
Y-3112586*
X-16455004Y-3103188*
X-16473546*
X-16482944Y-3112586*
X-15460340Y-2908878D02*
Y-2852998D01*
X-15432400*
X-15423002Y-2862396*
Y-2880938*
X-15432400Y-2890336*
X-15460340*
X-15441798D02*
X-15423002Y-2908878D01*
X-15404206Y-2862396D02*
X-15395062Y-2852998D01*
X-15376266*
X-15366868Y-2862396*
Y-2871540*
X-15376266Y-2880938*
X-15385664*
X-15376266D02*
X-15366868Y-2890336D01*
Y-2899480*
X-15376266Y-2908878*
X-15395062*
X-15404206Y-2899480*
X-15282540Y-2908878D02*
Y-2852998D01*
X-15254600*
X-15245202Y-2862396*
Y-2880938*
X-15254600Y-2890336*
X-15282540*
X-15263998D02*
X-15245202Y-2908878D01*
X-15189068D02*
X-15226406D01*
X-15189068Y-2871540*
Y-2862396*
X-15198466Y-2852998*
X-15217262*
X-15226406Y-2862396*
X-15983580Y-2908878D02*
Y-2852998D01*
X-15955640*
X-15946242Y-2862396*
Y-2880938*
X-15955640Y-2890336*
X-15983580*
X-15965038D02*
X-15946242Y-2908878D01*
X-15899506D02*
Y-2852998D01*
X-15927446Y-2880938*
X-15890108*
X-16174080Y-2908878D02*
Y-2852998D01*
X-16146140*
X-16136742Y-2862396*
Y-2880938*
X-16146140Y-2890336*
X-16174080*
X-16155538D02*
X-16136742Y-2908878D01*
X-16080608Y-2852998D02*
X-16117946D01*
Y-2880938*
X-16099404Y-2871540*
X-16090006*
X-16080608Y-2880938*
Y-2899480*
X-16090006Y-2908878*
X-16108802*
X-16117946Y-2899480*
D11*
X-15960466Y-3960438D02*
Y-3998538D01*
X-15277206D02*
X-15239106D01*
X-15322926Y-3322898D02*
X-15284826Y-3360998D01*
X-15960466Y-3315278D02*
Y-3277178D01*
Y-3998538D02*
X-15922366D01*
X-15239106D02*
Y-3960438D01*
X-15922366Y-3277178D02*
X-15960466D01*
X-16519012Y-3427038D02*
X-16864960D01*
Y-4051878D02*
X-16519012D01*
Y-3427038*
X-16864960D02*
Y-4051878D01*
X-16887312Y-2601030D02*
X-16612992D01*
X-16887312Y-3098870D02*
X-16780632D01*
X-16719672*
X-16612992*
X-16719672D02*
X-16720180Y-3093536D01*
X-16721450Y-3088456*
X-16723736Y-3083630*
X-16726784Y-3079312*
X-16730594Y-3075502*
X-16734912Y-3072454*
X-16739738Y-3070168*
X-16744818Y-3068898*
X-16750152Y-3068390*
X-16755486Y-3068898*
X-16760566Y-3070168*
X-16765392Y-3072454*
X-16769710Y-3075502*
X-16773520Y-3079312*
X-16776568Y-3083630*
X-16778854Y-3088456*
X-16780124Y-3093536*
X-16780632Y-3098870*
D19*
X-14481424Y-3698056D02*
X-14683862D01*
Y-3660718*
X-14481424Y-3223330D02*
X-14683862D01*
Y-3260668*
X-14284066Y-3360744D02*
Y-3560642D01*
X-14481424Y-4306894D02*
X-14683862D01*
Y-4269810*
X-14481424Y-3832422D02*
X-14683862D01*
Y-3869760*
X-14284066Y-3969582D02*
Y-4169734D01*
X-14481424Y-3073724D02*
X-14683862D01*
Y-3036386*
X-14481424Y-2399100D02*
X-14683862D01*
Y-2436438*
X-14284066Y-2536514D02*
Y-2936310D01*
D10*
X-14854296Y-3672148D02*
X-14948530D01*
Y-3625158*
X-14932782Y-3609410*
X-14901286*
X-14885792Y-3625158*
Y-3672148*
X-14948530Y-3531686D02*
Y-3562928D01*
X-14932782Y-3578676*
X-14870044*
X-14854296Y-3562928*
Y-3531686*
X-14870044Y-3515938*
X-14932782*
X-14948530Y-3531686*
X-14854296Y-3485204D02*
X-14948530D01*
Y-3437960*
X-14932782Y-3422466*
X-14901286*
X-14885792Y-3437960*
Y-3485204*
Y-3453708D02*
X-14854296Y-3422466D01*
Y-3360236D02*
X-14948530D01*
Y-3391478D02*
Y-3328740D01*
X-14917034Y-3298006D02*
X-14948530Y-3266510D01*
X-14854296*
Y-3235268D02*
Y-3298006D01*
Y-4281748D02*
X-14948530D01*
Y-4234758*
X-14932782Y-4219010*
X-14901286*
X-14885792Y-4234758*
Y-4281748*
X-14948530Y-4141286D02*
Y-4172528D01*
X-14932782Y-4188276*
X-14870044*
X-14854296Y-4172528*
Y-4141286*
X-14870044Y-4125538*
X-14932782*
X-14948530Y-4141286*
X-14854296Y-4094804D02*
X-14948530D01*
Y-4047560*
X-14932782Y-4032066*
X-14901286*
X-14885792Y-4047560*
Y-4094804*
Y-4063308D02*
X-14854296Y-4032066D01*
Y-3969836D02*
X-14948530D01*
Y-4001078D02*
Y-3938340D01*
X-14854296Y-3844868D02*
Y-3907606D01*
X-14917034Y-3844868*
X-14932782*
X-14948530Y-3860616*
Y-3891858*
X-14932782Y-3907606*
X-14948530Y-2936310D02*
Y-2999048D01*
X-14854296*
Y-2936310*
X-14901286Y-2967806D02*
Y-2999048D01*
X-14948530Y-2905576D02*
X-14854296Y-2842838D01*
Y-2905576D02*
X-14948530Y-2842838D01*
Y-2780608D02*
X-14854296D01*
X-14948530Y-2749366D02*
Y-2812104D01*
Y-2655640D02*
Y-2718378D01*
X-14854296*
Y-2655640*
X-14901286Y-2687136D02*
Y-2718378D01*
X-14854296Y-2624906D02*
X-14948530D01*
X-14854296Y-2562168*
X-14948530*
X-14932782Y-2468696D02*
X-14948530Y-2484190D01*
Y-2515686*
X-14932782Y-2531434*
X-14917034*
X-14901286Y-2515686*
Y-2484190*
X-14885792Y-2468696*
X-14870044*
X-14854296Y-2484190*
Y-2515686*
X-14870044Y-2531434*
X-14854296Y-2437708D02*
X-14870044D01*
Y-2422214*
X-14854296*
Y-2437708*
X-16272632Y-3142558D02*
X-16249010D01*
X-16106262D02*
X-16082640D01*
X-16083935Y-3144438D02*
X-16106262D01*
X-16249010D02*
X-16271337D01*
Y-3143853D02*
X-16249010D01*
X-16106262D02*
X-16083935D01*
Y-3154090D02*
X-16106262D01*
X-16249010D02*
X-16271337D01*
Y-3151677D02*
X-16249010D01*
X-16106262D02*
X-16083935D01*
Y-3149264D02*
X-16106262D01*
X-16249010D02*
X-16271337D01*
Y-3146851D02*
X-16249010D01*
X-16106262D02*
X-16083935D01*
D11*
X-15239106Y-3315278D02*
Y-3308242D01*
X-15245659Y-3277178D02*
X-15277206D01*
D10*
X-16294476Y-4300798D02*
X-16286551Y-4292873D01*
Y-4271385D02*
X-16294476Y-4263460D01*
X-16286551Y-4216724D02*
X-16341212D01*
X-16272632Y-3154928D02*
Y-3142558D01*
X-16271337Y-3154928D02*
Y-3143853D01*
X-16082640Y-3142558D02*
Y-3154928D01*
X-16083935Y-3143853D02*
Y-3154928D01*
X-13694938Y-2464886D02*
Y-2386908D01*
X-13656076Y-2347792*
X-13616960Y-2386908*
Y-2464886*
Y-2406466D02*
X-13694938D01*
X-13578098Y-2464886D02*
Y-2386908D01*
X-13519678*
X-13500120Y-2406466*
Y-2464886*
X-13461004Y-2386908D02*
Y-2445328D01*
X-13441700Y-2464886*
X-13383026*
Y-2386908D02*
Y-2484190D01*
X-13402584Y-2503748*
X-13422142*
X-13266186Y-2367350D02*
X-13285744Y-2347792D01*
X-13324606*
X-13344164Y-2367350*
Y-2386908*
X-13324606Y-2406466*
X-13285744*
X-13266186Y-2425770*
Y-2445328*
X-13285744Y-2464886*
X-13324606*
X-13344164Y-2445328*
X-13168650Y-2464886D02*
X-13207766D01*
X-13227324Y-2445328*
Y-2406466*
X-13207766Y-2386908*
X-13168650*
X-13149346Y-2406466*
Y-2425770*
X-13227324*
X-13110230Y-2464886D02*
Y-2386908D01*
X-13051810*
X-13032252Y-2406466*
Y-2464886*
X-12993390D02*
X-12934970D01*
X-12915412Y-2445328*
X-12934970Y-2425770*
X-12973832*
X-12993390Y-2406466*
X-12973832Y-2386908*
X-12915412*
X-12817876Y-2464886D02*
X-12856992D01*
X-12876296Y-2445328*
Y-2406466*
X-12856992Y-2386908*
X-12817876*
X-12798318Y-2406466*
Y-2425770*
X-12876296*
X-12642616Y-2347792D02*
Y-2425770D01*
X-12603500Y-2464886*
X-12564638Y-2425770*
Y-2347792*
X-12525522Y-2386908D02*
X-12486660Y-2347792D01*
Y-2464886*
X-12525522D02*
X-12447544D01*
X-12408682D02*
Y-2445328D01*
X-12389124*
Y-2464886*
X-12408682*
X-12350262Y-2386908D02*
X-12311146Y-2347792D01*
Y-2464886*
X-12272284D02*
X-12350262D01*
X-13868166Y-4202246D02*
X-13877564Y-4211390D01*
Y-4230186*
X-13868166Y-4239330*
X-13830828*
X-13821684Y-4230186*
Y-4211390*
X-13830828Y-4202246*
X-13858768Y-4183196D02*
X-13877564Y-4164654D01*
X-13821684*
Y-4183196D02*
Y-4146112D01*
X-13706114Y-3141034D02*
X-13715258Y-3131636D01*
X-13734054*
X-13743198Y-3141034*
Y-3178118*
X-13734054Y-3187516*
X-13715258*
X-13706114Y-3178118*
X-13649980Y-3187516D02*
X-13687064D01*
X-13649980Y-3150178*
Y-3141034*
X-13659124Y-3131636*
X-13677920*
X-13687064Y-3141034*
X-12413000Y-3118174D02*
X-12394458D01*
X-12403602D02*
Y-3062294D01*
X-12394458D02*
X-12413000D01*
X-12338324Y-3071692D02*
X-12347722Y-3062294D01*
X-12366264*
X-12375662Y-3071692*
Y-3108776*
X-12366264Y-3118174*
X-12347722*
X-12338324Y-3108776*
X-12319528Y-3071692D02*
X-12310130Y-3062294D01*
X-12291588*
X-12282190Y-3071692*
Y-3080836*
X-12291588Y-3090234*
X-12300732*
X-12291588D02*
X-12282190Y-3099632D01*
Y-3108776*
X-12291588Y-3118174*
X-12310130*
X-12319528Y-3108776*
X-13272536Y-3515684D02*
X-13291332D01*
X-13281934D02*
Y-3459804D01*
X-13291332D02*
X-13272536D01*
X-13216656Y-3469202D02*
X-13225800Y-3459804D01*
X-13244596*
X-13253740Y-3469202*
Y-3506286*
X-13244596Y-3515684*
X-13225800*
X-13216656Y-3506286*
X-13197606Y-3478346D02*
X-13179064Y-3459804D01*
Y-3515684*
X-13197606D02*
X-13160522D01*
X-11887728Y-3075502D02*
X-11896872Y-3084646D01*
Y-3103442*
X-11887728Y-3112586*
X-11850390*
X-11840992Y-3103442*
Y-3084646*
X-11850390Y-3075502*
X-11887728Y-3056706D02*
X-11896872Y-3047308D01*
Y-3028512*
X-11887728Y-3019368*
X-11878330*
X-11868932Y-3028512*
Y-3037910*
Y-3028512D02*
X-11859788Y-3019368D01*
X-11850390*
X-11840992Y-3028512*
Y-3047308*
X-11850390Y-3056706*
X-12403348Y-2862396D02*
X-12412746Y-2852998D01*
X-12431542*
X-12440686Y-2862396*
Y-2899480*
X-12431542Y-2908878*
X-12412746*
X-12403348Y-2899480*
X-12347214Y-2852998D02*
X-12366010Y-2862396D01*
X-12384552Y-2880938*
Y-2899480*
X-12375408Y-2908878*
X-12356612*
X-12347214Y-2899480*
Y-2890336*
X-12356612Y-2880938*
X-12384552*
X-11972564Y-3961708D02*
X-11981708Y-3952310D01*
X-12000504*
X-12009902Y-3961708*
Y-3999046*
X-12000504Y-4008190*
X-11981708*
X-11972564Y-3999046*
X-11916430Y-3952310D02*
X-11953768D01*
Y-3980250*
X-11934972Y-3971106*
X-11925574*
X-11916430Y-3980250*
Y-3999046*
X-11925574Y-4008190*
X-11944370*
X-11953768Y-3999046*
X-13131820Y-4263460D02*
X-13141218Y-4272858D01*
Y-4291400*
X-13131820Y-4300798*
X-13094482*
X-13141218Y-4216724D02*
X-13113024Y-4244664D01*
Y-4207326*
X-12581148Y-2862396D02*
X-12590546Y-2852998D01*
X-12609342*
X-12618486Y-2862396*
Y-2899480*
X-12609342Y-2908878*
X-12590546*
X-12581148Y-2899480*
X-12562352Y-2852998D02*
X-12525014D01*
Y-2862396*
X-12562352Y-2899480*
Y-2908878*
X-12931668Y-4263460D02*
X-12940812Y-4272858D01*
Y-4291400*
X-12931668Y-4300798*
X-12894330*
X-12884932Y-4291400*
Y-4272858*
X-12894330Y-4263460*
X-12931668Y-4244664D02*
X-12940812Y-4235266D01*
Y-4216724*
X-12931668Y-4207326*
X-12922270*
X-12912872Y-4216724*
X-12903728Y-4207326*
X-12894330*
X-12884932Y-4216724*
Y-4235266*
X-12894330Y-4244664*
X-12903728*
X-12912872Y-4235266*
X-12922270Y-4244664*
X-12931668*
X-12912872Y-4235266D02*
Y-4216724D01*
X-12438908Y-4278700D02*
X-12448052Y-4288098D01*
Y-4306640*
X-12438908Y-4316038*
X-12401570*
X-12392172Y-4306640*
Y-4288098*
X-12401570Y-4278700*
Y-4259904D02*
X-12392172Y-4250506D01*
Y-4231964*
X-12401570Y-4222566*
X-12438908*
X-12448052Y-4231964*
Y-4250506*
X-12438908Y-4259904*
X-12429510*
X-12420112Y-4250506*
Y-4222566*
X-11904746Y-2908878D02*
Y-2852998D01*
X-11876806*
X-11867408Y-2862396*
Y-2880938*
X-11876806Y-2890336*
X-11904746*
X-11886204D02*
X-11867408Y-2908878D01*
X-11848612Y-2871540D02*
X-11830070Y-2852998D01*
Y-2908878*
X-11848612D02*
X-11811274D01*
X-13357880Y-3159322D02*
X-13376422D01*
X-13367024D02*
Y-3103188D01*
X-13357880D02*
X-13376422D01*
X-13301746Y-3112586D02*
X-13311144Y-3103188D01*
X-13329686*
X-13339084Y-3112586*
Y-3149924*
X-13329686Y-3159322*
X-13311144*
X-13301746Y-3149924*
X-13245612Y-3159322D02*
X-13282950D01*
X-13245612Y-3121984*
Y-3112586*
X-13255010Y-3103188*
X-13273552*
X-13282950Y-3112586*
X-12260346Y-2908878D02*
Y-2852998D01*
X-12232406*
X-12223008Y-2862396*
Y-2880938*
X-12232406Y-2890336*
X-12260346*
X-12241804D02*
X-12223008Y-2908878D01*
X-12204212Y-2862396D02*
X-12195068Y-2852998D01*
X-12176272*
X-12166874Y-2862396*
Y-2871540*
X-12176272Y-2880938*
X-12185670*
X-12176272D02*
X-12166874Y-2890336D01*
Y-2899480*
X-12176272Y-2908878*
X-12195068*
X-12204212Y-2899480*
X-12082546Y-2908878D02*
Y-2852998D01*
X-12054606*
X-12045208Y-2862396*
Y-2880938*
X-12054606Y-2890336*
X-12082546*
X-12064004D02*
X-12045208Y-2908878D01*
X-11989074D02*
X-12026412D01*
X-11989074Y-2871540*
Y-2862396*
X-11998472Y-2852998*
X-12017268*
X-12026412Y-2862396*
X-12783586Y-2908878D02*
Y-2852998D01*
X-12755646*
X-12746248Y-2862396*
Y-2880938*
X-12755646Y-2890336*
X-12783586*
X-12765044D02*
X-12746248Y-2908878D01*
X-12699512D02*
Y-2852998D01*
X-12727452Y-2880938*
X-12690114*
X-12974086Y-2908878D02*
Y-2852998D01*
X-12946146*
X-12936748Y-2862396*
Y-2880938*
X-12946146Y-2890336*
X-12974086*
X-12955544D02*
X-12936748Y-2908878D01*
X-12880614Y-2852998D02*
X-12917952D01*
Y-2880938*
X-12899410Y-2871540*
X-12890012*
X-12880614Y-2880938*
Y-2899480*
X-12890012Y-2908878*
X-12908808*
X-12917952Y-2899480*
D11*
X-12760472Y-3960438D02*
Y-3998538D01*
X-12077212D02*
X-12039112D01*
X-12122932Y-3322898D02*
X-12084832Y-3360998D01*
X-12760472Y-3315278D02*
Y-3277178D01*
Y-3998538D02*
X-12722372D01*
X-12039112D02*
Y-3960438D01*
X-12722372Y-3277178D02*
X-12760472D01*
X-13319018Y-3427038D02*
X-13664966D01*
Y-4051878D02*
X-13319018D01*
Y-3427038*
X-13664966D02*
Y-4051878D01*
X-13687318Y-2601030D02*
X-13412998D01*
X-13687318Y-3098870D02*
X-13580638D01*
X-13519678*
X-13412998*
X-13519678D02*
X-13520186Y-3093536D01*
X-13521456Y-3088456*
X-13523742Y-3083630*
X-13526790Y-3079312*
X-13530600Y-3075502*
X-13534918Y-3072454*
X-13539744Y-3070168*
X-13544824Y-3068898*
X-13550158Y-3068390*
X-13555492Y-3068898*
X-13560572Y-3070168*
X-13565398Y-3072454*
X-13569716Y-3075502*
X-13573526Y-3079312*
X-13576574Y-3083630*
X-13578860Y-3088456*
X-13580130Y-3093536*
X-13580638Y-3098870*
D19*
X-11281430Y-3698056D02*
X-11483868D01*
Y-3660718*
X-11281430Y-3223330D02*
X-11483868D01*
Y-3260668*
X-11084072Y-3360744D02*
Y-3560642D01*
X-11281430Y-4306894D02*
X-11483868D01*
Y-4269810*
X-11281430Y-3832422D02*
X-11483868D01*
Y-3869760*
X-11084072Y-3969582D02*
Y-4169734D01*
X-11281430Y-3073724D02*
X-11483868D01*
Y-3036386*
X-11281430Y-2399100D02*
X-11483868D01*
Y-2436438*
X-11084072Y-2536514D02*
Y-2936310D01*
D10*
X-11654302Y-3672148D02*
X-11748536D01*
Y-3625158*
X-11732788Y-3609410*
X-11701292*
X-11685798Y-3625158*
Y-3672148*
X-11748536Y-3531686D02*
Y-3562928D01*
X-11732788Y-3578676*
X-11670050*
X-11654302Y-3562928*
Y-3531686*
X-11670050Y-3515938*
X-11732788*
X-11748536Y-3531686*
X-11654302Y-3485204D02*
X-11748536D01*
Y-3437960*
X-11732788Y-3422466*
X-11701292*
X-11685798Y-3437960*
Y-3485204*
Y-3453708D02*
X-11654302Y-3422466D01*
Y-3360236D02*
X-11748536D01*
Y-3391478D02*
Y-3328740D01*
X-11717040Y-3298006D02*
X-11748536Y-3266510D01*
X-11654302*
Y-3235268D02*
Y-3298006D01*
Y-4281748D02*
X-11748536D01*
Y-4234758*
X-11732788Y-4219010*
X-11701292*
X-11685798Y-4234758*
Y-4281748*
X-11748536Y-4141286D02*
Y-4172528D01*
X-11732788Y-4188276*
X-11670050*
X-11654302Y-4172528*
Y-4141286*
X-11670050Y-4125538*
X-11732788*
X-11748536Y-4141286*
X-11654302Y-4094804D02*
X-11748536D01*
Y-4047560*
X-11732788Y-4032066*
X-11701292*
X-11685798Y-4047560*
Y-4094804*
Y-4063308D02*
X-11654302Y-4032066D01*
Y-3969836D02*
X-11748536D01*
Y-4001078D02*
Y-3938340D01*
X-11654302Y-3844868D02*
Y-3907606D01*
X-11717040Y-3844868*
X-11732788*
X-11748536Y-3860616*
Y-3891858*
X-11732788Y-3907606*
X-11748536Y-2936310D02*
Y-2999048D01*
X-11654302*
Y-2936310*
X-11701292Y-2967806D02*
Y-2999048D01*
X-11748536Y-2905576D02*
X-11654302Y-2842838D01*
Y-2905576D02*
X-11748536Y-2842838D01*
Y-2780608D02*
X-11654302D01*
X-11748536Y-2749366D02*
Y-2812104D01*
Y-2655640D02*
Y-2718378D01*
X-11654302*
Y-2655640*
X-11701292Y-2687136D02*
Y-2718378D01*
X-11654302Y-2624906D02*
X-11748536D01*
X-11654302Y-2562168*
X-11748536*
X-11732788Y-2468696D02*
X-11748536Y-2484190D01*
Y-2515686*
X-11732788Y-2531434*
X-11717040*
X-11701292Y-2515686*
Y-2484190*
X-11685798Y-2468696*
X-11670050*
X-11654302Y-2484190*
Y-2515686*
X-11670050Y-2531434*
X-11654302Y-2437708D02*
X-11670050D01*
Y-2422214*
X-11654302*
Y-2437708*
X-13072638Y-3142558D02*
X-13049016D01*
X-12906268D02*
X-12882646D01*
X-12883941Y-3144438D02*
X-12906268D01*
X-13049016D02*
X-13071343D01*
Y-3143853D02*
X-13049016D01*
X-12906268D02*
X-12883941D01*
Y-3154090D02*
X-12906268D01*
X-13049016D02*
X-13071343D01*
Y-3151677D02*
X-13049016D01*
X-12906268D02*
X-12883941D01*
Y-3149264D02*
X-12906268D01*
X-13049016D02*
X-13071343D01*
Y-3146851D02*
X-13049016D01*
X-12906268D02*
X-12883941D01*
D11*
X-12039112Y-3315278D02*
Y-3308242D01*
X-12045665Y-3277178D02*
X-12077212D01*
D10*
X-13094482Y-4300798D02*
X-13086557Y-4292873D01*
Y-4271385D02*
X-13094482Y-4263460D01*
X-13086557Y-4216724D02*
X-13141218D01*
X-13072638Y-3154928D02*
Y-3142558D01*
X-13071343Y-3154928D02*
Y-3143853D01*
X-12882646Y-3142558D02*
Y-3154928D01*
X-12883941Y-3143853D02*
Y-3154928D01*
X-13694938Y-164814D02*
Y-86836D01*
X-13656076Y-47720*
X-13616960Y-86836*
Y-164814*
Y-106394D02*
X-13694938D01*
X-13578098Y-164814D02*
Y-86836D01*
X-13519678*
X-13500120Y-106394*
Y-164814*
X-13461004Y-86836D02*
Y-145256D01*
X-13441700Y-164814*
X-13383026*
Y-86836D02*
Y-184118D01*
X-13402584Y-203676*
X-13422142*
X-13266186Y-67278D02*
X-13285744Y-47720D01*
X-13324606*
X-13344164Y-67278*
Y-86836*
X-13324606Y-106394*
X-13285744*
X-13266186Y-125698*
Y-145256*
X-13285744Y-164814*
X-13324606*
X-13344164Y-145256*
X-13168650Y-164814D02*
X-13207766D01*
X-13227324Y-145256*
Y-106394*
X-13207766Y-86836*
X-13168650*
X-13149346Y-106394*
Y-125698*
X-13227324*
X-13110230Y-164814D02*
Y-86836D01*
X-13051810*
X-13032252Y-106394*
Y-164814*
X-12993390D02*
X-12934970D01*
X-12915412Y-145256*
X-12934970Y-125698*
X-12973832*
X-12993390Y-106394*
X-12973832Y-86836*
X-12915412*
X-12817876Y-164814D02*
X-12856992D01*
X-12876296Y-145256*
Y-106394*
X-12856992Y-86836*
X-12817876*
X-12798318Y-106394*
Y-125698*
X-12876296*
X-12642616Y-47720D02*
Y-125698D01*
X-12603500Y-164814*
X-12564638Y-125698*
Y-47720*
X-12525522Y-86836D02*
X-12486660Y-47720D01*
Y-164814*
X-12525522D02*
X-12447544D01*
X-12408682D02*
Y-145256D01*
X-12389124*
Y-164814*
X-12408682*
X-12350262Y-86836D02*
X-12311146Y-47720D01*
Y-164814*
X-12272284D02*
X-12350262D01*
X-13868166Y-1902174D02*
X-13877564Y-1911318D01*
Y-1930114*
X-13868166Y-1939258*
X-13830828*
X-13821684Y-1930114*
Y-1911318*
X-13830828Y-1902174*
X-13858768Y-1883124D02*
X-13877564Y-1864582D01*
X-13821684*
Y-1883124D02*
Y-1846040D01*
X-13706114Y-840962D02*
X-13715258Y-831564D01*
X-13734054*
X-13743198Y-840962*
Y-878046*
X-13734054Y-887444*
X-13715258*
X-13706114Y-878046*
X-13649980Y-887444D02*
X-13687064D01*
X-13649980Y-850106*
Y-840962*
X-13659124Y-831564*
X-13677920*
X-13687064Y-840962*
X-12413000Y-818102D02*
X-12394458D01*
X-12403602D02*
Y-762222D01*
X-12394458D02*
X-12413000D01*
X-12338324Y-771620D02*
X-12347722Y-762222D01*
X-12366264*
X-12375662Y-771620*
Y-808704*
X-12366264Y-818102*
X-12347722*
X-12338324Y-808704*
X-12319528Y-771620D02*
X-12310130Y-762222D01*
X-12291588*
X-12282190Y-771620*
Y-780764*
X-12291588Y-790162*
X-12300732*
X-12291588D02*
X-12282190Y-799560D01*
Y-808704*
X-12291588Y-818102*
X-12310130*
X-12319528Y-808704*
X-13272536Y-1215612D02*
X-13291332D01*
X-13281934D02*
Y-1159732D01*
X-13291332D02*
X-13272536D01*
X-13216656Y-1169130D02*
X-13225800Y-1159732D01*
X-13244596*
X-13253740Y-1169130*
Y-1206214*
X-13244596Y-1215612*
X-13225800*
X-13216656Y-1206214*
X-13197606Y-1178274D02*
X-13179064Y-1159732D01*
Y-1215612*
X-13197606D02*
X-13160522D01*
X-11887728Y-775430D02*
X-11896872Y-784574D01*
Y-803370*
X-11887728Y-812514*
X-11850390*
X-11840992Y-803370*
Y-784574*
X-11850390Y-775430*
X-11887728Y-756634D02*
X-11896872Y-747236D01*
Y-728440*
X-11887728Y-719296*
X-11878330*
X-11868932Y-728440*
Y-737838*
Y-728440D02*
X-11859788Y-719296D01*
X-11850390*
X-11840992Y-728440*
Y-747236*
X-11850390Y-756634*
X-12403348Y-562324D02*
X-12412746Y-552926D01*
X-12431542*
X-12440686Y-562324*
Y-599408*
X-12431542Y-608806*
X-12412746*
X-12403348Y-599408*
X-12347214Y-552926D02*
X-12366010Y-562324D01*
X-12384552Y-580866*
Y-599408*
X-12375408Y-608806*
X-12356612*
X-12347214Y-599408*
Y-590264*
X-12356612Y-580866*
X-12384552*
X-11972564Y-1661636D02*
X-11981708Y-1652238D01*
X-12000504*
X-12009902Y-1661636*
Y-1698974*
X-12000504Y-1708118*
X-11981708*
X-11972564Y-1698974*
X-11916430Y-1652238D02*
X-11953768D01*
Y-1680178*
X-11934972Y-1671034*
X-11925574*
X-11916430Y-1680178*
Y-1698974*
X-11925574Y-1708118*
X-11944370*
X-11953768Y-1698974*
X-13131820Y-1963388D02*
X-13141218Y-1972786D01*
Y-1991328*
X-13131820Y-2000726*
X-13094482*
X-13141218Y-1916652D02*
X-13113024Y-1944592D01*
Y-1907254*
X-12581148Y-562324D02*
X-12590546Y-552926D01*
X-12609342*
X-12618486Y-562324*
Y-599408*
X-12609342Y-608806*
X-12590546*
X-12581148Y-599408*
X-12562352Y-552926D02*
X-12525014D01*
Y-562324*
X-12562352Y-599408*
Y-608806*
X-12931668Y-1963388D02*
X-12940812Y-1972786D01*
Y-1991328*
X-12931668Y-2000726*
X-12894330*
X-12884932Y-1991328*
Y-1972786*
X-12894330Y-1963388*
X-12931668Y-1944592D02*
X-12940812Y-1935194D01*
Y-1916652*
X-12931668Y-1907254*
X-12922270*
X-12912872Y-1916652*
X-12903728Y-1907254*
X-12894330*
X-12884932Y-1916652*
Y-1935194*
X-12894330Y-1944592*
X-12903728*
X-12912872Y-1935194*
X-12922270Y-1944592*
X-12931668*
X-12912872Y-1935194D02*
Y-1916652D01*
X-12438908Y-1978628D02*
X-12448052Y-1988026D01*
Y-2006568*
X-12438908Y-2015966*
X-12401570*
X-12392172Y-2006568*
Y-1988026*
X-12401570Y-1978628*
Y-1959832D02*
X-12392172Y-1950434D01*
Y-1931892*
X-12401570Y-1922494*
X-12438908*
X-12448052Y-1931892*
Y-1950434*
X-12438908Y-1959832*
X-12429510*
X-12420112Y-1950434*
Y-1922494*
X-11904746Y-608806D02*
Y-552926D01*
X-11876806*
X-11867408Y-562324*
Y-580866*
X-11876806Y-590264*
X-11904746*
X-11886204D02*
X-11867408Y-608806D01*
X-11848612Y-571468D02*
X-11830070Y-552926D01*
Y-608806*
X-11848612D02*
X-11811274D01*
X-13357880Y-859250D02*
X-13376422D01*
X-13367024D02*
Y-803116D01*
X-13357880D02*
X-13376422D01*
X-13301746Y-812514D02*
X-13311144Y-803116D01*
X-13329686*
X-13339084Y-812514*
Y-849852*
X-13329686Y-859250*
X-13311144*
X-13301746Y-849852*
X-13245612Y-859250D02*
X-13282950D01*
X-13245612Y-821912*
Y-812514*
X-13255010Y-803116*
X-13273552*
X-13282950Y-812514*
X-12260346Y-608806D02*
Y-552926D01*
X-12232406*
X-12223008Y-562324*
Y-580866*
X-12232406Y-590264*
X-12260346*
X-12241804D02*
X-12223008Y-608806D01*
X-12204212Y-562324D02*
X-12195068Y-552926D01*
X-12176272*
X-12166874Y-562324*
Y-571468*
X-12176272Y-580866*
X-12185670*
X-12176272D02*
X-12166874Y-590264D01*
Y-599408*
X-12176272Y-608806*
X-12195068*
X-12204212Y-599408*
X-12082546Y-608806D02*
Y-552926D01*
X-12054606*
X-12045208Y-562324*
Y-580866*
X-12054606Y-590264*
X-12082546*
X-12064004D02*
X-12045208Y-608806D01*
X-11989074D02*
X-12026412D01*
X-11989074Y-571468*
Y-562324*
X-11998472Y-552926*
X-12017268*
X-12026412Y-562324*
X-12783586Y-608806D02*
Y-552926D01*
X-12755646*
X-12746248Y-562324*
Y-580866*
X-12755646Y-590264*
X-12783586*
X-12765044D02*
X-12746248Y-608806D01*
X-12699512D02*
Y-552926D01*
X-12727452Y-580866*
X-12690114*
X-12974086Y-608806D02*
Y-552926D01*
X-12946146*
X-12936748Y-562324*
Y-580866*
X-12946146Y-590264*
X-12974086*
X-12955544D02*
X-12936748Y-608806D01*
X-12880614Y-552926D02*
X-12917952D01*
Y-580866*
X-12899410Y-571468*
X-12890012*
X-12880614Y-580866*
Y-599408*
X-12890012Y-608806*
X-12908808*
X-12917952Y-599408*
D11*
X-12760472Y-1660366D02*
Y-1698466D01*
X-12077212D02*
X-12039112D01*
X-12122932Y-1022826D02*
X-12084832Y-1060926D01*
X-12760472Y-1015206D02*
Y-977106D01*
Y-1698466D02*
X-12722372D01*
X-12039112D02*
Y-1660366D01*
X-12722372Y-977106D02*
X-12760472D01*
X-13319018Y-1126966D02*
X-13664966D01*
Y-1751806D02*
X-13319018D01*
Y-1126966*
X-13664966D02*
Y-1751806D01*
X-13687318Y-300958D02*
X-13412998D01*
X-13687318Y-798798D02*
X-13580638D01*
X-13519678*
X-13412998*
X-13519678D02*
X-13520186Y-793464D01*
X-13521456Y-788384*
X-13523742Y-783558*
X-13526790Y-779240*
X-13530600Y-775430*
X-13534918Y-772382*
X-13539744Y-770096*
X-13544824Y-768826*
X-13550158Y-768318*
X-13555492Y-768826*
X-13560572Y-770096*
X-13565398Y-772382*
X-13569716Y-775430*
X-13573526Y-779240*
X-13576574Y-783558*
X-13578860Y-788384*
X-13580130Y-793464*
X-13580638Y-798798*
D19*
X-11281430Y-1397984D02*
X-11483868D01*
Y-1360646*
X-11281430Y-923258D02*
X-11483868D01*
Y-960596*
X-11084072Y-1060672D02*
Y-1260570D01*
X-11281430Y-2006822D02*
X-11483868D01*
Y-1969738*
X-11281430Y-1532350D02*
X-11483868D01*
Y-1569688*
X-11084072Y-1669510D02*
Y-1869662D01*
X-11281430Y-773652D02*
X-11483868D01*
Y-736314*
X-11281430Y-99028D02*
X-11483868D01*
Y-136366*
X-11084072Y-236442D02*
Y-636238D01*
D10*
X-11654302Y-1372076D02*
X-11748536D01*
Y-1325086*
X-11732788Y-1309338*
X-11701292*
X-11685798Y-1325086*
Y-1372076*
X-11748536Y-1231614D02*
Y-1262856D01*
X-11732788Y-1278604*
X-11670050*
X-11654302Y-1262856*
Y-1231614*
X-11670050Y-1215866*
X-11732788*
X-11748536Y-1231614*
X-11654302Y-1185132D02*
X-11748536D01*
Y-1137888*
X-11732788Y-1122394*
X-11701292*
X-11685798Y-1137888*
Y-1185132*
Y-1153636D02*
X-11654302Y-1122394D01*
Y-1060164D02*
X-11748536D01*
Y-1091406D02*
Y-1028668D01*
X-11717040Y-997934D02*
X-11748536Y-966438D01*
X-11654302*
Y-935196D02*
Y-997934D01*
Y-1981676D02*
X-11748536D01*
Y-1934686*
X-11732788Y-1918938*
X-11701292*
X-11685798Y-1934686*
Y-1981676*
X-11748536Y-1841214D02*
Y-1872456D01*
X-11732788Y-1888204*
X-11670050*
X-11654302Y-1872456*
Y-1841214*
X-11670050Y-1825466*
X-11732788*
X-11748536Y-1841214*
X-11654302Y-1794732D02*
X-11748536D01*
Y-1747488*
X-11732788Y-1731994*
X-11701292*
X-11685798Y-1747488*
Y-1794732*
Y-1763236D02*
X-11654302Y-1731994D01*
Y-1669764D02*
X-11748536D01*
Y-1701006D02*
Y-1638268D01*
X-11654302Y-1544796D02*
Y-1607534D01*
X-11717040Y-1544796*
X-11732788*
X-11748536Y-1560544*
Y-1591786*
X-11732788Y-1607534*
X-11748536Y-636238D02*
Y-698976D01*
X-11654302*
Y-636238*
X-11701292Y-667734D02*
Y-698976D01*
X-11748536Y-605504D02*
X-11654302Y-542766D01*
Y-605504D02*
X-11748536Y-542766D01*
Y-480536D02*
X-11654302D01*
X-11748536Y-449294D02*
Y-512032D01*
Y-355568D02*
Y-418306D01*
X-11654302*
Y-355568*
X-11701292Y-387064D02*
Y-418306D01*
X-11654302Y-324834D02*
X-11748536D01*
X-11654302Y-262096*
X-11748536*
X-11732788Y-168624D02*
X-11748536Y-184118D01*
Y-215614*
X-11732788Y-231362*
X-11717040*
X-11701292Y-215614*
Y-184118*
X-11685798Y-168624*
X-11670050*
X-11654302Y-184118*
Y-215614*
X-11670050Y-231362*
X-11654302Y-137636D02*
X-11670050D01*
Y-122142*
X-11654302*
Y-137636*
X-13072638Y-842486D02*
X-13049016D01*
X-12906268D02*
X-12882646D01*
X-12883941Y-844366D02*
X-12906268D01*
X-13049016D02*
X-13071343D01*
Y-843781D02*
X-13049016D01*
X-12906268D02*
X-12883941D01*
Y-854018D02*
X-12906268D01*
X-13049016D02*
X-13071343D01*
Y-851605D02*
X-13049016D01*
X-12906268D02*
X-12883941D01*
Y-849192D02*
X-12906268D01*
X-13049016D02*
X-13071343D01*
Y-846779D02*
X-13049016D01*
X-12906268D02*
X-12883941D01*
D11*
X-12039112Y-1015206D02*
Y-1008170D01*
X-12045665Y-977106D02*
X-12077212D01*
D10*
X-13094482Y-2000726D02*
X-13086557Y-1992801D01*
Y-1971313D02*
X-13094482Y-1963388D01*
X-13086557Y-1916652D02*
X-13141218D01*
X-13072638Y-854856D02*
Y-842486D01*
X-13071343Y-854856D02*
Y-843781D01*
X-12882646Y-842486D02*
Y-854856D01*
X-12883941Y-843781D02*
Y-854856D01*
X-16894932Y-164814D02*
Y-86836D01*
X-16856070Y-47720*
X-16816954Y-86836*
Y-164814*
Y-106394D02*
X-16894932D01*
X-16778092Y-164814D02*
Y-86836D01*
X-16719672*
X-16700114Y-106394*
Y-164814*
X-16660998Y-86836D02*
Y-145256D01*
X-16641694Y-164814*
X-16583020*
Y-86836D02*
Y-184118D01*
X-16602578Y-203676*
X-16622136*
X-16466180Y-67278D02*
X-16485738Y-47720D01*
X-16524600*
X-16544158Y-67278*
Y-86836*
X-16524600Y-106394*
X-16485738*
X-16466180Y-125698*
Y-145256*
X-16485738Y-164814*
X-16524600*
X-16544158Y-145256*
X-16368644Y-164814D02*
X-16407760D01*
X-16427318Y-145256*
Y-106394*
X-16407760Y-86836*
X-16368644*
X-16349340Y-106394*
Y-125698*
X-16427318*
X-16310224Y-164814D02*
Y-86836D01*
X-16251804*
X-16232246Y-106394*
Y-164814*
X-16193384D02*
X-16134964D01*
X-16115406Y-145256*
X-16134964Y-125698*
X-16173826*
X-16193384Y-106394*
X-16173826Y-86836*
X-16115406*
X-16017870Y-164814D02*
X-16056986D01*
X-16076290Y-145256*
Y-106394*
X-16056986Y-86836*
X-16017870*
X-15998312Y-106394*
Y-125698*
X-16076290*
X-15842610Y-47720D02*
Y-125698D01*
X-15803494Y-164814*
X-15764632Y-125698*
Y-47720*
X-15725516Y-86836D02*
X-15686654Y-47720D01*
Y-164814*
X-15725516D02*
X-15647538D01*
X-15608676D02*
Y-145256D01*
X-15589118*
Y-164814*
X-15608676*
X-15550256Y-86836D02*
X-15511140Y-47720D01*
Y-164814*
X-15472278D02*
X-15550256D01*
X-17068160Y-1902174D02*
X-17077558Y-1911318D01*
Y-1930114*
X-17068160Y-1939258*
X-17030822*
X-17021678Y-1930114*
Y-1911318*
X-17030822Y-1902174*
X-17058762Y-1883124D02*
X-17077558Y-1864582D01*
X-17021678*
Y-1883124D02*
Y-1846040D01*
X-16906108Y-840962D02*
X-16915252Y-831564D01*
X-16934048*
X-16943192Y-840962*
Y-878046*
X-16934048Y-887444*
X-16915252*
X-16906108Y-878046*
X-16849974Y-887444D02*
X-16887058D01*
X-16849974Y-850106*
Y-840962*
X-16859118Y-831564*
X-16877914*
X-16887058Y-840962*
X-15612994Y-818102D02*
X-15594452D01*
X-15603596D02*
Y-762222D01*
X-15594452D02*
X-15612994D01*
X-15538318Y-771620D02*
X-15547716Y-762222D01*
X-15566258*
X-15575656Y-771620*
Y-808704*
X-15566258Y-818102*
X-15547716*
X-15538318Y-808704*
X-15519522Y-771620D02*
X-15510124Y-762222D01*
X-15491582*
X-15482184Y-771620*
Y-780764*
X-15491582Y-790162*
X-15500726*
X-15491582D02*
X-15482184Y-799560D01*
Y-808704*
X-15491582Y-818102*
X-15510124*
X-15519522Y-808704*
X-16472530Y-1215612D02*
X-16491326D01*
X-16481928D02*
Y-1159732D01*
X-16491326D02*
X-16472530D01*
X-16416650Y-1169130D02*
X-16425794Y-1159732D01*
X-16444590*
X-16453734Y-1169130*
Y-1206214*
X-16444590Y-1215612*
X-16425794*
X-16416650Y-1206214*
X-16397600Y-1178274D02*
X-16379058Y-1159732D01*
Y-1215612*
X-16397600D02*
X-16360516D01*
X-15087722Y-775430D02*
X-15096866Y-784574D01*
Y-803370*
X-15087722Y-812514*
X-15050384*
X-15040986Y-803370*
Y-784574*
X-15050384Y-775430*
X-15087722Y-756634D02*
X-15096866Y-747236D01*
Y-728440*
X-15087722Y-719296*
X-15078324*
X-15068926Y-728440*
Y-737838*
Y-728440D02*
X-15059782Y-719296D01*
X-15050384*
X-15040986Y-728440*
Y-747236*
X-15050384Y-756634*
X-15603342Y-562324D02*
X-15612740Y-552926D01*
X-15631536*
X-15640680Y-562324*
Y-599408*
X-15631536Y-608806*
X-15612740*
X-15603342Y-599408*
X-15547208Y-552926D02*
X-15566004Y-562324D01*
X-15584546Y-580866*
Y-599408*
X-15575402Y-608806*
X-15556606*
X-15547208Y-599408*
Y-590264*
X-15556606Y-580866*
X-15584546*
X-15172558Y-1661636D02*
X-15181702Y-1652238D01*
X-15200498*
X-15209896Y-1661636*
Y-1698974*
X-15200498Y-1708118*
X-15181702*
X-15172558Y-1698974*
X-15116424Y-1652238D02*
X-15153762D01*
Y-1680178*
X-15134966Y-1671034*
X-15125568*
X-15116424Y-1680178*
Y-1698974*
X-15125568Y-1708118*
X-15144364*
X-15153762Y-1698974*
X-16331814Y-1963388D02*
X-16341212Y-1972786D01*
Y-1991328*
X-16331814Y-2000726*
X-16294476*
X-16341212Y-1916652D02*
X-16313018Y-1944592D01*
Y-1907254*
X-15781142Y-562324D02*
X-15790540Y-552926D01*
X-15809336*
X-15818480Y-562324*
Y-599408*
X-15809336Y-608806*
X-15790540*
X-15781142Y-599408*
X-15762346Y-552926D02*
X-15725008D01*
Y-562324*
X-15762346Y-599408*
Y-608806*
X-16131662Y-1963388D02*
X-16140806Y-1972786D01*
Y-1991328*
X-16131662Y-2000726*
X-16094324*
X-16084926Y-1991328*
Y-1972786*
X-16094324Y-1963388*
X-16131662Y-1944592D02*
X-16140806Y-1935194D01*
Y-1916652*
X-16131662Y-1907254*
X-16122264*
X-16112866Y-1916652*
X-16103722Y-1907254*
X-16094324*
X-16084926Y-1916652*
Y-1935194*
X-16094324Y-1944592*
X-16103722*
X-16112866Y-1935194*
X-16122264Y-1944592*
X-16131662*
X-16112866Y-1935194D02*
Y-1916652D01*
X-15638902Y-1978628D02*
X-15648046Y-1988026D01*
Y-2006568*
X-15638902Y-2015966*
X-15601564*
X-15592166Y-2006568*
Y-1988026*
X-15601564Y-1978628*
Y-1959832D02*
X-15592166Y-1950434D01*
Y-1931892*
X-15601564Y-1922494*
X-15638902*
X-15648046Y-1931892*
Y-1950434*
X-15638902Y-1959832*
X-15629504*
X-15620106Y-1950434*
Y-1922494*
X-15104740Y-608806D02*
Y-552926D01*
X-15076800*
X-15067402Y-562324*
Y-580866*
X-15076800Y-590264*
X-15104740*
X-15086198D02*
X-15067402Y-608806D01*
X-15048606Y-571468D02*
X-15030064Y-552926D01*
Y-608806*
X-15048606D02*
X-15011268D01*
X-16557874Y-859250D02*
X-16576416D01*
X-16567018D02*
Y-803116D01*
X-16557874D02*
X-16576416D01*
X-16501740Y-812514D02*
X-16511138Y-803116D01*
X-16529680*
X-16539078Y-812514*
Y-849852*
X-16529680Y-859250*
X-16511138*
X-16501740Y-849852*
X-16445606Y-859250D02*
X-16482944D01*
X-16445606Y-821912*
Y-812514*
X-16455004Y-803116*
X-16473546*
X-16482944Y-812514*
X-15460340Y-608806D02*
Y-552926D01*
X-15432400*
X-15423002Y-562324*
Y-580866*
X-15432400Y-590264*
X-15460340*
X-15441798D02*
X-15423002Y-608806D01*
X-15404206Y-562324D02*
X-15395062Y-552926D01*
X-15376266*
X-15366868Y-562324*
Y-571468*
X-15376266Y-580866*
X-15385664*
X-15376266D02*
X-15366868Y-590264D01*
Y-599408*
X-15376266Y-608806*
X-15395062*
X-15404206Y-599408*
X-15282540Y-608806D02*
Y-552926D01*
X-15254600*
X-15245202Y-562324*
Y-580866*
X-15254600Y-590264*
X-15282540*
X-15263998D02*
X-15245202Y-608806D01*
X-15189068D02*
X-15226406D01*
X-15189068Y-571468*
Y-562324*
X-15198466Y-552926*
X-15217262*
X-15226406Y-562324*
X-15983580Y-608806D02*
Y-552926D01*
X-15955640*
X-15946242Y-562324*
Y-580866*
X-15955640Y-590264*
X-15983580*
X-15965038D02*
X-15946242Y-608806D01*
X-15899506D02*
Y-552926D01*
X-15927446Y-580866*
X-15890108*
X-16174080Y-608806D02*
Y-552926D01*
X-16146140*
X-16136742Y-562324*
Y-580866*
X-16146140Y-590264*
X-16174080*
X-16155538D02*
X-16136742Y-608806D01*
X-16080608Y-552926D02*
X-16117946D01*
Y-580866*
X-16099404Y-571468*
X-16090006*
X-16080608Y-580866*
Y-599408*
X-16090006Y-608806*
X-16108802*
X-16117946Y-599408*
D11*
X-15960466Y-1660366D02*
Y-1698466D01*
X-15277206D02*
X-15239106D01*
X-15322926Y-1022826D02*
X-15284826Y-1060926D01*
X-15960466Y-1015206D02*
Y-977106D01*
Y-1698466D02*
X-15922366D01*
X-15239106D02*
Y-1660366D01*
X-15922366Y-977106D02*
X-15960466D01*
X-16519012Y-1126966D02*
X-16864960D01*
Y-1751806D02*
X-16519012D01*
Y-1126966*
X-16864960D02*
Y-1751806D01*
X-16887312Y-300958D02*
X-16612992D01*
X-16887312Y-798798D02*
X-16780632D01*
X-16719672*
X-16612992*
X-16719672D02*
X-16720180Y-793464D01*
X-16721450Y-788384*
X-16723736Y-783558*
X-16726784Y-779240*
X-16730594Y-775430*
X-16734912Y-772382*
X-16739738Y-770096*
X-16744818Y-768826*
X-16750152Y-768318*
X-16755486Y-768826*
X-16760566Y-770096*
X-16765392Y-772382*
X-16769710Y-775430*
X-16773520Y-779240*
X-16776568Y-783558*
X-16778854Y-788384*
X-16780124Y-793464*
X-16780632Y-798798*
D19*
X-14481424Y-1397984D02*
X-14683862D01*
Y-1360646*
X-14481424Y-923258D02*
X-14683862D01*
Y-960596*
X-14284066Y-1060672D02*
Y-1260570D01*
X-14481424Y-2006822D02*
X-14683862D01*
Y-1969738*
X-14481424Y-1532350D02*
X-14683862D01*
Y-1569688*
X-14284066Y-1669510D02*
Y-1869662D01*
X-14481424Y-773652D02*
X-14683862D01*
Y-736314*
X-14481424Y-99028D02*
X-14683862D01*
Y-136366*
X-14284066Y-236442D02*
Y-636238D01*
D10*
X-14854296Y-1372076D02*
X-14948530D01*
Y-1325086*
X-14932782Y-1309338*
X-14901286*
X-14885792Y-1325086*
Y-1372076*
X-14948530Y-1231614D02*
Y-1262856D01*
X-14932782Y-1278604*
X-14870044*
X-14854296Y-1262856*
Y-1231614*
X-14870044Y-1215866*
X-14932782*
X-14948530Y-1231614*
X-14854296Y-1185132D02*
X-14948530D01*
Y-1137888*
X-14932782Y-1122394*
X-14901286*
X-14885792Y-1137888*
Y-1185132*
Y-1153636D02*
X-14854296Y-1122394D01*
Y-1060164D02*
X-14948530D01*
Y-1091406D02*
Y-1028668D01*
X-14917034Y-997934D02*
X-14948530Y-966438D01*
X-14854296*
Y-935196D02*
Y-997934D01*
Y-1981676D02*
X-14948530D01*
Y-1934686*
X-14932782Y-1918938*
X-14901286*
X-14885792Y-1934686*
Y-1981676*
X-14948530Y-1841214D02*
Y-1872456D01*
X-14932782Y-1888204*
X-14870044*
X-14854296Y-1872456*
Y-1841214*
X-14870044Y-1825466*
X-14932782*
X-14948530Y-1841214*
X-14854296Y-1794732D02*
X-14948530D01*
Y-1747488*
X-14932782Y-1731994*
X-14901286*
X-14885792Y-1747488*
Y-1794732*
Y-1763236D02*
X-14854296Y-1731994D01*
Y-1669764D02*
X-14948530D01*
Y-1701006D02*
Y-1638268D01*
X-14854296Y-1544796D02*
Y-1607534D01*
X-14917034Y-1544796*
X-14932782*
X-14948530Y-1560544*
Y-1591786*
X-14932782Y-1607534*
X-14948530Y-636238D02*
Y-698976D01*
X-14854296*
Y-636238*
X-14901286Y-667734D02*
Y-698976D01*
X-14948530Y-605504D02*
X-14854296Y-542766D01*
Y-605504D02*
X-14948530Y-542766D01*
Y-480536D02*
X-14854296D01*
X-14948530Y-449294D02*
Y-512032D01*
Y-355568D02*
Y-418306D01*
X-14854296*
Y-355568*
X-14901286Y-387064D02*
Y-418306D01*
X-14854296Y-324834D02*
X-14948530D01*
X-14854296Y-262096*
X-14948530*
X-14932782Y-168624D02*
X-14948530Y-184118D01*
Y-215614*
X-14932782Y-231362*
X-14917034*
X-14901286Y-215614*
Y-184118*
X-14885792Y-168624*
X-14870044*
X-14854296Y-184118*
Y-215614*
X-14870044Y-231362*
X-14854296Y-137636D02*
X-14870044D01*
Y-122142*
X-14854296*
Y-137636*
X-16272632Y-842486D02*
X-16249010D01*
X-16106262D02*
X-16082640D01*
X-16083935Y-844366D02*
X-16106262D01*
X-16249010D02*
X-16271337D01*
Y-843781D02*
X-16249010D01*
X-16106262D02*
X-16083935D01*
Y-854018D02*
X-16106262D01*
X-16249010D02*
X-16271337D01*
Y-851605D02*
X-16249010D01*
X-16106262D02*
X-16083935D01*
Y-849192D02*
X-16106262D01*
X-16249010D02*
X-16271337D01*
Y-846779D02*
X-16249010D01*
X-16106262D02*
X-16083935D01*
D11*
X-15239106Y-1015206D02*
Y-1008170D01*
X-15245659Y-977106D02*
X-15277206D01*
D10*
X-16294476Y-2000726D02*
X-16286551Y-1992801D01*
Y-1971313D02*
X-16294476Y-1963388D01*
X-16286551Y-1916652D02*
X-16341212D01*
X-16272632Y-854856D02*
Y-842486D01*
X-16271337Y-854856D02*
Y-843781D01*
X-16082640Y-842486D02*
Y-854856D01*
X-16083935Y-843781D02*
Y-854856D01*
X-20094926Y-164814D02*
Y-86836D01*
X-20056064Y-47720*
X-20016948Y-86836*
Y-164814*
Y-106394D02*
X-20094926D01*
X-19978086Y-164814D02*
Y-86836D01*
X-19919666*
X-19900108Y-106394*
Y-164814*
X-19860992Y-86836D02*
Y-145256D01*
X-19841688Y-164814*
X-19783014*
Y-86836D02*
Y-184118D01*
X-19802572Y-203676*
X-19822130*
X-19666174Y-67278D02*
X-19685732Y-47720D01*
X-19724594*
X-19744152Y-67278*
Y-86836*
X-19724594Y-106394*
X-19685732*
X-19666174Y-125698*
Y-145256*
X-19685732Y-164814*
X-19724594*
X-19744152Y-145256*
X-19568638Y-164814D02*
X-19607754D01*
X-19627312Y-145256*
Y-106394*
X-19607754Y-86836*
X-19568638*
X-19549334Y-106394*
Y-125698*
X-19627312*
X-19510218Y-164814D02*
Y-86836D01*
X-19451798*
X-19432240Y-106394*
Y-164814*
X-19393378D02*
X-19334958D01*
X-19315400Y-145256*
X-19334958Y-125698*
X-19373820*
X-19393378Y-106394*
X-19373820Y-86836*
X-19315400*
X-19217864Y-164814D02*
X-19256980D01*
X-19276284Y-145256*
Y-106394*
X-19256980Y-86836*
X-19217864*
X-19198306Y-106394*
Y-125698*
X-19276284*
X-19042604Y-47720D02*
Y-125698D01*
X-19003488Y-164814*
X-18964626Y-125698*
Y-47720*
X-18925510Y-86836D02*
X-18886648Y-47720D01*
Y-164814*
X-18925510D02*
X-18847532D01*
X-18808670D02*
Y-145256D01*
X-18789112*
Y-164814*
X-18808670*
X-18750250Y-86836D02*
X-18711134Y-47720D01*
Y-164814*
X-18672272D02*
X-18750250D01*
X-20268154Y-1902174D02*
X-20277552Y-1911318D01*
Y-1930114*
X-20268154Y-1939258*
X-20230816*
X-20221672Y-1930114*
Y-1911318*
X-20230816Y-1902174*
X-20258756Y-1883124D02*
X-20277552Y-1864582D01*
X-20221672*
Y-1883124D02*
Y-1846040D01*
X-20106102Y-840962D02*
X-20115246Y-831564D01*
X-20134042*
X-20143186Y-840962*
Y-878046*
X-20134042Y-887444*
X-20115246*
X-20106102Y-878046*
X-20049968Y-887444D02*
X-20087052D01*
X-20049968Y-850106*
Y-840962*
X-20059112Y-831564*
X-20077908*
X-20087052Y-840962*
X-18812988Y-818102D02*
X-18794446D01*
X-18803590D02*
Y-762222D01*
X-18794446D02*
X-18812988D01*
X-18738312Y-771620D02*
X-18747710Y-762222D01*
X-18766252*
X-18775650Y-771620*
Y-808704*
X-18766252Y-818102*
X-18747710*
X-18738312Y-808704*
X-18719516Y-771620D02*
X-18710118Y-762222D01*
X-18691576*
X-18682178Y-771620*
Y-780764*
X-18691576Y-790162*
X-18700720*
X-18691576D02*
X-18682178Y-799560D01*
Y-808704*
X-18691576Y-818102*
X-18710118*
X-18719516Y-808704*
X-19672524Y-1215612D02*
X-19691320D01*
X-19681922D02*
Y-1159732D01*
X-19691320D02*
X-19672524D01*
X-19616644Y-1169130D02*
X-19625788Y-1159732D01*
X-19644584*
X-19653728Y-1169130*
Y-1206214*
X-19644584Y-1215612*
X-19625788*
X-19616644Y-1206214*
X-19597594Y-1178274D02*
X-19579052Y-1159732D01*
Y-1215612*
X-19597594D02*
X-19560510D01*
X-18287716Y-775430D02*
X-18296860Y-784574D01*
Y-803370*
X-18287716Y-812514*
X-18250378*
X-18240980Y-803370*
Y-784574*
X-18250378Y-775430*
X-18287716Y-756634D02*
X-18296860Y-747236D01*
Y-728440*
X-18287716Y-719296*
X-18278318*
X-18268920Y-728440*
Y-737838*
Y-728440D02*
X-18259776Y-719296D01*
X-18250378*
X-18240980Y-728440*
Y-747236*
X-18250378Y-756634*
X-18803336Y-562324D02*
X-18812734Y-552926D01*
X-18831530*
X-18840674Y-562324*
Y-599408*
X-18831530Y-608806*
X-18812734*
X-18803336Y-599408*
X-18747202Y-552926D02*
X-18765998Y-562324D01*
X-18784540Y-580866*
Y-599408*
X-18775396Y-608806*
X-18756600*
X-18747202Y-599408*
Y-590264*
X-18756600Y-580866*
X-18784540*
X-18372552Y-1661636D02*
X-18381696Y-1652238D01*
X-18400492*
X-18409890Y-1661636*
Y-1698974*
X-18400492Y-1708118*
X-18381696*
X-18372552Y-1698974*
X-18316418Y-1652238D02*
X-18353756D01*
Y-1680178*
X-18334960Y-1671034*
X-18325562*
X-18316418Y-1680178*
Y-1698974*
X-18325562Y-1708118*
X-18344358*
X-18353756Y-1698974*
X-19531808Y-1963388D02*
X-19541206Y-1972786D01*
Y-1991328*
X-19531808Y-2000726*
X-19494470*
X-19541206Y-1916652D02*
X-19513012Y-1944592D01*
Y-1907254*
X-18981136Y-562324D02*
X-18990534Y-552926D01*
X-19009330*
X-19018474Y-562324*
Y-599408*
X-19009330Y-608806*
X-18990534*
X-18981136Y-599408*
X-18962340Y-552926D02*
X-18925002D01*
Y-562324*
X-18962340Y-599408*
Y-608806*
X-19331656Y-1963388D02*
X-19340800Y-1972786D01*
Y-1991328*
X-19331656Y-2000726*
X-19294318*
X-19284920Y-1991328*
Y-1972786*
X-19294318Y-1963388*
X-19331656Y-1944592D02*
X-19340800Y-1935194D01*
Y-1916652*
X-19331656Y-1907254*
X-19322258*
X-19312860Y-1916652*
X-19303716Y-1907254*
X-19294318*
X-19284920Y-1916652*
Y-1935194*
X-19294318Y-1944592*
X-19303716*
X-19312860Y-1935194*
X-19322258Y-1944592*
X-19331656*
X-19312860Y-1935194D02*
Y-1916652D01*
X-18838896Y-1978628D02*
X-18848040Y-1988026D01*
Y-2006568*
X-18838896Y-2015966*
X-18801558*
X-18792160Y-2006568*
Y-1988026*
X-18801558Y-1978628*
Y-1959832D02*
X-18792160Y-1950434D01*
Y-1931892*
X-18801558Y-1922494*
X-18838896*
X-18848040Y-1931892*
Y-1950434*
X-18838896Y-1959832*
X-18829498*
X-18820100Y-1950434*
Y-1922494*
X-18304734Y-608806D02*
Y-552926D01*
X-18276794*
X-18267396Y-562324*
Y-580866*
X-18276794Y-590264*
X-18304734*
X-18286192D02*
X-18267396Y-608806D01*
X-18248600Y-571468D02*
X-18230058Y-552926D01*
Y-608806*
X-18248600D02*
X-18211262D01*
X-19757868Y-859250D02*
X-19776410D01*
X-19767012D02*
Y-803116D01*
X-19757868D02*
X-19776410D01*
X-19701734Y-812514D02*
X-19711132Y-803116D01*
X-19729674*
X-19739072Y-812514*
Y-849852*
X-19729674Y-859250*
X-19711132*
X-19701734Y-849852*
X-19645600Y-859250D02*
X-19682938D01*
X-19645600Y-821912*
Y-812514*
X-19654998Y-803116*
X-19673540*
X-19682938Y-812514*
X-18660334Y-608806D02*
Y-552926D01*
X-18632394*
X-18622996Y-562324*
Y-580866*
X-18632394Y-590264*
X-18660334*
X-18641792D02*
X-18622996Y-608806D01*
X-18604200Y-562324D02*
X-18595056Y-552926D01*
X-18576260*
X-18566862Y-562324*
Y-571468*
X-18576260Y-580866*
X-18585658*
X-18576260D02*
X-18566862Y-590264D01*
Y-599408*
X-18576260Y-608806*
X-18595056*
X-18604200Y-599408*
X-18482534Y-608806D02*
Y-552926D01*
X-18454594*
X-18445196Y-562324*
Y-580866*
X-18454594Y-590264*
X-18482534*
X-18463992D02*
X-18445196Y-608806D01*
X-18389062D02*
X-18426400D01*
X-18389062Y-571468*
Y-562324*
X-18398460Y-552926*
X-18417256*
X-18426400Y-562324*
X-19183574Y-608806D02*
Y-552926D01*
X-19155634*
X-19146236Y-562324*
Y-580866*
X-19155634Y-590264*
X-19183574*
X-19165032D02*
X-19146236Y-608806D01*
X-19099500D02*
Y-552926D01*
X-19127440Y-580866*
X-19090102*
X-19374074Y-608806D02*
Y-552926D01*
X-19346134*
X-19336736Y-562324*
Y-580866*
X-19346134Y-590264*
X-19374074*
X-19355532D02*
X-19336736Y-608806D01*
X-19280602Y-552926D02*
X-19317940D01*
Y-580866*
X-19299398Y-571468*
X-19290000*
X-19280602Y-580866*
Y-599408*
X-19290000Y-608806*
X-19308796*
X-19317940Y-599408*
D11*
X-19160460Y-1660366D02*
Y-1698466D01*
X-18477200D02*
X-18439100D01*
X-18522920Y-1022826D02*
X-18484820Y-1060926D01*
X-19160460Y-1015206D02*
Y-977106D01*
Y-1698466D02*
X-19122360D01*
X-18439100D02*
Y-1660366D01*
X-19122360Y-977106D02*
X-19160460D01*
X-19719006Y-1126966D02*
X-20064954D01*
Y-1751806D02*
X-19719006D01*
Y-1126966*
X-20064954D02*
Y-1751806D01*
X-20087306Y-300958D02*
X-19812986D01*
X-20087306Y-798798D02*
X-19980626D01*
X-19919666*
X-19812986*
X-19919666D02*
X-19920174Y-793464D01*
X-19921444Y-788384*
X-19923730Y-783558*
X-19926778Y-779240*
X-19930588Y-775430*
X-19934906Y-772382*
X-19939732Y-770096*
X-19944812Y-768826*
X-19950146Y-768318*
X-19955480Y-768826*
X-19960560Y-770096*
X-19965386Y-772382*
X-19969704Y-775430*
X-19973514Y-779240*
X-19976562Y-783558*
X-19978848Y-788384*
X-19980118Y-793464*
X-19980626Y-798798*
D19*
X-17681418Y-1397984D02*
X-17883856D01*
Y-1360646*
X-17681418Y-923258D02*
X-17883856D01*
Y-960596*
X-17484060Y-1060672D02*
Y-1260570D01*
X-17681418Y-2006822D02*
X-17883856D01*
Y-1969738*
X-17681418Y-1532350D02*
X-17883856D01*
Y-1569688*
X-17484060Y-1669510D02*
Y-1869662D01*
X-17681418Y-773652D02*
X-17883856D01*
Y-736314*
X-17681418Y-99028D02*
X-17883856D01*
Y-136366*
X-17484060Y-236442D02*
Y-636238D01*
D10*
X-18054290Y-1372076D02*
X-18148524D01*
Y-1325086*
X-18132776Y-1309338*
X-18101280*
X-18085786Y-1325086*
Y-1372076*
X-18148524Y-1231614D02*
Y-1262856D01*
X-18132776Y-1278604*
X-18070038*
X-18054290Y-1262856*
Y-1231614*
X-18070038Y-1215866*
X-18132776*
X-18148524Y-1231614*
X-18054290Y-1185132D02*
X-18148524D01*
Y-1137888*
X-18132776Y-1122394*
X-18101280*
X-18085786Y-1137888*
Y-1185132*
Y-1153636D02*
X-18054290Y-1122394D01*
Y-1060164D02*
X-18148524D01*
Y-1091406D02*
Y-1028668D01*
X-18117028Y-997934D02*
X-18148524Y-966438D01*
X-18054290*
Y-935196D02*
Y-997934D01*
Y-1981676D02*
X-18148524D01*
Y-1934686*
X-18132776Y-1918938*
X-18101280*
X-18085786Y-1934686*
Y-1981676*
X-18148524Y-1841214D02*
Y-1872456D01*
X-18132776Y-1888204*
X-18070038*
X-18054290Y-1872456*
Y-1841214*
X-18070038Y-1825466*
X-18132776*
X-18148524Y-1841214*
X-18054290Y-1794732D02*
X-18148524D01*
Y-1747488*
X-18132776Y-1731994*
X-18101280*
X-18085786Y-1747488*
Y-1794732*
Y-1763236D02*
X-18054290Y-1731994D01*
Y-1669764D02*
X-18148524D01*
Y-1701006D02*
Y-1638268D01*
X-18054290Y-1544796D02*
Y-1607534D01*
X-18117028Y-1544796*
X-18132776*
X-18148524Y-1560544*
Y-1591786*
X-18132776Y-1607534*
X-18148524Y-636238D02*
Y-698976D01*
X-18054290*
Y-636238*
X-18101280Y-667734D02*
Y-698976D01*
X-18148524Y-605504D02*
X-18054290Y-542766D01*
Y-605504D02*
X-18148524Y-542766D01*
Y-480536D02*
X-18054290D01*
X-18148524Y-449294D02*
Y-512032D01*
Y-355568D02*
Y-418306D01*
X-18054290*
Y-355568*
X-18101280Y-387064D02*
Y-418306D01*
X-18054290Y-324834D02*
X-18148524D01*
X-18054290Y-262096*
X-18148524*
X-18132776Y-168624D02*
X-18148524Y-184118D01*
Y-215614*
X-18132776Y-231362*
X-18117028*
X-18101280Y-215614*
Y-184118*
X-18085786Y-168624*
X-18070038*
X-18054290Y-184118*
Y-215614*
X-18070038Y-231362*
X-18054290Y-137636D02*
X-18070038D01*
Y-122142*
X-18054290*
Y-137636*
X-19472626Y-842486D02*
X-19449004D01*
X-19306256D02*
X-19282634D01*
X-19283929Y-844366D02*
X-19306256D01*
X-19449004D02*
X-19471331D01*
Y-843781D02*
X-19449004D01*
X-19306256D02*
X-19283929D01*
Y-854018D02*
X-19306256D01*
X-19449004D02*
X-19471331D01*
Y-851605D02*
X-19449004D01*
X-19306256D02*
X-19283929D01*
Y-849192D02*
X-19306256D01*
X-19449004D02*
X-19471331D01*
Y-846779D02*
X-19449004D01*
X-19306256D02*
X-19283929D01*
D11*
X-18439100Y-1015206D02*
Y-1008170D01*
X-18445653Y-977106D02*
X-18477200D01*
D10*
X-19494470Y-2000726D02*
X-19486545Y-1992801D01*
Y-1971313D02*
X-19494470Y-1963388D01*
X-19486545Y-1916652D02*
X-19541206D01*
X-19472626Y-854856D02*
Y-842486D01*
X-19471331Y-854856D02*
Y-843781D01*
X-19282634Y-842486D02*
Y-854856D01*
X-19283929Y-843781D02*
Y-854856D01*
X-20094926Y2135258D02*
Y2213236D01*
X-20056064Y2252352*
X-20016948Y2213236*
Y2135258*
Y2193678D02*
X-20094926D01*
X-19978086Y2135258D02*
Y2213236D01*
X-19919666*
X-19900108Y2193678*
Y2135258*
X-19860992Y2213236D02*
Y2154816D01*
X-19841688Y2135258*
X-19783014*
Y2213236D02*
Y2115954D01*
X-19802572Y2096396*
X-19822130*
X-19666174Y2232794D02*
X-19685732Y2252352D01*
X-19724594*
X-19744152Y2232794*
Y2213236*
X-19724594Y2193678*
X-19685732*
X-19666174Y2174374*
Y2154816*
X-19685732Y2135258*
X-19724594*
X-19744152Y2154816*
X-19568638Y2135258D02*
X-19607754D01*
X-19627312Y2154816*
Y2193678*
X-19607754Y2213236*
X-19568638*
X-19549334Y2193678*
Y2174374*
X-19627312*
X-19510218Y2135258D02*
Y2213236D01*
X-19451798*
X-19432240Y2193678*
Y2135258*
X-19393378D02*
X-19334958D01*
X-19315400Y2154816*
X-19334958Y2174374*
X-19373820*
X-19393378Y2193678*
X-19373820Y2213236*
X-19315400*
X-19217864Y2135258D02*
X-19256980D01*
X-19276284Y2154816*
Y2193678*
X-19256980Y2213236*
X-19217864*
X-19198306Y2193678*
Y2174374*
X-19276284*
X-19042604Y2252352D02*
Y2174374D01*
X-19003488Y2135258*
X-18964626Y2174374*
Y2252352*
X-18925510Y2213236D02*
X-18886648Y2252352D01*
Y2135258*
X-18925510D02*
X-18847532D01*
X-18808670D02*
Y2154816D01*
X-18789112*
Y2135258*
X-18808670*
X-18750250Y2213236D02*
X-18711134Y2252352D01*
Y2135258*
X-18672272D02*
X-18750250D01*
X-20268154Y397898D02*
X-20277552Y388754D01*
Y369958*
X-20268154Y360814*
X-20230816*
X-20221672Y369958*
Y388754*
X-20230816Y397898*
X-20258756Y416948D02*
X-20277552Y435490D01*
X-20221672*
Y416948D02*
Y454032D01*
X-20106102Y1459110D02*
X-20115246Y1468508D01*
X-20134042*
X-20143186Y1459110*
Y1422026*
X-20134042Y1412628*
X-20115246*
X-20106102Y1422026*
X-20049968Y1412628D02*
X-20087052D01*
X-20049968Y1449966*
Y1459110*
X-20059112Y1468508*
X-20077908*
X-20087052Y1459110*
X-18812988Y1481970D02*
X-18794446D01*
X-18803590D02*
Y1537850D01*
X-18794446D02*
X-18812988D01*
X-18738312Y1528452D02*
X-18747710Y1537850D01*
X-18766252*
X-18775650Y1528452*
Y1491368*
X-18766252Y1481970*
X-18747710*
X-18738312Y1491368*
X-18719516Y1528452D02*
X-18710118Y1537850D01*
X-18691576*
X-18682178Y1528452*
Y1519308*
X-18691576Y1509910*
X-18700720*
X-18691576D02*
X-18682178Y1500512D01*
Y1491368*
X-18691576Y1481970*
X-18710118*
X-18719516Y1491368*
X-19672524Y1084460D02*
X-19691320D01*
X-19681922D02*
Y1140340D01*
X-19691320D02*
X-19672524D01*
X-19616644Y1130942D02*
X-19625788Y1140340D01*
X-19644584*
X-19653728Y1130942*
Y1093858*
X-19644584Y1084460*
X-19625788*
X-19616644Y1093858*
X-19597594Y1121798D02*
X-19579052Y1140340D01*
Y1084460*
X-19597594D02*
X-19560510D01*
X-18287716Y1524642D02*
X-18296860Y1515498D01*
Y1496702*
X-18287716Y1487558*
X-18250378*
X-18240980Y1496702*
Y1515498*
X-18250378Y1524642*
X-18287716Y1543438D02*
X-18296860Y1552836D01*
Y1571632*
X-18287716Y1580776*
X-18278318*
X-18268920Y1571632*
Y1562234*
Y1571632D02*
X-18259776Y1580776D01*
X-18250378*
X-18240980Y1571632*
Y1552836*
X-18250378Y1543438*
X-18803336Y1737748D02*
X-18812734Y1747146D01*
X-18831530*
X-18840674Y1737748*
Y1700664*
X-18831530Y1691266*
X-18812734*
X-18803336Y1700664*
X-18747202Y1747146D02*
X-18765998Y1737748D01*
X-18784540Y1719206*
Y1700664*
X-18775396Y1691266*
X-18756600*
X-18747202Y1700664*
Y1709808*
X-18756600Y1719206*
X-18784540*
X-18372552Y638436D02*
X-18381696Y647834D01*
X-18400492*
X-18409890Y638436*
Y601098*
X-18400492Y591954*
X-18381696*
X-18372552Y601098*
X-18316418Y647834D02*
X-18353756D01*
Y619894*
X-18334960Y629038*
X-18325562*
X-18316418Y619894*
Y601098*
X-18325562Y591954*
X-18344358*
X-18353756Y601098*
X-19531808Y336684D02*
X-19541206Y327286D01*
Y308744*
X-19531808Y299346*
X-19494470*
X-19541206Y383420D02*
X-19513012Y355480D01*
Y392818*
X-18981136Y1737748D02*
X-18990534Y1747146D01*
X-19009330*
X-19018474Y1737748*
Y1700664*
X-19009330Y1691266*
X-18990534*
X-18981136Y1700664*
X-18962340Y1747146D02*
X-18925002D01*
Y1737748*
X-18962340Y1700664*
Y1691266*
X-19331656Y336684D02*
X-19340800Y327286D01*
Y308744*
X-19331656Y299346*
X-19294318*
X-19284920Y308744*
Y327286*
X-19294318Y336684*
X-19331656Y355480D02*
X-19340800Y364878D01*
Y383420*
X-19331656Y392818*
X-19322258*
X-19312860Y383420*
X-19303716Y392818*
X-19294318*
X-19284920Y383420*
Y364878*
X-19294318Y355480*
X-19303716*
X-19312860Y364878*
X-19322258Y355480*
X-19331656*
X-19312860Y364878D02*
Y383420D01*
X-18838896Y321444D02*
X-18848040Y312046D01*
Y293504*
X-18838896Y284106*
X-18801558*
X-18792160Y293504*
Y312046*
X-18801558Y321444*
Y340240D02*
X-18792160Y349638D01*
Y368180*
X-18801558Y377578*
X-18838896*
X-18848040Y368180*
Y349638*
X-18838896Y340240*
X-18829498*
X-18820100Y349638*
Y377578*
X-18304734Y1691266D02*
Y1747146D01*
X-18276794*
X-18267396Y1737748*
Y1719206*
X-18276794Y1709808*
X-18304734*
X-18286192D02*
X-18267396Y1691266D01*
X-18248600Y1728604D02*
X-18230058Y1747146D01*
Y1691266*
X-18248600D02*
X-18211262D01*
X-19757868Y1440822D02*
X-19776410D01*
X-19767012D02*
Y1496956D01*
X-19757868D02*
X-19776410D01*
X-19701734Y1487558D02*
X-19711132Y1496956D01*
X-19729674*
X-19739072Y1487558*
Y1450220*
X-19729674Y1440822*
X-19711132*
X-19701734Y1450220*
X-19645600Y1440822D02*
X-19682938D01*
X-19645600Y1478160*
Y1487558*
X-19654998Y1496956*
X-19673540*
X-19682938Y1487558*
X-18660334Y1691266D02*
Y1747146D01*
X-18632394*
X-18622996Y1737748*
Y1719206*
X-18632394Y1709808*
X-18660334*
X-18641792D02*
X-18622996Y1691266D01*
X-18604200Y1737748D02*
X-18595056Y1747146D01*
X-18576260*
X-18566862Y1737748*
Y1728604*
X-18576260Y1719206*
X-18585658*
X-18576260D02*
X-18566862Y1709808D01*
Y1700664*
X-18576260Y1691266*
X-18595056*
X-18604200Y1700664*
X-18482534Y1691266D02*
Y1747146D01*
X-18454594*
X-18445196Y1737748*
Y1719206*
X-18454594Y1709808*
X-18482534*
X-18463992D02*
X-18445196Y1691266D01*
X-18389062D02*
X-18426400D01*
X-18389062Y1728604*
Y1737748*
X-18398460Y1747146*
X-18417256*
X-18426400Y1737748*
X-19183574Y1691266D02*
Y1747146D01*
X-19155634*
X-19146236Y1737748*
Y1719206*
X-19155634Y1709808*
X-19183574*
X-19165032D02*
X-19146236Y1691266D01*
X-19099500D02*
Y1747146D01*
X-19127440Y1719206*
X-19090102*
X-19374074Y1691266D02*
Y1747146D01*
X-19346134*
X-19336736Y1737748*
Y1719206*
X-19346134Y1709808*
X-19374074*
X-19355532D02*
X-19336736Y1691266D01*
X-19280602Y1747146D02*
X-19317940D01*
Y1719206*
X-19299398Y1728604*
X-19290000*
X-19280602Y1719206*
Y1700664*
X-19290000Y1691266*
X-19308796*
X-19317940Y1700664*
D11*
X-19160460Y639706D02*
Y601606D01*
X-18477200D02*
X-18439100D01*
X-18522920Y1277246D02*
X-18484820Y1239146D01*
X-19160460Y1284866D02*
Y1322966D01*
Y601606D02*
X-19122360D01*
X-18439100D02*
Y639706D01*
X-19122360Y1322966D02*
X-19160460D01*
X-19719006Y1173106D02*
X-20064954D01*
Y548266D02*
X-19719006D01*
Y1173106*
X-20064954D02*
Y548266D01*
X-20087306Y1999114D02*
X-19812986D01*
X-20087306Y1501274D02*
X-19980626D01*
X-19919666*
X-19812986*
X-19919666D02*
X-19920174Y1506608D01*
X-19921444Y1511688*
X-19923730Y1516514*
X-19926778Y1520832*
X-19930588Y1524642*
X-19934906Y1527690*
X-19939732Y1529976*
X-19944812Y1531246*
X-19950146Y1531754*
X-19955480Y1531246*
X-19960560Y1529976*
X-19965386Y1527690*
X-19969704Y1524642*
X-19973514Y1520832*
X-19976562Y1516514*
X-19978848Y1511688*
X-19980118Y1506608*
X-19980626Y1501274*
D19*
X-17681418Y902088D02*
X-17883856D01*
Y939426*
X-17681418Y1376814D02*
X-17883856D01*
Y1339476*
X-17484060Y1239400D02*
Y1039502D01*
X-17681418Y293250D02*
X-17883856D01*
Y330334*
X-17681418Y767722D02*
X-17883856D01*
Y730384*
X-17484060Y630562D02*
Y430410D01*
X-17681418Y1526420D02*
X-17883856D01*
Y1563758*
X-17681418Y2201044D02*
X-17883856D01*
Y2163706*
X-17484060Y2063630D02*
Y1663834D01*
D10*
X-18054290Y927996D02*
X-18148524D01*
Y974986*
X-18132776Y990734*
X-18101280*
X-18085786Y974986*
Y927996*
X-18148524Y1068458D02*
Y1037216D01*
X-18132776Y1021468*
X-18070038*
X-18054290Y1037216*
Y1068458*
X-18070038Y1084206*
X-18132776*
X-18148524Y1068458*
X-18054290Y1114940D02*
X-18148524D01*
Y1162184*
X-18132776Y1177678*
X-18101280*
X-18085786Y1162184*
Y1114940*
Y1146436D02*
X-18054290Y1177678D01*
Y1239908D02*
X-18148524D01*
Y1208666D02*
Y1271404D01*
X-18117028Y1302138D02*
X-18148524Y1333634D01*
X-18054290*
Y1364876D02*
Y1302138D01*
Y318396D02*
X-18148524D01*
Y365386*
X-18132776Y381134*
X-18101280*
X-18085786Y365386*
Y318396*
X-18148524Y458858D02*
Y427616D01*
X-18132776Y411868*
X-18070038*
X-18054290Y427616*
Y458858*
X-18070038Y474606*
X-18132776*
X-18148524Y458858*
X-18054290Y505340D02*
X-18148524D01*
Y552584*
X-18132776Y568078*
X-18101280*
X-18085786Y552584*
Y505340*
Y536836D02*
X-18054290Y568078D01*
Y630308D02*
X-18148524D01*
Y599066D02*
Y661804D01*
X-18054290Y755276D02*
Y692538D01*
X-18117028Y755276*
X-18132776*
X-18148524Y739528*
Y708286*
X-18132776Y692538*
X-18148524Y1663834D02*
Y1601096D01*
X-18054290*
Y1663834*
X-18101280Y1632338D02*
Y1601096D01*
X-18148524Y1694568D02*
X-18054290Y1757306D01*
Y1694568D02*
X-18148524Y1757306D01*
Y1819536D02*
X-18054290D01*
X-18148524Y1850778D02*
Y1788040D01*
Y1944504D02*
Y1881766D01*
X-18054290*
Y1944504*
X-18101280Y1913008D02*
Y1881766D01*
X-18054290Y1975238D02*
X-18148524D01*
X-18054290Y2037976*
X-18148524*
X-18132776Y2131448D02*
X-18148524Y2115954D01*
Y2084458*
X-18132776Y2068710*
X-18117028*
X-18101280Y2084458*
Y2115954*
X-18085786Y2131448*
X-18070038*
X-18054290Y2115954*
Y2084458*
X-18070038Y2068710*
X-18054290Y2162436D02*
X-18070038D01*
Y2177930*
X-18054290*
Y2162436*
X-19472626Y1457586D02*
X-19449004D01*
X-19306256D02*
X-19282634D01*
X-19283929Y1455706D02*
X-19306256D01*
X-19449004D02*
X-19471331D01*
Y1456291D02*
X-19449004D01*
X-19306256D02*
X-19283929D01*
Y1446054D02*
X-19306256D01*
X-19449004D02*
X-19471331D01*
Y1448467D02*
X-19449004D01*
X-19306256D02*
X-19283929D01*
Y1450880D02*
X-19306256D01*
X-19449004D02*
X-19471331D01*
Y1453293D02*
X-19449004D01*
X-19306256D02*
X-19283929D01*
D11*
X-18439100Y1284866D02*
Y1291902D01*
X-18445653Y1322966D02*
X-18477200D01*
D10*
X-19494470Y299346D02*
X-19486545Y307271D01*
Y328759D02*
X-19494470Y336684D01*
X-19486545Y383420D02*
X-19541206D01*
X-19472626Y1445216D02*
Y1457586D01*
X-19471331Y1445216D02*
Y1456291D01*
X-19282634Y1457586D02*
Y1445216D01*
X-19283929Y1456291D02*
Y1445216D01*
X-16894932Y2135258D02*
Y2213236D01*
X-16856070Y2252352*
X-16816954Y2213236*
Y2135258*
Y2193678D02*
X-16894932D01*
X-16778092Y2135258D02*
Y2213236D01*
X-16719672*
X-16700114Y2193678*
Y2135258*
X-16660998Y2213236D02*
Y2154816D01*
X-16641694Y2135258*
X-16583020*
Y2213236D02*
Y2115954D01*
X-16602578Y2096396*
X-16622136*
X-16466180Y2232794D02*
X-16485738Y2252352D01*
X-16524600*
X-16544158Y2232794*
Y2213236*
X-16524600Y2193678*
X-16485738*
X-16466180Y2174374*
Y2154816*
X-16485738Y2135258*
X-16524600*
X-16544158Y2154816*
X-16368644Y2135258D02*
X-16407760D01*
X-16427318Y2154816*
Y2193678*
X-16407760Y2213236*
X-16368644*
X-16349340Y2193678*
Y2174374*
X-16427318*
X-16310224Y2135258D02*
Y2213236D01*
X-16251804*
X-16232246Y2193678*
Y2135258*
X-16193384D02*
X-16134964D01*
X-16115406Y2154816*
X-16134964Y2174374*
X-16173826*
X-16193384Y2193678*
X-16173826Y2213236*
X-16115406*
X-16017870Y2135258D02*
X-16056986D01*
X-16076290Y2154816*
Y2193678*
X-16056986Y2213236*
X-16017870*
X-15998312Y2193678*
Y2174374*
X-16076290*
X-15842610Y2252352D02*
Y2174374D01*
X-15803494Y2135258*
X-15764632Y2174374*
Y2252352*
X-15725516Y2213236D02*
X-15686654Y2252352D01*
Y2135258*
X-15725516D02*
X-15647538D01*
X-15608676D02*
Y2154816D01*
X-15589118*
Y2135258*
X-15608676*
X-15550256Y2213236D02*
X-15511140Y2252352D01*
Y2135258*
X-15472278D02*
X-15550256D01*
X-17068160Y397898D02*
X-17077558Y388754D01*
Y369958*
X-17068160Y360814*
X-17030822*
X-17021678Y369958*
Y388754*
X-17030822Y397898*
X-17058762Y416948D02*
X-17077558Y435490D01*
X-17021678*
Y416948D02*
Y454032D01*
X-16906108Y1459110D02*
X-16915252Y1468508D01*
X-16934048*
X-16943192Y1459110*
Y1422026*
X-16934048Y1412628*
X-16915252*
X-16906108Y1422026*
X-16849974Y1412628D02*
X-16887058D01*
X-16849974Y1449966*
Y1459110*
X-16859118Y1468508*
X-16877914*
X-16887058Y1459110*
X-15612994Y1481970D02*
X-15594452D01*
X-15603596D02*
Y1537850D01*
X-15594452D02*
X-15612994D01*
X-15538318Y1528452D02*
X-15547716Y1537850D01*
X-15566258*
X-15575656Y1528452*
Y1491368*
X-15566258Y1481970*
X-15547716*
X-15538318Y1491368*
X-15519522Y1528452D02*
X-15510124Y1537850D01*
X-15491582*
X-15482184Y1528452*
Y1519308*
X-15491582Y1509910*
X-15500726*
X-15491582D02*
X-15482184Y1500512D01*
Y1491368*
X-15491582Y1481970*
X-15510124*
X-15519522Y1491368*
X-16472530Y1084460D02*
X-16491326D01*
X-16481928D02*
Y1140340D01*
X-16491326D02*
X-16472530D01*
X-16416650Y1130942D02*
X-16425794Y1140340D01*
X-16444590*
X-16453734Y1130942*
Y1093858*
X-16444590Y1084460*
X-16425794*
X-16416650Y1093858*
X-16397600Y1121798D02*
X-16379058Y1140340D01*
Y1084460*
X-16397600D02*
X-16360516D01*
X-15087722Y1524642D02*
X-15096866Y1515498D01*
Y1496702*
X-15087722Y1487558*
X-15050384*
X-15040986Y1496702*
Y1515498*
X-15050384Y1524642*
X-15087722Y1543438D02*
X-15096866Y1552836D01*
Y1571632*
X-15087722Y1580776*
X-15078324*
X-15068926Y1571632*
Y1562234*
Y1571632D02*
X-15059782Y1580776D01*
X-15050384*
X-15040986Y1571632*
Y1552836*
X-15050384Y1543438*
X-15603342Y1737748D02*
X-15612740Y1747146D01*
X-15631536*
X-15640680Y1737748*
Y1700664*
X-15631536Y1691266*
X-15612740*
X-15603342Y1700664*
X-15547208Y1747146D02*
X-15566004Y1737748D01*
X-15584546Y1719206*
Y1700664*
X-15575402Y1691266*
X-15556606*
X-15547208Y1700664*
Y1709808*
X-15556606Y1719206*
X-15584546*
X-15172558Y638436D02*
X-15181702Y647834D01*
X-15200498*
X-15209896Y638436*
Y601098*
X-15200498Y591954*
X-15181702*
X-15172558Y601098*
X-15116424Y647834D02*
X-15153762D01*
Y619894*
X-15134966Y629038*
X-15125568*
X-15116424Y619894*
Y601098*
X-15125568Y591954*
X-15144364*
X-15153762Y601098*
X-16331814Y336684D02*
X-16341212Y327286D01*
Y308744*
X-16331814Y299346*
X-16294476*
X-16341212Y383420D02*
X-16313018Y355480D01*
Y392818*
X-15781142Y1737748D02*
X-15790540Y1747146D01*
X-15809336*
X-15818480Y1737748*
Y1700664*
X-15809336Y1691266*
X-15790540*
X-15781142Y1700664*
X-15762346Y1747146D02*
X-15725008D01*
Y1737748*
X-15762346Y1700664*
Y1691266*
X-16131662Y336684D02*
X-16140806Y327286D01*
Y308744*
X-16131662Y299346*
X-16094324*
X-16084926Y308744*
Y327286*
X-16094324Y336684*
X-16131662Y355480D02*
X-16140806Y364878D01*
Y383420*
X-16131662Y392818*
X-16122264*
X-16112866Y383420*
X-16103722Y392818*
X-16094324*
X-16084926Y383420*
Y364878*
X-16094324Y355480*
X-16103722*
X-16112866Y364878*
X-16122264Y355480*
X-16131662*
X-16112866Y364878D02*
Y383420D01*
X-15638902Y321444D02*
X-15648046Y312046D01*
Y293504*
X-15638902Y284106*
X-15601564*
X-15592166Y293504*
Y312046*
X-15601564Y321444*
Y340240D02*
X-15592166Y349638D01*
Y368180*
X-15601564Y377578*
X-15638902*
X-15648046Y368180*
Y349638*
X-15638902Y340240*
X-15629504*
X-15620106Y349638*
Y377578*
X-15104740Y1691266D02*
Y1747146D01*
X-15076800*
X-15067402Y1737748*
Y1719206*
X-15076800Y1709808*
X-15104740*
X-15086198D02*
X-15067402Y1691266D01*
X-15048606Y1728604D02*
X-15030064Y1747146D01*
Y1691266*
X-15048606D02*
X-15011268D01*
X-16557874Y1440822D02*
X-16576416D01*
X-16567018D02*
Y1496956D01*
X-16557874D02*
X-16576416D01*
X-16501740Y1487558D02*
X-16511138Y1496956D01*
X-16529680*
X-16539078Y1487558*
Y1450220*
X-16529680Y1440822*
X-16511138*
X-16501740Y1450220*
X-16445606Y1440822D02*
X-16482944D01*
X-16445606Y1478160*
Y1487558*
X-16455004Y1496956*
X-16473546*
X-16482944Y1487558*
X-15460340Y1691266D02*
Y1747146D01*
X-15432400*
X-15423002Y1737748*
Y1719206*
X-15432400Y1709808*
X-15460340*
X-15441798D02*
X-15423002Y1691266D01*
X-15404206Y1737748D02*
X-15395062Y1747146D01*
X-15376266*
X-15366868Y1737748*
Y1728604*
X-15376266Y1719206*
X-15385664*
X-15376266D02*
X-15366868Y1709808D01*
Y1700664*
X-15376266Y1691266*
X-15395062*
X-15404206Y1700664*
X-15282540Y1691266D02*
Y1747146D01*
X-15254600*
X-15245202Y1737748*
Y1719206*
X-15254600Y1709808*
X-15282540*
X-15263998D02*
X-15245202Y1691266D01*
X-15189068D02*
X-15226406D01*
X-15189068Y1728604*
Y1737748*
X-15198466Y1747146*
X-15217262*
X-15226406Y1737748*
X-15983580Y1691266D02*
Y1747146D01*
X-15955640*
X-15946242Y1737748*
Y1719206*
X-15955640Y1709808*
X-15983580*
X-15965038D02*
X-15946242Y1691266D01*
X-15899506D02*
Y1747146D01*
X-15927446Y1719206*
X-15890108*
X-16174080Y1691266D02*
Y1747146D01*
X-16146140*
X-16136742Y1737748*
Y1719206*
X-16146140Y1709808*
X-16174080*
X-16155538D02*
X-16136742Y1691266D01*
X-16080608Y1747146D02*
X-16117946D01*
Y1719206*
X-16099404Y1728604*
X-16090006*
X-16080608Y1719206*
Y1700664*
X-16090006Y1691266*
X-16108802*
X-16117946Y1700664*
D11*
X-15960466Y639706D02*
Y601606D01*
X-15277206D02*
X-15239106D01*
X-15322926Y1277246D02*
X-15284826Y1239146D01*
X-15960466Y1284866D02*
Y1322966D01*
Y601606D02*
X-15922366D01*
X-15239106D02*
Y639706D01*
X-15922366Y1322966D02*
X-15960466D01*
X-16519012Y1173106D02*
X-16864960D01*
Y548266D02*
X-16519012D01*
Y1173106*
X-16864960D02*
Y548266D01*
X-16887312Y1999114D02*
X-16612992D01*
X-16887312Y1501274D02*
X-16780632D01*
X-16719672*
X-16612992*
X-16719672D02*
X-16720180Y1506608D01*
X-16721450Y1511688*
X-16723736Y1516514*
X-16726784Y1520832*
X-16730594Y1524642*
X-16734912Y1527690*
X-16739738Y1529976*
X-16744818Y1531246*
X-16750152Y1531754*
X-16755486Y1531246*
X-16760566Y1529976*
X-16765392Y1527690*
X-16769710Y1524642*
X-16773520Y1520832*
X-16776568Y1516514*
X-16778854Y1511688*
X-16780124Y1506608*
X-16780632Y1501274*
D19*
X-14481424Y902088D02*
X-14683862D01*
Y939426*
X-14481424Y1376814D02*
X-14683862D01*
Y1339476*
X-14284066Y1239400D02*
Y1039502D01*
X-14481424Y293250D02*
X-14683862D01*
Y330334*
X-14481424Y767722D02*
X-14683862D01*
Y730384*
X-14284066Y630562D02*
Y430410D01*
X-14481424Y1526420D02*
X-14683862D01*
Y1563758*
X-14481424Y2201044D02*
X-14683862D01*
Y2163706*
X-14284066Y2063630D02*
Y1663834D01*
D10*
X-14854296Y927996D02*
X-14948530D01*
Y974986*
X-14932782Y990734*
X-14901286*
X-14885792Y974986*
Y927996*
X-14948530Y1068458D02*
Y1037216D01*
X-14932782Y1021468*
X-14870044*
X-14854296Y1037216*
Y1068458*
X-14870044Y1084206*
X-14932782*
X-14948530Y1068458*
X-14854296Y1114940D02*
X-14948530D01*
Y1162184*
X-14932782Y1177678*
X-14901286*
X-14885792Y1162184*
Y1114940*
Y1146436D02*
X-14854296Y1177678D01*
Y1239908D02*
X-14948530D01*
Y1208666D02*
Y1271404D01*
X-14917034Y1302138D02*
X-14948530Y1333634D01*
X-14854296*
Y1364876D02*
Y1302138D01*
Y318396D02*
X-14948530D01*
Y365386*
X-14932782Y381134*
X-14901286*
X-14885792Y365386*
Y318396*
X-14948530Y458858D02*
Y427616D01*
X-14932782Y411868*
X-14870044*
X-14854296Y427616*
Y458858*
X-14870044Y474606*
X-14932782*
X-14948530Y458858*
X-14854296Y505340D02*
X-14948530D01*
Y552584*
X-14932782Y568078*
X-14901286*
X-14885792Y552584*
Y505340*
Y536836D02*
X-14854296Y568078D01*
Y630308D02*
X-14948530D01*
Y599066D02*
Y661804D01*
X-14854296Y755276D02*
Y692538D01*
X-14917034Y755276*
X-14932782*
X-14948530Y739528*
Y708286*
X-14932782Y692538*
X-14948530Y1663834D02*
Y1601096D01*
X-14854296*
Y1663834*
X-14901286Y1632338D02*
Y1601096D01*
X-14948530Y1694568D02*
X-14854296Y1757306D01*
Y1694568D02*
X-14948530Y1757306D01*
Y1819536D02*
X-14854296D01*
X-14948530Y1850778D02*
Y1788040D01*
Y1944504D02*
Y1881766D01*
X-14854296*
Y1944504*
X-14901286Y1913008D02*
Y1881766D01*
X-14854296Y1975238D02*
X-14948530D01*
X-14854296Y2037976*
X-14948530*
X-14932782Y2131448D02*
X-14948530Y2115954D01*
Y2084458*
X-14932782Y2068710*
X-14917034*
X-14901286Y2084458*
Y2115954*
X-14885792Y2131448*
X-14870044*
X-14854296Y2115954*
Y2084458*
X-14870044Y2068710*
X-14854296Y2162436D02*
X-14870044D01*
Y2177930*
X-14854296*
Y2162436*
X-16272632Y1457586D02*
X-16249010D01*
X-16106262D02*
X-16082640D01*
X-16083935Y1455706D02*
X-16106262D01*
X-16249010D02*
X-16271337D01*
Y1456291D02*
X-16249010D01*
X-16106262D02*
X-16083935D01*
Y1446054D02*
X-16106262D01*
X-16249010D02*
X-16271337D01*
Y1448467D02*
X-16249010D01*
X-16106262D02*
X-16083935D01*
Y1450880D02*
X-16106262D01*
X-16249010D02*
X-16271337D01*
Y1453293D02*
X-16249010D01*
X-16106262D02*
X-16083935D01*
D11*
X-15239106Y1284866D02*
Y1291902D01*
X-15245659Y1322966D02*
X-15277206D01*
D10*
X-16294476Y299346D02*
X-16286551Y307271D01*
Y328759D02*
X-16294476Y336684D01*
X-16286551Y383420D02*
X-16341212D01*
X-16272632Y1445216D02*
Y1457586D01*
X-16271337Y1445216D02*
Y1456291D01*
X-16082640Y1457586D02*
Y1445216D01*
X-16083935Y1456291D02*
Y1445216D01*
X-13694938Y2135258D02*
Y2213236D01*
X-13656076Y2252352*
X-13616960Y2213236*
Y2135258*
Y2193678D02*
X-13694938D01*
X-13578098Y2135258D02*
Y2213236D01*
X-13519678*
X-13500120Y2193678*
Y2135258*
X-13461004Y2213236D02*
Y2154816D01*
X-13441700Y2135258*
X-13383026*
Y2213236D02*
Y2115954D01*
X-13402584Y2096396*
X-13422142*
X-13266186Y2232794D02*
X-13285744Y2252352D01*
X-13324606*
X-13344164Y2232794*
Y2213236*
X-13324606Y2193678*
X-13285744*
X-13266186Y2174374*
Y2154816*
X-13285744Y2135258*
X-13324606*
X-13344164Y2154816*
X-13168650Y2135258D02*
X-13207766D01*
X-13227324Y2154816*
Y2193678*
X-13207766Y2213236*
X-13168650*
X-13149346Y2193678*
Y2174374*
X-13227324*
X-13110230Y2135258D02*
Y2213236D01*
X-13051810*
X-13032252Y2193678*
Y2135258*
X-12993390D02*
X-12934970D01*
X-12915412Y2154816*
X-12934970Y2174374*
X-12973832*
X-12993390Y2193678*
X-12973832Y2213236*
X-12915412*
X-12817876Y2135258D02*
X-12856992D01*
X-12876296Y2154816*
Y2193678*
X-12856992Y2213236*
X-12817876*
X-12798318Y2193678*
Y2174374*
X-12876296*
X-12642616Y2252352D02*
Y2174374D01*
X-12603500Y2135258*
X-12564638Y2174374*
Y2252352*
X-12525522Y2213236D02*
X-12486660Y2252352D01*
Y2135258*
X-12525522D02*
X-12447544D01*
X-12408682D02*
Y2154816D01*
X-12389124*
Y2135258*
X-12408682*
X-12350262Y2213236D02*
X-12311146Y2252352D01*
Y2135258*
X-12272284D02*
X-12350262D01*
X-13868166Y397898D02*
X-13877564Y388754D01*
Y369958*
X-13868166Y360814*
X-13830828*
X-13821684Y369958*
Y388754*
X-13830828Y397898*
X-13858768Y416948D02*
X-13877564Y435490D01*
X-13821684*
Y416948D02*
Y454032D01*
X-13706114Y1459110D02*
X-13715258Y1468508D01*
X-13734054*
X-13743198Y1459110*
Y1422026*
X-13734054Y1412628*
X-13715258*
X-13706114Y1422026*
X-13649980Y1412628D02*
X-13687064D01*
X-13649980Y1449966*
Y1459110*
X-13659124Y1468508*
X-13677920*
X-13687064Y1459110*
X-12413000Y1481970D02*
X-12394458D01*
X-12403602D02*
Y1537850D01*
X-12394458D02*
X-12413000D01*
X-12338324Y1528452D02*
X-12347722Y1537850D01*
X-12366264*
X-12375662Y1528452*
Y1491368*
X-12366264Y1481970*
X-12347722*
X-12338324Y1491368*
X-12319528Y1528452D02*
X-12310130Y1537850D01*
X-12291588*
X-12282190Y1528452*
Y1519308*
X-12291588Y1509910*
X-12300732*
X-12291588D02*
X-12282190Y1500512D01*
Y1491368*
X-12291588Y1481970*
X-12310130*
X-12319528Y1491368*
X-13272536Y1084460D02*
X-13291332D01*
X-13281934D02*
Y1140340D01*
X-13291332D02*
X-13272536D01*
X-13216656Y1130942D02*
X-13225800Y1140340D01*
X-13244596*
X-13253740Y1130942*
Y1093858*
X-13244596Y1084460*
X-13225800*
X-13216656Y1093858*
X-13197606Y1121798D02*
X-13179064Y1140340D01*
Y1084460*
X-13197606D02*
X-13160522D01*
X-11887728Y1524642D02*
X-11896872Y1515498D01*
Y1496702*
X-11887728Y1487558*
X-11850390*
X-11840992Y1496702*
Y1515498*
X-11850390Y1524642*
X-11887728Y1543438D02*
X-11896872Y1552836D01*
Y1571632*
X-11887728Y1580776*
X-11878330*
X-11868932Y1571632*
Y1562234*
Y1571632D02*
X-11859788Y1580776D01*
X-11850390*
X-11840992Y1571632*
Y1552836*
X-11850390Y1543438*
X-12403348Y1737748D02*
X-12412746Y1747146D01*
X-12431542*
X-12440686Y1737748*
Y1700664*
X-12431542Y1691266*
X-12412746*
X-12403348Y1700664*
X-12347214Y1747146D02*
X-12366010Y1737748D01*
X-12384552Y1719206*
Y1700664*
X-12375408Y1691266*
X-12356612*
X-12347214Y1700664*
Y1709808*
X-12356612Y1719206*
X-12384552*
X-11972564Y638436D02*
X-11981708Y647834D01*
X-12000504*
X-12009902Y638436*
Y601098*
X-12000504Y591954*
X-11981708*
X-11972564Y601098*
X-11916430Y647834D02*
X-11953768D01*
Y619894*
X-11934972Y629038*
X-11925574*
X-11916430Y619894*
Y601098*
X-11925574Y591954*
X-11944370*
X-11953768Y601098*
X-13131820Y336684D02*
X-13141218Y327286D01*
Y308744*
X-13131820Y299346*
X-13094482*
X-13141218Y383420D02*
X-13113024Y355480D01*
Y392818*
X-12581148Y1737748D02*
X-12590546Y1747146D01*
X-12609342*
X-12618486Y1737748*
Y1700664*
X-12609342Y1691266*
X-12590546*
X-12581148Y1700664*
X-12562352Y1747146D02*
X-12525014D01*
Y1737748*
X-12562352Y1700664*
Y1691266*
X-12931668Y336684D02*
X-12940812Y327286D01*
Y308744*
X-12931668Y299346*
X-12894330*
X-12884932Y308744*
Y327286*
X-12894330Y336684*
X-12931668Y355480D02*
X-12940812Y364878D01*
Y383420*
X-12931668Y392818*
X-12922270*
X-12912872Y383420*
X-12903728Y392818*
X-12894330*
X-12884932Y383420*
Y364878*
X-12894330Y355480*
X-12903728*
X-12912872Y364878*
X-12922270Y355480*
X-12931668*
X-12912872Y364878D02*
Y383420D01*
X-12438908Y321444D02*
X-12448052Y312046D01*
Y293504*
X-12438908Y284106*
X-12401570*
X-12392172Y293504*
Y312046*
X-12401570Y321444*
Y340240D02*
X-12392172Y349638D01*
Y368180*
X-12401570Y377578*
X-12438908*
X-12448052Y368180*
Y349638*
X-12438908Y340240*
X-12429510*
X-12420112Y349638*
Y377578*
X-11904746Y1691266D02*
Y1747146D01*
X-11876806*
X-11867408Y1737748*
Y1719206*
X-11876806Y1709808*
X-11904746*
X-11886204D02*
X-11867408Y1691266D01*
X-11848612Y1728604D02*
X-11830070Y1747146D01*
Y1691266*
X-11848612D02*
X-11811274D01*
X-13357880Y1440822D02*
X-13376422D01*
X-13367024D02*
Y1496956D01*
X-13357880D02*
X-13376422D01*
X-13301746Y1487558D02*
X-13311144Y1496956D01*
X-13329686*
X-13339084Y1487558*
Y1450220*
X-13329686Y1440822*
X-13311144*
X-13301746Y1450220*
X-13245612Y1440822D02*
X-13282950D01*
X-13245612Y1478160*
Y1487558*
X-13255010Y1496956*
X-13273552*
X-13282950Y1487558*
X-12260346Y1691266D02*
Y1747146D01*
X-12232406*
X-12223008Y1737748*
Y1719206*
X-12232406Y1709808*
X-12260346*
X-12241804D02*
X-12223008Y1691266D01*
X-12204212Y1737748D02*
X-12195068Y1747146D01*
X-12176272*
X-12166874Y1737748*
Y1728604*
X-12176272Y1719206*
X-12185670*
X-12176272D02*
X-12166874Y1709808D01*
Y1700664*
X-12176272Y1691266*
X-12195068*
X-12204212Y1700664*
X-12082546Y1691266D02*
Y1747146D01*
X-12054606*
X-12045208Y1737748*
Y1719206*
X-12054606Y1709808*
X-12082546*
X-12064004D02*
X-12045208Y1691266D01*
X-11989074D02*
X-12026412D01*
X-11989074Y1728604*
Y1737748*
X-11998472Y1747146*
X-12017268*
X-12026412Y1737748*
X-12783586Y1691266D02*
Y1747146D01*
X-12755646*
X-12746248Y1737748*
Y1719206*
X-12755646Y1709808*
X-12783586*
X-12765044D02*
X-12746248Y1691266D01*
X-12699512D02*
Y1747146D01*
X-12727452Y1719206*
X-12690114*
X-12974086Y1691266D02*
Y1747146D01*
X-12946146*
X-12936748Y1737748*
Y1719206*
X-12946146Y1709808*
X-12974086*
X-12955544D02*
X-12936748Y1691266D01*
X-12880614Y1747146D02*
X-12917952D01*
Y1719206*
X-12899410Y1728604*
X-12890012*
X-12880614Y1719206*
Y1700664*
X-12890012Y1691266*
X-12908808*
X-12917952Y1700664*
D11*
X-12760472Y639706D02*
Y601606D01*
X-12077212D02*
X-12039112D01*
X-12122932Y1277246D02*
X-12084832Y1239146D01*
X-12760472Y1284866D02*
Y1322966D01*
Y601606D02*
X-12722372D01*
X-12039112D02*
Y639706D01*
X-12722372Y1322966D02*
X-12760472D01*
X-13319018Y1173106D02*
X-13664966D01*
Y548266D02*
X-13319018D01*
Y1173106*
X-13664966D02*
Y548266D01*
X-13687318Y1999114D02*
X-13412998D01*
X-13687318Y1501274D02*
X-13580638D01*
X-13519678*
X-13412998*
X-13519678D02*
X-13520186Y1506608D01*
X-13521456Y1511688*
X-13523742Y1516514*
X-13526790Y1520832*
X-13530600Y1524642*
X-13534918Y1527690*
X-13539744Y1529976*
X-13544824Y1531246*
X-13550158Y1531754*
X-13555492Y1531246*
X-13560572Y1529976*
X-13565398Y1527690*
X-13569716Y1524642*
X-13573526Y1520832*
X-13576574Y1516514*
X-13578860Y1511688*
X-13580130Y1506608*
X-13580638Y1501274*
D19*
X-11281430Y902088D02*
X-11483868D01*
Y939426*
X-11281430Y1376814D02*
X-11483868D01*
Y1339476*
X-11084072Y1239400D02*
Y1039502D01*
X-11281430Y293250D02*
X-11483868D01*
Y330334*
X-11281430Y767722D02*
X-11483868D01*
Y730384*
X-11084072Y630562D02*
Y430410D01*
X-11281430Y1526420D02*
X-11483868D01*
Y1563758*
X-11281430Y2201044D02*
X-11483868D01*
Y2163706*
X-11084072Y2063630D02*
Y1663834D01*
D10*
X-11654302Y927996D02*
X-11748536D01*
Y974986*
X-11732788Y990734*
X-11701292*
X-11685798Y974986*
Y927996*
X-11748536Y1068458D02*
Y1037216D01*
X-11732788Y1021468*
X-11670050*
X-11654302Y1037216*
Y1068458*
X-11670050Y1084206*
X-11732788*
X-11748536Y1068458*
X-11654302Y1114940D02*
X-11748536D01*
Y1162184*
X-11732788Y1177678*
X-11701292*
X-11685798Y1162184*
Y1114940*
Y1146436D02*
X-11654302Y1177678D01*
Y1239908D02*
X-11748536D01*
Y1208666D02*
Y1271404D01*
X-11717040Y1302138D02*
X-11748536Y1333634D01*
X-11654302*
Y1364876D02*
Y1302138D01*
Y318396D02*
X-11748536D01*
Y365386*
X-11732788Y381134*
X-11701292*
X-11685798Y365386*
Y318396*
X-11748536Y458858D02*
Y427616D01*
X-11732788Y411868*
X-11670050*
X-11654302Y427616*
Y458858*
X-11670050Y474606*
X-11732788*
X-11748536Y458858*
X-11654302Y505340D02*
X-11748536D01*
Y552584*
X-11732788Y568078*
X-11701292*
X-11685798Y552584*
Y505340*
Y536836D02*
X-11654302Y568078D01*
Y630308D02*
X-11748536D01*
Y599066D02*
Y661804D01*
X-11654302Y755276D02*
Y692538D01*
X-11717040Y755276*
X-11732788*
X-11748536Y739528*
Y708286*
X-11732788Y692538*
X-11748536Y1663834D02*
Y1601096D01*
X-11654302*
Y1663834*
X-11701292Y1632338D02*
Y1601096D01*
X-11748536Y1694568D02*
X-11654302Y1757306D01*
Y1694568D02*
X-11748536Y1757306D01*
Y1819536D02*
X-11654302D01*
X-11748536Y1850778D02*
Y1788040D01*
Y1944504D02*
Y1881766D01*
X-11654302*
Y1944504*
X-11701292Y1913008D02*
Y1881766D01*
X-11654302Y1975238D02*
X-11748536D01*
X-11654302Y2037976*
X-11748536*
X-11732788Y2131448D02*
X-11748536Y2115954D01*
Y2084458*
X-11732788Y2068710*
X-11717040*
X-11701292Y2084458*
Y2115954*
X-11685798Y2131448*
X-11670050*
X-11654302Y2115954*
Y2084458*
X-11670050Y2068710*
X-11654302Y2162436D02*
X-11670050D01*
Y2177930*
X-11654302*
Y2162436*
X-13072638Y1457586D02*
X-13049016D01*
X-12906268D02*
X-12882646D01*
X-12883941Y1455706D02*
X-12906268D01*
X-13049016D02*
X-13071343D01*
Y1456291D02*
X-13049016D01*
X-12906268D02*
X-12883941D01*
Y1446054D02*
X-12906268D01*
X-13049016D02*
X-13071343D01*
Y1448467D02*
X-13049016D01*
X-12906268D02*
X-12883941D01*
Y1450880D02*
X-12906268D01*
X-13049016D02*
X-13071343D01*
Y1453293D02*
X-13049016D01*
X-12906268D02*
X-12883941D01*
D11*
X-12039112Y1284866D02*
Y1291902D01*
X-12045665Y1322966D02*
X-12077212D01*
D10*
X-13094482Y299346D02*
X-13086557Y307271D01*
Y328759D02*
X-13094482Y336684D01*
X-13086557Y383420D02*
X-13141218D01*
X-13072638Y1445216D02*
Y1457586D01*
X-13071343Y1445216D02*
Y1456291D01*
X-12882646Y1457586D02*
Y1445216D01*
X-12883941Y1456291D02*
Y1445216D01*
M02*
