G04 Filename: X:\Z_AXEL\PASTENDATEN\80625\TOPPASTE.GBX *
G04 Creator: GC-CAM (TM) 4.1.4  Mon May 11 08:48:55 2015 *
G04 This file contains layer(s): *
G04 Layer 1: X:\Z_Axel\Pastendaten\80625\uniadapter.gtp *
%FSLAX35Y35*%
G04 Units: mm   *
%MOMM*%
G71*
%SFA1.00000B1.00000*%
%OFA0.00000B0.00000*%
G75*
%AD*%
G04 D10 (position 1 of UNTITLED):0.000000 Round     *
%ADD10C,0.000000*%
G04 D901 (position 2 of UNTITLED):1.998980X1.198880 Rectangle *
%ADD901R,1.998980X1.198880*%
G04 D902 (position 3 of UNTITLED):0.279400X1.473200 Rectangle *
%ADD902R,0.279400X1.473200*%
G04 D13 (position 4 of UNTITLED):1.473200X0.279400 Rectangle *
%ADD13R,1.473200X0.279400*%
G04 D14 (position 5 of UNTITLED):2.006600X1.498600 Rectangle *
%ADD14R,2.006600X1.498600*%
G04 D15 (position 6 of UNTITLED):2.006600X3.810000 Rectangle *
%ADD15R,2.006600X3.810000*%
G04 D16 (position 7 of UNTITLED):1.000760X1.099820 Rectangle *
%ADD16R,1.000760X1.099820*%
G04 D17 (position 8 of UNTITLED):1.099820X1.000760 Rectangle *
%ADD17R,1.099820X1.000760*%
G04 D903 (position 9 of UNTITLED):1.981200X0.558800 Rectangle *
%ADD903R,1.981200X0.558800*%
G04 D904 (position 10 of UNTITLED):1.549400X0.599440 Rectangle *
%ADD904R,1.549400X0.599440*%
G04 D905 (position 11 of UNTITLED):1.800860X1.198880 Rectangle *
%ADD905R,1.800860X1.198880*%
G04 D906 (position 12 of UNTITLED):0.800100 Square    *
%ADD906R,0.800100X0.800100*%
G04 D44 (position 29 of UNTITLED):1.999996 Round     *
%ADD44C,1.999996*%
G04 D45 (position 30 of UNTITLED):1.999996 Square    *
%ADD45R,1.999996X1.999996*%
G04 D48 (position 31 of UNTITLED):0.070002 Round     *
%ADD48C,0.070002*%
%IPPOS*%
G04 Layer 1: X:\Z_Axel\Pastendaten\80625\uniadapter.gtp *
%LN(01)X:\Z_Axel\Pastendaten\80625\uniadapter.gtp*%
%LPD*%
X0Y0D02*
D10*
X1388110Y1391158D02*
X4388104D01*
Y3491230*
X1388110*
Y1391158*
X4588110D02*
X7588104D01*
Y3491230*
X4588110*
Y1391158*
X7788110D02*
X10788104D01*
Y3491230*
X7788110*
Y1391158*
Y3691158D02*
X10788104D01*
Y5791230*
X7788110*
Y3691158*
X4588110D02*
X7588104D01*
Y5791230*
X4588110*
Y3691158*
X1388110D02*
X4388104D01*
Y5791230*
X1388110*
Y3691158*
Y5991158D02*
X4388104D01*
Y8091230*
X1388110*
Y5991158*
X4588110D02*
X7588104D01*
Y8091230*
X4588110*
Y5991158*
X7788110D02*
X10788104D01*
Y8091230*
X7788110*
Y5991158*
Y8291158D02*
X10788104D01*
Y10391230*
X7788110*
Y8291158*
X4588110D02*
X7588104D01*
Y10391230*
X4588110*
Y8291158*
X1388110D02*
X4388104D01*
Y10391230*
X1388110*
Y8291158*
Y10591158D02*
X4388104D01*
Y12691230*
X1388110*
Y10591158*
X4588110D02*
X7588104D01*
Y12691230*
X4588110*
Y10591158*
X7788110D02*
X10788104D01*
Y12691230*
X7788110*
Y10591158*
D48*
X388112Y391160D02*
Y13691514D01*
X11788089*
Y391160*
X388112*
X11788089Y13691514D02*
Y391160D01*
X388112*
Y13691514*
X11788089*
D901*
X1697990Y1591056D03*
X1978152D03*
X1745742Y2508758D03*
X2025650D03*
D902*
X3262630Y2574798D03*
X3214370D03*
X3163570D03*
X3112770D03*
X3064510D03*
X3013710D03*
X2962910D03*
X2912110D03*
X2863850D03*
X2813050D03*
X2762250D03*
X2713990D03*
Y1731518D03*
X2762250D03*
X2813050D03*
X2863850D03*
X2912110D03*
X2962910D03*
X3013710D03*
X3064510D03*
X3112770D03*
X3163570D03*
X3214370D03*
X3262630D03*
D13*
X2566670Y2427478D03*
Y2379218D03*
Y2328418D03*
Y2277618D03*
Y2229358D03*
Y2178558D03*
Y2127758D03*
Y2076958D03*
Y2028698D03*
Y1977898D03*
Y1927098D03*
Y1878838D03*
X3409950D03*
Y1927098D03*
Y1977898D03*
Y2028698D03*
Y2076958D03*
Y2127758D03*
Y2178558D03*
Y2229358D03*
Y2277618D03*
Y2328418D03*
Y2379218D03*
Y2427478D03*
D14*
X1581150Y2277618D03*
Y2049018D03*
Y1820418D03*
D15*
X2211070Y2051558D03*
D16*
X3417570Y2562860D03*
Y2732786D03*
X3001010Y3020568D03*
Y3190748D03*
X3409950Y1521968D03*
Y1692148D03*
X2374138Y1704848D03*
Y1534668D03*
X2823210Y3020568D03*
Y3190748D03*
X2577338Y1704848D03*
Y1534668D03*
D17*
X3250946Y1518158D03*
X3081020D03*
X3536950Y3020568D03*
Y3190748D03*
X3181350D03*
Y3020568D03*
X3359150Y3190748D03*
Y3020568D03*
X2645410D03*
Y3190748D03*
X2467610Y3020568D03*
Y3190748D03*
D903*
X2084324Y2750566D03*
Y2877566D03*
Y3004566D03*
Y3131566D03*
X1591564D03*
Y3004566D03*
Y2877566D03*
Y2750566D03*
D904*
X3859022Y2230374D03*
Y2330450D03*
Y2430272D03*
Y1621282D03*
Y1721358D03*
Y1821434D03*
Y2854706D03*
Y2954528D03*
Y3054604D03*
Y3154680D03*
Y3254502D03*
D905*
X4246626Y2100326D03*
Y2560320D03*
Y1491234D03*
Y1951228D03*
Y2724658D03*
Y3384550D03*
D906*
X2327910Y2573528D03*
Y2723388D03*
X2493010Y2573528D03*
Y2723388D03*
D901*
X4897990Y1591056D03*
X5178152D03*
X4945742Y2508758D03*
X5225650D03*
D902*
X6462630Y2574798D03*
X6414370D03*
X6363570D03*
X6312770D03*
X6264510D03*
X6213710D03*
X6162910D03*
X6112110D03*
X6063850D03*
X6013050D03*
X5962250D03*
X5913990D03*
Y1731518D03*
X5962250D03*
X6013050D03*
X6063850D03*
X6112110D03*
X6162910D03*
X6213710D03*
X6264510D03*
X6312770D03*
X6363570D03*
X6414370D03*
X6462630D03*
D13*
X5766670Y2427478D03*
Y2379218D03*
Y2328418D03*
Y2277618D03*
Y2229358D03*
Y2178558D03*
Y2127758D03*
Y2076958D03*
Y2028698D03*
Y1977898D03*
Y1927098D03*
Y1878838D03*
X6609950D03*
Y1927098D03*
Y1977898D03*
Y2028698D03*
Y2076958D03*
Y2127758D03*
Y2178558D03*
Y2229358D03*
Y2277618D03*
Y2328418D03*
Y2379218D03*
Y2427478D03*
D14*
X4781150Y2277618D03*
Y2049018D03*
Y1820418D03*
D15*
X5411070Y2051558D03*
D16*
X6617570Y2562860D03*
Y2732786D03*
X6201010Y3020568D03*
Y3190748D03*
X6609950Y1521968D03*
Y1692148D03*
X5574138Y1704848D03*
Y1534668D03*
X6023210Y3020568D03*
Y3190748D03*
X5777338Y1704848D03*
Y1534668D03*
D17*
X6450946Y1518158D03*
X6281020D03*
X6736950Y3020568D03*
Y3190748D03*
X6381350D03*
Y3020568D03*
X6559150Y3190748D03*
Y3020568D03*
X5845410D03*
Y3190748D03*
X5667610Y3020568D03*
Y3190748D03*
D903*
X5284324Y2750566D03*
Y2877566D03*
Y3004566D03*
Y3131566D03*
X4791564D03*
Y3004566D03*
Y2877566D03*
Y2750566D03*
D904*
X7059022Y2230374D03*
Y2330450D03*
Y2430272D03*
Y1621282D03*
Y1721358D03*
Y1821434D03*
Y2854706D03*
Y2954528D03*
Y3054604D03*
Y3154680D03*
Y3254502D03*
D905*
X7446626Y2100326D03*
Y2560320D03*
Y1491234D03*
Y1951228D03*
Y2724658D03*
Y3384550D03*
D906*
X5527910Y2573528D03*
Y2723388D03*
X5693010Y2573528D03*
Y2723388D03*
D901*
X8097990Y1591056D03*
X8378152D03*
X8145742Y2508758D03*
X8425650D03*
D902*
X9662630Y2574798D03*
X9614370D03*
X9563570D03*
X9512770D03*
X9464510D03*
X9413710D03*
X9362910D03*
X9312110D03*
X9263850D03*
X9213050D03*
X9162250D03*
X9113990D03*
Y1731518D03*
X9162250D03*
X9213050D03*
X9263850D03*
X9312110D03*
X9362910D03*
X9413710D03*
X9464510D03*
X9512770D03*
X9563570D03*
X9614370D03*
X9662630D03*
D13*
X8966670Y2427478D03*
Y2379218D03*
Y2328418D03*
Y2277618D03*
Y2229358D03*
Y2178558D03*
Y2127758D03*
Y2076958D03*
Y2028698D03*
Y1977898D03*
Y1927098D03*
Y1878838D03*
X9809950D03*
Y1927098D03*
Y1977898D03*
Y2028698D03*
Y2076958D03*
Y2127758D03*
Y2178558D03*
Y2229358D03*
Y2277618D03*
Y2328418D03*
Y2379218D03*
Y2427478D03*
D14*
X7981150Y2277618D03*
Y2049018D03*
Y1820418D03*
D15*
X8611070Y2051558D03*
D16*
X9817570Y2562860D03*
Y2732786D03*
X9401010Y3020568D03*
Y3190748D03*
X9809950Y1521968D03*
Y1692148D03*
X8774138Y1704848D03*
Y1534668D03*
X9223210Y3020568D03*
Y3190748D03*
X8977338Y1704848D03*
Y1534668D03*
D17*
X9650946Y1518158D03*
X9481020D03*
X9936950Y3020568D03*
Y3190748D03*
X9581350D03*
Y3020568D03*
X9759150Y3190748D03*
Y3020568D03*
X9045410D03*
Y3190748D03*
X8867610Y3020568D03*
Y3190748D03*
D903*
X8484324Y2750566D03*
Y2877566D03*
Y3004566D03*
Y3131566D03*
X7991564D03*
Y3004566D03*
Y2877566D03*
Y2750566D03*
D904*
X10259022Y2230374D03*
Y2330450D03*
Y2430272D03*
Y1621282D03*
Y1721358D03*
Y1821434D03*
Y2854706D03*
Y2954528D03*
Y3054604D03*
Y3154680D03*
Y3254502D03*
D905*
X10646626Y2100326D03*
Y2560320D03*
Y1491234D03*
Y1951228D03*
Y2724658D03*
Y3384550D03*
D906*
X8727910Y2573528D03*
Y2723388D03*
X8893010Y2573528D03*
Y2723388D03*
D901*
X8097990Y3891056D03*
X8378152D03*
X8145742Y4808758D03*
X8425650D03*
D902*
X9662630Y4874798D03*
X9614370D03*
X9563570D03*
X9512770D03*
X9464510D03*
X9413710D03*
X9362910D03*
X9312110D03*
X9263850D03*
X9213050D03*
X9162250D03*
X9113990D03*
Y4031518D03*
X9162250D03*
X9213050D03*
X9263850D03*
X9312110D03*
X9362910D03*
X9413710D03*
X9464510D03*
X9512770D03*
X9563570D03*
X9614370D03*
X9662630D03*
D13*
X8966670Y4727478D03*
Y4679218D03*
Y4628418D03*
Y4577618D03*
Y4529358D03*
Y4478558D03*
Y4427758D03*
Y4376958D03*
Y4328698D03*
Y4277898D03*
Y4227098D03*
Y4178838D03*
X9809950D03*
Y4227098D03*
Y4277898D03*
Y4328698D03*
Y4376958D03*
Y4427758D03*
Y4478558D03*
Y4529358D03*
Y4577618D03*
Y4628418D03*
Y4679218D03*
Y4727478D03*
D14*
X7981150Y4577618D03*
Y4349018D03*
Y4120418D03*
D15*
X8611070Y4351558D03*
D16*
X9817570Y4862860D03*
Y5032786D03*
X9401010Y5320568D03*
Y5490748D03*
X9809950Y3821968D03*
Y3992148D03*
X8774138Y4004848D03*
Y3834668D03*
X9223210Y5320568D03*
Y5490748D03*
X8977338Y4004848D03*
Y3834668D03*
D17*
X9650946Y3818158D03*
X9481020D03*
X9936950Y5320568D03*
Y5490748D03*
X9581350D03*
Y5320568D03*
X9759150Y5490748D03*
Y5320568D03*
X9045410D03*
Y5490748D03*
X8867610Y5320568D03*
Y5490748D03*
D903*
X8484324Y5050566D03*
Y5177566D03*
Y5304566D03*
Y5431566D03*
X7991564D03*
Y5304566D03*
Y5177566D03*
Y5050566D03*
D904*
X10259022Y4530374D03*
Y4630450D03*
Y4730272D03*
Y3921282D03*
Y4021358D03*
Y4121434D03*
Y5154706D03*
Y5254528D03*
Y5354604D03*
Y5454680D03*
Y5554502D03*
D905*
X10646626Y4400326D03*
Y4860320D03*
Y3791234D03*
Y4251228D03*
Y5024658D03*
Y5684550D03*
D906*
X8727910Y4873528D03*
Y5023388D03*
X8893010Y4873528D03*
Y5023388D03*
D901*
X4897990Y3891056D03*
X5178152D03*
X4945742Y4808758D03*
X5225650D03*
D902*
X6462630Y4874798D03*
X6414370D03*
X6363570D03*
X6312770D03*
X6264510D03*
X6213710D03*
X6162910D03*
X6112110D03*
X6063850D03*
X6013050D03*
X5962250D03*
X5913990D03*
Y4031518D03*
X5962250D03*
X6013050D03*
X6063850D03*
X6112110D03*
X6162910D03*
X6213710D03*
X6264510D03*
X6312770D03*
X6363570D03*
X6414370D03*
X6462630D03*
D13*
X5766670Y4727478D03*
Y4679218D03*
Y4628418D03*
Y4577618D03*
Y4529358D03*
Y4478558D03*
Y4427758D03*
Y4376958D03*
Y4328698D03*
Y4277898D03*
Y4227098D03*
Y4178838D03*
X6609950D03*
Y4227098D03*
Y4277898D03*
Y4328698D03*
Y4376958D03*
Y4427758D03*
Y4478558D03*
Y4529358D03*
Y4577618D03*
Y4628418D03*
Y4679218D03*
Y4727478D03*
D14*
X4781150Y4577618D03*
Y4349018D03*
Y4120418D03*
D15*
X5411070Y4351558D03*
D16*
X6617570Y4862860D03*
Y5032786D03*
X6201010Y5320568D03*
Y5490748D03*
X6609950Y3821968D03*
Y3992148D03*
X5574138Y4004848D03*
Y3834668D03*
X6023210Y5320568D03*
Y5490748D03*
X5777338Y4004848D03*
Y3834668D03*
D17*
X6450946Y3818158D03*
X6281020D03*
X6736950Y5320568D03*
Y5490748D03*
X6381350D03*
Y5320568D03*
X6559150Y5490748D03*
Y5320568D03*
X5845410D03*
Y5490748D03*
X5667610Y5320568D03*
Y5490748D03*
D903*
X5284324Y5050566D03*
Y5177566D03*
Y5304566D03*
Y5431566D03*
X4791564D03*
Y5304566D03*
Y5177566D03*
Y5050566D03*
D904*
X7059022Y4530374D03*
Y4630450D03*
Y4730272D03*
Y3921282D03*
Y4021358D03*
Y4121434D03*
Y5154706D03*
Y5254528D03*
Y5354604D03*
Y5454680D03*
Y5554502D03*
D905*
X7446626Y4400326D03*
Y4860320D03*
Y3791234D03*
Y4251228D03*
Y5024658D03*
Y5684550D03*
D906*
X5527910Y4873528D03*
Y5023388D03*
X5693010Y4873528D03*
Y5023388D03*
D901*
X1697990Y3891056D03*
X1978152D03*
X1745742Y4808758D03*
X2025650D03*
D902*
X3262630Y4874798D03*
X3214370D03*
X3163570D03*
X3112770D03*
X3064510D03*
X3013710D03*
X2962910D03*
X2912110D03*
X2863850D03*
X2813050D03*
X2762250D03*
X2713990D03*
Y4031518D03*
X2762250D03*
X2813050D03*
X2863850D03*
X2912110D03*
X2962910D03*
X3013710D03*
X3064510D03*
X3112770D03*
X3163570D03*
X3214370D03*
X3262630D03*
D13*
X2566670Y4727478D03*
Y4679218D03*
Y4628418D03*
Y4577618D03*
Y4529358D03*
Y4478558D03*
Y4427758D03*
Y4376958D03*
Y4328698D03*
Y4277898D03*
Y4227098D03*
Y4178838D03*
X3409950D03*
Y4227098D03*
Y4277898D03*
Y4328698D03*
Y4376958D03*
Y4427758D03*
Y4478558D03*
Y4529358D03*
Y4577618D03*
Y4628418D03*
Y4679218D03*
Y4727478D03*
D14*
X1581150Y4577618D03*
Y4349018D03*
Y4120418D03*
D15*
X2211070Y4351558D03*
D16*
X3417570Y4862860D03*
Y5032786D03*
X3001010Y5320568D03*
Y5490748D03*
X3409950Y3821968D03*
Y3992148D03*
X2374138Y4004848D03*
Y3834668D03*
X2823210Y5320568D03*
Y5490748D03*
X2577338Y4004848D03*
Y3834668D03*
D17*
X3250946Y3818158D03*
X3081020D03*
X3536950Y5320568D03*
Y5490748D03*
X3181350D03*
Y5320568D03*
X3359150Y5490748D03*
Y5320568D03*
X2645410D03*
Y5490748D03*
X2467610Y5320568D03*
Y5490748D03*
D903*
X2084324Y5050566D03*
Y5177566D03*
Y5304566D03*
Y5431566D03*
X1591564D03*
Y5304566D03*
Y5177566D03*
Y5050566D03*
D904*
X3859022Y4530374D03*
Y4630450D03*
Y4730272D03*
Y3921282D03*
Y4021358D03*
Y4121434D03*
Y5154706D03*
Y5254528D03*
Y5354604D03*
Y5454680D03*
Y5554502D03*
D905*
X4246626Y4400326D03*
Y4860320D03*
Y3791234D03*
Y4251228D03*
Y5024658D03*
Y5684550D03*
D906*
X2327910Y4873528D03*
Y5023388D03*
X2493010Y4873528D03*
Y5023388D03*
D901*
X1697990Y6191056D03*
X1978152D03*
X1745742Y7108758D03*
X2025650D03*
D902*
X3262630Y7174798D03*
X3214370D03*
X3163570D03*
X3112770D03*
X3064510D03*
X3013710D03*
X2962910D03*
X2912110D03*
X2863850D03*
X2813050D03*
X2762250D03*
X2713990D03*
Y6331518D03*
X2762250D03*
X2813050D03*
X2863850D03*
X2912110D03*
X2962910D03*
X3013710D03*
X3064510D03*
X3112770D03*
X3163570D03*
X3214370D03*
X3262630D03*
D13*
X2566670Y7027478D03*
Y6979218D03*
Y6928418D03*
Y6877618D03*
Y6829358D03*
Y6778558D03*
Y6727758D03*
Y6676958D03*
Y6628698D03*
Y6577898D03*
Y6527098D03*
Y6478838D03*
X3409950D03*
Y6527098D03*
Y6577898D03*
Y6628698D03*
Y6676958D03*
Y6727758D03*
Y6778558D03*
Y6829358D03*
Y6877618D03*
Y6928418D03*
Y6979218D03*
Y7027478D03*
D14*
X1581150Y6877618D03*
Y6649018D03*
Y6420418D03*
D15*
X2211070Y6651558D03*
D16*
X3417570Y7162860D03*
Y7332786D03*
X3001010Y7620568D03*
Y7790748D03*
X3409950Y6121968D03*
Y6292148D03*
X2374138Y6304848D03*
Y6134668D03*
X2823210Y7620568D03*
Y7790748D03*
X2577338Y6304848D03*
Y6134668D03*
D17*
X3250946Y6118158D03*
X3081020D03*
X3536950Y7620568D03*
Y7790748D03*
X3181350D03*
Y7620568D03*
X3359150Y7790748D03*
Y7620568D03*
X2645410D03*
Y7790748D03*
X2467610Y7620568D03*
Y7790748D03*
D903*
X2084324Y7350566D03*
Y7477566D03*
Y7604566D03*
Y7731566D03*
X1591564D03*
Y7604566D03*
Y7477566D03*
Y7350566D03*
D904*
X3859022Y6830374D03*
Y6930450D03*
Y7030272D03*
Y6221282D03*
Y6321358D03*
Y6421434D03*
Y7454706D03*
Y7554528D03*
Y7654604D03*
Y7754680D03*
Y7854502D03*
D905*
X4246626Y6700326D03*
Y7160320D03*
Y6091234D03*
Y6551228D03*
Y7324658D03*
Y7984550D03*
D906*
X2327910Y7173528D03*
Y7323388D03*
X2493010Y7173528D03*
Y7323388D03*
D901*
X4897990Y6191056D03*
X5178152D03*
X4945742Y7108758D03*
X5225650D03*
D902*
X6462630Y7174798D03*
X6414370D03*
X6363570D03*
X6312770D03*
X6264510D03*
X6213710D03*
X6162910D03*
X6112110D03*
X6063850D03*
X6013050D03*
X5962250D03*
X5913990D03*
Y6331518D03*
X5962250D03*
X6013050D03*
X6063850D03*
X6112110D03*
X6162910D03*
X6213710D03*
X6264510D03*
X6312770D03*
X6363570D03*
X6414370D03*
X6462630D03*
D13*
X5766670Y7027478D03*
Y6979218D03*
Y6928418D03*
Y6877618D03*
Y6829358D03*
Y6778558D03*
Y6727758D03*
Y6676958D03*
Y6628698D03*
Y6577898D03*
Y6527098D03*
Y6478838D03*
X6609950D03*
Y6527098D03*
Y6577898D03*
Y6628698D03*
Y6676958D03*
Y6727758D03*
Y6778558D03*
Y6829358D03*
Y6877618D03*
Y6928418D03*
Y6979218D03*
Y7027478D03*
D14*
X4781150Y6877618D03*
Y6649018D03*
Y6420418D03*
D15*
X5411070Y6651558D03*
D16*
X6617570Y7162860D03*
Y7332786D03*
X6201010Y7620568D03*
Y7790748D03*
X6609950Y6121968D03*
Y6292148D03*
X5574138Y6304848D03*
Y6134668D03*
X6023210Y7620568D03*
Y7790748D03*
X5777338Y6304848D03*
Y6134668D03*
D17*
X6450946Y6118158D03*
X6281020D03*
X6736950Y7620568D03*
Y7790748D03*
X6381350D03*
Y7620568D03*
X6559150Y7790748D03*
Y7620568D03*
X5845410D03*
Y7790748D03*
X5667610Y7620568D03*
Y7790748D03*
D903*
X5284324Y7350566D03*
Y7477566D03*
Y7604566D03*
Y7731566D03*
X4791564D03*
Y7604566D03*
Y7477566D03*
Y7350566D03*
D904*
X7059022Y6830374D03*
Y6930450D03*
Y7030272D03*
Y6221282D03*
Y6321358D03*
Y6421434D03*
Y7454706D03*
Y7554528D03*
Y7654604D03*
Y7754680D03*
Y7854502D03*
D905*
X7446626Y6700326D03*
Y7160320D03*
Y6091234D03*
Y6551228D03*
Y7324658D03*
Y7984550D03*
D906*
X5527910Y7173528D03*
Y7323388D03*
X5693010Y7173528D03*
Y7323388D03*
D901*
X8097990Y6191056D03*
X8378152D03*
X8145742Y7108758D03*
X8425650D03*
D902*
X9662630Y7174798D03*
X9614370D03*
X9563570D03*
X9512770D03*
X9464510D03*
X9413710D03*
X9362910D03*
X9312110D03*
X9263850D03*
X9213050D03*
X9162250D03*
X9113990D03*
Y6331518D03*
X9162250D03*
X9213050D03*
X9263850D03*
X9312110D03*
X9362910D03*
X9413710D03*
X9464510D03*
X9512770D03*
X9563570D03*
X9614370D03*
X9662630D03*
D13*
X8966670Y7027478D03*
Y6979218D03*
Y6928418D03*
Y6877618D03*
Y6829358D03*
Y6778558D03*
Y6727758D03*
Y6676958D03*
Y6628698D03*
Y6577898D03*
Y6527098D03*
Y6478838D03*
X9809950D03*
Y6527098D03*
Y6577898D03*
Y6628698D03*
Y6676958D03*
Y6727758D03*
Y6778558D03*
Y6829358D03*
Y6877618D03*
Y6928418D03*
Y6979218D03*
Y7027478D03*
D14*
X7981150Y6877618D03*
Y6649018D03*
Y6420418D03*
D15*
X8611070Y6651558D03*
D16*
X9817570Y7162860D03*
Y7332786D03*
X9401010Y7620568D03*
Y7790748D03*
X9809950Y6121968D03*
Y6292148D03*
X8774138Y6304848D03*
Y6134668D03*
X9223210Y7620568D03*
Y7790748D03*
X8977338Y6304848D03*
Y6134668D03*
D17*
X9650946Y6118158D03*
X9481020D03*
X9936950Y7620568D03*
Y7790748D03*
X9581350D03*
Y7620568D03*
X9759150Y7790748D03*
Y7620568D03*
X9045410D03*
Y7790748D03*
X8867610Y7620568D03*
Y7790748D03*
D903*
X8484324Y7350566D03*
Y7477566D03*
Y7604566D03*
Y7731566D03*
X7991564D03*
Y7604566D03*
Y7477566D03*
Y7350566D03*
D904*
X10259022Y6830374D03*
Y6930450D03*
Y7030272D03*
Y6221282D03*
Y6321358D03*
Y6421434D03*
Y7454706D03*
Y7554528D03*
Y7654604D03*
Y7754680D03*
Y7854502D03*
D905*
X10646626Y6700326D03*
Y7160320D03*
Y6091234D03*
Y6551228D03*
Y7324658D03*
Y7984550D03*
D906*
X8727910Y7173528D03*
Y7323388D03*
X8893010Y7173528D03*
Y7323388D03*
D901*
X8097990Y8491056D03*
X8378152D03*
X8145742Y9408758D03*
X8425650D03*
D902*
X9662630Y9474798D03*
X9614370D03*
X9563570D03*
X9512770D03*
X9464510D03*
X9413710D03*
X9362910D03*
X9312110D03*
X9263850D03*
X9213050D03*
X9162250D03*
X9113990D03*
Y8631518D03*
X9162250D03*
X9213050D03*
X9263850D03*
X9312110D03*
X9362910D03*
X9413710D03*
X9464510D03*
X9512770D03*
X9563570D03*
X9614370D03*
X9662630D03*
D13*
X8966670Y9327478D03*
Y9279218D03*
Y9228418D03*
Y9177618D03*
Y9129358D03*
Y9078558D03*
Y9027758D03*
Y8976958D03*
Y8928698D03*
Y8877898D03*
Y8827098D03*
Y8778838D03*
X9809950D03*
Y8827098D03*
Y8877898D03*
Y8928698D03*
Y8976958D03*
Y9027758D03*
Y9078558D03*
Y9129358D03*
Y9177618D03*
Y9228418D03*
Y9279218D03*
Y9327478D03*
D14*
X7981150Y9177618D03*
Y8949018D03*
Y8720418D03*
D15*
X8611070Y8951558D03*
D16*
X9817570Y9462860D03*
Y9632786D03*
X9401010Y9920568D03*
Y10090748D03*
X9809950Y8421968D03*
Y8592148D03*
X8774138Y8604848D03*
Y8434668D03*
X9223210Y9920568D03*
Y10090748D03*
X8977338Y8604848D03*
Y8434668D03*
D17*
X9650946Y8418158D03*
X9481020D03*
X9936950Y9920568D03*
Y10090748D03*
X9581350D03*
Y9920568D03*
X9759150Y10090748D03*
Y9920568D03*
X9045410D03*
Y10090748D03*
X8867610Y9920568D03*
Y10090748D03*
D903*
X8484324Y9650566D03*
Y9777566D03*
Y9904566D03*
Y10031566D03*
X7991564D03*
Y9904566D03*
Y9777566D03*
Y9650566D03*
D904*
X10259022Y9130374D03*
Y9230450D03*
Y9330272D03*
Y8521282D03*
Y8621358D03*
Y8721434D03*
Y9754706D03*
Y9854528D03*
Y9954604D03*
Y10054680D03*
Y10154502D03*
D905*
X10646626Y9000326D03*
Y9460320D03*
Y8391234D03*
Y8851228D03*
Y9624658D03*
Y10284550D03*
D906*
X8727910Y9473528D03*
Y9623388D03*
X8893010Y9473528D03*
Y9623388D03*
D901*
X4897990Y8491056D03*
X5178152D03*
X4945742Y9408758D03*
X5225650D03*
D902*
X6462630Y9474798D03*
X6414370D03*
X6363570D03*
X6312770D03*
X6264510D03*
X6213710D03*
X6162910D03*
X6112110D03*
X6063850D03*
X6013050D03*
X5962250D03*
X5913990D03*
Y8631518D03*
X5962250D03*
X6013050D03*
X6063850D03*
X6112110D03*
X6162910D03*
X6213710D03*
X6264510D03*
X6312770D03*
X6363570D03*
X6414370D03*
X6462630D03*
D13*
X5766670Y9327478D03*
Y9279218D03*
Y9228418D03*
Y9177618D03*
Y9129358D03*
Y9078558D03*
Y9027758D03*
Y8976958D03*
Y8928698D03*
Y8877898D03*
Y8827098D03*
Y8778838D03*
X6609950D03*
Y8827098D03*
Y8877898D03*
Y8928698D03*
Y8976958D03*
Y9027758D03*
Y9078558D03*
Y9129358D03*
Y9177618D03*
Y9228418D03*
Y9279218D03*
Y9327478D03*
D14*
X4781150Y9177618D03*
Y8949018D03*
Y8720418D03*
D15*
X5411070Y8951558D03*
D16*
X6617570Y9462860D03*
Y9632786D03*
X6201010Y9920568D03*
Y10090748D03*
X6609950Y8421968D03*
Y8592148D03*
X5574138Y8604848D03*
Y8434668D03*
X6023210Y9920568D03*
Y10090748D03*
X5777338Y8604848D03*
Y8434668D03*
D17*
X6450946Y8418158D03*
X6281020D03*
X6736950Y9920568D03*
Y10090748D03*
X6381350D03*
Y9920568D03*
X6559150Y10090748D03*
Y9920568D03*
X5845410D03*
Y10090748D03*
X5667610Y9920568D03*
Y10090748D03*
D903*
X5284324Y9650566D03*
Y9777566D03*
Y9904566D03*
Y10031566D03*
X4791564D03*
Y9904566D03*
Y9777566D03*
Y9650566D03*
D904*
X7059022Y9130374D03*
Y9230450D03*
Y9330272D03*
Y8521282D03*
Y8621358D03*
Y8721434D03*
Y9754706D03*
Y9854528D03*
Y9954604D03*
Y10054680D03*
Y10154502D03*
D905*
X7446626Y9000326D03*
Y9460320D03*
Y8391234D03*
Y8851228D03*
Y9624658D03*
Y10284550D03*
D906*
X5527910Y9473528D03*
Y9623388D03*
X5693010Y9473528D03*
Y9623388D03*
D901*
X1697990Y8491056D03*
X1978152D03*
X1745742Y9408758D03*
X2025650D03*
D902*
X3262630Y9474798D03*
X3214370D03*
X3163570D03*
X3112770D03*
X3064510D03*
X3013710D03*
X2962910D03*
X2912110D03*
X2863850D03*
X2813050D03*
X2762250D03*
X2713990D03*
Y8631518D03*
X2762250D03*
X2813050D03*
X2863850D03*
X2912110D03*
X2962910D03*
X3013710D03*
X3064510D03*
X3112770D03*
X3163570D03*
X3214370D03*
X3262630D03*
D13*
X2566670Y9327478D03*
Y9279218D03*
Y9228418D03*
Y9177618D03*
Y9129358D03*
Y9078558D03*
Y9027758D03*
Y8976958D03*
Y8928698D03*
Y8877898D03*
Y8827098D03*
Y8778838D03*
X3409950D03*
Y8827098D03*
Y8877898D03*
Y8928698D03*
Y8976958D03*
Y9027758D03*
Y9078558D03*
Y9129358D03*
Y9177618D03*
Y9228418D03*
Y9279218D03*
Y9327478D03*
D14*
X1581150Y9177618D03*
Y8949018D03*
Y8720418D03*
D15*
X2211070Y8951558D03*
D16*
X3417570Y9462860D03*
Y9632786D03*
X3001010Y9920568D03*
Y10090748D03*
X3409950Y8421968D03*
Y8592148D03*
X2374138Y8604848D03*
Y8434668D03*
X2823210Y9920568D03*
Y10090748D03*
X2577338Y8604848D03*
Y8434668D03*
D17*
X3250946Y8418158D03*
X3081020D03*
X3536950Y9920568D03*
Y10090748D03*
X3181350D03*
Y9920568D03*
X3359150Y10090748D03*
Y9920568D03*
X2645410D03*
Y10090748D03*
X2467610Y9920568D03*
Y10090748D03*
D903*
X2084324Y9650566D03*
Y9777566D03*
Y9904566D03*
Y10031566D03*
X1591564D03*
Y9904566D03*
Y9777566D03*
Y9650566D03*
D904*
X3859022Y9130374D03*
Y9230450D03*
Y9330272D03*
Y8521282D03*
Y8621358D03*
Y8721434D03*
Y9754706D03*
Y9854528D03*
Y9954604D03*
Y10054680D03*
Y10154502D03*
D905*
X4246626Y9000326D03*
Y9460320D03*
Y8391234D03*
Y8851228D03*
Y9624658D03*
Y10284550D03*
D906*
X2327910Y9473528D03*
Y9623388D03*
X2493010Y9473528D03*
Y9623388D03*
D901*
X1697990Y10791056D03*
X1978152D03*
X1745742Y11708758D03*
X2025650D03*
D902*
X3262630Y11774798D03*
X3214370D03*
X3163570D03*
X3112770D03*
X3064510D03*
X3013710D03*
X2962910D03*
X2912110D03*
X2863850D03*
X2813050D03*
X2762250D03*
X2713990D03*
Y10931518D03*
X2762250D03*
X2813050D03*
X2863850D03*
X2912110D03*
X2962910D03*
X3013710D03*
X3064510D03*
X3112770D03*
X3163570D03*
X3214370D03*
X3262630D03*
D13*
X2566670Y11627478D03*
Y11579218D03*
Y11528418D03*
Y11477618D03*
Y11429358D03*
Y11378558D03*
Y11327758D03*
Y11276958D03*
Y11228698D03*
Y11177898D03*
Y11127098D03*
Y11078838D03*
X3409950D03*
Y11127098D03*
Y11177898D03*
Y11228698D03*
Y11276958D03*
Y11327758D03*
Y11378558D03*
Y11429358D03*
Y11477618D03*
Y11528418D03*
Y11579218D03*
Y11627478D03*
D14*
X1581150Y11477618D03*
Y11249018D03*
Y11020418D03*
D15*
X2211070Y11251558D03*
D16*
X3417570Y11762860D03*
Y11932786D03*
X3001010Y12220568D03*
Y12390748D03*
X3409950Y10721968D03*
Y10892148D03*
X2374138Y10904848D03*
Y10734668D03*
X2823210Y12220568D03*
Y12390748D03*
X2577338Y10904848D03*
Y10734668D03*
D17*
X3250946Y10718158D03*
X3081020D03*
X3536950Y12220568D03*
Y12390748D03*
X3181350D03*
Y12220568D03*
X3359150Y12390748D03*
Y12220568D03*
X2645410D03*
Y12390748D03*
X2467610Y12220568D03*
Y12390748D03*
D903*
X2084324Y11950566D03*
Y12077566D03*
Y12204566D03*
Y12331566D03*
X1591564D03*
Y12204566D03*
Y12077566D03*
Y11950566D03*
D904*
X3859022Y11430374D03*
Y11530450D03*
Y11630272D03*
Y10821282D03*
Y10921358D03*
Y11021434D03*
Y12054706D03*
Y12154528D03*
Y12254604D03*
Y12354680D03*
Y12454502D03*
D905*
X4246626Y11300326D03*
Y11760320D03*
Y10691234D03*
Y11151228D03*
Y11924658D03*
Y12584550D03*
D906*
X2327910Y11773528D03*
Y11923388D03*
X2493010Y11773528D03*
Y11923388D03*
D901*
X4897990Y10791056D03*
X5178152D03*
X4945742Y11708758D03*
X5225650D03*
D902*
X6462630Y11774798D03*
X6414370D03*
X6363570D03*
X6312770D03*
X6264510D03*
X6213710D03*
X6162910D03*
X6112110D03*
X6063850D03*
X6013050D03*
X5962250D03*
X5913990D03*
Y10931518D03*
X5962250D03*
X6013050D03*
X6063850D03*
X6112110D03*
X6162910D03*
X6213710D03*
X6264510D03*
X6312770D03*
X6363570D03*
X6414370D03*
X6462630D03*
D13*
X5766670Y11627478D03*
Y11579218D03*
Y11528418D03*
Y11477618D03*
Y11429358D03*
Y11378558D03*
Y11327758D03*
Y11276958D03*
Y11228698D03*
Y11177898D03*
Y11127098D03*
Y11078838D03*
X6609950D03*
Y11127098D03*
Y11177898D03*
Y11228698D03*
Y11276958D03*
Y11327758D03*
Y11378558D03*
Y11429358D03*
Y11477618D03*
Y11528418D03*
Y11579218D03*
Y11627478D03*
D14*
X4781150Y11477618D03*
Y11249018D03*
Y11020418D03*
D15*
X5411070Y11251558D03*
D16*
X6617570Y11762860D03*
Y11932786D03*
X6201010Y12220568D03*
Y12390748D03*
X6609950Y10721968D03*
Y10892148D03*
X5574138Y10904848D03*
Y10734668D03*
X6023210Y12220568D03*
Y12390748D03*
X5777338Y10904848D03*
Y10734668D03*
D17*
X6450946Y10718158D03*
X6281020D03*
X6736950Y12220568D03*
Y12390748D03*
X6381350D03*
Y12220568D03*
X6559150Y12390748D03*
Y12220568D03*
X5845410D03*
Y12390748D03*
X5667610Y12220568D03*
Y12390748D03*
D903*
X5284324Y11950566D03*
Y12077566D03*
Y12204566D03*
Y12331566D03*
X4791564D03*
Y12204566D03*
Y12077566D03*
Y11950566D03*
D904*
X7059022Y11430374D03*
Y11530450D03*
Y11630272D03*
Y10821282D03*
Y10921358D03*
Y11021434D03*
Y12054706D03*
Y12154528D03*
Y12254604D03*
Y12354680D03*
Y12454502D03*
D905*
X7446626Y11300326D03*
Y11760320D03*
Y10691234D03*
Y11151228D03*
Y11924658D03*
Y12584550D03*
D906*
X5527910Y11773528D03*
Y11923388D03*
X5693010Y11773528D03*
Y11923388D03*
D901*
X8097990Y10791056D03*
X8378152D03*
X8145742Y11708758D03*
X8425650D03*
D902*
X9662630Y11774798D03*
X9614370D03*
X9563570D03*
X9512770D03*
X9464510D03*
X9413710D03*
X9362910D03*
X9312110D03*
X9263850D03*
X9213050D03*
X9162250D03*
X9113990D03*
Y10931518D03*
X9162250D03*
X9213050D03*
X9263850D03*
X9312110D03*
X9362910D03*
X9413710D03*
X9464510D03*
X9512770D03*
X9563570D03*
X9614370D03*
X9662630D03*
D13*
X8966670Y11627478D03*
Y11579218D03*
Y11528418D03*
Y11477618D03*
Y11429358D03*
Y11378558D03*
Y11327758D03*
Y11276958D03*
Y11228698D03*
Y11177898D03*
Y11127098D03*
Y11078838D03*
X9809950D03*
Y11127098D03*
Y11177898D03*
Y11228698D03*
Y11276958D03*
Y11327758D03*
Y11378558D03*
Y11429358D03*
Y11477618D03*
Y11528418D03*
Y11579218D03*
Y11627478D03*
D14*
X7981150Y11477618D03*
Y11249018D03*
Y11020418D03*
D15*
X8611070Y11251558D03*
D16*
X9817570Y11762860D03*
Y11932786D03*
X9401010Y12220568D03*
Y12390748D03*
X9809950Y10721968D03*
Y10892148D03*
X8774138Y10904848D03*
Y10734668D03*
X9223210Y12220568D03*
Y12390748D03*
X8977338Y10904848D03*
Y10734668D03*
D17*
X9650946Y10718158D03*
X9481020D03*
X9936950Y12220568D03*
Y12390748D03*
X9581350D03*
Y12220568D03*
X9759150Y12390748D03*
Y12220568D03*
X9045410D03*
Y12390748D03*
X8867610Y12220568D03*
Y12390748D03*
D903*
X8484324Y11950566D03*
Y12077566D03*
Y12204566D03*
Y12331566D03*
X7991564D03*
Y12204566D03*
Y12077566D03*
Y11950566D03*
D904*
X10259022Y11430374D03*
Y11530450D03*
Y11630272D03*
Y10821282D03*
Y10921358D03*
Y11021434D03*
Y12054706D03*
Y12154528D03*
Y12254604D03*
Y12354680D03*
Y12454502D03*
D905*
X10646626Y11300326D03*
Y11760320D03*
Y10691234D03*
Y11151228D03*
Y11924658D03*
Y12584550D03*
D906*
X8727910Y11773528D03*
Y11923388D03*
X8893010Y11773528D03*
Y11923388D03*
D44*
X11288090Y13191515D03*
X888111D03*
D45*
Y891159D03*
M02*
